<?xml version="1.0" encoding="UTF-8" standalone="no"?>
<svg width="70px" height="19px" viewBox="0 0 70 19" version="1.1" xmlns="http://www.w3.org/2000/svg" xmlns:xlink="http://www.w3.org/1999/xlink">
    <!-- Generator: Sketch 3.8.3 (29802) - http://www.bohemiancoding.com/sketch -->
    <title>daat-logo</title>
    <desc>Created with Sketch.</desc>
    <defs>
        <filter x="-50%" y="-50%" width="200%" height="200%" filterUnits="objectBoundingBox" id="filter-1">
            <feOffset dx="1" dy="1" in="SourceAlpha" result="shadowOffsetOuter1"></feOffset>
            <feColorMatrix values="0 0 0 0 0.933333337   0 0 0 0 0.952941179   0 0 0 0 0.964705884  0 0 0 1 0" type="matrix" in="shadowOffsetOuter1" result="shadowMatrixOuter1"></feColorMatrix>
            <feMerge>
                <feMergeNode in="shadowMatrixOuter1"></feMergeNode>
                <feMergeNode in="SourceGraphic"></feMergeNode>
            </feMerge>
        </filter>
    </defs>
    <g id="Symbols" stroke="none" stroke-width="1" fill="none" fill-rule="evenodd">
        <g id="daat-logo" fill="#044261">
            <g id="logo_EN" filter="url(#filter-1)" transform="translate(2.000000, -13.000000)">
                <path d="M20.26,20.68 L20.26,16.18 L21.38,16.18 C21.7666686,16.18 22.0916654,16.2349995 22.355,16.345 C22.6183347,16.4550006 22.8299992,16.6133323 22.99,16.82 C23.1500008,17.0266677 23.2649997,17.2749985 23.335,17.565 C23.4050004,17.8550014 23.44,18.1799982 23.44,18.54 C23.44,18.9333353 23.3900005,19.2666653 23.29,19.54 C23.1899995,19.8133347 23.0566675,20.0349992 22.89,20.205 C22.7233325,20.3750008 22.5333344,20.4966663 22.32,20.57 C22.1066656,20.6433337 21.8866678,20.68 21.66,20.68 L20.26,20.68 Z M18.69,14.86 L18.69,22 L21.77,22 C22.3166694,22 22.7916647,21.9083342 23.195,21.725 C23.5983354,21.5416657 23.9349987,21.2900016 24.205,20.97 C24.4750014,20.6499984 24.676666,20.2700022 24.81,19.83 C24.943334,19.3899978 25.01,18.9100026 25.01,18.39 C25.01,17.7966637 24.9283342,17.2800022 24.765,16.84 C24.6016659,16.3999978 24.3750015,16.0333348 24.085,15.74 C23.7949986,15.4466652 23.4516687,15.2266674 23.055,15.08 C22.6583314,14.9333326 22.2300023,14.86 21.77,14.86 L18.69,14.86 Z M25.89,18.42 C25.9100001,18.086665 25.9933326,17.8100011 26.14,17.59 C26.2866674,17.3699989 26.4733322,17.193334 26.7,17.06 C26.9266678,16.926666 27.1816653,16.8316669 27.465,16.775 C27.7483348,16.718333 28.0333319,16.69 28.32,16.69 C28.5800013,16.69 28.843332,16.7083332 29.11,16.745 C29.376668,16.7816669 29.6199989,16.8533328 29.84,16.96 C30.0600011,17.0666672 30.2399993,17.2149991 30.38,17.405 C30.5200007,17.5950009 30.59,17.8466651 30.59,18.16 L30.59,20.85 C30.59,21.0833345 30.6033332,21.3066656 30.63,21.52 C30.6566668,21.7333344 30.703333,21.8933328 30.77,22 L29.33,22 C29.3033332,21.9199996 29.2816668,21.8383338 29.265,21.755 C29.2483333,21.6716663 29.2366667,21.5866671 29.23,21.5 C29.0033322,21.7333345 28.7366682,21.8966662 28.43,21.99 C28.1233318,22.0833338 27.8100016,22.13 27.49,22.13 C27.2433321,22.13 27.0133344,22.1000003 26.8,22.04 C26.5866656,21.9799997 26.4000008,21.8866673 26.24,21.76 C26.0799992,21.6333327 25.9550005,21.4733343 25.865,21.28 C25.7749996,21.0866657 25.73,20.856668 25.73,20.59 C25.73,20.2966652 25.7816662,20.055001 25.885,19.865 C25.9883339,19.6749991 26.1216659,19.5233339 26.285,19.41 C26.4483342,19.2966661 26.634999,19.211667 26.845,19.155 C27.0550011,19.0983331 27.2666656,19.0533335 27.48,19.02 C27.6933344,18.9866665 27.9033323,18.9600001 28.11,18.94 C28.3166677,18.9199999 28.4999992,18.8900002 28.66,18.85 C28.8200008,18.8099998 28.9466662,18.7516671 29.04,18.675 C29.1333338,18.5983329 29.1766667,18.4866674 29.17,18.34 C29.17,18.1866659 29.1450003,18.0650004 29.095,17.975 C29.0449998,17.8849995 28.9783338,17.8150003 28.895,17.765 C28.8116663,17.7149998 28.7150006,17.6816667 28.605,17.665 C28.4949995,17.6483333 28.3766673,17.64 28.25,17.64 C27.9699986,17.64 27.7500008,17.6999994 27.59,17.82 C27.4299992,17.9400006 27.3366668,18.1399986 27.31,18.42 L25.89,18.42 Z M29.17,19.47 C29.1099997,19.5233336 29.0350005,19.5649998 28.945,19.595 C28.8549996,19.6250001 28.7583339,19.6499999 28.655,19.67 C28.5516662,19.6900001 28.4433339,19.7066666 28.33,19.72 C28.2166661,19.7333334 28.1033339,19.7499999 27.99,19.77 C27.8833328,19.7900001 27.7783339,19.8166665 27.675,19.85 C27.5716662,19.8833335 27.4816671,19.928333 27.405,19.985 C27.328333,20.0416669 27.2666669,20.1133329 27.22,20.2 C27.1733331,20.2866671 27.15,20.396666 27.15,20.53 C27.15,20.6566673 27.1733331,20.7633329 27.22,20.85 C27.2666669,20.9366671 27.3299996,21.0049997 27.41,21.055 C27.4900004,21.1050002 27.5833328,21.1399999 27.69,21.16 C27.7966672,21.1800001 27.9066661,21.19 28.02,21.19 C28.3000014,21.19 28.5166659,21.1433338 28.67,21.05 C28.8233341,20.9566662 28.9366663,20.8450006 29.01,20.715 C29.0833337,20.5849994 29.1283333,20.453334 29.145,20.32 C29.1616668,20.186666 29.17,20.0800004 29.17,20 L29.17,19.47 Z M31.63,18.42 C31.6500001,18.086665 31.7333326,17.8100011 31.88,17.59 C32.0266674,17.3699989 32.2133322,17.193334 32.44,17.06 C32.6666678,16.926666 32.9216653,16.8316669 33.205,16.775 C33.4883348,16.718333 33.7733319,16.69 34.06,16.69 C34.3200013,16.69 34.583332,16.7083332 34.85,16.745 C35.116668,16.7816669 35.3599989,16.8533328 35.58,16.96 C35.8000011,17.0666672 35.9799993,17.2149991 36.12,17.405 C36.2600007,17.5950009 36.33,17.8466651 36.33,18.16 L36.33,20.85 C36.33,21.0833345 36.3433332,21.3066656 36.37,21.52 C36.3966668,21.7333344 36.443333,21.8933328 36.51,22 L35.07,22 C35.0433332,21.9199996 35.0216668,21.8383338 35.005,21.755 C34.9883333,21.6716663 34.9766667,21.5866671 34.97,21.5 C34.7433322,21.7333345 34.4766682,21.8966662 34.17,21.99 C33.8633318,22.0833338 33.5500016,22.13 33.23,22.13 C32.9833321,22.13 32.7533344,22.1000003 32.54,22.04 C32.3266656,21.9799997 32.1400008,21.8866673 31.98,21.76 C31.8199992,21.6333327 31.6950005,21.4733343 31.605,21.28 C31.5149996,21.0866657 31.47,20.856668 31.47,20.59 C31.47,20.2966652 31.5216662,20.055001 31.625,19.865 C31.7283339,19.6749991 31.8616659,19.5233339 32.025,19.41 C32.1883342,19.2966661 32.374999,19.211667 32.585,19.155 C32.7950011,19.0983331 33.0066656,19.0533335 33.22,19.02 C33.4333344,18.9866665 33.6433323,18.9600001 33.85,18.94 C34.0566677,18.9199999 34.2399992,18.8900002 34.4,18.85 C34.5600008,18.8099998 34.6866662,18.7516671 34.78,18.675 C34.8733338,18.5983329 34.9166667,18.4866674 34.91,18.34 C34.91,18.1866659 34.8850003,18.0650004 34.835,17.975 C34.7849998,17.8849995 34.7183338,17.8150003 34.635,17.765 C34.5516663,17.7149998 34.4550006,17.6816667 34.345,17.665 C34.2349995,17.6483333 34.1166673,17.64 33.99,17.64 C33.7099986,17.64 33.4900008,17.6999994 33.33,17.82 C33.1699992,17.9400006 33.0766668,18.1399986 33.05,18.42 L31.63,18.42 Z M34.91,19.47 C34.8499997,19.5233336 34.7750005,19.5649998 34.685,19.595 C34.5949996,19.6250001 34.4983339,19.6499999 34.395,19.67 C34.2916662,19.6900001 34.1833339,19.7066666 34.07,19.72 C33.9566661,19.7333334 33.8433339,19.7499999 33.73,19.77 C33.6233328,19.7900001 33.5183339,19.8166665 33.415,19.85 C33.3116662,19.8833335 33.2216671,19.928333 33.145,19.985 C33.068333,20.0416669 33.0066669,20.1133329 32.96,20.2 C32.9133331,20.2866671 32.89,20.396666 32.89,20.53 C32.89,20.6566673 32.9133331,20.7633329 32.96,20.85 C33.0066669,20.9366671 33.0699996,21.0049997 33.15,21.055 C33.2300004,21.1050002 33.3233328,21.1399999 33.43,21.16 C33.5366672,21.1800001 33.6466661,21.19 33.76,21.19 C34.0400014,21.19 34.2566659,21.1433338 34.41,21.05 C34.5633341,20.9566662 34.6766663,20.8450006 34.75,20.715 C34.8233337,20.5849994 34.8683333,20.453334 34.885,20.32 C34.9016668,20.186666 34.91,20.0800004 34.91,20 L34.91,19.47 Z M39.23,16.83 L39.23,15.28 L37.81,15.28 L37.81,16.83 L36.95,16.83 L36.95,17.78 L37.81,17.78 L37.81,20.83 C37.81,21.0900013 37.8533329,21.2999992 37.94,21.46 C38.0266671,21.6200008 38.1449993,21.7433329 38.295,21.83 C38.4450008,21.9166671 38.6183324,21.9749998 38.815,22.005 C39.0116677,22.0350001 39.2199989,22.05 39.44,22.05 C39.5800007,22.05 39.7233326,22.0466667 39.87,22.04 C40.0166674,22.0333333 40.1499994,22.0200001 40.27,22 L40.27,20.9 C40.203333,20.9133334 40.1333337,20.9233333 40.06,20.93 C39.9866663,20.9366667 39.9100004,20.94 39.83,20.94 C39.5899988,20.94 39.4300004,20.9000004 39.35,20.82 C39.2699996,20.7399996 39.23,20.5800012 39.23,20.34 L39.23,17.78 L40.27,17.78 L40.27,16.83 L39.23,16.83 Z M18.69,22.86 L18.69,30 L20.26,30 L20.26,26.92 L23.15,26.92 L23.15,30 L24.72,30 L24.72,22.86 L23.15,22.86 L23.15,25.6 L20.26,25.6 L20.26,22.86 L18.69,22.86 Z M25.89,26.42 C25.9100001,26.086665 25.9933326,25.8100011 26.14,25.59 C26.2866674,25.3699989 26.4733322,25.193334 26.7,25.06 C26.9266678,24.926666 27.1816653,24.8316669 27.465,24.775 C27.7483348,24.718333 28.0333319,24.69 28.32,24.69 C28.5800013,24.69 28.843332,24.7083332 29.11,24.745 C29.376668,24.7816669 29.6199989,24.8533328 29.84,24.96 C30.0600011,25.0666672 30.2399993,25.214999 30.38,25.405 C30.5200007,25.5950009 30.59,25.8466651 30.59,26.16 L30.59,28.85 C30.59,29.0833345 30.6033332,29.3066656 30.63,29.52 C30.6566668,29.7333344 30.703333,29.8933328 30.77,30 L29.33,30 C29.3033332,29.9199996 29.2816668,29.8383338 29.265,29.755 C29.2483333,29.6716663 29.2366667,29.5866671 29.23,29.5 C29.0033322,29.7333345 28.7366682,29.8966662 28.43,29.99 C28.1233318,30.0833338 27.8100016,30.13 27.49,30.13 C27.2433321,30.13 27.0133344,30.1000003 26.8,30.04 C26.5866656,29.9799997 26.4000008,29.8866673 26.24,29.76 C26.0799992,29.6333327 25.9550005,29.4733343 25.865,29.28 C25.7749996,29.0866657 25.73,28.856668 25.73,28.59 C25.73,28.2966652 25.7816662,28.055001 25.885,27.865 C25.9883339,27.6749991 26.1216659,27.5233339 26.285,27.41 C26.4483342,27.2966661 26.634999,27.211667 26.845,27.155 C27.0550011,27.0983331 27.2666656,27.0533335 27.48,27.02 C27.6933344,26.9866665 27.9033323,26.9600001 28.11,26.94 C28.3166677,26.9199999 28.4999992,26.8900002 28.66,26.85 C28.8200008,26.8099998 28.9466662,26.7516671 29.04,26.675 C29.1333338,26.5983329 29.1766667,26.4866674 29.17,26.34 C29.17,26.1866659 29.1450003,26.0650004 29.095,25.975 C29.0449998,25.8849995 28.9783338,25.8150003 28.895,25.765 C28.8116663,25.7149998 28.7150006,25.6816667 28.605,25.665 C28.4949995,25.6483333 28.3766673,25.64 28.25,25.64 C27.9699986,25.64 27.7500008,25.6999994 27.59,25.82 C27.4299992,25.9400006 27.3366668,26.1399986 27.31,26.42 L25.89,26.42 Z M29.17,27.47 C29.1099997,27.5233336 29.0350005,27.5649998 28.945,27.595 C28.8549996,27.6250001 28.7583339,27.6499999 28.655,27.67 C28.5516662,27.6900001 28.4433339,27.7066666 28.33,27.72 C28.2166661,27.7333334 28.1033339,27.7499999 27.99,27.77 C27.8833328,27.7900001 27.7783339,27.8166665 27.675,27.85 C27.5716662,27.8833335 27.4816671,27.928333 27.405,27.985 C27.328333,28.0416669 27.2666669,28.1133329 27.22,28.2 C27.1733331,28.2866671 27.15,28.396666 27.15,28.53 C27.15,28.6566673 27.1733331,28.7633329 27.22,28.85 C27.2666669,28.9366671 27.3299996,29.0049997 27.41,29.055 C27.4900004,29.1050002 27.5833328,29.1399999 27.69,29.16 C27.7966672,29.1800001 27.9066661,29.19 28.02,29.19 C28.3000014,29.19 28.5166659,29.1433338 28.67,29.05 C28.8233341,28.9566662 28.9366663,28.8450006 29.01,28.715 C29.0833337,28.5849994 29.1283333,28.453334 29.145,28.32 C29.1616668,28.186666 29.17,28.0800004 29.17,28 L29.17,27.47 Z M31.73,24.83 L31.73,30 L33.15,30 L33.15,27 C33.15,26.7466654 33.1866663,26.5416674 33.26,26.385 C33.3333337,26.2283326 33.4216662,26.1083337 33.525,26.025 C33.6283339,25.9416663 33.7349995,25.8850001 33.845,25.855 C33.9550006,25.8249998 34.043333,25.81 34.11,25.81 C34.3366678,25.81 34.5083328,25.8483329 34.625,25.925 C34.7416673,26.0016671 34.8249998,26.1033327 34.875,26.23 C34.9250003,26.3566673 34.9533333,26.4949992 34.96,26.645 C34.9666667,26.7950007 34.97,26.9466659 34.97,27.1 L34.97,30 L36.39,30 L36.39,27.12 C36.39,26.9599992 36.4016666,26.8016675 36.425,26.645 C36.4483335,26.4883325 36.4949997,26.348334 36.565,26.225 C36.6350004,26.101666 36.7316661,26.0016671 36.855,25.925 C36.978334,25.8483329 37.139999,25.81 37.34,25.81 C37.540001,25.81 37.6983328,25.843333 37.815,25.91 C37.9316673,25.976667 38.0199997,26.0666661 38.08,26.18 C38.1400003,26.2933339 38.1766666,26.4266659 38.19,26.58 C38.2033334,26.7333341 38.21,26.8966658 38.21,27.07 L38.21,30 L39.63,30 L39.63,26.54 C39.63,26.206665 39.5833338,25.9216678 39.49,25.685 C39.3966662,25.4483321 39.2666675,25.2566674 39.1,25.11 C38.9333325,24.9633326 38.7333345,24.856667 38.5,24.79 C38.2666655,24.723333 38.0133347,24.69 37.74,24.69 C37.3799982,24.69 37.0683347,24.7766658 36.805,24.95 C36.5416654,25.1233342 36.3333341,25.3233322 36.18,25.55 C36.0399993,25.2299984 35.8350014,25.0066673 35.565,24.88 C35.2949987,24.7533327 34.9966683,24.69 34.67,24.69 C34.3299983,24.69 34.0283347,24.7633326 33.765,24.91 C33.5016654,25.0566674 33.2766676,25.263332 33.09,25.53 L33.07,25.53 L33.07,24.83 L31.73,24.83 Z M40.69,26.42 C40.7100001,26.086665 40.7933326,25.8100011 40.94,25.59 C41.0866674,25.3699989 41.2733322,25.193334 41.5,25.06 C41.7266678,24.926666 41.9816653,24.8316669 42.265,24.775 C42.5483348,24.718333 42.8333319,24.69 43.12,24.69 C43.3800013,24.69 43.643332,24.7083332 43.91,24.745 C44.176668,24.7816669 44.4199989,24.8533328 44.64,24.96 C44.8600011,25.0666672 45.0399993,25.214999 45.18,25.405 C45.3200007,25.5950009 45.39,25.8466651 45.39,26.16 L45.39,28.85 C45.39,29.0833345 45.4033332,29.3066656 45.43,29.52 C45.4566668,29.7333344 45.503333,29.8933328 45.57,30 L44.13,30 C44.1033332,29.9199996 44.0816668,29.8383338 44.065,29.755 C44.0483333,29.6716663 44.0366667,29.5866671 44.03,29.5 C43.8033322,29.7333345 43.5366682,29.8966662 43.23,29.99 C42.9233318,30.0833338 42.6100016,30.13 42.29,30.13 C42.0433321,30.13 41.8133344,30.1000003 41.6,30.04 C41.3866656,29.9799997 41.2000008,29.8866673 41.04,29.76 C40.8799992,29.6333327 40.7550005,29.4733343 40.665,29.28 C40.5749996,29.0866657 40.53,28.856668 40.53,28.59 C40.53,28.2966652 40.5816662,28.055001 40.685,27.865 C40.7883339,27.6749991 40.9216659,27.5233339 41.085,27.41 C41.2483342,27.2966661 41.434999,27.211667 41.645,27.155 C41.8550011,27.0983331 42.0666656,27.0533335 42.28,27.02 C42.4933344,26.9866665 42.7033323,26.9600001 42.91,26.94 C43.1166677,26.9199999 43.2999992,26.8900002 43.46,26.85 C43.6200008,26.8099998 43.7466662,26.7516671 43.84,26.675 C43.9333338,26.5983329 43.9766667,26.4866674 43.97,26.34 C43.97,26.1866659 43.9450003,26.0650004 43.895,25.975 C43.8449998,25.8849995 43.7783338,25.8150003 43.695,25.765 C43.6116663,25.7149998 43.5150006,25.6816667 43.405,25.665 C43.2949995,25.6483333 43.1766673,25.64 43.05,25.64 C42.7699986,25.64 42.5500008,25.6999994 42.39,25.82 C42.2299992,25.9400006 42.1366668,26.1399986 42.11,26.42 L40.69,26.42 Z M43.97,27.47 C43.9099997,27.5233336 43.8350005,27.5649998 43.745,27.595 C43.6549996,27.6250001 43.5583339,27.6499999 43.455,27.67 C43.3516662,27.6900001 43.2433339,27.7066666 43.13,27.72 C43.0166661,27.7333334 42.9033339,27.7499999 42.79,27.77 C42.6833328,27.7900001 42.5783339,27.8166665 42.475,27.85 C42.3716662,27.8833335 42.2816671,27.928333 42.205,27.985 C42.128333,28.0416669 42.0666669,28.1133329 42.02,28.2 C41.9733331,28.2866671 41.95,28.396666 41.95,28.53 C41.95,28.6566673 41.9733331,28.7633329 42.02,28.85 C42.0666669,28.9366671 42.1299996,29.0049997 42.21,29.055 C42.2900004,29.1050002 42.3833328,29.1399999 42.49,29.16 C42.5966672,29.1800001 42.7066661,29.19 42.82,29.19 C43.1000014,29.19 43.3166659,29.1433338 43.47,29.05 C43.6233341,28.9566662 43.7366663,28.8450006 43.81,28.715 C43.8833337,28.5849994 43.9283333,28.453334 43.945,28.32 C43.9616668,28.186666 43.97,28.0800004 43.97,28 L43.97,27.47 Z M46.62,22.86 L46.62,30 L48.04,30 L48.04,28.22 L48.59,27.69 L50.01,30 L51.73,30 L49.56,26.73 L51.51,24.83 L49.83,24.83 L48.04,26.69 L48.04,22.86 L46.62,22.86 Z M53.49,27.42 C53.49,27.2133323 53.5099998,27.010001 53.55,26.81 C53.5900002,26.609999 53.6583329,26.4333341 53.755,26.28 C53.8516672,26.1266659 53.9799992,26.0016671 54.14,25.905 C54.3000008,25.8083328 54.4999988,25.76 54.74,25.76 C54.9800012,25.76 55.1816659,25.8083328 55.345,25.905 C55.5083342,26.0016671 55.6383329,26.1266659 55.735,26.28 C55.8316672,26.4333341 55.8999998,26.609999 55.94,26.81 C55.9800002,27.010001 56,27.2133323 56,27.42 C56,27.6266677 55.9800002,27.8283324 55.94,28.025 C55.8999998,28.2216677 55.8316672,28.3983325 55.735,28.555 C55.6383329,28.7116675 55.5083342,28.8366662 55.345,28.93 C55.1816659,29.0233338 54.9800012,29.07 54.74,29.07 C54.4999988,29.07 54.3000008,29.0233338 54.14,28.93 C53.9799992,28.8366662 53.8516672,28.7116675 53.755,28.555 C53.6583329,28.3983325 53.5900002,28.2216677 53.55,28.025 C53.5099998,27.8283324 53.49,27.6266677 53.49,27.42 L53.49,27.42 Z M52.07,27.42 C52.07,27.8333354 52.1333327,28.206665 52.26,28.54 C52.3866673,28.873335 52.5666655,29.1583321 52.8,29.395 C53.0333345,29.6316678 53.3133317,29.8133327 53.64,29.94 C53.9666683,30.0666673 54.3333313,30.13 54.74,30.13 C55.1466687,30.13 55.5149984,30.0666673 55.845,29.94 C56.1750017,29.8133327 56.4566655,29.6316678 56.69,29.395 C56.9233345,29.1583321 57.1033327,28.873335 57.23,28.54 C57.3566673,28.206665 57.42,27.8333354 57.42,27.42 C57.42,27.0066646 57.3566673,26.6316683 57.23,26.295 C57.1033327,25.9583316 56.9233345,25.6716678 56.69,25.435 C56.4566655,25.1983321 56.1750017,25.0150006 55.845,24.885 C55.5149984,24.7549993 55.1466687,24.69 54.74,24.69 C54.3333313,24.69 53.9666683,24.7549993 53.64,24.885 C53.3133317,25.0150006 53.0333345,25.1983321 52.8,25.435 C52.5666655,25.6716678 52.3866673,25.9583316 52.26,26.295 C52.1333327,26.6316683 52.07,27.0066646 52.07,27.42 L52.07,27.42 Z M58.38,24.83 L58.38,30 L59.8,30 L59.8,27 C59.8,26.7466654 59.8366663,26.5416674 59.91,26.385 C59.9833337,26.2283326 60.0716662,26.1083337 60.175,26.025 C60.2783339,25.9416663 60.3849995,25.8850001 60.495,25.855 C60.6050006,25.8249998 60.693333,25.81 60.76,25.81 C60.9866678,25.81 61.1583328,25.8483329 61.275,25.925 C61.3916673,26.0016671 61.4749998,26.1033327 61.525,26.23 C61.5750003,26.3566673 61.6033333,26.4949992 61.61,26.645 C61.6166667,26.7950007 61.62,26.9466659 61.62,27.1 L61.62,30 L63.04,30 L63.04,27.12 C63.04,26.9599992 63.0516666,26.8016675 63.075,26.645 C63.0983335,26.4883325 63.1449997,26.348334 63.215,26.225 C63.2850004,26.101666 63.3816661,26.0016671 63.505,25.925 C63.628334,25.8483329 63.789999,25.81 63.99,25.81 C64.190001,25.81 64.3483328,25.843333 64.465,25.91 C64.5816673,25.976667 64.6699997,26.0666661 64.73,26.18 C64.7900003,26.2933339 64.8266666,26.4266659 64.84,26.58 C64.8533334,26.7333341 64.86,26.8966658 64.86,27.07 L64.86,30 L66.28,30 L66.28,26.54 C66.28,26.206665 66.2333338,25.9216678 66.14,25.685 C66.0466662,25.4483321 65.9166675,25.2566674 65.75,25.11 C65.5833325,24.9633326 65.3833345,24.856667 65.15,24.79 C64.9166655,24.723333 64.6633347,24.69 64.39,24.69 C64.0299982,24.69 63.7183347,24.7766658 63.455,24.95 C63.1916654,25.1233342 62.9833341,25.3233322 62.83,25.55 C62.6899993,25.2299984 62.4850014,25.0066673 62.215,24.88 C61.9449987,24.7533327 61.6466683,24.69 61.32,24.69 C60.9799983,24.69 60.6783347,24.7633326 60.415,24.91 C60.1516654,25.0566674 59.9266676,25.263332 59.74,25.53 L59.72,25.53 L59.72,24.83 L58.38,24.83 Z" id="Daat"></path>
                <path d="M3.13358512,30 L4.70867714,27.1835984 C4.70867714,27.1835984 4.71896125,27.1644735 4.73970988,27.1285694 C4.79455844,27.0336669 4.88783709,26.9999278 4.98941519,26.9999278 L11.7751209,26.9999278 C11.8994323,26.9999278 12.0001083,26.8992518 12.0001083,26.7749405 L12.0001083,18.2248791 C12.0001083,18.1007482 11.8994323,17.9998917 11.7751209,17.9998917 L3.22505954,17.9998917 C3.10074815,17.9998917 3.00007217,18.1007482 3.00007217,18.2248791 L3.00007217,26.7749405 L3.00007217,30 L0.262515336,30 C0.0968871034,30 0,29.9031129 0,29.7374847 L0,15.2998629 C0,15.1342346 0.134415069,15 0.300043301,15 L2.74170656,15 C2.90733479,15 3.00007217,15.0967067 3.00007217,15.2625153 L3.00007217,16.0751401 C3.00007217,16.1868219 3.12997667,16.1992711 3.17021097,16.1031057 L3.5113907,15.1683346 C3.56010489,15.0685607 3.6625851,15 3.78112295,15 L14.7001371,15 C14.8657654,15 15.0001804,15.1342346 15.0001804,15.2998629 L15.0001804,29.6999567 C15.0001804,29.8655849 14.8657654,30 14.7001371,30 L3.13358512,30 Z" id="Fill-23"></path>
            </g>
        </g>
    </g>
</svg>