<?xml version="1.0" encoding="UTF-8" standalone="no"?>
<svg width="70px" height="47px" viewBox="0 0 70 47" version="1.1" xmlns="http://www.w3.org/2000/svg" xmlns:xlink="http://www.w3.org/1999/xlink">
    <!-- Generator: Sketch 3.8.3 (29802) - http://www.bohemiancoding.com/sketch -->
    <title>daat-logo</title>
    <desc>Created with Sketch.</desc>
    <defs>
        <filter x="-50%" y="-50%" width="200%" height="200%" filterUnits="objectBoundingBox" id="filter-1">
            <feOffset dx="1" dy="1" in="SourceAlpha" result="shadowOffsetOuter1"></feOffset>
            <feColorMatrix values="0 0 0 0 0.933333337   0 0 0 0 0.952941179   0 0 0 0 0.964705884  0 0 0 1 0" type="matrix" in="shadowOffsetOuter1" result="shadowMatrixOuter1"></feColorMatrix>
            <feMerge>
                <feMergeNode in="shadowMatrixOuter1"></feMergeNode>
                <feMergeNode in="SourceGraphic"></feMergeNode>
            </feMerge>
        </filter>
    </defs>
    <g id="Symbols" stroke="none" stroke-width="1" fill="none" fill-rule="evenodd">
        <g id="daat-logo" fill="#044261">
            <g id="logo_EN" filter="url(#filter-1)" transform="translate(2.000000, 5.000000)">
                <path d="M1.57,28.82 L1.57,24.32 L2.69,24.32 C3.0766686,24.32 3.40166535,24.3749995 3.665,24.485 C3.92833465,24.5950006 4.1399992,24.7533323 4.3,24.96 C4.4600008,25.1666677 4.57499965,25.4149985 4.645,25.705 C4.71500035,25.9950015 4.75,26.3199982 4.75,26.68 C4.75,27.0733353 4.7000005,27.4066653 4.6,27.68 C4.4999995,27.9533347 4.3666675,28.1749992 4.2,28.345 C4.0333325,28.5150008 3.8433344,28.6366663 3.63,28.71 C3.4166656,28.7833337 3.1966678,28.82 2.97,28.82 L1.57,28.82 Z M0,23 L0,30.14 L3.08,30.14 C3.6266694,30.14 4.10166465,30.0483342 4.505,29.865 C4.90833535,29.6816658 5.24499865,29.4300016 5.515,29.11 C5.78500135,28.7899984 5.986666,28.4100022 6.12,27.97 C6.253334,27.5299978 6.32,27.0500026 6.32,26.53 C6.32,25.9366637 6.23833415,25.4200022 6.075,24.98 C5.91166585,24.5399978 5.68500145,24.1733348 5.395,23.88 C5.10499855,23.5866652 4.76166865,23.3666674 4.365,23.22 C3.96833135,23.0733326 3.5400023,23 3.08,23 L0,23 Z M7.2,26.56 C7.2200001,26.226665 7.3033326,25.9500011 7.45,25.73 C7.5966674,25.5099989 7.7833322,25.333334 8.01,25.2 C8.2366678,25.066666 8.49166525,24.9716669 8.775,24.915 C9.05833475,24.858333 9.3433319,24.83 9.63,24.83 C9.8900013,24.83 10.153332,24.8483332 10.42,24.885 C10.686668,24.9216669 10.9299989,24.9933328 11.15,25.1 C11.3700011,25.2066672 11.5499993,25.3549991 11.69,25.545 C11.8300007,25.7350009 11.9,25.9866651 11.9,26.3 L11.9,28.99 C11.9,29.2233345 11.9133332,29.4466656 11.94,29.66 C11.9666668,29.8733344 12.013333,30.0333328 12.08,30.14 L10.64,30.14 C10.6133332,30.0599996 10.5916668,29.9783338 10.575,29.895 C10.5583333,29.8116663 10.5466667,29.7266671 10.54,29.64 C10.3133322,29.8733345 10.0466682,30.0366662 9.74,30.13 C9.4333318,30.2233338 9.1200016,30.27 8.8,30.27 C8.5533321,30.27 8.3233344,30.2400003 8.11,30.18 C7.8966656,30.1199997 7.7100008,30.0266673 7.55,29.9 C7.3899992,29.7733327 7.26500045,29.6133343 7.175,29.42 C7.08499955,29.2266657 7.04,28.996668 7.04,28.73 C7.04,28.4366652 7.09166615,28.195001 7.195,28.005 C7.29833385,27.8149991 7.43166585,27.6633339 7.595,27.55 C7.75833415,27.4366661 7.94499895,27.351667 8.155,27.295 C8.36500105,27.2383331 8.5766656,27.1933335 8.79,27.16 C9.0033344,27.1266665 9.2133323,27.1000001 9.42,27.08 C9.6266677,27.0599999 9.8099992,27.0300002 9.97,26.99 C10.1300008,26.9499998 10.2566662,26.8916671 10.35,26.815 C10.4433338,26.738333 10.4866667,26.6266674 10.48,26.48 C10.48,26.3266659 10.4550003,26.2050005 10.405,26.115 C10.3549998,26.0249996 10.2883338,25.9550003 10.205,25.905 C10.1216663,25.8549998 10.0250006,25.8216667 9.915,25.805 C9.80499945,25.7883333 9.6866673,25.78 9.56,25.78 C9.2799986,25.78 9.0600008,25.8399994 8.9,25.96 C8.7399992,26.0800006 8.6466668,26.2799986 8.62,26.56 L7.2,26.56 Z M10.48,27.61 C10.4199997,27.6633336 10.3450004,27.7049999 10.255,27.735 C10.1649995,27.7650001 10.0683338,27.7899999 9.965,27.81 C9.86166615,27.8300001 9.7533339,27.8466666 9.64,27.86 C9.5266661,27.8733334 9.4133339,27.8899999 9.3,27.91 C9.1933328,27.9300001 9.08833385,27.9566665 8.985,27.99 C8.88166615,28.0233335 8.79166705,28.068333 8.715,28.125 C8.63833295,28.181667 8.5766669,28.2533329 8.53,28.34 C8.4833331,28.4266671 8.46,28.536666 8.46,28.67 C8.46,28.7966673 8.4833331,28.9033329 8.53,28.99 C8.5766669,29.0766671 8.6399996,29.1449998 8.72,29.195 C8.8000004,29.2450003 8.8933328,29.2799999 9,29.3 C9.1066672,29.3200001 9.2166661,29.33 9.33,29.33 C9.6100014,29.33 9.8266659,29.2833338 9.98,29.19 C10.1333341,29.0966662 10.2466663,28.9850006 10.32,28.855 C10.3933337,28.7249994 10.4383332,28.593334 10.455,28.46 C10.4716667,28.326666 10.48,28.2200004 10.48,28.14 L10.48,27.61 Z M12.94,26.56 C12.9600001,26.226665 13.0433326,25.9500011 13.19,25.73 C13.3366674,25.5099989 13.5233322,25.333334 13.75,25.2 C13.9766678,25.066666 14.2316653,24.9716669 14.515,24.915 C14.7983348,24.858333 15.0833319,24.83 15.37,24.83 C15.6300013,24.83 15.893332,24.8483332 16.16,24.885 C16.426668,24.9216669 16.6699989,24.9933328 16.89,25.1 C17.1100011,25.2066672 17.2899993,25.3549991 17.43,25.545 C17.5700007,25.7350009 17.64,25.9866651 17.64,26.3 L17.64,28.99 C17.64,29.2233345 17.6533332,29.4466656 17.68,29.66 C17.7066668,29.8733344 17.753333,30.0333328 17.82,30.14 L16.38,30.14 C16.3533332,30.0599996 16.3316668,29.9783338 16.315,29.895 C16.2983333,29.8116663 16.2866667,29.7266671 16.28,29.64 C16.0533322,29.8733345 15.7866682,30.0366662 15.48,30.13 C15.1733318,30.2233338 14.8600016,30.27 14.54,30.27 C14.2933321,30.27 14.0633344,30.2400003 13.85,30.18 C13.6366656,30.1199997 13.4500008,30.0266673 13.29,29.9 C13.1299992,29.7733327 13.0050005,29.6133343 12.915,29.42 C12.8249996,29.2266657 12.78,28.996668 12.78,28.73 C12.78,28.4366652 12.8316662,28.195001 12.935,28.005 C13.0383339,27.8149991 13.1716659,27.6633339 13.335,27.55 C13.4983342,27.4366661 13.684999,27.351667 13.895,27.295 C14.1050011,27.2383331 14.3166656,27.1933335 14.53,27.16 C14.7433344,27.1266665 14.9533323,27.1000001 15.16,27.08 C15.3666677,27.0599999 15.5499992,27.0300002 15.71,26.99 C15.8700008,26.9499998 15.9966662,26.8916671 16.09,26.815 C16.1833338,26.738333 16.2266667,26.6266674 16.22,26.48 C16.22,26.3266659 16.1950003,26.2050005 16.145,26.115 C16.0949998,26.0249996 16.0283338,25.9550003 15.945,25.905 C15.8616663,25.8549998 15.7650006,25.8216667 15.655,25.805 C15.5449995,25.7883333 15.4266673,25.78 15.3,25.78 C15.0199986,25.78 14.8000008,25.8399994 14.64,25.96 C14.4799992,26.0800006 14.3866668,26.2799986 14.36,26.56 L12.94,26.56 Z M16.22,27.61 C16.1599997,27.6633336 16.0850005,27.7049999 15.995,27.735 C15.9049996,27.7650001 15.8083339,27.7899999 15.705,27.81 C15.6016662,27.8300001 15.4933339,27.8466666 15.38,27.86 C15.2666661,27.8733334 15.1533339,27.8899999 15.04,27.91 C14.9333328,27.9300001 14.8283339,27.9566665 14.725,27.99 C14.6216662,28.0233335 14.5316671,28.068333 14.455,28.125 C14.378333,28.181667 14.3166669,28.2533329 14.27,28.34 C14.2233331,28.4266671 14.2,28.536666 14.2,28.67 C14.2,28.7966673 14.2233331,28.9033329 14.27,28.99 C14.3166669,29.0766671 14.3799996,29.1449998 14.46,29.195 C14.5400004,29.2450003 14.6333328,29.2799999 14.74,29.3 C14.8466672,29.3200001 14.9566661,29.33 15.07,29.33 C15.3500014,29.33 15.5666659,29.2833338 15.72,29.19 C15.8733341,29.0966662 15.9866663,28.9850006 16.06,28.855 C16.1333337,28.7249994 16.1783333,28.593334 16.195,28.46 C16.2116668,28.326666 16.22,28.2200004 16.22,28.14 L16.22,27.61 Z M20.54,24.97 L20.54,23.42 L19.12,23.42 L19.12,24.97 L18.26,24.97 L18.26,25.92 L19.12,25.92 L19.12,28.97 C19.12,29.2300013 19.1633329,29.4399992 19.25,29.6 C19.3366671,29.7600008 19.4549993,29.8833329 19.605,29.97 C19.7550008,30.0566671 19.9283324,30.1149999 20.125,30.145 C20.3216677,30.1750001 20.5299989,30.19 20.75,30.19 C20.8900007,30.19 21.0333326,30.1866667 21.18,30.18 C21.3266674,30.1733333 21.4599994,30.1600001 21.58,30.14 L21.58,29.04 C21.513333,29.0533334 21.4433337,29.0633333 21.37,29.07 C21.2966663,29.0766667 21.2200004,29.08 21.14,29.08 C20.8999988,29.08 20.7400004,29.0400004 20.66,28.96 C20.5799996,28.8799996 20.54,28.7200012 20.54,28.48 L20.54,25.92 L21.58,25.92 L21.58,24.97 L20.54,24.97 Z M0,33 L0,40.14 L1.57,40.14 L1.57,37.06 L4.46,37.06 L4.46,40.14 L6.03,40.14 L6.03,33 L4.46,33 L4.46,35.74 L1.57,35.74 L1.57,33 L0,33 Z M7.2,36.56 C7.2200001,36.226665 7.3033326,35.9500011 7.45,35.73 C7.5966674,35.5099989 7.7833322,35.333334 8.01,35.2 C8.2366678,35.066666 8.49166525,34.9716669 8.775,34.915 C9.05833475,34.858333 9.3433319,34.83 9.63,34.83 C9.8900013,34.83 10.153332,34.8483332 10.42,34.885 C10.686668,34.9216669 10.9299989,34.9933328 11.15,35.1 C11.3700011,35.2066672 11.5499993,35.3549991 11.69,35.545 C11.8300007,35.7350009 11.9,35.9866651 11.9,36.3 L11.9,38.99 C11.9,39.2233345 11.9133332,39.4466656 11.94,39.66 C11.9666668,39.8733344 12.013333,40.0333328 12.08,40.14 L10.64,40.14 C10.6133332,40.0599996 10.5916668,39.9783338 10.575,39.895 C10.5583333,39.8116663 10.5466667,39.7266671 10.54,39.64 C10.3133322,39.8733345 10.0466682,40.0366662 9.74,40.13 C9.4333318,40.2233338 9.1200016,40.27 8.8,40.27 C8.5533321,40.27 8.3233344,40.2400003 8.11,40.18 C7.8966656,40.1199997 7.7100008,40.0266673 7.55,39.9 C7.3899992,39.7733327 7.26500045,39.6133343 7.175,39.42 C7.08499955,39.2266657 7.04,38.996668 7.04,38.73 C7.04,38.4366652 7.09166615,38.195001 7.195,38.005 C7.29833385,37.814999 7.43166585,37.6633339 7.595,37.55 C7.75833415,37.4366661 7.94499895,37.351667 8.155,37.295 C8.36500105,37.2383331 8.5766656,37.1933335 8.79,37.16 C9.0033344,37.1266665 9.2133323,37.1000001 9.42,37.08 C9.6266677,37.0599999 9.8099992,37.0300002 9.97,36.99 C10.1300008,36.9499998 10.2566662,36.8916671 10.35,36.815 C10.4433338,36.738333 10.4866667,36.6266674 10.48,36.48 C10.48,36.3266659 10.4550003,36.2050005 10.405,36.115 C10.3549998,36.0249996 10.2883338,35.9550002 10.205,35.905 C10.1216663,35.8549998 10.0250006,35.8216667 9.915,35.805 C9.80499945,35.7883333 9.6866673,35.78 9.56,35.78 C9.2799986,35.78 9.0600008,35.8399994 8.9,35.96 C8.7399992,36.0800006 8.6466668,36.2799986 8.62,36.56 L7.2,36.56 Z M10.48,37.61 C10.4199997,37.6633336 10.3450004,37.7049999 10.255,37.735 C10.1649995,37.7650001 10.0683338,37.7899999 9.965,37.81 C9.86166615,37.8300001 9.7533339,37.8466666 9.64,37.86 C9.5266661,37.8733334 9.4133339,37.8899999 9.3,37.91 C9.1933328,37.9300001 9.08833385,37.9566665 8.985,37.99 C8.88166615,38.0233335 8.79166705,38.068333 8.715,38.125 C8.63833295,38.181667 8.5766669,38.2533329 8.53,38.34 C8.4833331,38.4266671 8.46,38.536666 8.46,38.67 C8.46,38.7966673 8.4833331,38.9033329 8.53,38.99 C8.5766669,39.0766671 8.6399996,39.1449997 8.72,39.195 C8.8000004,39.2450003 8.8933328,39.2799999 9,39.3 C9.1066672,39.3200001 9.2166661,39.33 9.33,39.33 C9.6100014,39.33 9.8266659,39.2833338 9.98,39.19 C10.1333341,39.0966662 10.2466663,38.9850007 10.32,38.855 C10.3933337,38.7249994 10.4383332,38.593334 10.455,38.46 C10.4716667,38.326666 10.48,38.2200004 10.48,38.14 L10.48,37.61 Z M13.04,34.97 L13.04,40.14 L14.46,40.14 L14.46,37.14 C14.46,36.8866654 14.4966663,36.6816674 14.57,36.525 C14.6433337,36.3683326 14.7316662,36.2483338 14.835,36.165 C14.9383339,36.0816662 15.0449995,36.0250001 15.155,35.995 C15.2650006,35.9649998 15.353333,35.95 15.42,35.95 C15.6466678,35.95 15.8183328,35.988333 15.935,36.065 C16.0516673,36.1416671 16.1349998,36.2433327 16.185,36.37 C16.2350003,36.4966673 16.2633333,36.6349992 16.27,36.785 C16.2766667,36.9350008 16.28,37.0866659 16.28,37.24 L16.28,40.14 L17.7,40.14 L17.7,37.26 C17.7,37.0999992 17.7116666,36.9416674 17.735,36.785 C17.7583335,36.6283325 17.8049997,36.4883339 17.875,36.365 C17.9450004,36.241666 18.0416661,36.1416671 18.165,36.065 C18.288334,35.988333 18.449999,35.95 18.65,35.95 C18.850001,35.95 19.0083328,35.983333 19.125,36.05 C19.2416673,36.116667 19.3299997,36.2066661 19.39,36.32 C19.4500003,36.4333339 19.4866666,36.5666659 19.5,36.72 C19.5133334,36.8733341 19.52,37.0366658 19.52,37.21 L19.52,40.14 L20.94,40.14 L20.94,36.68 C20.94,36.346665 20.8933338,36.0616678 20.8,35.825 C20.7066662,35.5883321 20.5766675,35.3966674 20.41,35.25 C20.2433325,35.1033326 20.0433345,34.996667 19.81,34.93 C19.5766655,34.863333 19.3233347,34.83 19.05,34.83 C18.6899982,34.83 18.3783347,34.9166658 18.115,35.09 C17.8516654,35.2633342 17.6433341,35.4633322 17.49,35.69 C17.3499993,35.3699984 17.1450014,35.1466673 16.875,35.02 C16.6049987,34.8933327 16.3066683,34.83 15.98,34.83 C15.6399983,34.83 15.3383347,34.9033326 15.075,35.05 C14.8116654,35.1966674 14.5866676,35.403332 14.4,35.67 L14.38,35.67 L14.38,34.97 L13.04,34.97 Z M22,36.56 C22.0200001,36.226665 22.1033326,35.9500011 22.25,35.73 C22.3966674,35.5099989 22.5833322,35.333334 22.81,35.2 C23.0366678,35.066666 23.2916653,34.9716669 23.575,34.915 C23.8583348,34.858333 24.1433319,34.83 24.43,34.83 C24.6900013,34.83 24.953332,34.8483332 25.22,34.885 C25.486668,34.9216669 25.7299989,34.9933328 25.95,35.1 C26.1700011,35.2066672 26.3499993,35.3549991 26.49,35.545 C26.6300007,35.7350009 26.7,35.9866651 26.7,36.3 L26.7,38.99 C26.7,39.2233345 26.7133332,39.4466656 26.74,39.66 C26.7666668,39.8733344 26.813333,40.0333328 26.88,40.14 L25.44,40.14 C25.4133332,40.0599996 25.3916668,39.9783338 25.375,39.895 C25.3583333,39.8116663 25.3466667,39.7266671 25.34,39.64 C25.1133322,39.8733345 24.8466682,40.0366662 24.54,40.13 C24.2333318,40.2233338 23.9200016,40.27 23.6,40.27 C23.3533321,40.27 23.1233344,40.2400003 22.91,40.18 C22.6966656,40.1199997 22.5100008,40.0266673 22.35,39.9 C22.1899992,39.7733327 22.0650005,39.6133343 21.975,39.42 C21.8849996,39.2266657 21.84,38.996668 21.84,38.73 C21.84,38.4366652 21.8916662,38.195001 21.995,38.005 C22.0983339,37.814999 22.2316659,37.6633339 22.395,37.55 C22.5583342,37.4366661 22.744999,37.351667 22.955,37.295 C23.1650011,37.2383331 23.3766656,37.1933335 23.59,37.16 C23.8033344,37.1266665 24.0133323,37.1000001 24.22,37.08 C24.4266677,37.0599999 24.6099992,37.0300002 24.77,36.99 C24.9300008,36.9499998 25.0566662,36.8916671 25.15,36.815 C25.2433338,36.738333 25.2866667,36.6266674 25.28,36.48 C25.28,36.3266659 25.2550003,36.2050005 25.205,36.115 C25.1549998,36.0249996 25.0883338,35.9550002 25.005,35.905 C24.9216663,35.8549998 24.8250006,35.8216667 24.715,35.805 C24.6049995,35.7883333 24.4866673,35.78 24.36,35.78 C24.0799986,35.78 23.8600008,35.8399994 23.7,35.96 C23.5399992,36.0800006 23.4466668,36.2799986 23.42,36.56 L22,36.56 Z M25.28,37.61 C25.2199997,37.6633336 25.1450005,37.7049999 25.055,37.735 C24.9649996,37.7650001 24.8683339,37.7899999 24.765,37.81 C24.6616662,37.8300001 24.5533339,37.8466666 24.44,37.86 C24.3266661,37.8733334 24.2133339,37.8899999 24.1,37.91 C23.9933328,37.9300001 23.8883339,37.9566665 23.785,37.99 C23.6816662,38.0233335 23.5916671,38.068333 23.515,38.125 C23.438333,38.181667 23.3766669,38.2533329 23.33,38.34 C23.2833331,38.4266671 23.26,38.536666 23.26,38.67 C23.26,38.7966673 23.2833331,38.9033329 23.33,38.99 C23.3766669,39.0766671 23.4399996,39.1449997 23.52,39.195 C23.6000004,39.2450003 23.6933328,39.2799999 23.8,39.3 C23.9066672,39.3200001 24.0166661,39.33 24.13,39.33 C24.4100014,39.33 24.6266659,39.2833338 24.78,39.19 C24.9333341,39.0966662 25.0466663,38.9850007 25.12,38.855 C25.1933337,38.7249994 25.2383333,38.593334 25.255,38.46 C25.2716668,38.326666 25.28,38.2200004 25.28,38.14 L25.28,37.61 Z M27.93,33 L27.93,40.14 L29.35,40.14 L29.35,38.36 L29.9,37.83 L31.32,40.14 L33.04,40.14 L30.87,36.87 L32.82,34.97 L31.14,34.97 L29.35,36.83 L29.35,33 L27.93,33 Z M34.8,37.56 C34.8,37.3533323 34.8199998,37.150001 34.86,36.95 C34.9000002,36.749999 34.9683328,36.5733341 35.065,36.42 C35.1616671,36.2666659 35.2899992,36.1416671 35.45,36.045 C35.6100008,35.9483328 35.8099988,35.9 36.05,35.9 C36.2900012,35.9 36.4916658,35.9483328 36.655,36.045 C36.8183341,36.1416671 36.9483328,36.2666659 37.045,36.42 C37.1416671,36.5733341 37.2099998,36.749999 37.25,36.95 C37.2900002,37.150001 37.31,37.3533323 37.31,37.56 C37.31,37.7666677 37.2900002,37.9683323 37.25,38.165 C37.2099998,38.3616677 37.1416671,38.5383325 37.045,38.695 C36.9483328,38.8516675 36.8183341,38.9766662 36.655,39.07 C36.4916658,39.1633338 36.2900012,39.21 36.05,39.21 C35.8099988,39.21 35.6100008,39.1633338 35.45,39.07 C35.2899992,38.9766662 35.1616671,38.8516675 35.065,38.695 C34.9683328,38.5383325 34.9000002,38.3616677 34.86,38.165 C34.8199998,37.9683323 34.8,37.7666677 34.8,37.56 L34.8,37.56 Z M33.38,37.56 C33.38,37.9733354 33.4433327,38.346665 33.57,38.68 C33.6966673,39.013335 33.8766655,39.2983322 34.11,39.535 C34.3433345,39.7716679 34.6233317,39.9533327 34.95,40.08 C35.2766683,40.2066673 35.6433313,40.27 36.05,40.27 C36.4566687,40.27 36.8249983,40.2066673 37.155,40.08 C37.4850016,39.9533327 37.7666655,39.7716679 38,39.535 C38.2333345,39.2983322 38.4133327,39.013335 38.54,38.68 C38.6666673,38.346665 38.73,37.9733354 38.73,37.56 C38.73,37.1466646 38.6666673,36.7716683 38.54,36.435 C38.4133327,36.0983316 38.2333345,35.8116678 38,35.575 C37.7666655,35.3383321 37.4850016,35.1550006 37.155,35.025 C36.8249983,34.8949993 36.4566687,34.83 36.05,34.83 C35.6433313,34.83 35.2766683,34.8949993 34.95,35.025 C34.6233317,35.1550006 34.3433345,35.3383321 34.11,35.575 C33.8766655,35.8116678 33.6966673,36.0983316 33.57,36.435 C33.4433327,36.7716683 33.38,37.1466646 33.38,37.56 L33.38,37.56 Z M39.69,34.97 L39.69,40.14 L41.11,40.14 L41.11,37.14 C41.11,36.8866654 41.1466663,36.6816674 41.22,36.525 C41.2933337,36.3683326 41.3816662,36.2483338 41.485,36.165 C41.5883339,36.0816662 41.6949995,36.0250001 41.805,35.995 C41.9150006,35.9649998 42.003333,35.95 42.07,35.95 C42.2966678,35.95 42.4683328,35.988333 42.585,36.065 C42.7016673,36.1416671 42.7849998,36.2433327 42.835,36.37 C42.8850003,36.4966673 42.9133333,36.6349992 42.92,36.785 C42.9266667,36.9350008 42.93,37.0866659 42.93,37.24 L42.93,40.14 L44.35,40.14 L44.35,37.26 C44.35,37.0999992 44.3616666,36.9416674 44.385,36.785 C44.4083335,36.6283325 44.4549997,36.4883339 44.525,36.365 C44.5950004,36.241666 44.6916661,36.1416671 44.815,36.065 C44.938334,35.988333 45.099999,35.95 45.3,35.95 C45.500001,35.95 45.6583328,35.983333 45.775,36.05 C45.8916673,36.116667 45.9799997,36.2066661 46.04,36.32 C46.1000003,36.4333339 46.1366666,36.5666659 46.15,36.72 C46.1633334,36.8733341 46.17,37.0366658 46.17,37.21 L46.17,40.14 L47.59,40.14 L47.59,36.68 C47.59,36.346665 47.5433338,36.0616678 47.45,35.825 C47.3566662,35.5883321 47.2266675,35.3966674 47.06,35.25 C46.8933325,35.1033326 46.6933345,34.996667 46.46,34.93 C46.2266655,34.863333 45.9733347,34.83 45.7,34.83 C45.3399982,34.83 45.0283347,34.9166658 44.765,35.09 C44.5016654,35.2633342 44.2933341,35.4633322 44.14,35.69 C43.9999993,35.3699984 43.7950014,35.1466673 43.525,35.02 C43.2549987,34.8933327 42.9566683,34.83 42.63,34.83 C42.2899983,34.83 41.9883347,34.9033326 41.725,35.05 C41.4616654,35.1966674 41.2366676,35.403332 41.05,35.67 L41.03,35.67 L41.03,34.97 L39.69,34.97 Z" id="Daat"></path>
                <path d="M4.1781135,20 L6.27823619,16.2447978 C6.27823619,16.2447978 6.29194833,16.219298 6.31961317,16.1714258 C6.39274459,16.0448892 6.51711612,15.9999038 6.65255359,15.9999038 L15.7001612,15.9999038 C15.8659097,15.9999038 16.0001443,15.8656691 16.0001443,15.6999206 L16.0001443,4.29983882 C16.0001443,4.13433087 15.8659097,3.99985566 15.7001612,3.99985566 L4.30007939,3.99985566 C4.13433087,3.99985566 4.00009623,4.13433087 4.00009623,4.29983882 L4.00009623,15.6999206 L4.00009623,20 L0.350020448,20 C0.129182804,20 0,19.8708172 0,19.6499796 L0,0.399817171 C0,0.178979528 0.179220092,0 0.400057735,0 L3.65560875,0 C3.87644639,0 4.00009623,0.128942241 4.00009623,0.350020448 L4.00009623,1.43352017 C4.00009623,1.58242921 4.17330222,1.59902812 4.22694797,1.47080757 L4.68185427,0.224446102 C4.74680651,0.0914142751 4.8834468,0 5.04149727,0 L19.6001828,0 C19.8210205,0 20.0002406,0.178979528 20.0002406,0.399817171 L20.0002406,19.5999423 C20.0002406,19.8207799 19.8210205,20 19.6001828,20 L4.1781135,20 Z" id="Fill-23"></path>
            </g>
        </g>
    </g>
</svg>