<?xml version="1.0" encoding="UTF-8" standalone="no"?>
<svg width="85px" height="32px" viewBox="0 0 85 32" version="1.1" xmlns="http://www.w3.org/2000/svg" xmlns:xlink="http://www.w3.org/1999/xlink">
    <!-- Generator: Sketch 3.8.3 (29802) - http://www.bohemiancoding.com/sketch -->
    <title>daat-logo</title>
    <desc>Created with Sketch.</desc>
    <defs>
        <filter x="-50%" y="-50%" width="200%" height="200%" filterUnits="objectBoundingBox" id="filter-1">
            <feOffset dx="1" dy="1" in="SourceAlpha" result="shadowOffsetOuter1"></feOffset>
            <feColorMatrix values="0 0 0 0 0.933333333   0 0 0 0 0.952941176   0 0 0 0 0.964705882  0 0 0 0.7 0" type="matrix" in="shadowOffsetOuter1" result="shadowMatrixOuter1"></feColorMatrix>
            <feMerge>
                <feMergeNode in="shadowMatrixOuter1"></feMergeNode>
                <feMergeNode in="SourceGraphic"></feMergeNode>
            </feMerge>
        </filter>
    </defs>
    <g id="Symbols" stroke="none" stroke-width="1" fill="none" fill-rule="evenodd">
        <g id="daat-logo" fill="#044261">
            <g id="logo_EN" filter="url(#filter-1)" transform="translate(2.000000, -1.000000)">
                <path d="M34.57,19.82 L34.57,15.32 L35.69,15.32 C36.0766686,15.32 36.4016653,15.3749994 36.665,15.485 C36.9283346,15.5950005 37.1399992,15.7533323 37.3,15.96 C37.4600008,16.1666677 37.5749996,16.4149985 37.645,16.705 C37.7150003,16.9950014 37.75,17.3199982 37.75,17.68 C37.75,18.0733353 37.7000005,18.4066653 37.6,18.68 C37.4999995,18.9533347 37.3666675,19.1749991 37.2,19.345 C37.0333325,19.5150008 36.8433344,19.6366663 36.63,19.71 C36.4166656,19.7833337 36.1966678,19.82 35.97,19.82 L34.57,19.82 Z M33,14 L33,21.14 L36.08,21.14 C36.6266694,21.14 37.1016646,21.0483342 37.505,20.865 C37.9083353,20.6816657 38.2449986,20.4300016 38.515,20.11 C38.7850013,19.7899984 38.986666,19.4100022 39.12,18.97 C39.253334,18.5299978 39.32,18.0500026 39.32,17.53 C39.32,16.9366637 39.2383341,16.4200022 39.075,15.98 C38.9116658,15.5399978 38.6850014,15.1733348 38.395,14.88 C38.1049985,14.5866652 37.7616686,14.3666674 37.365,14.22 C36.9683313,14.0733326 36.5400023,14 36.08,14 L33,14 Z M40.2,17.56 C40.2200001,17.226665 40.3033326,16.9500011 40.45,16.73 C40.5966674,16.5099989 40.7833322,16.333334 41.01,16.2 C41.2366678,16.066666 41.4916653,15.9716669 41.775,15.915 C42.0583348,15.858333 42.3433319,15.83 42.63,15.83 C42.8900013,15.83 43.153332,15.8483331 43.42,15.885 C43.686668,15.9216668 43.9299989,15.9933328 44.15,16.1 C44.3700011,16.2066672 44.5499993,16.354999 44.69,16.545 C44.8300007,16.7350009 44.9,16.9866651 44.9,17.3 L44.9,19.99 C44.9,20.2233345 44.9133332,20.4466656 44.94,20.66 C44.9666668,20.8733344 45.013333,21.0333328 45.08,21.14 L43.64,21.14 C43.6133332,21.0599996 43.5916668,20.9783337 43.575,20.895 C43.5583333,20.8116662 43.5466667,20.7266671 43.54,20.64 C43.3133322,20.8733345 43.0466682,21.0366662 42.74,21.13 C42.4333318,21.2233338 42.1200016,21.27 41.8,21.27 C41.5533321,21.27 41.3233344,21.2400003 41.11,21.18 C40.8966656,21.1199997 40.7100008,21.0266673 40.55,20.9 C40.3899992,20.7733327 40.2650005,20.6133343 40.175,20.42 C40.0849996,20.2266657 40.04,19.996668 40.04,19.73 C40.04,19.4366652 40.0916662,19.1950009 40.195,19.005 C40.2983339,18.814999 40.4316659,18.6633339 40.595,18.55 C40.7583342,18.4366661 40.944999,18.3516669 41.155,18.295 C41.3650011,18.238333 41.5766656,18.1933335 41.79,18.16 C42.0033344,18.1266665 42.2133323,18.1000001 42.42,18.08 C42.6266677,18.0599999 42.8099992,18.0300002 42.97,17.99 C43.1300008,17.9499998 43.2566662,17.891667 43.35,17.815 C43.4433338,17.7383329 43.4866667,17.6266674 43.48,17.48 C43.48,17.3266659 43.4550003,17.2050004 43.405,17.115 C43.3549998,17.0249995 43.2883338,16.9550002 43.205,16.905 C43.1216663,16.8549997 43.0250006,16.8216667 42.915,16.805 C42.8049995,16.7883332 42.6866673,16.78 42.56,16.78 C42.2799986,16.78 42.0600008,16.8399994 41.9,16.96 C41.7399992,17.0800006 41.6466668,17.2799986 41.62,17.56 L40.2,17.56 Z M43.48,18.61 C43.4199997,18.6633336 43.3450004,18.7049999 43.255,18.735 C43.1649995,18.7650001 43.0683338,18.7899999 42.965,18.81 C42.8616661,18.8300001 42.7533339,18.8466666 42.64,18.86 C42.5266661,18.8733334 42.4133339,18.8899999 42.3,18.91 C42.1933328,18.9300001 42.0883338,18.9566665 41.985,18.99 C41.8816661,19.0233335 41.791667,19.068333 41.715,19.125 C41.6383329,19.181667 41.5766669,19.2533329 41.53,19.34 C41.4833331,19.4266671 41.46,19.536666 41.46,19.67 C41.46,19.7966673 41.4833331,19.9033329 41.53,19.99 C41.5766669,20.0766671 41.6399996,20.1449998 41.72,20.195 C41.8000004,20.2450003 41.8933328,20.2799999 42,20.3 C42.1066672,20.3200001 42.2166661,20.33 42.33,20.33 C42.6100014,20.33 42.8266659,20.2833338 42.98,20.19 C43.1333341,20.0966662 43.2466663,19.9850006 43.32,19.855 C43.3933337,19.7249994 43.4383332,19.593334 43.455,19.46 C43.4716667,19.326666 43.48,19.2200004 43.48,19.14 L43.48,18.61 Z M45.94,17.56 C45.9600001,17.226665 46.0433326,16.9500011 46.19,16.73 C46.3366674,16.5099989 46.5233322,16.333334 46.75,16.2 C46.9766678,16.066666 47.2316653,15.9716669 47.515,15.915 C47.7983348,15.858333 48.0833319,15.83 48.37,15.83 C48.6300013,15.83 48.893332,15.8483331 49.16,15.885 C49.426668,15.9216668 49.6699989,15.9933328 49.89,16.1 C50.1100011,16.2066672 50.2899993,16.354999 50.43,16.545 C50.5700007,16.7350009 50.64,16.9866651 50.64,17.3 L50.64,19.99 C50.64,20.2233345 50.6533332,20.4466656 50.68,20.66 C50.7066668,20.8733344 50.753333,21.0333328 50.82,21.14 L49.38,21.14 C49.3533332,21.0599996 49.3316668,20.9783337 49.315,20.895 C49.2983333,20.8116662 49.2866667,20.7266671 49.28,20.64 C49.0533322,20.8733345 48.7866682,21.0366662 48.48,21.13 C48.1733318,21.2233338 47.8600016,21.27 47.54,21.27 C47.2933321,21.27 47.0633344,21.2400003 46.85,21.18 C46.6366656,21.1199997 46.4500008,21.0266673 46.29,20.9 C46.1299992,20.7733327 46.0050005,20.6133343 45.915,20.42 C45.8249996,20.2266657 45.78,19.996668 45.78,19.73 C45.78,19.4366652 45.8316662,19.1950009 45.935,19.005 C46.0383339,18.814999 46.1716659,18.6633339 46.335,18.55 C46.4983342,18.4366661 46.684999,18.3516669 46.895,18.295 C47.1050011,18.238333 47.3166656,18.1933335 47.53,18.16 C47.7433344,18.1266665 47.9533323,18.1000001 48.16,18.08 C48.3666677,18.0599999 48.5499992,18.0300002 48.71,17.99 C48.8700008,17.9499998 48.9966662,17.891667 49.09,17.815 C49.1833338,17.7383329 49.2266667,17.6266674 49.22,17.48 C49.22,17.3266659 49.1950003,17.2050004 49.145,17.115 C49.0949998,17.0249995 49.0283338,16.9550002 48.945,16.905 C48.8616663,16.8549997 48.7650006,16.8216667 48.655,16.805 C48.5449995,16.7883332 48.4266673,16.78 48.3,16.78 C48.0199986,16.78 47.8000008,16.8399994 47.64,16.96 C47.4799992,17.0800006 47.3866668,17.2799986 47.36,17.56 L45.94,17.56 Z M49.22,18.61 C49.1599997,18.6633336 49.0850005,18.7049999 48.995,18.735 C48.9049996,18.7650001 48.8083339,18.7899999 48.705,18.81 C48.6016662,18.8300001 48.4933339,18.8466666 48.38,18.86 C48.2666661,18.8733334 48.1533339,18.8899999 48.04,18.91 C47.9333328,18.9300001 47.8283339,18.9566665 47.725,18.99 C47.6216662,19.0233335 47.5316671,19.068333 47.455,19.125 C47.378333,19.181667 47.3166669,19.2533329 47.27,19.34 C47.2233331,19.4266671 47.2,19.536666 47.2,19.67 C47.2,19.7966673 47.2233331,19.9033329 47.27,19.99 C47.3166669,20.0766671 47.3799996,20.1449998 47.46,20.195 C47.5400004,20.2450003 47.6333328,20.2799999 47.74,20.3 C47.8466672,20.3200001 47.9566661,20.33 48.07,20.33 C48.3500014,20.33 48.5666659,20.2833338 48.72,20.19 C48.8733341,20.0966662 48.9866663,19.9850006 49.06,19.855 C49.1333337,19.7249994 49.1783333,19.593334 49.195,19.46 C49.2116668,19.326666 49.22,19.2200004 49.22,19.14 L49.22,18.61 Z M53.54,15.97 L53.54,14.42 L52.12,14.42 L52.12,15.97 L51.26,15.97 L51.26,16.92 L52.12,16.92 L52.12,19.97 C52.12,20.2300013 52.1633329,20.4399992 52.25,20.6 C52.3366671,20.7600008 52.4549993,20.8833329 52.605,20.97 C52.7550008,21.0566671 52.9283324,21.1149998 53.125,21.145 C53.3216677,21.1750001 53.5299989,21.19 53.75,21.19 C53.8900007,21.19 54.0333326,21.1866667 54.18,21.18 C54.3266674,21.1733333 54.4599994,21.1600001 54.58,21.14 L54.58,20.04 C54.513333,20.0533334 54.4433337,20.0633333 54.37,20.07 C54.2966663,20.0766667 54.2200004,20.08 54.14,20.08 C53.8999988,20.08 53.7400004,20.0400004 53.66,19.96 C53.5799996,19.8799996 53.54,19.7200012 53.54,19.48 L53.54,16.92 L54.58,16.92 L54.58,15.97 L53.54,15.97 Z M33,24 L33,31.14 L34.57,31.14 L34.57,28.06 L37.46,28.06 L37.46,31.14 L39.03,31.14 L39.03,24 L37.46,24 L37.46,26.74 L34.57,26.74 L34.57,24 L33,24 Z M40.2,27.56 C40.2200001,27.226665 40.3033326,26.9500011 40.45,26.73 C40.5966674,26.5099989 40.7833322,26.333334 41.01,26.2 C41.2366678,26.066666 41.4916653,25.9716669 41.775,25.915 C42.0583348,25.858333 42.3433319,25.83 42.63,25.83 C42.8900013,25.83 43.153332,25.8483332 43.42,25.885 C43.686668,25.9216669 43.9299989,25.9933328 44.15,26.1 C44.3700011,26.2066672 44.5499993,26.354999 44.69,26.545 C44.8300007,26.7350009 44.9,26.9866651 44.9,27.3 L44.9,29.99 C44.9,30.2233345 44.9133332,30.4466656 44.94,30.66 C44.9666668,30.8733344 45.013333,31.0333328 45.08,31.14 L43.64,31.14 C43.6133332,31.0599996 43.5916668,30.9783338 43.575,30.895 C43.5583333,30.8116663 43.5466667,30.7266671 43.54,30.64 C43.3133322,30.8733345 43.0466682,31.0366662 42.74,31.13 C42.4333318,31.2233338 42.1200016,31.27 41.8,31.27 C41.5533321,31.27 41.3233344,31.2400003 41.11,31.18 C40.8966656,31.1199997 40.7100008,31.0266673 40.55,30.9 C40.3899992,30.7733327 40.2650005,30.6133343 40.175,30.42 C40.0849996,30.2266657 40.04,29.996668 40.04,29.73 C40.04,29.4366652 40.0916662,29.195001 40.195,29.005 C40.2983339,28.8149991 40.4316659,28.6633339 40.595,28.55 C40.7583342,28.4366661 40.944999,28.351667 41.155,28.295 C41.3650011,28.2383331 41.5766656,28.1933335 41.79,28.16 C42.0033344,28.1266665 42.2133323,28.1000001 42.42,28.08 C42.6266677,28.0599999 42.8099992,28.0300002 42.97,27.99 C43.1300008,27.9499998 43.2566662,27.8916671 43.35,27.815 C43.4433338,27.738333 43.4866667,27.6266674 43.48,27.48 C43.48,27.3266659 43.4550003,27.2050005 43.405,27.115 C43.3549998,27.0249996 43.2883338,26.9550003 43.205,26.905 C43.1216663,26.8549998 43.0250006,26.8216667 42.915,26.805 C42.8049995,26.7883333 42.6866673,26.78 42.56,26.78 C42.2799986,26.78 42.0600008,26.8399994 41.9,26.96 C41.7399992,27.0800006 41.6466668,27.2799986 41.62,27.56 L40.2,27.56 Z M43.48,28.61 C43.4199997,28.6633336 43.3450004,28.7049999 43.255,28.735 C43.1649995,28.7650001 43.0683338,28.7899999 42.965,28.81 C42.8616661,28.8300001 42.7533339,28.8466666 42.64,28.86 C42.5266661,28.8733334 42.4133339,28.8899999 42.3,28.91 C42.1933328,28.9300001 42.0883338,28.9566665 41.985,28.99 C41.8816661,29.0233335 41.791667,29.068333 41.715,29.125 C41.6383329,29.181667 41.5766669,29.2533329 41.53,29.34 C41.4833331,29.4266671 41.46,29.536666 41.46,29.67 C41.46,29.7966673 41.4833331,29.9033329 41.53,29.99 C41.5766669,30.0766671 41.6399996,30.1449998 41.72,30.195 C41.8000004,30.2450003 41.8933328,30.2799999 42,30.3 C42.1066672,30.3200001 42.2166661,30.33 42.33,30.33 C42.6100014,30.33 42.8266659,30.2833338 42.98,30.19 C43.1333341,30.0966662 43.2466663,29.9850006 43.32,29.855 C43.3933337,29.7249994 43.4383332,29.593334 43.455,29.46 C43.4716667,29.326666 43.48,29.2200004 43.48,29.14 L43.48,28.61 Z M46.04,25.97 L46.04,31.14 L47.46,31.14 L47.46,28.14 C47.46,27.8866654 47.4966663,27.6816674 47.57,27.525 C47.6433337,27.3683326 47.7316662,27.2483338 47.835,27.165 C47.9383339,27.0816663 48.0449995,27.0250002 48.155,26.995 C48.2650006,26.9649998 48.353333,26.95 48.42,26.95 C48.6466678,26.95 48.8183328,26.988333 48.935,27.065 C49.0516673,27.1416671 49.1349998,27.2433327 49.185,27.37 C49.2350003,27.4966673 49.2633333,27.6349992 49.27,27.785 C49.2766667,27.9350008 49.28,28.0866659 49.28,28.24 L49.28,31.14 L50.7,31.14 L50.7,28.26 C50.7,28.0999992 50.7116666,27.9416675 50.735,27.785 C50.7583335,27.6283325 50.8049997,27.488334 50.875,27.365 C50.9450004,27.241666 51.0416661,27.1416671 51.165,27.065 C51.288334,26.988333 51.449999,26.95 51.65,26.95 C51.850001,26.95 52.0083328,26.983333 52.125,27.05 C52.2416673,27.116667 52.3299997,27.2066661 52.39,27.32 C52.4500003,27.4333339 52.4866666,27.5666659 52.5,27.72 C52.5133334,27.8733341 52.52,28.0366658 52.52,28.21 L52.52,31.14 L53.94,31.14 L53.94,27.68 C53.94,27.346665 53.8933338,27.0616678 53.8,26.825 C53.7066662,26.5883321 53.5766675,26.3966674 53.41,26.25 C53.2433325,26.1033326 53.0433345,25.996667 52.81,25.93 C52.5766655,25.863333 52.3233347,25.83 52.05,25.83 C51.6899982,25.83 51.3783347,25.9166658 51.115,26.09 C50.8516654,26.2633342 50.6433341,26.4633322 50.49,26.69 C50.3499993,26.3699984 50.1450014,26.1466673 49.875,26.02 C49.6049987,25.8933327 49.3066683,25.83 48.98,25.83 C48.6399983,25.83 48.3383347,25.9033326 48.075,26.05 C47.8116654,26.1966674 47.5866676,26.403332 47.4,26.67 L47.38,26.67 L47.38,25.97 L46.04,25.97 Z M55,27.56 C55.0200001,27.226665 55.1033326,26.9500011 55.25,26.73 C55.3966674,26.5099989 55.5833322,26.333334 55.81,26.2 C56.0366678,26.066666 56.2916653,25.9716669 56.575,25.915 C56.8583348,25.858333 57.1433319,25.83 57.43,25.83 C57.6900013,25.83 57.953332,25.8483332 58.22,25.885 C58.486668,25.9216669 58.7299989,25.9933328 58.95,26.1 C59.1700011,26.2066672 59.3499993,26.354999 59.49,26.545 C59.6300007,26.7350009 59.7,26.9866651 59.7,27.3 L59.7,29.99 C59.7,30.2233345 59.7133332,30.4466656 59.74,30.66 C59.7666668,30.8733344 59.813333,31.0333328 59.88,31.14 L58.44,31.14 C58.4133332,31.0599996 58.3916668,30.9783338 58.375,30.895 C58.3583333,30.8116663 58.3466667,30.7266671 58.34,30.64 C58.1133322,30.8733345 57.8466682,31.0366662 57.54,31.13 C57.2333318,31.2233338 56.9200016,31.27 56.6,31.27 C56.3533321,31.27 56.1233344,31.2400003 55.91,31.18 C55.6966656,31.1199997 55.5100008,31.0266673 55.35,30.9 C55.1899992,30.7733327 55.0650005,30.6133343 54.975,30.42 C54.8849996,30.2266657 54.84,29.996668 54.84,29.73 C54.84,29.4366652 54.8916662,29.195001 54.995,29.005 C55.0983339,28.8149991 55.2316659,28.6633339 55.395,28.55 C55.5583342,28.4366661 55.744999,28.351667 55.955,28.295 C56.1650011,28.2383331 56.3766656,28.1933335 56.59,28.16 C56.8033344,28.1266665 57.0133323,28.1000001 57.22,28.08 C57.4266677,28.0599999 57.6099992,28.0300002 57.77,27.99 C57.9300008,27.9499998 58.0566662,27.8916671 58.15,27.815 C58.2433338,27.738333 58.2866667,27.6266674 58.28,27.48 C58.28,27.3266659 58.2550003,27.2050005 58.205,27.115 C58.1549998,27.0249996 58.0883338,26.9550003 58.005,26.905 C57.9216663,26.8549998 57.8250006,26.8216667 57.715,26.805 C57.6049995,26.7883333 57.4866673,26.78 57.36,26.78 C57.0799986,26.78 56.8600008,26.8399994 56.7,26.96 C56.5399992,27.0800006 56.4466668,27.2799986 56.42,27.56 L55,27.56 Z M58.28,28.61 C58.2199997,28.6633336 58.1450005,28.7049999 58.055,28.735 C57.9649996,28.7650001 57.8683339,28.7899999 57.765,28.81 C57.6616662,28.8300001 57.5533339,28.8466666 57.44,28.86 C57.3266661,28.8733334 57.2133339,28.8899999 57.1,28.91 C56.9933328,28.9300001 56.8883339,28.9566665 56.785,28.99 C56.6816662,29.0233335 56.5916671,29.068333 56.515,29.125 C56.438333,29.181667 56.3766669,29.2533329 56.33,29.34 C56.2833331,29.4266671 56.26,29.536666 56.26,29.67 C56.26,29.7966673 56.2833331,29.9033329 56.33,29.99 C56.3766669,30.0766671 56.4399996,30.1449998 56.52,30.195 C56.6000004,30.2450003 56.6933328,30.2799999 56.8,30.3 C56.9066672,30.3200001 57.0166661,30.33 57.13,30.33 C57.4100014,30.33 57.6266659,30.2833338 57.78,30.19 C57.9333341,30.0966662 58.0466663,29.9850006 58.12,29.855 C58.1933337,29.7249994 58.2383333,29.593334 58.255,29.46 C58.2716668,29.326666 58.28,29.2200004 58.28,29.14 L58.28,28.61 Z M60.93,24 L60.93,31.14 L62.35,31.14 L62.35,29.36 L62.9,28.83 L64.32,31.14 L66.04,31.14 L63.87,27.87 L65.82,25.97 L64.14,25.97 L62.35,27.83 L62.35,24 L60.93,24 Z M67.8,28.56 C67.8,28.3533323 67.8199998,28.150001 67.86,27.95 C67.9000002,27.749999 67.9683328,27.5733341 68.065,27.42 C68.1616671,27.2666659 68.2899992,27.1416672 68.45,27.045 C68.6100008,26.9483329 68.8099988,26.9 69.05,26.9 C69.2900012,26.9 69.4916658,26.9483329 69.655,27.045 C69.8183341,27.1416672 69.9483328,27.2666659 70.045,27.42 C70.1416671,27.5733341 70.2099998,27.749999 70.25,27.95 C70.2900002,28.150001 70.31,28.3533323 70.31,28.56 C70.31,28.7666677 70.2900002,28.9683324 70.25,29.165 C70.2099998,29.3616677 70.1416671,29.5383326 70.045,29.695 C69.9483328,29.8516675 69.8183341,29.9766662 69.655,30.07 C69.4916658,30.1633338 69.2900012,30.21 69.05,30.21 C68.8099988,30.21 68.6100008,30.1633338 68.45,30.07 C68.2899992,29.9766662 68.1616671,29.8516675 68.065,29.695 C67.9683328,29.5383326 67.9000002,29.3616677 67.86,29.165 C67.8199998,28.9683324 67.8,28.7666677 67.8,28.56 L67.8,28.56 Z M66.38,28.56 C66.38,28.9733354 66.4433327,29.346665 66.57,29.68 C66.6966673,30.013335 66.8766655,30.2983322 67.11,30.535 C67.3433345,30.7716679 67.6233317,30.9533327 67.95,31.08 C68.2766683,31.2066673 68.6433313,31.27 69.05,31.27 C69.4566687,31.27 69.8249983,31.2066673 70.155,31.08 C70.4850016,30.9533327 70.7666655,30.7716679 71,30.535 C71.2333345,30.2983322 71.4133327,30.013335 71.54,29.68 C71.6666673,29.346665 71.73,28.9733354 71.73,28.56 C71.73,28.1466646 71.6666673,27.7716683 71.54,27.435 C71.4133327,27.0983316 71.2333345,26.8116678 71,26.575 C70.7666655,26.3383321 70.4850016,26.1550006 70.155,26.025 C69.8249983,25.8949993 69.4566687,25.83 69.05,25.83 C68.6433313,25.83 68.2766683,25.8949993 67.95,26.025 C67.6233317,26.1550006 67.3433345,26.3383321 67.11,26.575 C66.8766655,26.8116678 66.6966673,27.0983316 66.57,27.435 C66.4433327,27.7716683 66.38,28.1466646 66.38,28.56 L66.38,28.56 Z M72.69,25.97 L72.69,31.14 L74.11,31.14 L74.11,28.14 C74.11,27.8866654 74.1466663,27.6816674 74.22,27.525 C74.2933337,27.3683326 74.3816662,27.2483338 74.485,27.165 C74.5883339,27.0816663 74.6949995,27.0250002 74.805,26.995 C74.9150006,26.9649998 75.003333,26.95 75.07,26.95 C75.2966678,26.95 75.4683328,26.988333 75.585,27.065 C75.7016673,27.1416671 75.7849998,27.2433327 75.835,27.37 C75.8850003,27.4966673 75.9133333,27.6349992 75.92,27.785 C75.9266667,27.9350008 75.93,28.0866659 75.93,28.24 L75.93,31.14 L77.35,31.14 L77.35,28.26 C77.35,28.0999992 77.3616666,27.9416675 77.385,27.785 C77.4083335,27.6283325 77.4549997,27.488334 77.525,27.365 C77.5950004,27.241666 77.6916661,27.1416671 77.815,27.065 C77.938334,26.988333 78.099999,26.95 78.3,26.95 C78.500001,26.95 78.6583328,26.983333 78.775,27.05 C78.8916673,27.116667 78.9799997,27.2066661 79.04,27.32 C79.1000003,27.4333339 79.1366666,27.5666659 79.15,27.72 C79.1633334,27.8733341 79.17,28.0366658 79.17,28.21 L79.17,31.14 L80.59,31.14 L80.59,27.68 C80.59,27.346665 80.5433338,27.0616678 80.45,26.825 C80.3566662,26.5883321 80.2266675,26.3966674 80.06,26.25 C79.8933325,26.1033326 79.6933345,25.996667 79.46,25.93 C79.2266655,25.863333 78.9733347,25.83 78.7,25.83 C78.3399982,25.83 78.0283347,25.9166658 77.765,26.09 C77.5016654,26.2633342 77.2933341,26.4633322 77.14,26.69 C76.9999993,26.3699984 76.7950014,26.1466673 76.525,26.02 C76.2549987,25.8933327 75.9566683,25.83 75.63,25.83 C75.2899983,25.83 74.9883347,25.9033326 74.725,26.05 C74.4616654,26.1966674 74.2366676,26.403332 74.05,26.67 L74.03,26.67 L74.03,25.97 L72.69,25.97 Z" id="Daat"></path>
                <path d="M6.26709487,30.9996392 L9.41724101,25.3669036 C9.41724101,25.3669036 9.43780897,25.3286544 9.47930574,25.256847 C9.58900155,25.0670443 9.7755566,24.999567 9.97871035,24.999567 L23.5499585,24.999567 C23.7985783,24.999567 23.9999278,24.7982174 23.9999278,24.5495977 L23.9999278,7.44968066 C23.9999278,7.20142172 23.7985783,6.99971133 23.5499585,6.99971133 L6.4500415,6.99971133 C6.20142172,6.99971133 6.00007217,7.20142172 6.00007217,7.44968066 L6.00007217,24.5495977 L6.00007217,30.9996392 L0.525024357,30.9996392 C0.193771876,30.9996392 0,30.8058673 0,30.4746148 L0,1.59971854 C0,1.26846606 0.268826904,1 0.600079385,1 L5.48334717,1 C5.81459965,1 6.00007217,1.19341103 6.00007217,1.52502436 L6.00007217,3.15025439 C6.00007217,3.37361527 6.25987804,3.39851333 6.34034569,3.20618482 L7.02269693,1.3366651 C7.12012413,1.13711976 7.32508209,1 7.56215495,1 L29.3999206,1 C29.7311731,1 30,1.26846606 30,1.59971854 L30,30.3995598 C30,30.7308123 29.7311731,30.9996392 29.3999206,30.9996392 L6.26709487,30.9996392 Z" id="Fill-23"></path>
            </g>
        </g>
    </g>
</svg>