<?xml version="1.0" encoding="UTF-8" standalone="no"?>
<svg width="329px" height="38px" viewBox="0 0 329 38" version="1.1" xmlns="http://www.w3.org/2000/svg" xmlns:xlink="http://www.w3.org/1999/xlink">
    <!-- Generator: Sketch 3.8.3 (29802) - http://www.bohemiancoding.com/sketch -->
    <title>jewish_cultures_on_the_map_negative</title>
    <desc>Created with Sketch.</desc>
    <defs>
        <path d="M6.08029805,17 C5.00890867,19.9458415 2.25752032,22.8058087 2.25752032,22.8058087 C-0.085760447,25.3667421 -0.0859197626,29.5181271 2.25752032,32.0792346 C4.60080108,34.6401681 8.39936161,34.6403422 10.7428017,32.0792346 C13.0860825,29.5183012 13.0862418,25.3669162 10.7428017,22.8058087 C10.7428017,22.8058087 7.99120453,19.9458415 6.919902,17 C7.99120453,14.0541585 10.7428017,11.1941913 10.7428017,11.1941913 C13.0862418,8.63308378 13.0860825,4.48169878 10.7428017,1.92076536 C8.39936161,-0.640342176 4.60080108,-0.640168062 2.25752032,1.92076536 C-0.0859197626,4.48187289 -0.085760447,8.6332579 2.25752032,11.1941913 C2.25752032,11.1941913 5.00890867,14.0541585 6.08029805,17 Z" id="path-1"></path>
        <mask id="mask-2" maskContentUnits="userSpaceOnUse" maskUnits="objectBoundingBox" x="-2" y="-2" width="16.000322" height="38">
            <rect x="-1.5" y="-2" width="16.000322" height="38" fill="white"></rect>
            <use xlink:href="#path-1" fill="black"></use>
        </mask>
        <mask id="mask-4" maskContentUnits="userSpaceOnUse" maskUnits="objectBoundingBox" x="-2" y="-2" width="16.000322" height="38">
            <rect x="-1.5" y="-2" width="16.000322" height="38" fill="white"></rect>
            <use xlink:href="#path-1" fill="black"></use>
        </mask>
    </defs>
    <g id="Symbols" stroke="none" stroke-width="1" fill="none" fill-rule="evenodd">
        <g id="jewish_cultures_on_the_map_negative">
            <g id="Group-Copy-2">
                <path d="M8.08029805,19 C7.00890867,21.9458415 4.25752032,24.8058087 4.25752032,24.8058087 C1.91423955,27.3667421 1.91408024,31.5181271 4.25752032,34.0792346 C6.60080108,36.6401681 10.3993616,36.6403422 12.7428017,34.0792346 C15.0860825,31.5183012 15.0862418,27.3669162 12.7428017,24.8058087 C12.7428017,24.8058087 9.99120453,21.9458415 8.919902,19 C9.99120453,16.0541585 12.7428017,13.1941913 12.7428017,13.1941913 C15.0862418,10.6330838 15.0860825,6.48169878 12.7428017,3.92076536 C10.3993616,1.35965782 6.60080108,1.35983194 4.25752032,3.92076536 C1.91408024,6.48187289 1.91423955,10.6332579 4.25752032,13.1941913 C4.25752032,13.1941913 7.00890867,16.0541585 8.08029805,19 Z M14.1271722,36 C15.2245661,34.8571428 16.2697133,33.16673 16.50647,30.7725441 C17.1289312,24.4779489 10.8931882,23.5501779 10.0471255,18.9913025 C11.1479266,14.6672389 17.1216364,13.5939253 16.5487859,7.41135141 C16.314548,4.88330351 15.1792344,3.14141543 14.0239463,1.99831005 L16.0000398,1.99831005 C16.5452911,1.99831005 17,1.55097311 17,0.999155024 C17,0.443489767 16.5523026,0 16.0000398,0 L0.999960201,0 C0.454708934,0 0,0.447336941 0,0.999155024 C0,1.55482028 0.447697432,1.99831005 0.999960201,1.99831005 L2.97605369,1.99831005 C1.82076559,3.14141543 0.685452014,4.88330351 0.451214069,7.41135141 C-0.121636394,13.5939253 5.85207338,14.6672389 6.9528745,18.9913025 C6.10681176,23.5501779 -0.128931228,24.4779489 0.493529977,30.7725441 C0.730286721,33.16673 1.77543392,34.8571428 2.87282783,36 L0.999960201,36 C0.447697432,36 0,36.4434898 0,36.999155 C0,37.5509731 0.454708934,37.99831 0.999960201,37.99831 L5.69293237,37.99831 C5.73527435,38.016211 5.75792402,38.024856 5.75792402,38.024856 L8.2943519,38.0297252 L8.5,38.03012 L8.70564898,38.0305147 L11.242076,38.024856 C11.242076,38.024856 11.2647256,38.016211 11.3070676,37.99831 L16.0000398,37.99831 C16.5523026,37.99831 17,37.5548203 17,36.999155 C17,36.4473369 16.5452911,36 16.0000398,36 L14.1271722,36 Z" id="Combined-Shape" fill="#FFFFFF"></path>
                <g id="Group" transform="translate(2.000000, 2.000000)">
                    <mask id="mask-3" fill="white">
                        <use xlink:href="#path-1"></use>
                    </mask>
                    <g id="Combined-Shape" stroke="#FFFFFF" mask="url(#mask-2)" stroke-width="4">
                        <use mask="url(#mask-4)" xlink:href="#path-1"></use>
                    </g>
                    <rect id="Rectangle-197" fill="#2DC6E0" mask="url(#mask-3)" x="-1" y="7" width="15" height="10"></rect>
                    <rect id="Rectangle-197-Copy" fill="#2DC6E0" mask="url(#mask-3)" x="-1" y="27" width="15" height="10"></rect>
                </g>
                <g id="Group-2" transform="translate(6.500000, 7.250000)" fill="#FFFFFF">
                    <ellipse id="Oval-73-Copy" cx="2" cy="22" rx="2" ry="2"></ellipse>
                    <ellipse id="Oval-73" cx="2" cy="2" rx="2" ry="2"></ellipse>
                </g>
            </g>
            <path d="M22.74,21.38 C22.3533314,21.0999986 21.9066692,20.6866694 21.4,20.14 L23.02,18.18 L23.02,9.9 C23.02,9.5533316 22.9933336,9.3233339 22.94,9.21 C22.8866664,9.0966661 22.7466678,8.9933338 22.52,8.9 L21.5,8.3 L21.58,6.52 L28,6.52 L28.1,8.56 L26.64,8.96 L26.64,15.36 C26.64,16.7733404 26.5266678,17.9299955 26.3,18.83 C26.0733322,19.7300045 25.6666696,20.6333288 25.08,21.54 L24.46,22.42 C23.6999962,22.0066646 23.1266686,21.6600014 22.74,21.38 L22.74,21.38 Z M29.73,18.82 C28.8833291,17.8733286 28.46,16.566675 28.46,14.9 C28.46,13.7399942 28.6666646,12.7433375 29.08,11.91 C29.4933354,11.0766625 30.0799962,10.4400022 30.84,10 C31.6000038,9.5599978 32.4866616,9.34 33.5,9.34 C35.0066742,9.34 36.1633293,9.8199952 36.97,10.78 C37.7766707,11.7400048 38.1600002,13.1066578 38.12,14.88 L32.04,16 C32.2266676,16.5600028 32.4899983,16.9699987 32.83,17.23 C33.1700017,17.4900013 33.6199972,17.62 34.18,17.62 C34.5666686,17.62 35.026664,17.5633339 35.56,17.45 C36.093336,17.3366661 36.6333306,17.180001 37.18,16.98 L37.64,18.96 C37.1466642,19.3333352 36.5066706,19.6399988 35.72,19.88 C34.9333294,20.1200012 34.140004,20.24 33.34,20.24 C31.7799922,20.24 30.5766709,19.7666714 29.73,18.82 L29.73,18.82 Z M34.84,13.2 C34.8133332,12.6933308 34.6700013,12.3233345 34.41,12.09 C34.1499987,11.8566655 33.786669,11.74 33.32,11.74 C32.9333314,11.74 32.5666684,11.7933328 32.22,11.9 C31.9399986,12.5533366 31.8133332,13.2599962 31.84,14.02 L34.84,13.2 Z M39.62,12.28 C39.4733326,11.9199982 39.3733336,11.6866672 39.32,11.58 C39.2666664,11.4733328 39.1666674,11.3266676 39.02,11.14 L38.68,10.7 L38.78,9.54 L43.84,9.54 L44.04,11.24 L42.94,11.5 L44.3,16.36 L46.28,9.7 L48.34,9.42 L50.62,16.54 L51.9,11.94 C51.9266668,11.8599996 51.94,11.8000002 51.94,11.76 C51.94,11.6399994 51.8800006,11.5600002 51.76,11.52 L50.8,11.12 L51,9.54 L54.8,9.54 L55,11.1 L51.56,20.1 L48.68,20.32 L47.02,14.76 L45.2,20.1 L42.32,20.32 L39.62,12.28 Z M56.8,5.2 L60.2,4.3 L61.02,7.34 L57.64,8.26 L56.8,5.2 Z M55.96,18.16 L57.36,17.74 L57.36,12.88 C57.36,12.5866652 57.3366669,12.3966671 57.29,12.31 C57.2433331,12.2233329 57.1266676,12.1266672 56.94,12.02 L56.06,11.54 L56.16,10.04 C57.2666722,9.8266656 58.1233303,9.6700005 58.73,9.57 C59.3366697,9.4699995 59.8933308,9.4133334 60.4,9.4 C60.5733342,9.9733362 60.6799998,10.3999986 60.72,10.68 L60.72,17.08 C60.72,17.3600014 60.7399998,17.5466662 60.78,17.64 C60.8200002,17.7333338 60.9333324,17.8333328 61.12,17.94 L62.1,18.5 L62.02,20 L56.02,20 L55.96,18.16 Z M62.96,19.78 C63.0400004,18.4733268 63.1266662,17.5066698 63.22,16.88 L64.36,16.66 L65.62,18 C66.0600022,18.133334 66.5533306,18.2 67.1,18.2 C67.4066682,18.2 67.6466658,18.1800002 67.82,18.14 C67.8600002,18.0333328 67.88,17.8866676 67.88,17.7 C67.88,17.5399992 67.8433337,17.4066672 67.77,17.3 C67.6966663,17.1933328 67.5333346,17.0666674 67.28,16.92 C67.0266654,16.7733326 66.5866698,16.5466682 65.96,16.24 C65.1733294,15.8266646 64.5733354,15.4566683 64.16,15.13 C63.7466646,14.8033317 63.4500009,14.4666684 63.27,14.12 C63.0899991,13.7733316 63,13.3600024 63,12.88 C63,11.813328 63.3966627,10.9666698 64.19,10.34 C64.9833373,9.7133302 66.0599932,9.4 67.42,9.4 C67.9800028,9.4 68.5699969,9.4633327 69.19,9.59 C69.8100031,9.7166673 70.3666642,9.8866656 70.86,10.1 C70.86,10.966671 70.8000006,11.933328 70.68,13 L69.64,13.16 L68.3,11.72 C67.9533316,11.6133328 67.44667,11.56 66.78,11.56 C66.6733328,11.56 66.4600016,11.5733332 66.14,11.6 C66.0999998,11.6800004 66.08,11.8066658 66.08,11.98 C66.08,12.1666676 66.1333328,12.3299993 66.24,12.47 C66.3466672,12.6100007 66.5366653,12.7633325 66.81,12.93 C67.0833347,13.0966675 67.519997,13.3333318 68.12,13.64 C69.0000044,14.0666688 69.6633311,14.4366651 70.11,14.75 C70.5566689,15.0633349 70.8699991,15.3799984 71.05,15.7 C71.2300009,16.0200016 71.32,16.4066644 71.32,16.86 C71.32,17.9533388 70.9033375,18.8066636 70.07,19.42 C69.2366625,20.0333364 68.086674,20.34 66.62,20.34 C65.5666614,20.34 64.3466736,20.1533352 62.96,19.78 L62.96,19.78 Z M71.94,18.1 L73.18,17.74 L73.18,8.16 C73.18,7.8666652 73.1600002,7.6766671 73.12,7.59 C73.0799998,7.5033329 72.9733342,7.4066672 72.8,7.3 L71.92,6.84 L71.98,5.32 L72.6,5.22 C74.3600088,4.8999984 75.5933298,4.7266668 76.3,4.7 C76.4200006,5.0200016 76.5066664,5.3666648 76.56,5.74 L76.56,10.3 C77.293337,9.966665 77.9166641,9.7233341 78.43,9.57 C78.9433359,9.4166659 79.4533308,9.34 79.96,9.34 C82.0400104,9.34 83.08,10.606654 83.08,13.14 L83.08,17.08 C83.08,17.3600014 83.0999998,17.5466662 83.14,17.64 C83.1800002,17.7333338 83.2933324,17.8333328 83.48,17.94 L84.44,18.5 L84.36,20 L78.84,20 L78.74,18.1 L79.72,17.82 L79.72,14.02 C79.72,13.4333304 79.7033335,13.0166679 79.67,12.77 C79.6366665,12.5233321 79.5266676,12.333334 79.34,12.2 C79.1533324,12.066666 78.8400022,12 78.4,12 C77.9733312,12 77.360004,12.0733326 76.56,12.22 L76.56,17.08 C76.56,17.3600014 76.5799998,17.5466662 76.62,17.64 C76.6600002,17.7333338 76.7666658,17.8333328 76.94,17.94 L77.92,18.5 L77.84,20 L72.04,20 L71.94,18.1 Z M90.4,18.44 C89.3066612,17.1999938 88.76,15.446678 88.76,13.18 C88.76,11.7399928 89.0233307,10.4966719 89.55,9.45 C90.0766693,8.4033281 90.839995,7.6033361 91.84,7.05 C92.840005,6.4966639 94.0266598,6.22 95.4,6.22 C96.9600078,6.22 98.5666584,6.5733298 100.22,7.28 C100.099999,8.480006 99.906668,9.8066594 99.64,11.26 L98.12,11.36 L96.74,9.34 C96.1533304,9.1666658 95.5066702,9.08 94.8,9.08 C94.266664,9.08 93.7600024,9.1266662 93.28,9.22 C93.0666656,9.6333354 92.893334,10.1799966 92.76,10.86 C92.626666,11.5400034 92.56,12.2266632 92.56,12.92 C92.56,14.4000074 92.8299973,15.4966631 93.37,16.21 C93.9100027,16.9233369 94.7666608,17.2933332 95.94,17.32 C96.406669,17.32 96.9966631,17.2500007 97.71,17.11 C98.4233369,16.9699993 99.1199966,16.7866678 99.8,16.56 L100.42,18.76 C99.7266632,19.2133356 98.8900049,19.5833319 97.91,19.87 C96.9299951,20.1566681 95.9866712,20.3 95.08,20.3 C93.0533232,20.3 91.4933388,19.6800062 90.4,18.44 L90.4,18.44 Z M103.16,19.33 C102.639997,18.6966635 102.38,17.7400064 102.38,16.46 L102.38,12.88 C102.38,12.5866652 102.356667,12.3966671 102.31,12.31 C102.263333,12.2233329 102.146668,12.1266672 101.96,12.02 L101.06,11.54 L101.16,10.04 C101.346668,10.0133332 101.48,9.9866668 101.56,9.96 C101.706667,9.9333332 102.229996,9.8400008 103.13,9.68 C104.030005,9.5199992 104.779997,9.4266668 105.38,9.4 C105.526667,9.733335 105.64,10.1199978 105.72,10.56 L105.72,15.6 C105.72,16.1866696 105.736667,16.5999988 105.77,16.84 C105.803334,17.0800012 105.909999,17.2633327 106.09,17.39 C106.270001,17.5166673 106.579998,17.58 107.02,17.58 C107.660003,17.58 108.279997,17.4666678 108.88,17.24 L108.88,12.88 C108.88,12.5866652 108.86,12.3966671 108.82,12.31 C108.78,12.2233329 108.673334,12.1266672 108.5,12.02 L107.62,11.54 L107.7,10.04 C108.780005,9.839999 109.62333,9.6866672 110.23,9.58 C110.83667,9.4733328 111.393331,9.4133334 111.9,9.4 C112.046667,9.733335 112.16,10.1199978 112.24,10.56 L112.24,17.12 C112.24,17.3600012 112.26,17.5266662 112.3,17.62 C112.34,17.7133338 112.433333,17.8066662 112.58,17.9 L113.38,18.36 L113.32,19.6 C112.746664,19.7466674 112.08667,19.8766661 111.34,19.99 C110.59333,20.1033339 109.900003,20.1733332 109.26,20.2 C109.206666,20.0399992 109.146667,19.8400012 109.08,19.6 C109.066667,19.4933328 109.033334,19.3666674 108.98,19.22 L108.92,19.22 C108.373331,19.5400016 107.79667,19.7966657 107.19,19.99 C106.58333,20.1833343 106.033336,20.28 105.54,20.28 C104.473328,20.28 103.680003,19.9633365 103.16,19.33 L103.16,19.33 Z M113.96,18.16 L115.36,17.74 L115.36,8.16 C115.36,7.8666652 115.336667,7.6766671 115.29,7.59 C115.243333,7.5033329 115.126668,7.4066672 114.94,7.3 L114.06,6.84 L114.16,5.32 C114.426668,5.2666664 114.633333,5.2333334 114.78,5.22 C116.540009,4.8999984 117.766663,4.7266668 118.46,4.7 C118.593334,5.0066682 118.68,5.3533314 118.72,5.74 L118.72,17.08 C118.72,17.3600014 118.74,17.5466662 118.78,17.64 C118.82,17.7333338 118.933332,17.8333328 119.12,17.94 L120.1,18.5 L120.02,20 L114.02,20 L113.96,18.16 Z M122.44,19.39 C121.879997,18.8099971 121.6,17.9266726 121.6,16.74 L121.6,11.88 L120.2,11.88 L120.2,10.42 L123.8,7.14 L124.96,7.28 L124.96,9.54 L128.32,9.54 L128.32,11.9 L124.96,11.9 L124.96,16.02 C124.96,16.6600032 125.049999,17.0866656 125.23,17.3 C125.410001,17.5133344 125.759997,17.62 126.28,17.62 C126.720002,17.62 127.333329,17.5600006 128.12,17.44 L128.36,19.48 C127.879998,19.7066678 127.343336,19.8933326 126.75,20.04 C126.156664,20.1866674 125.586669,20.26 125.04,20.26 C123.866661,20.26 123.000003,19.9700029 122.44,19.39 L122.44,19.39 Z M131.26,19.33 C130.739997,18.6966635 130.48,17.7400064 130.48,16.46 L130.48,12.88 C130.48,12.5866652 130.456667,12.3966671 130.41,12.31 C130.363333,12.2233329 130.246668,12.1266672 130.06,12.02 L129.16,11.54 L129.26,10.04 C129.446668,10.0133332 129.58,9.9866668 129.66,9.96 C129.806667,9.9333332 130.329996,9.8400008 131.23,9.68 C132.130005,9.5199992 132.879997,9.4266668 133.48,9.4 C133.626667,9.733335 133.74,10.1199978 133.82,10.56 L133.82,15.6 C133.82,16.1866696 133.836667,16.5999988 133.87,16.84 C133.903334,17.0800012 134.009999,17.2633327 134.19,17.39 C134.370001,17.5166673 134.679998,17.58 135.12,17.58 C135.760003,17.58 136.379997,17.4666678 136.98,17.24 L136.98,12.88 C136.98,12.5866652 136.96,12.3966671 136.92,12.31 C136.88,12.2233329 136.773334,12.1266672 136.6,12.02 L135.72,11.54 L135.8,10.04 C136.880005,9.839999 137.72333,9.6866672 138.33,9.58 C138.93667,9.4733328 139.493331,9.4133334 140,9.4 C140.146667,9.733335 140.26,10.1199978 140.34,10.56 L140.34,17.12 C140.34,17.3600012 140.36,17.5266662 140.4,17.62 C140.44,17.7133338 140.533333,17.8066662 140.68,17.9 L141.48,18.36 L141.42,19.6 C140.846664,19.7466674 140.18667,19.8766661 139.44,19.99 C138.69333,20.1033339 138.000003,20.1733332 137.36,20.2 C137.306666,20.0399992 137.246667,19.8400012 137.18,19.6 C137.166667,19.4933328 137.133334,19.3666674 137.08,19.22 L137.02,19.22 C136.473331,19.5400016 135.89667,19.7966657 135.29,19.99 C134.68333,20.1833343 134.133336,20.28 133.64,20.28 C132.573328,20.28 131.780003,19.9633365 131.26,19.33 L131.26,19.33 Z M142.3,18.1 L143.52,17.74 L143.52,12.88 C143.52,12.5866652 143.5,12.3966671 143.46,12.31 C143.42,12.2233329 143.313334,12.1266672 143.14,12.02 L142.26,11.54 L142.32,10.04 C142.546668,9.9866664 142.739999,9.9533334 142.9,9.94 C144.513341,9.606665 145.706663,9.4266668 146.48,9.4 C146.600001,9.7466684 146.713333,10.1799974 146.82,10.7 C147.620004,10.0733302 148.299997,9.6400012 148.86,9.4 L150,9.4 C149.986667,9.9066692 149.953334,10.4566637 149.9,11.05 C149.846666,11.6433363 149.78,12.1199982 149.7,12.48 C149.219998,12.4533332 148.866668,12.44 148.64,12.44 C148.079997,12.44 147.500003,12.473333 146.9,12.54 L146.9,17.08 C146.9,17.3600014 146.92,17.5466662 146.96,17.64 C147,17.7333338 147.106666,17.8333328 147.28,17.94 L148.48,18.58 L148.4,20 L142.4,20 L142.3,18.1 Z M151.85,18.82 C151.003329,17.8733286 150.58,16.566675 150.58,14.9 C150.58,13.7399942 150.786665,12.7433375 151.2,11.91 C151.613335,11.0766625 152.199996,10.4400022 152.96,10 C153.720004,9.5599978 154.606662,9.34 155.62,9.34 C157.126674,9.34 158.283329,9.8199952 159.09,10.78 C159.896671,11.7400048 160.28,13.1066578 160.24,14.88 L154.16,16 C154.346668,16.5600028 154.609998,16.9699987 154.95,17.23 C155.290002,17.4900013 155.739997,17.62 156.3,17.62 C156.686669,17.62 157.146664,17.5633339 157.68,17.45 C158.213336,17.3366661 158.753331,17.180001 159.3,16.98 L159.76,18.96 C159.266664,19.3333352 158.626671,19.6399988 157.84,19.88 C157.053329,20.1200012 156.260004,20.24 155.46,20.24 C153.899992,20.24 152.696671,19.7666714 151.85,18.82 L151.85,18.82 Z M156.96,13.2 C156.933333,12.6933308 156.790001,12.3233345 156.53,12.09 C156.269999,11.8566655 155.906669,11.74 155.44,11.74 C155.053331,11.74 154.686668,11.7933328 154.34,11.9 C154.059999,12.5533366 153.933333,13.2599962 153.96,14.02 L156.96,13.2 Z M161.42,19.78 C161.5,18.4733268 161.586666,17.5066698 161.68,16.88 L162.82,16.66 L164.08,18 C164.520002,18.133334 165.013331,18.2 165.56,18.2 C165.866668,18.2 166.106666,18.1800002 166.28,18.14 C166.32,18.0333328 166.34,17.8866676 166.34,17.7 C166.34,17.5399992 166.303334,17.4066672 166.23,17.3 C166.156666,17.1933328 165.993335,17.0666674 165.74,16.92 C165.486665,16.7733326 165.04667,16.5466682 164.42,16.24 C163.633329,15.8266646 163.033335,15.4566683 162.62,15.13 C162.206665,14.8033317 161.910001,14.4666684 161.73,14.12 C161.549999,13.7733316 161.46,13.3600024 161.46,12.88 C161.46,11.813328 161.856663,10.9666698 162.65,10.34 C163.443337,9.7133302 164.519993,9.4 165.88,9.4 C166.440003,9.4 167.029997,9.4633327 167.65,9.59 C168.270003,9.7166673 168.826664,9.8866656 169.32,10.1 C169.32,10.966671 169.260001,11.933328 169.14,13 L168.1,13.16 L166.76,11.72 C166.413332,11.6133328 165.90667,11.56 165.24,11.56 C165.133333,11.56 164.920002,11.5733332 164.6,11.6 C164.56,11.6800004 164.54,11.8066658 164.54,11.98 C164.54,12.1666676 164.593333,12.3299993 164.7,12.47 C164.806667,12.6100007 164.996665,12.7633325 165.27,12.93 C165.543335,13.0966675 165.979997,13.3333318 166.58,13.64 C167.460004,14.0666688 168.123331,14.4366651 168.57,14.75 C169.016669,15.0633349 169.329999,15.3799984 169.51,15.7 C169.690001,16.0200016 169.78,16.4066644 169.78,16.86 C169.78,17.9533388 169.363338,18.8066636 168.53,19.42 C167.696663,20.0333364 166.546674,20.34 165.08,20.34 C164.026661,20.34 162.806674,20.1533352 161.42,19.78 L161.42,19.78 Z M175.75,18.96 C174.916663,18.093329 174.5,16.7666756 174.5,14.98 C174.5,13.8333276 174.709998,12.8333376 175.13,11.98 C175.550002,11.1266624 176.153329,10.4733356 176.94,10.02 C177.726671,9.5666644 178.653328,9.34 179.72,9.34 C183.173351,9.34 184.9,11.1266488 184.9,14.7 C184.9,16.4466754 184.430005,17.8099951 183.49,18.79 C182.549995,19.7700049 181.233342,20.26 179.54,20.26 C177.846658,20.26 176.583338,19.826671 175.75,18.96 L175.75,18.96 Z M180.56,17.85 C180.760001,17.8033331 180.973332,17.7266672 181.2,17.62 C181.28,17.3133318 181.346666,16.9200024 181.4,16.44 C181.453334,15.9599976 181.48,15.5000022 181.48,15.06 C181.48,13.9799946 181.310002,13.1600028 180.97,12.6 C180.629998,12.0399972 180.12667,11.76 179.46,11.76 C179.019998,11.76 178.573336,11.8199994 178.12,11.94 C178.026666,12.140001 177.953334,12.4633311 177.9,12.91 C177.846666,13.3566689 177.82,13.8666638 177.82,14.44 C177.82,15.5600056 177.996665,16.419997 178.35,17.02 C178.703335,17.620003 179.206663,17.92 179.86,17.92 C180.126668,17.92 180.359999,17.8966669 180.56,17.85 L180.56,17.85 Z M185.88,18.08 L187.12,17.72 L187.12,12.88 C187.12,12.5866652 187.1,12.3966671 187.06,12.31 C187.02,12.2233329 186.913334,12.1266672 186.74,12.02 L185.86,11.54 L185.92,10.04 L186.36,9.96 C188.106675,9.6133316 189.366663,9.4266668 190.14,9.4 C190.246667,9.6800014 190.333333,9.986665 190.4,10.32 C191.213337,9.9466648 191.876664,9.6900007 192.39,9.55 C192.903336,9.4099993 193.386664,9.34 193.84,9.34 C195.960011,9.34 197.02,10.606654 197.02,13.14 L197.02,17.06 C197.02,17.3400014 197.04,17.5266662 197.08,17.62 C197.12,17.7133338 197.233332,17.8133328 197.42,17.92 L198.38,18.48 L198.3,19.98 L192.78,19.98 L192.68,18.08 L193.66,17.8 L193.66,14.02 C193.66,13.419997 193.64,13.0000012 193.6,12.76 C193.56,12.5199988 193.450001,12.333334 193.27,12.2 C193.089999,12.066666 192.773336,12 192.32,12 C191.839998,12 191.233337,12.0733326 190.5,12.22 L190.5,17.06 C190.5,17.3400014 190.52,17.5266662 190.56,17.62 C190.6,17.7133338 190.706666,17.8133328 190.88,17.92 L191.86,18.48 L191.78,19.98 L185.98,19.98 L185.88,18.08 Z M204.52,19.39 C203.959997,18.8099971 203.68,17.9266726 203.68,16.74 L203.68,11.88 L202.28,11.88 L202.28,10.42 L205.88,7.14 L207.04,7.28 L207.04,9.54 L210.4,9.54 L210.4,11.9 L207.04,11.9 L207.04,16.02 C207.04,16.6600032 207.129999,17.0866656 207.31,17.3 C207.490001,17.5133344 207.839997,17.62 208.36,17.62 C208.800002,17.62 209.413329,17.5600006 210.2,17.44 L210.44,19.48 C209.959998,19.7066678 209.423336,19.8933326 208.83,20.04 C208.236664,20.1866674 207.666669,20.26 207.12,20.26 C205.946661,20.26 205.080003,19.9700029 204.52,19.39 L204.52,19.39 Z M211.28,18.1 L212.52,17.74 L212.52,8.16 C212.52,7.8666652 212.5,7.6766671 212.46,7.59 C212.42,7.5033329 212.313334,7.4066672 212.14,7.3 L211.26,6.84 L211.32,5.32 L211.94,5.22 C213.700009,4.8999984 214.93333,4.7266668 215.64,4.7 C215.760001,5.0200016 215.846666,5.3666648 215.9,5.74 L215.9,10.3 C216.633337,9.966665 217.256664,9.7233341 217.77,9.57 C218.283336,9.4166659 218.793331,9.34 219.3,9.34 C221.38001,9.34 222.42,10.606654 222.42,13.14 L222.42,17.08 C222.42,17.3600014 222.44,17.5466662 222.48,17.64 C222.52,17.7333338 222.633332,17.8333328 222.82,17.94 L223.78,18.5 L223.7,20 L218.18,20 L218.08,18.1 L219.06,17.82 L219.06,14.02 C219.06,13.4333304 219.043334,13.0166679 219.01,12.77 C218.976667,12.5233321 218.866668,12.333334 218.68,12.2 C218.493332,12.066666 218.180002,12 217.74,12 C217.313331,12 216.700004,12.0733326 215.9,12.22 L215.9,17.08 C215.9,17.3600014 215.92,17.5466662 215.96,17.64 C216,17.7333338 216.106666,17.8333328 216.28,17.94 L217.26,18.5 L217.18,20 L211.38,20 L211.28,18.1 Z M225.53,18.82 C224.683329,17.8733286 224.26,16.566675 224.26,14.9 C224.26,13.7399942 224.466665,12.7433375 224.88,11.91 C225.293335,11.0766625 225.879996,10.4400022 226.64,10 C227.400004,9.5599978 228.286662,9.34 229.3,9.34 C230.806674,9.34 231.963329,9.8199952 232.77,10.78 C233.576671,11.7400048 233.96,13.1066578 233.92,14.88 L227.84,16 C228.026668,16.5600028 228.289998,16.9699987 228.63,17.23 C228.970002,17.4900013 229.419997,17.62 229.98,17.62 C230.366669,17.62 230.826664,17.5633339 231.36,17.45 C231.893336,17.3366661 232.433331,17.180001 232.98,16.98 L233.44,18.96 C232.946664,19.3333352 232.306671,19.6399988 231.52,19.88 C230.733329,20.1200012 229.940004,20.24 229.14,20.24 C227.579992,20.24 226.376671,19.7666714 225.53,18.82 L225.53,18.82 Z M230.64,13.2 C230.613333,12.6933308 230.470001,12.3233345 230.21,12.09 C229.949999,11.8566655 229.586669,11.74 229.12,11.74 C228.733331,11.74 228.366668,11.7933328 228.02,11.9 C227.739999,12.5533366 227.613333,13.2599962 227.64,14.02 L230.64,13.2 Z M243.06,11.16 L242.62,17.08 L242.62,17.16 C242.62,17.4133346 242.713332,17.5799996 242.9,17.66 L244.14,18.18 L243.94,20 L238.96,20 L238.76,18.22 L239.68,17.66 L240.82,9.94 C240.833333,9.8466662 240.84,9.733334 240.84,9.6 C240.84,9.4399992 240.803334,9.3200004 240.73,9.24 C240.656666,9.1599996 240.520001,9.0600006 240.32,8.94 L239.4,8.42 L239.52,6.52 L245.26,6.52 L248.12,15.84 L250.96,6.52 L256.32,6.52 L256.4,8.62 L255.12,8.94 L256.2,16.78 C256.24,17.046668 256.296666,17.2533326 256.37,17.4 C256.443334,17.5466674 256.613332,17.786665 256.88,18.12 L257.3,18.66 L257.18,20 L251.22,20 L251.04,18.16 L252.68,17.74 L252,11.04 L249.44,20.08 L246.02,20.38 L243.06,11.16 Z M259.16,19.51 C258.613331,19.0099975 258.34,18.3666706 258.34,17.58 C258.34,16.5266614 258.869995,15.700003 259.93,15.1 C260.990005,14.499997 262.533323,14.1600004 264.56,14.08 C264.56,13.4533302 264.510001,12.9900015 264.41,12.69 C264.31,12.3899985 264.130001,12.1833339 263.87,12.07 C263.609999,11.9566661 263.213336,11.9 262.68,11.9 C262.133331,11.9 261.746668,11.9199998 261.52,11.96 L260.7,13.58 L259.22,13.48 C258.993332,12.413328 258.833334,11.3066724 258.74,10.16 C259.48667,9.9066654 260.303329,9.7066674 261.19,9.56 C262.076671,9.4133326 262.906663,9.34 263.68,9.34 C265.09334,9.34 266.106664,9.6166639 266.72,10.17 C267.333336,10.7233361 267.64,11.6399936 267.64,12.92 L267.64,17.1 C267.64,17.3400012 267.663333,17.5066662 267.71,17.6 C267.756667,17.6933338 267.859999,17.7866662 268.02,17.88 L268.82,18.34 L268.74,19.58 C267.193326,19.9400018 265.973338,20.1399998 265.08,20.18 C265.053333,20.0999996 265.013334,19.9566677 264.96,19.75 C264.906666,19.5433323 264.86,19.3466676 264.82,19.16 C264.299997,19.493335 263.730003,19.759999 263.11,19.96 C262.489997,20.160001 261.900003,20.26 261.34,20.26 C260.433329,20.26 259.706669,20.0100025 259.16,19.51 L259.16,19.51 Z M264.62,17.46 L264.54,15.94 C264.219998,15.9133332 264.006667,15.9 263.9,15.9 C263.539998,15.9 263.120002,15.9366663 262.64,16.01 C262.159998,16.0833337 261.780001,16.1666662 261.5,16.26 C261.46,16.4333342 261.44,16.5933326 261.44,16.74 C261.44,17.140002 261.549999,17.4499989 261.77,17.67 C261.990001,17.8900011 262.293331,18 262.68,18 C263.213336,18 263.859996,17.8200018 264.62,17.46 L264.62,17.46 Z M269.12,22.4 L270.36,22.06 L270.36,12.88 C270.36,12.5866652 270.34,12.3966671 270.3,12.31 C270.26,12.2233329 270.146668,12.1266672 269.96,12.02 L269.06,11.54 L269.16,10.04 C269.226667,10.0266666 269.293333,10.0133334 269.36,10 C269.426667,9.9866666 269.5,9.9733334 269.58,9.96 C270.20667,9.8399994 270.869997,9.7233339 271.57,9.61 C272.270004,9.4966661 272.846664,9.4266668 273.3,9.4 C273.420001,9.6800014 273.5,9.9999982 273.54,10.36 C273.953335,10.026665 274.396664,9.7733342 274.87,9.6 C275.343336,9.4266658 275.813331,9.34 276.28,9.34 C277.61334,9.34 278.636663,9.8099953 279.35,10.75 C280.063337,11.6900047 280.42,13.026658 280.42,14.76 C280.42,16.560009 279.926672,17.9366619 278.94,18.89 C277.953328,19.8433381 276.526676,20.32 274.66,20.32 C274.459999,20.32 274.146669,20.3066668 273.72,20.28 L273.72,21.38 C273.72,21.6733348 273.74,21.8666662 273.78,21.96 C273.82,22.0533338 273.933332,22.1466662 274.12,22.24 L275.3,22.9 L275.22,24.3 L269.22,24.3 L269.12,22.4 Z M276.7,17.58 C276.806667,17.246665 276.896666,16.8433357 276.97,16.37 C277.043334,15.8966643 277.08,15.4533354 277.08,15.04 C277.08,14.0133282 276.903335,13.2200028 276.55,12.66 C276.196665,12.0999972 275.70667,11.82 275.08,11.82 C274.693331,11.82 274.240003,11.9333322 273.72,12.16 L273.72,17.6 C274.106669,17.7600008 274.59333,17.84 275.18,17.84 C275.80667,17.84 276.313331,17.7533342 276.7,17.58 L276.7,17.58 Z" id="Jewish-Cultures-on-t" fill="#FFFFFF"></path>
            <path d="M21.938,24.64 L24.318,24.01 L24.892,26.138 L22.526,26.782 L21.938,24.64 Z M21.35,33.712 L22.33,33.418 L22.33,30.016 C22.33,29.8106656 22.3136668,29.677667 22.281,29.617 C22.2483332,29.556333 22.1666673,29.488667 22.036,29.414 L21.42,29.078 L21.49,28.028 C22.2646705,27.8786659 22.8643312,27.7690003 23.289,27.699 C23.7136688,27.6289997 24.1033316,27.5893334 24.458,27.58 C24.5793339,27.9813353 24.6539999,28.279999 24.682,28.476 L24.682,32.956 C24.682,33.152001 24.6959999,33.2826663 24.724,33.348 C24.7520001,33.4133337 24.8313327,33.483333 24.962,33.558 L25.648,33.95 L25.592,35 L21.392,35 L21.35,33.712 Z M26.222,33.656 L27.09,33.404 L27.09,30.016 C27.09,29.8106656 27.0760001,29.677667 27.048,29.617 C27.0199999,29.556333 26.9453339,29.488667 26.824,29.414 L26.208,29.078 L26.25,28.028 L26.558,27.972 C27.7806728,27.7293321 28.662664,27.5986668 29.204,27.58 C29.278667,27.776001 29.3393331,27.9906655 29.386,28.224 C29.9553362,27.9626654 30.4196649,27.7830005 30.779,27.685 C31.1383351,27.5869995 31.4766651,27.538 31.794,27.538 C33.2780074,27.538 34.02,28.4246578 34.02,30.198 L34.02,32.942 C34.02,33.138001 34.0339999,33.2686663 34.062,33.334 C34.0900001,33.3993337 34.1693327,33.469333 34.3,33.544 L34.972,33.936 L34.916,34.986 L31.052,34.986 L30.982,33.656 L31.668,33.46 L31.668,30.814 C31.668,30.3939979 31.6540001,30.1000008 31.626,29.932 C31.5979999,29.7639992 31.5210006,29.6333338 31.395,29.54 C31.2689994,29.4466662 31.0473349,29.4 30.73,29.4 C30.3939983,29.4 29.9693359,29.4513328 29.456,29.554 L29.456,32.942 C29.456,33.138001 29.4699999,33.2686663 29.498,33.334 C29.5260001,33.3993337 29.6006661,33.469333 29.722,33.544 L30.408,33.936 L30.352,34.986 L26.292,34.986 L26.222,33.656 Z M36.484,34.573 C36.091998,34.166998 35.896,33.5486708 35.896,32.718 L35.896,29.316 L34.916,29.316 L34.916,28.294 L37.436,25.998 L38.248,26.096 L38.248,27.678 L40.6,27.678 L40.6,29.33 L38.248,29.33 L38.248,32.214 C38.248,32.6620022 38.3109994,32.9606659 38.437,33.11 C38.5630006,33.2593341 38.8079982,33.334 39.172,33.334 C39.4800015,33.334 39.9093306,33.2920004 40.46,33.208 L40.628,34.636 C40.2919983,34.7946675 39.9163354,34.9253328 39.501,35.028 C39.0856646,35.1306672 38.6866686,35.182 38.304,35.182 C37.4826626,35.182 36.876002,34.979002 36.484,34.573 L36.484,34.573 Z M42.119,34.174 C41.5263304,33.51133 41.23,32.5966725 41.23,31.43 C41.23,30.6179959 41.3746652,29.9203362 41.664,29.337 C41.9533348,28.7536638 42.3639973,28.3080015 42.896,28 C43.4280027,27.6919985 44.0486631,27.538 44.758,27.538 C45.8126719,27.538 46.6223305,27.8739966 47.187,28.546 C47.7516695,29.2180034 48.0200001,30.1746605 47.992,31.416 L43.736,32.2 C43.8666673,32.592002 44.0509988,32.8789991 44.289,33.061 C44.5270012,33.2430009 44.841998,33.334 45.234,33.334 C45.504668,33.334 45.8266648,33.2943337 46.2,33.215 C46.5733352,33.1356663 46.9513314,33.0260007 47.334,32.886 L47.656,34.272 C47.3106649,34.5333346 46.8626694,34.7479992 46.312,34.916 C45.7613306,35.0840008 45.2060028,35.168 44.646,35.168 C43.5539945,35.168 42.7116696,34.83667 42.119,34.174 L42.119,34.174 Z M45.696,30.24 C45.6773332,29.8853316 45.5770009,29.6263342 45.395,29.463 C45.2129991,29.2996659 44.9586683,29.218 44.632,29.218 C44.361332,29.218 44.1046679,29.255333 43.862,29.33 C43.665999,29.7873356 43.5773332,30.2819973 43.596,30.814 L45.696,30.24 Z M48.622,33.67 L49.476,33.418 L49.476,30.016 C49.476,29.8106656 49.4620001,29.677667 49.434,29.617 C49.4059999,29.556333 49.3313339,29.488667 49.21,29.414 L48.594,29.078 L48.636,28.028 C48.7946675,27.9906665 48.9299994,27.9673334 49.042,27.958 C50.171339,27.7246655 51.006664,27.5986668 51.548,27.58 C51.6320004,27.8226679 51.711333,28.1259982 51.786,28.49 C52.3460028,28.0513311 52.821998,27.7480008 53.214,27.58 L54.012,27.58 C54.0026666,27.9346684 53.9793335,28.3196646 53.942,28.735 C53.9046665,29.1503354 53.8580003,29.4839987 53.802,29.736 C53.4659983,29.7173332 53.2186675,29.708 53.06,29.708 C52.667998,29.708 52.2620021,29.7313331 51.842,29.778 L51.842,32.956 C51.842,33.152001 51.8559999,33.2826663 51.884,33.348 C51.9120001,33.4133337 51.9866661,33.483333 52.108,33.558 L52.948,34.006 L52.892,35 L48.692,35 L48.622,33.67 Z M55.062,34.657 C54.6793314,34.3069982 54.488,33.8566694 54.488,33.306 C54.488,32.568663 54.8589963,31.9900021 55.601,31.57 C56.3430037,31.1499979 57.4233262,30.9120003 58.842,30.856 C58.842,30.4173311 58.8070003,30.093001 58.737,29.883 C58.6669996,29.672999 58.5410009,29.5283337 58.359,29.449 C58.1769991,29.3696663 57.8993352,29.33 57.526,29.33 C57.1433314,29.33 56.8726675,29.3439999 56.714,29.372 L56.14,30.506 L55.104,30.436 C54.9453325,29.6893296 54.8333337,28.9146707 54.768,28.112 C55.2906693,27.9346658 55.8623302,27.7946672 56.483,27.692 C57.1036698,27.5893328 57.684664,27.538 58.226,27.538 C59.2153383,27.538 59.9246645,27.7316647 60.354,28.119 C60.7833355,28.5063353 60.998,29.1479955 60.998,30.044 L60.998,32.97 C60.998,33.1380008 61.0143332,33.2546663 61.047,33.32 C61.0796668,33.3853337 61.1519994,33.4506663 61.264,33.516 L61.824,33.838 L61.768,34.706 C60.6853279,34.9580013 59.8313365,35.0979999 59.206,35.126 C59.1873332,35.0699997 59.1593335,34.9696674 59.122,34.825 C59.0846665,34.6803326 59.0520001,34.5426673 59.024,34.412 C58.6599982,34.6453345 58.2610022,34.8319993 57.827,34.972 C57.3929978,35.1120007 56.980002,35.182 56.588,35.182 C55.9533302,35.182 55.4446686,35.0070018 55.062,34.657 L55.062,34.657 Z M58.884,33.222 L58.828,32.158 C58.6039989,32.1393332 58.454667,32.13 58.38,32.13 C58.1279987,32.13 57.8340017,32.1556664 57.498,32.207 C57.1619983,32.2583336 56.896001,32.3166663 56.7,32.382 C56.6719999,32.5033339 56.658,32.6153328 56.658,32.718 C56.658,32.9980014 56.7349992,33.2149992 56.889,33.369 C57.0430008,33.5230008 57.255332,33.6 57.526,33.6 C57.8993352,33.6 58.3519973,33.4740013 58.884,33.222 L58.884,33.222 Z M63.14,34.181 C62.5426637,33.5136633 62.244,32.5920059 62.244,31.416 C62.244,30.1933272 62.5636635,29.2413367 63.203,28.56 C63.8423365,27.8786633 64.7173278,27.538 65.828,27.538 C66.6680042,27.538 67.5686619,27.7293314 68.53,28.112 C68.5113332,28.382668 68.4693337,28.7396644 68.404,29.183 C68.3386663,29.6263356 68.268667,30.0346648 68.194,30.408 L67.256,30.492 L66.388,29.386 C66.1546655,29.3393331 65.8933348,29.316 65.604,29.316 C65.3706655,29.316 65.156001,29.3299999 64.96,29.358 C64.7453323,29.7686687 64.638,30.3473296 64.638,31.094 C64.638,31.8593372 64.773332,32.4263315 65.044,32.795 C65.314668,33.1636685 65.7253306,33.348 66.276,33.348 C66.5373346,33.348 66.8546648,33.3083337 67.228,33.229 C67.6013352,33.1496663 67.983998,33.0353341 68.376,32.886 L68.712,34.286 C68.3386648,34.5473346 67.8743361,34.7619992 67.319,34.93 C66.7636639,35.0980008 66.2106694,35.182 65.66,35.182 C64.5773279,35.182 63.7373363,34.8483367 63.14,34.181 L63.14,34.181 Z M70.868,34.573 C70.475998,34.166998 70.28,33.5486708 70.28,32.718 L70.28,29.316 L69.3,29.316 L69.3,28.294 L71.82,25.998 L72.632,26.096 L72.632,27.678 L74.984,27.678 L74.984,29.33 L72.632,29.33 L72.632,32.214 C72.632,32.6620022 72.6949994,32.9606659 72.821,33.11 C72.9470006,33.2593341 73.1919982,33.334 73.556,33.334 C73.8640015,33.334 74.2933306,33.2920004 74.844,33.208 L75.012,34.636 C74.6759983,34.7946675 74.3003354,34.9253328 73.885,35.028 C73.4696646,35.1306672 73.0706686,35.182 72.688,35.182 C71.8666626,35.182 71.260002,34.979002 70.868,34.573 L70.868,34.573 Z M76.342,24.64 L78.722,24.01 L79.296,26.138 L76.93,26.782 L76.342,24.64 Z M75.754,33.712 L76.734,33.418 L76.734,30.016 C76.734,29.8106656 76.7176668,29.677667 76.685,29.617 C76.6523332,29.556333 76.5706673,29.488667 76.44,29.414 L75.824,29.078 L75.894,28.028 C76.6686705,27.8786659 77.2683312,27.7690003 77.693,27.699 C78.1176688,27.6289997 78.5073316,27.5893334 78.862,27.58 C78.9833339,27.9813353 79.0579999,28.279999 79.086,28.476 L79.086,32.956 C79.086,33.152001 79.0999999,33.2826663 79.128,33.348 C79.1560001,33.4133337 79.2353327,33.483333 79.366,33.558 L80.052,33.95 L79.996,35 L75.796,35 L75.754,33.712 Z M80.626,29.596 C80.5233328,29.3439987 80.4533335,29.180667 80.416,29.106 C80.3786665,29.031333 80.3086672,28.9286673 80.206,28.798 L79.968,28.49 L80.038,27.678 L83.566,27.678 L83.706,28.868 L82.894,29.064 L84.168,32.676 L85.4,29.358 C85.4186668,29.3019997 85.428,29.2600001 85.428,29.232 C85.428,29.1479996 85.3860004,29.0920001 85.302,29.064 L84.644,28.784 L84.77,27.678 L87.43,27.678 L87.57,28.812 L84.798,35.028 L82.782,35.182 L80.626,29.596 Z M88.921,34.174 C88.3283304,33.51133 88.032,32.5966725 88.032,31.43 C88.032,30.6179959 88.1766652,29.9203362 88.466,29.337 C88.7553348,28.7536638 89.1659973,28.3080015 89.698,28 C90.2300027,27.6919985 90.8506631,27.538 91.56,27.538 C92.6146719,27.538 93.4243305,27.8739966 93.989,28.546 C94.5536695,29.2180034 94.8220001,30.1746605 94.794,31.416 L90.538,32.2 C90.6686673,32.592002 90.8529988,32.8789991 91.091,33.061 C91.3290012,33.2430009 91.643998,33.334 92.036,33.334 C92.306668,33.334 92.6286648,33.2943337 93.002,33.215 C93.3753352,33.1356663 93.7533314,33.0260007 94.136,32.886 L94.458,34.272 C94.1126649,34.5333346 93.6646694,34.7479992 93.114,34.916 C92.5633306,35.0840008 92.0080028,35.168 91.448,35.168 C90.3559945,35.168 89.5136696,34.83667 88.921,34.174 L88.921,34.174 Z M92.498,30.24 C92.4793332,29.8853316 92.3790009,29.6263342 92.197,29.463 C92.0149991,29.2996659 91.7606683,29.218 91.434,29.218 C91.163332,29.218 90.9066679,29.255333 90.664,29.33 C90.467999,29.7873356 90.3793332,30.2819973 90.398,30.814 L92.498,30.24 Z M99.099,34.174 C98.5063304,33.51133 98.21,32.5966725 98.21,31.43 C98.21,30.6179959 98.3546652,29.9203362 98.644,29.337 C98.9333348,28.7536638 99.3439973,28.3080015 99.876,28 C100.408003,27.6919985 101.028663,27.538 101.738,27.538 C102.792672,27.538 103.602331,27.8739966 104.167,28.546 C104.731669,29.2180034 105,30.1746605 104.972,31.416 L100.716,32.2 C100.846667,32.592002 101.030999,32.8789991 101.269,33.061 C101.507001,33.2430009 101.821998,33.334 102.214,33.334 C102.484668,33.334 102.806665,33.2943337 103.18,33.215 C103.553335,33.1356663 103.931331,33.0260007 104.314,32.886 L104.636,34.272 C104.290665,34.5333346 103.842669,34.7479992 103.292,34.916 C102.741331,35.0840008 102.186003,35.168 101.626,35.168 C100.533995,35.168 99.6916696,34.83667 99.099,34.174 L99.099,34.174 Z M102.676,30.24 C102.657333,29.8853316 102.557001,29.6263342 102.375,29.463 C102.192999,29.2996659 101.938668,29.218 101.612,29.218 C101.341332,29.218 101.084668,29.255333 100.842,29.33 C100.645999,29.7873356 100.557333,30.2819973 100.576,30.814 L102.676,30.24 Z M105.364,33.95 L107.674,31.29 L105.826,28.882 C105.732666,28.7606661 105.648667,28.6650003 105.574,28.595 C105.499333,28.5249996 105.448,28.4806668 105.42,28.462 L105.49,27.678 L109.242,27.678 L109.312,28.756 L108.752,28.882 L109.718,30.128 L110.404,29.148 C110.441334,29.1013331 110.46,29.0500003 110.46,28.994 C110.46,28.9286663 110.432,28.8820001 110.376,28.854 L109.9,28.616 L109.97,27.678 L112.714,27.678 L112.784,28.742 L110.628,31.318 L112.504,33.754 C112.709334,34.0153346 112.849333,34.183333 112.924,34.258 L112.854,35 L108.99,35 L108.92,33.978 L109.606,33.81 L108.584,32.48 L107.8,33.53 C107.762666,33.5766669 107.744,33.6279997 107.744,33.684 C107.744,33.7493337 107.772,33.7959999 107.828,33.824 L108.304,34.062 L108.234,35 L105.406,35 L105.364,33.95 Z M113.386,36.68 L114.254,36.442 L114.254,30.016 C114.254,29.8106656 114.24,29.677667 114.212,29.617 C114.184,29.556333 114.104667,29.488667 113.974,29.414 L113.344,29.078 L113.414,28.028 C113.460667,28.0186666 113.507333,28.0093334 113.554,28 C113.600667,27.9906666 113.652,27.9813334 113.708,27.972 C114.146669,27.8879996 114.610998,27.8063337 115.101,27.727 C115.591002,27.6476663 115.994665,27.5986668 116.312,27.58 C116.396,27.776001 116.452,27.9999987 116.48,28.252 C116.769335,28.0186655 117.079665,27.8413339 117.411,27.72 C117.742335,27.5986661 118.071332,27.538 118.398,27.538 C119.331338,27.538 120.047664,27.8669967 120.547,28.525 C121.046336,29.1830033 121.296,30.1186606 121.296,31.332 C121.296,32.5920063 120.95067,33.5556633 120.26,34.223 C119.56933,34.8903367 118.570673,35.224 117.264,35.224 C117.123999,35.224 116.904668,35.2146668 116.606,35.196 L116.606,35.966 C116.606,36.1713344 116.62,36.3066663 116.648,36.372 C116.676,36.4373337 116.755333,36.5026663 116.886,36.568 L117.712,37.03 L117.656,38.01 L113.456,38.01 L113.386,36.68 Z M118.692,33.306 C118.766667,33.0726655 118.829666,32.790335 118.881,32.459 C118.932334,32.127665 118.958,31.8173348 118.958,31.528 C118.958,30.8093297 118.834335,30.254002 118.587,29.862 C118.339665,29.469998 117.996669,29.274 117.558,29.274 C117.287332,29.274 116.970002,29.3533325 116.606,29.512 L116.606,33.32 C116.876668,33.4320006 117.217331,33.488 117.628,33.488 C118.066669,33.488 118.421332,33.4273339 118.692,33.306 L118.692,33.306 Z M121.674,33.712 L122.654,33.418 L122.654,26.712 C122.654,26.5066656 122.637667,26.373667 122.605,26.313 C122.572333,26.252333 122.490667,26.184667 122.36,26.11 L121.744,25.788 L121.814,24.724 C122.000668,24.6866665 122.145333,24.6633334 122.248,24.654 C123.480006,24.4299989 124.338664,24.3086668 124.824,24.29 C124.917334,24.5046677 124.978,24.747332 125.006,25.018 L125.006,32.956 C125.006,33.152001 125.02,33.2826663 125.048,33.348 C125.076,33.4133337 125.155333,33.483333 125.286,33.558 L125.972,33.95 L125.916,35 L121.716,35 L121.674,33.712 Z M127.267,34.272 C126.683664,33.6653303 126.392,32.7366729 126.392,31.486 C126.392,30.6833293 126.538999,29.9833363 126.833,29.386 C127.127001,28.7886637 127.549331,28.3313349 128.1,28.014 C128.650669,27.6966651 129.29933,27.538 130.046,27.538 C132.463345,27.538 133.672,28.7886542 133.672,31.29 C133.672,32.5126728 133.343003,33.4669966 132.685,34.153 C132.026997,34.8390034 131.105339,35.182 129.92,35.182 C128.734661,35.182 127.850336,34.8786697 127.267,34.272 L127.267,34.272 Z M130.634,33.495 C130.774001,33.4623332 130.923333,33.408667 131.082,33.334 C131.138,33.1193323 131.184666,32.8440017 131.222,32.508 C131.259334,32.1719983 131.278,31.8500015 131.278,31.542 C131.278,30.7859962 131.159001,30.212002 130.921,29.82 C130.682999,29.427998 130.330669,29.232 129.864,29.232 C129.555998,29.232 129.243335,29.2739996 128.926,29.358 C128.860666,29.4980007 128.809334,29.7243318 128.772,30.037 C128.734666,30.3496682 128.716,30.7066647 128.716,31.108 C128.716,31.8920039 128.839665,32.4939979 129.087,32.914 C129.334335,33.3340021 129.686664,33.544 130.144,33.544 C130.330668,33.544 130.493999,33.5276668 130.634,33.495 L130.634,33.495 Z M134.302,33.67 L135.156,33.418 L135.156,30.016 C135.156,29.8106656 135.142,29.677667 135.114,29.617 C135.086,29.556333 135.011334,29.488667 134.89,29.414 L134.274,29.078 L134.316,28.028 C134.474667,27.9906665 134.609999,27.9673334 134.722,27.958 C135.851339,27.7246655 136.686664,27.5986668 137.228,27.58 C137.312,27.8226679 137.391333,28.1259982 137.466,28.49 C138.026003,28.0513311 138.501998,27.7480008 138.894,27.58 L139.692,27.58 C139.682667,27.9346684 139.659334,28.3196646 139.622,28.735 C139.584666,29.1503354 139.538,29.4839987 139.482,29.736 C139.145998,29.7173332 138.898667,29.708 138.74,29.708 C138.347998,29.708 137.942002,29.7313331 137.522,29.778 L137.522,32.956 C137.522,33.152001 137.536,33.2826663 137.564,33.348 C137.592,33.4133337 137.666666,33.483333 137.788,33.558 L138.628,34.006 L138.572,35 L134.372,35 L134.302,33.67 Z M140.742,34.657 C140.359331,34.3069982 140.168,33.8566694 140.168,33.306 C140.168,32.568663 140.538996,31.9900021 141.281,31.57 C142.023004,31.1499979 143.103326,30.9120003 144.522,30.856 C144.522,30.4173311 144.487,30.093001 144.417,29.883 C144.347,29.672999 144.221001,29.5283337 144.039,29.449 C143.856999,29.3696663 143.579335,29.33 143.206,29.33 C142.823331,29.33 142.552667,29.3439999 142.394,29.372 L141.82,30.506 L140.784,30.436 C140.625333,29.6893296 140.513334,28.9146707 140.448,28.112 C140.970669,27.9346658 141.54233,27.7946672 142.163,27.692 C142.78367,27.5893328 143.364664,27.538 143.906,27.538 C144.895338,27.538 145.604665,27.7316647 146.034,28.119 C146.463335,28.5063353 146.678,29.1479955 146.678,30.044 L146.678,32.97 C146.678,33.1380008 146.694333,33.2546663 146.727,33.32 C146.759667,33.3853337 146.831999,33.4506663 146.944,33.516 L147.504,33.838 L147.448,34.706 C146.365328,34.9580013 145.511336,35.0979999 144.886,35.126 C144.867333,35.0699997 144.839334,34.9696674 144.802,34.825 C144.764666,34.6803326 144.732,34.5426673 144.704,34.412 C144.339998,34.6453345 143.941002,34.8319993 143.507,34.972 C143.072998,35.1120007 142.660002,35.182 142.268,35.182 C141.63333,35.182 141.124669,35.0070018 140.742,34.657 L140.742,34.657 Z M144.564,33.222 L144.508,32.158 C144.283999,32.1393332 144.134667,32.13 144.06,32.13 C143.807999,32.13 143.514002,32.1556664 143.178,32.207 C142.841998,32.2583336 142.576001,32.3166663 142.38,32.382 C142.352,32.5033339 142.338,32.6153328 142.338,32.718 C142.338,32.9980014 142.414999,33.2149992 142.569,33.369 C142.723001,33.5230008 142.935332,33.6 143.206,33.6 C143.579335,33.6 144.031997,33.4740013 144.564,33.222 L144.564,33.222 Z M149.142,34.573 C148.749998,34.166998 148.554,33.5486708 148.554,32.718 L148.554,29.316 L147.574,29.316 L147.574,28.294 L150.094,25.998 L150.906,26.096 L150.906,27.678 L153.258,27.678 L153.258,29.33 L150.906,29.33 L150.906,32.214 C150.906,32.6620022 150.968999,32.9606659 151.095,33.11 C151.221001,33.2593341 151.465998,33.334 151.83,33.334 C152.138002,33.334 152.567331,33.2920004 153.118,33.208 L153.286,34.636 C152.949998,34.7946675 152.574335,34.9253328 152.159,35.028 C151.743665,35.1306672 151.344669,35.182 150.962,35.182 C150.140663,35.182 149.534002,34.979002 149.142,34.573 L149.142,34.573 Z M154.616,24.64 L156.996,24.01 L157.57,26.138 L155.204,26.782 L154.616,24.64 Z M154.028,33.712 L155.008,33.418 L155.008,30.016 C155.008,29.8106656 154.991667,29.677667 154.959,29.617 C154.926333,29.556333 154.844667,29.488667 154.714,29.414 L154.098,29.078 L154.168,28.028 C154.942671,27.8786659 155.542331,27.7690003 155.967,27.699 C156.391669,27.6289997 156.781332,27.5893334 157.136,27.58 C157.257334,27.9813353 157.332,28.279999 157.36,28.476 L157.36,32.956 C157.36,33.152001 157.374,33.2826663 157.402,33.348 C157.43,33.4133337 157.509333,33.483333 157.64,33.558 L158.326,33.95 L158.27,35 L154.07,35 L154.028,33.712 Z M159.621,34.272 C159.037664,33.6653303 158.746,32.7366729 158.746,31.486 C158.746,30.6833293 158.892999,29.9833363 159.187,29.386 C159.481001,28.7886637 159.903331,28.3313349 160.454,28.014 C161.004669,27.6966651 161.65333,27.538 162.4,27.538 C164.817345,27.538 166.026,28.7886542 166.026,31.29 C166.026,32.5126728 165.697003,33.4669966 165.039,34.153 C164.380997,34.8390034 163.459339,35.182 162.274,35.182 C161.088661,35.182 160.204336,34.8786697 159.621,34.272 L159.621,34.272 Z M162.988,33.495 C163.128001,33.4623332 163.277333,33.408667 163.436,33.334 C163.492,33.1193323 163.538666,32.8440017 163.576,32.508 C163.613334,32.1719983 163.632,31.8500015 163.632,31.542 C163.632,30.7859962 163.513001,30.212002 163.275,29.82 C163.036999,29.427998 162.684669,29.232 162.218,29.232 C161.909998,29.232 161.597335,29.2739996 161.28,29.358 C161.214666,29.4980007 161.163334,29.7243318 161.126,30.037 C161.088666,30.3496682 161.07,30.7066647 161.07,31.108 C161.07,31.8920039 161.193665,32.4939979 161.441,32.914 C161.688335,33.3340021 162.040664,33.544 162.498,33.544 C162.684668,33.544 162.847999,33.5276668 162.988,33.495 L162.988,33.495 Z M166.712,33.656 L167.58,33.404 L167.58,30.016 C167.58,29.8106656 167.566,29.677667 167.538,29.617 C167.51,29.556333 167.435334,29.488667 167.314,29.414 L166.698,29.078 L166.74,28.028 L167.048,27.972 C168.270673,27.7293321 169.152664,27.5986668 169.694,27.58 C169.768667,27.776001 169.829333,27.9906655 169.876,28.224 C170.445336,27.9626654 170.909665,27.7830005 171.269,27.685 C171.628335,27.5869995 171.966665,27.538 172.284,27.538 C173.768007,27.538 174.51,28.4246578 174.51,30.198 L174.51,32.942 C174.51,33.138001 174.524,33.2686663 174.552,33.334 C174.58,33.3993337 174.659333,33.469333 174.79,33.544 L175.462,33.936 L175.406,34.986 L171.542,34.986 L171.472,33.656 L172.158,33.46 L172.158,30.814 C172.158,30.3939979 172.144,30.1000008 172.116,29.932 C172.088,29.7639992 172.011001,29.6333338 171.885,29.54 C171.758999,29.4466662 171.537335,29.4 171.22,29.4 C170.883998,29.4 170.459336,29.4513328 169.946,29.554 L169.946,32.942 C169.946,33.138001 169.96,33.2686663 169.988,33.334 C170.016,33.3993337 170.090666,33.469333 170.212,33.544 L170.898,33.936 L170.842,34.986 L166.782,34.986 L166.712,33.656 Z M179.41,24.64 L181.79,24.01 L182.364,26.138 L179.998,26.782 L179.41,24.64 Z M178.822,33.712 L179.802,33.418 L179.802,30.016 C179.802,29.8106656 179.785667,29.677667 179.753,29.617 C179.720333,29.556333 179.638667,29.488667 179.508,29.414 L178.892,29.078 L178.962,28.028 C179.736671,27.8786659 180.336331,27.7690003 180.761,27.699 C181.185669,27.6289997 181.575332,27.5893334 181.93,27.58 C182.051334,27.9813353 182.126,28.279999 182.154,28.476 L182.154,32.956 C182.154,33.152001 182.168,33.2826663 182.196,33.348 C182.224,33.4133337 182.303333,33.483333 182.434,33.558 L183.12,33.95 L183.064,35 L178.864,35 L178.822,33.712 Z M183.694,33.656 L184.562,33.404 L184.562,30.016 C184.562,29.8106656 184.548,29.677667 184.52,29.617 C184.492,29.556333 184.417334,29.488667 184.296,29.414 L183.68,29.078 L183.722,28.028 L184.03,27.972 C185.252673,27.7293321 186.134664,27.5986668 186.676,27.58 C186.750667,27.776001 186.811333,27.9906655 186.858,28.224 C187.427336,27.9626654 187.891665,27.7830005 188.251,27.685 C188.610335,27.5869995 188.948665,27.538 189.266,27.538 C190.750007,27.538 191.492,28.4246578 191.492,30.198 L191.492,32.942 C191.492,33.138001 191.506,33.2686663 191.534,33.334 C191.562,33.3993337 191.641333,33.469333 191.772,33.544 L192.444,33.936 L192.388,34.986 L188.524,34.986 L188.454,33.656 L189.14,33.46 L189.14,30.814 C189.14,30.3939979 189.126,30.1000008 189.098,29.932 C189.07,29.7639992 188.993001,29.6333338 188.867,29.54 C188.740999,29.4466662 188.519335,29.4 188.202,29.4 C187.865998,29.4 187.441336,29.4513328 186.928,29.554 L186.928,32.942 C186.928,33.138001 186.942,33.2686663 186.97,33.334 C186.998,33.3993337 187.072666,33.469333 187.194,33.544 L187.88,33.936 L187.824,34.986 L183.764,34.986 L183.694,33.656 Z M196.742,34.573 C196.349998,34.166998 196.154,33.5486708 196.154,32.718 L196.154,29.316 L195.174,29.316 L195.174,28.294 L197.694,25.998 L198.506,26.096 L198.506,27.678 L200.858,27.678 L200.858,29.33 L198.506,29.33 L198.506,32.214 C198.506,32.6620022 198.568999,32.9606659 198.695,33.11 C198.821001,33.2593341 199.065998,33.334 199.43,33.334 C199.738002,33.334 200.167331,33.2920004 200.718,33.208 L200.886,34.636 C200.549998,34.7946675 200.174335,34.9253328 199.759,35.028 C199.343665,35.1306672 198.944669,35.182 198.562,35.182 C197.740663,35.182 197.134002,34.979002 196.742,34.573 L196.742,34.573 Z M202.216,24.64 L204.596,24.01 L205.17,26.138 L202.804,26.782 L202.216,24.64 Z M201.628,33.712 L202.608,33.418 L202.608,30.016 C202.608,29.8106656 202.591667,29.677667 202.559,29.617 C202.526333,29.556333 202.444667,29.488667 202.314,29.414 L201.698,29.078 L201.768,28.028 C202.542671,27.8786659 203.142331,27.7690003 203.567,27.699 C203.991669,27.6289997 204.381332,27.5893334 204.736,27.58 C204.857334,27.9813353 204.932,28.279999 204.96,28.476 L204.96,32.956 C204.96,33.152001 204.974,33.2826663 205.002,33.348 C205.03,33.4133337 205.109333,33.483333 205.24,33.558 L205.926,33.95 L205.87,35 L201.67,35 L201.628,33.712 Z M206.5,33.67 L207.368,33.418 L207.368,30.016 C207.368,29.8106656 207.354,29.677667 207.326,29.617 C207.298,29.556333 207.223334,29.488667 207.102,29.414 L206.486,29.078 L206.528,28.028 L206.906,27.958 C208.054006,27.7246655 208.903331,27.5986668 209.454,27.58 C209.528667,27.776001 209.589333,27.9766656 209.636,28.182 C210.140003,27.9486655 210.571665,27.7830005 210.931,27.685 C211.290335,27.5869995 211.619332,27.538 211.918,27.538 C212.282002,27.538 212.622665,27.605666 212.94,27.741 C213.257335,27.876334 213.495333,28.0559989 213.654,28.28 C214.186003,28.0186654 214.664331,27.8296672 215.089,27.713 C215.513669,27.5963328 215.917331,27.538 216.3,27.538 C217.065337,27.538 217.629998,27.7573311 217.994,28.196 C218.358002,28.6346689 218.54,29.3019955 218.54,30.198 L218.54,32.956 C218.54,33.152001 218.554,33.2826663 218.582,33.348 C218.61,33.4133337 218.689333,33.483333 218.82,33.558 L219.492,33.95 L219.436,35 L215.628,35 L215.558,33.67 L216.23,33.474 L216.23,30.828 C216.23,30.4266647 216.218333,30.1396675 216.195,29.967 C216.171667,29.7943325 216.094667,29.6590005 215.964,29.561 C215.833333,29.4629995 215.614002,29.414 215.306,29.414 C215.063332,29.414 214.657336,29.4559996 214.088,29.54 C214.106667,29.6893341 214.116,29.9086652 214.116,30.198 L214.116,32.956 C214.116,33.152001 214.13,33.2826663 214.158,33.348 C214.186,33.4133337 214.269999,33.483333 214.41,33.558 L215.096,33.95 L215.04,35 L211.204,35 L211.134,33.67 L211.806,33.474 L211.806,30.828 C211.806,30.4173313 211.794333,30.1256675 211.771,29.953 C211.747667,29.7803325 211.670667,29.6473338 211.54,29.554 C211.409333,29.4606662 211.194668,29.414 210.896,29.414 C210.569332,29.414 210.172669,29.4559996 209.706,29.54 L209.706,32.956 C209.706,33.152001 209.72,33.2826663 209.748,33.348 C209.776,33.4133337 209.850666,33.483333 209.972,33.558 L210.658,33.95 L210.602,35 L206.57,35 L206.5,33.67 Z M220.731,34.174 C220.13833,33.51133 219.842,32.5966725 219.842,31.43 C219.842,30.6179959 219.986665,29.9203362 220.276,29.337 C220.565335,28.7536638 220.975997,28.3080015 221.508,28 C222.040003,27.6919985 222.660663,27.538 223.37,27.538 C224.424672,27.538 225.234331,27.8739966 225.799,28.546 C226.363669,29.2180034 226.632,30.1746605 226.604,31.416 L222.348,32.2 C222.478667,32.592002 222.662999,32.8789991 222.901,33.061 C223.139001,33.2430009 223.453998,33.334 223.846,33.334 C224.116668,33.334 224.438665,33.2943337 224.812,33.215 C225.185335,33.1356663 225.563331,33.0260007 225.946,32.886 L226.268,34.272 C225.922665,34.5333346 225.474669,34.7479992 224.924,34.916 C224.373331,35.0840008 223.818003,35.168 223.258,35.168 C222.165995,35.168 221.32367,34.83667 220.731,34.174 L220.731,34.174 Z M224.308,30.24 C224.289333,29.8853316 224.189001,29.6263342 224.007,29.463 C223.824999,29.2996659 223.570668,29.218 223.244,29.218 C222.973332,29.218 222.716668,29.255333 222.474,29.33 C222.277999,29.7873356 222.189333,30.2819973 222.208,30.814 L224.308,30.24 Z M239.379,33.243 C239.775669,33.1263328 240.141998,33.0073339 240.478,32.886 L240.394,34.804 C239.945998,35.0466679 239.414003,35.168 238.798,35.168 C238.209997,35.168 237.617336,35.0560011 237.02,34.832 C236.777332,34.7386662 236.544001,34.6406672 236.32,34.538 C235.461329,34.9953356 234.542005,35.224 233.562,35.224 C232.889997,35.224 232.295003,35.1166677 231.777,34.902 C231.258997,34.6873323 230.857668,34.3816687 230.573,33.985 C230.288332,33.5883314 230.146,33.1286693 230.146,32.606 C230.146,32.0833307 230.285999,31.5956689 230.566,31.143 C230.846001,30.6903311 231.247331,30.3053349 231.77,29.988 C231.480665,29.3066633 231.336,28.6720029 231.336,28.084 C231.336,27.2439958 231.622997,26.5766691 232.197,26.082 C232.771003,25.5873309 233.547995,25.34 234.528,25.34 C235.386671,25.34 236.060998,25.5336647 236.551,25.921 C237.041002,26.3083353 237.286,26.8426633 237.286,27.524 C237.286,28.1586698 237.066669,28.7023311 236.628,29.155 C236.189331,29.6076689 235.545338,29.9506655 234.696,30.184 C235.013335,30.6133355 235.395998,31.0473311 235.844,31.486 C236.096001,31.7380013 236.455331,32.0413316 236.922,32.396 L237.034,32.158 C237.174001,31.8779986 237.244,31.6540008 237.244,31.486 C237.244,31.3273325 237.164667,31.1826673 237.006,31.052 L236.614,30.674 L236.614,30.058 C237.379337,29.787332 238.205329,29.652 239.092,29.652 C239.101333,29.7173337 239.106,29.8619989 239.106,30.086 C239.106,30.6740029 239.019668,31.201331 238.847,31.668 C238.674332,32.134669 238.387335,32.6153309 237.986,33.11 C238.200668,33.2406673 238.401332,33.343333 238.588,33.418 C238.718667,33.418 238.982331,33.3596673 239.379,33.243 L239.379,33.243 Z M233.576,27.328 C233.576,27.8506693 233.725332,28.4199969 234.024,29.036 C234.406669,28.8773325 234.684332,28.6953344 234.857,28.49 C235.029668,28.2846656 235.116,28.0420014 235.116,27.762 C235.116,27.1739971 234.761337,26.88 234.052,26.88 C233.846666,26.88 233.706667,26.8893332 233.632,26.908 C233.594666,27.0106672 233.576,27.1506658 233.576,27.328 L233.576,27.328 Z M232.904,33.243 C233.277335,33.5183347 233.739331,33.656 234.29,33.656 C234.476668,33.656 234.644666,33.6420001 234.794,33.614 C234.289997,33.2499982 233.837335,32.8580021 233.436,32.438 C233.090665,32.0739982 232.782668,31.696002 232.512,31.304 C232.399999,31.5560013 232.344,31.8126654 232.344,32.074 C232.344,32.5780025 232.530665,32.9676653 232.904,33.243 L232.904,33.243 Z M244.244,34.846 C244.3,33.9313288 244.360666,33.2546689 244.426,32.816 L245.224,32.662 L246.106,33.6 C246.414002,33.6933338 246.759331,33.74 247.142,33.74 C247.356668,33.74 247.524666,33.7260001 247.646,33.698 C247.674,33.623333 247.688,33.5206673 247.688,33.39 C247.688,33.2779994 247.662334,33.184667 247.611,33.11 C247.559666,33.035333 247.445334,32.9466672 247.268,32.844 C247.090666,32.7413328 246.782669,32.5826677 246.344,32.368 C245.793331,32.0786652 245.373335,31.8196678 245.084,31.591 C244.794665,31.3623322 244.587001,31.1266679 244.461,30.884 C244.334999,30.6413321 244.272,30.3520017 244.272,30.016 C244.272,29.2693296 244.549664,28.6766689 245.105,28.238 C245.660336,27.7993311 246.413995,27.58 247.366,27.58 C247.758002,27.58 248.170998,27.6243329 248.605,27.713 C249.039002,27.8016671 249.428665,27.9206659 249.774,28.07 C249.774,28.6766697 249.732,29.3533296 249.648,30.1 L248.92,30.212 L247.982,29.204 C247.739332,29.129333 247.384669,29.092 246.918,29.092 C246.843333,29.092 246.694001,29.1013332 246.47,29.12 C246.442,29.1760003 246.428,29.2646661 246.428,29.386 C246.428,29.5166673 246.465333,29.6309995 246.54,29.729 C246.614667,29.8270005 246.747666,29.9343328 246.939,30.051 C247.130334,30.1676673 247.435998,30.3333323 247.856,30.548 C248.472003,30.8466682 248.936332,31.1056656 249.249,31.325 C249.561668,31.5443344 249.780999,31.7659989 249.907,31.99 C250.033001,32.2140011 250.096,32.4846651 250.096,32.802 C250.096,33.5673372 249.804336,34.1646645 249.221,34.594 C248.637664,35.0233355 247.832672,35.238 246.806,35.238 C246.068663,35.238 245.214672,35.1073346 244.244,34.846 L244.244,34.846 Z M250.628,36.68 L251.496,36.442 L251.496,30.016 C251.496,29.8106656 251.482,29.677667 251.454,29.617 C251.426,29.556333 251.346667,29.488667 251.216,29.414 L250.586,29.078 L250.656,28.028 C250.702667,28.0186666 250.749333,28.0093334 250.796,28 C250.842667,27.9906666 250.894,27.9813334 250.95,27.972 C251.388669,27.8879996 251.852998,27.8063337 252.343,27.727 C252.833002,27.6476663 253.236665,27.5986668 253.554,27.58 C253.638,27.776001 253.694,27.9999987 253.722,28.252 C254.011335,28.0186655 254.321665,27.8413339 254.653,27.72 C254.984335,27.5986661 255.313332,27.538 255.64,27.538 C256.573338,27.538 257.289664,27.8669967 257.789,28.525 C258.288336,29.1830033 258.538,30.1186606 258.538,31.332 C258.538,32.5920063 258.19267,33.5556633 257.502,34.223 C256.81133,34.8903367 255.812673,35.224 254.506,35.224 C254.365999,35.224 254.146668,35.2146668 253.848,35.196 L253.848,35.966 C253.848,36.1713344 253.862,36.3066663 253.89,36.372 C253.918,36.4373337 253.997333,36.5026663 254.128,36.568 L254.954,37.03 L254.898,38.01 L250.698,38.01 L250.628,36.68 Z M255.934,33.306 C256.008667,33.0726655 256.071666,32.790335 256.123,32.459 C256.174334,32.127665 256.2,31.8173348 256.2,31.528 C256.2,30.8093297 256.076335,30.254002 255.829,29.862 C255.581665,29.469998 255.238669,29.274 254.8,29.274 C254.529332,29.274 254.212002,29.3533325 253.848,29.512 L253.848,33.32 C254.118668,33.4320006 254.459331,33.488 254.87,33.488 C255.308669,33.488 255.663332,33.4273339 255.934,33.306 L255.934,33.306 Z M259.812,34.657 C259.429331,34.3069982 259.238,33.8566694 259.238,33.306 C259.238,32.568663 259.608996,31.9900021 260.351,31.57 C261.093004,31.1499979 262.173326,30.9120003 263.592,30.856 C263.592,30.4173311 263.557,30.093001 263.487,29.883 C263.417,29.672999 263.291001,29.5283337 263.109,29.449 C262.926999,29.3696663 262.649335,29.33 262.276,29.33 C261.893331,29.33 261.622667,29.3439999 261.464,29.372 L260.89,30.506 L259.854,30.436 C259.695333,29.6893296 259.583334,28.9146707 259.518,28.112 C260.040669,27.9346658 260.61233,27.7946672 261.233,27.692 C261.85367,27.5893328 262.434664,27.538 262.976,27.538 C263.965338,27.538 264.674665,27.7316647 265.104,28.119 C265.533335,28.5063353 265.748,29.1479955 265.748,30.044 L265.748,32.97 C265.748,33.1380008 265.764333,33.2546663 265.797,33.32 C265.829667,33.3853337 265.901999,33.4506663 266.014,33.516 L266.574,33.838 L266.518,34.706 C265.435328,34.9580013 264.581336,35.0979999 263.956,35.126 C263.937333,35.0699997 263.909334,34.9696674 263.872,34.825 C263.834666,34.6803326 263.802,34.5426673 263.774,34.412 C263.409998,34.6453345 263.011002,34.8319993 262.577,34.972 C262.142998,35.1120007 261.730002,35.182 261.338,35.182 C260.70333,35.182 260.194669,35.0070018 259.812,34.657 L259.812,34.657 Z M263.634,33.222 L263.578,32.158 C263.353999,32.1393332 263.204667,32.13 263.13,32.13 C262.877999,32.13 262.584002,32.1556664 262.248,32.207 C261.911998,32.2583336 261.646001,32.3166663 261.45,32.382 C261.422,32.5033339 261.408,32.6153328 261.408,32.718 C261.408,32.9980014 261.484999,33.2149992 261.639,33.369 C261.793001,33.5230008 262.005332,33.6 262.276,33.6 C262.649335,33.6 263.101997,33.4740013 263.634,33.222 L263.634,33.222 Z M267.89,34.181 C267.292664,33.5136633 266.994,32.5920059 266.994,31.416 C266.994,30.1933272 267.313663,29.2413367 267.953,28.56 C268.592337,27.8786633 269.467328,27.538 270.578,27.538 C271.418004,27.538 272.318662,27.7293314 273.28,28.112 C273.261333,28.382668 273.219334,28.7396644 273.154,29.183 C273.088666,29.6263356 273.018667,30.0346648 272.944,30.408 L272.006,30.492 L271.138,29.386 C270.904665,29.3393331 270.643335,29.316 270.354,29.316 C270.120665,29.316 269.906001,29.3299999 269.71,29.358 C269.495332,29.7686687 269.388,30.3473296 269.388,31.094 C269.388,31.8593372 269.523332,32.4263315 269.794,32.795 C270.064668,33.1636685 270.475331,33.348 271.026,33.348 C271.287335,33.348 271.604665,33.3083337 271.978,33.229 C272.351335,33.1496663 272.733998,33.0353341 273.126,32.886 L273.462,34.286 C273.088665,34.5473346 272.624336,34.7619992 272.069,34.93 C271.513664,35.0980008 270.960669,35.182 270.41,35.182 C269.327328,35.182 268.487336,34.8483367 267.89,34.181 L267.89,34.181 Z M275.009,34.174 C274.41633,33.51133 274.12,32.5966725 274.12,31.43 C274.12,30.6179959 274.264665,29.9203362 274.554,29.337 C274.843335,28.7536638 275.253997,28.3080015 275.786,28 C276.318003,27.6919985 276.938663,27.538 277.648,27.538 C278.702672,27.538 279.512331,27.8739966 280.077,28.546 C280.641669,29.2180034 280.91,30.1746605 280.882,31.416 L276.626,32.2 C276.756667,32.592002 276.940999,32.8789991 277.179,33.061 C277.417001,33.2430009 277.731998,33.334 278.124,33.334 C278.394668,33.334 278.716665,33.2943337 279.09,33.215 C279.463335,33.1356663 279.841331,33.0260007 280.224,32.886 L280.546,34.272 C280.200665,34.5333346 279.752669,34.7479992 279.202,34.916 C278.651331,35.0840008 278.096003,35.168 277.536,35.168 C276.443995,35.168 275.60167,34.83667 275.009,34.174 L275.009,34.174 Z M278.586,30.24 C278.567333,29.8853316 278.467001,29.6263342 278.285,29.463 C278.102999,29.2996659 277.848668,29.218 277.522,29.218 C277.251332,29.218 276.994668,29.255333 276.752,29.33 C276.555999,29.7873356 276.467333,30.2819973 276.486,30.814 L278.586,30.24 Z" id="interactive-explorat" fill="#909090" opacity="0.826375933"></path>
        </g>
    </g>
</svg>