<?xml version="1.0" encoding="UTF-8" standalone="no"?>
<svg width="329px" height="38px" viewBox="0 0 329 38" version="1.1" xmlns="http://www.w3.org/2000/svg" xmlns:xlink="http://www.w3.org/1999/xlink">
    <!-- Generator: Sketch 3.8.3 (29802) - http://www.bohemiancoding.com/sketch -->
    <title>jewish_cultures_on_the_map_negative</title>
    <desc>Created with Sketch.</desc>
    <defs>
        <path d="M6.08029805,17 C5.00890867,19.9458415 2.25752032,22.8058087 2.25752032,22.8058087 C-0.085760447,25.3667421 -0.0859197626,29.5181271 2.25752032,32.0792346 C4.60080108,34.6401681 8.39936161,34.6403422 10.7428017,32.0792346 C13.0860825,29.5183012 13.0862418,25.3669162 10.7428017,22.8058087 C10.7428017,22.8058087 7.99120453,19.9458415 6.919902,17 C7.99120453,14.0541585 10.7428017,11.1941913 10.7428017,11.1941913 C13.0862418,8.63308378 13.0860825,4.48169878 10.7428017,1.92076536 C8.39936161,-0.640342176 4.60080108,-0.640168062 2.25752032,1.92076536 C-0.0859197626,4.48187289 -0.085760447,8.6332579 2.25752032,11.1941913 C2.25752032,11.1941913 5.00890867,14.0541585 6.08029805,17 Z" id="path-1"></path>
        <mask id="mask-2" maskContentUnits="userSpaceOnUse" maskUnits="objectBoundingBox" x="-2" y="-2" width="16.000322" height="38">
            <rect x="-1.5" y="-2" width="16.000322" height="38" fill="white"></rect>
            <use xlink:href="#path-1" fill="black"></use>
        </mask>
        <mask id="mask-4" maskContentUnits="userSpaceOnUse" maskUnits="objectBoundingBox" x="-2" y="-2" width="16.000322" height="38">
            <rect x="-1.5" y="-2" width="16.000322" height="38" fill="white"></rect>
            <use xlink:href="#path-1" fill="black"></use>
        </mask>
    </defs>
    <g id="Symbols" stroke="none" stroke-width="1" fill="none" fill-rule="evenodd">
        <g id="jewish_cultures_on_the_map_negative">
            <g id="Group-Copy-2">
                <path d="M8.08029805,19 C7.00890867,21.9458415 4.25752032,24.8058087 4.25752032,24.8058087 C1.91423955,27.3667421 1.91408024,31.5181271 4.25752032,34.0792346 C6.60080108,36.6401681 10.3993616,36.6403422 12.7428017,34.0792346 C15.0860825,31.5183012 15.0862418,27.3669162 12.7428017,24.8058087 C12.7428017,24.8058087 9.99120453,21.9458415 8.919902,19 C9.99120453,16.0541585 12.7428017,13.1941913 12.7428017,13.1941913 C15.0862418,10.6330838 15.0860825,6.48169878 12.7428017,3.92076536 C10.3993616,1.35965782 6.60080108,1.35983194 4.25752032,3.92076536 C1.91408024,6.48187289 1.91423955,10.6332579 4.25752032,13.1941913 C4.25752032,13.1941913 7.00890867,16.0541585 8.08029805,19 Z M14.1271722,36 C15.2245661,34.8571428 16.2697133,33.16673 16.50647,30.7725441 C17.1289312,24.4779489 10.8931882,23.5501779 10.0471255,18.9913025 C11.1479266,14.6672389 17.1216364,13.5939253 16.5487859,7.41135141 C16.314548,4.88330351 15.1792344,3.14141543 14.0239463,1.99831005 L16.0000398,1.99831005 C16.5452911,1.99831005 17,1.55097311 17,0.999155024 C17,0.443489767 16.5523026,0 16.0000398,0 L0.999960201,0 C0.454708934,0 0,0.447336941 0,0.999155024 C0,1.55482028 0.447697432,1.99831005 0.999960201,1.99831005 L2.97605369,1.99831005 C1.82076559,3.14141543 0.685452014,4.88330351 0.451214069,7.41135141 C-0.121636394,13.5939253 5.85207338,14.6672389 6.9528745,18.9913025 C6.10681176,23.5501779 -0.128931228,24.4779489 0.493529977,30.7725441 C0.730286721,33.16673 1.77543392,34.8571428 2.87282783,36 L0.999960201,36 C0.447697432,36 0,36.4434898 0,36.999155 C0,37.5509731 0.454708934,37.99831 0.999960201,37.99831 L5.69293237,37.99831 C5.73527435,38.016211 5.75792402,38.024856 5.75792402,38.024856 L8.2943519,38.0297252 L8.5,38.03012 L8.70564898,38.0305147 L11.242076,38.024856 C11.242076,38.024856 11.2647256,38.016211 11.3070676,37.99831 L16.0000398,37.99831 C16.5523026,37.99831 17,37.5548203 17,36.999155 C17,36.4473369 16.5452911,36 16.0000398,36 L14.1271722,36 Z" id="Combined-Shape" fill="#FFFFFF"></path>
                <g id="Group" transform="translate(2.000000, 2.000000)">
                    <mask id="mask-3" fill="white">
                        <use xlink:href="#path-1"></use>
                    </mask>
                    <g id="Combined-Shape" stroke="#FFFFFF" mask="url(#mask-2)" stroke-width="4">
                        <use mask="url(#mask-4)" xlink:href="#path-1"></use>
                    </g>
                    <rect id="Rectangle-197" fill="#2DC6E0" mask="url(#mask-3)" x="-1" y="7" width="15" height="10"></rect>
                    <rect id="Rectangle-197-Copy" fill="#2DC6E0" mask="url(#mask-3)" x="-1" y="27" width="15" height="10"></rect>
                </g>
                <g id="Group-2" transform="translate(6.500000, 7.250000)" fill="#FFFFFF">
                    <ellipse id="Oval-73-Copy" cx="2" cy="22" rx="2" ry="2"></ellipse>
                    <ellipse id="Oval-73" cx="2" cy="2" rx="2" ry="2"></ellipse>
                </g>
            </g>
            <g id="Group-3-Copy" transform="translate(21.000000, 4.000000)">
                <path d="M1.74,17.38 C1.3533314,17.0999986 0.9066692,16.6866694 0.4,16.14 L2.02,14.18 L2.02,5.9 C2.02,5.5533316 1.9933336,5.3233339 1.94,5.21 C1.8866664,5.0966661 1.7466678,4.9933338 1.52,4.9 L0.5,4.3 L0.58,2.52 L7,2.52 L7.1,4.56 L5.64,4.96 L5.64,11.36 C5.64,12.7733404 5.5266678,13.9299955 5.3,14.83 C5.0733322,15.7300045 4.6666696,16.6333288 4.08,17.54 L3.46,18.42 C2.6999962,18.0066646 2.1266686,17.6600014 1.74,17.38 L1.74,17.38 Z M8.73,14.82 C7.8833291,13.8733286 7.46,12.566675 7.46,10.9 C7.46,9.7399942 7.6666646,8.7433375 8.08,7.91 C8.4933354,7.0766625 9.0799962,6.4400022 9.84,6 C10.6000038,5.5599978 11.4866616,5.34 12.5,5.34 C14.0066742,5.34 15.1633293,5.8199952 15.97,6.78 C16.7766707,7.7400048 17.1600002,9.1066578 17.12,10.88 L11.04,12 C11.2266676,12.5600028 11.4899983,12.9699987 11.83,13.23 C12.1700017,13.4900013 12.6199972,13.62 13.18,13.62 C13.5666686,13.62 14.026664,13.5633339 14.56,13.45 C15.093336,13.3366661 15.6333306,13.180001 16.18,12.98 L16.64,14.96 C16.1466642,15.3333352 15.5066706,15.6399988 14.72,15.88 C13.9333294,16.1200012 13.140004,16.24 12.34,16.24 C10.7799922,16.24 9.5766709,15.7666714 8.73,14.82 L8.73,14.82 Z M13.84,9.2 C13.8133332,8.6933308 13.6700013,8.3233345 13.41,8.09 C13.1499987,7.8566655 12.786669,7.74 12.32,7.74 C11.9333314,7.74 11.5666684,7.7933328 11.22,7.9 C10.9399986,8.5533366 10.8133332,9.2599962 10.84,10.02 L13.84,9.2 Z M18.62,8.28 C18.4733326,7.9199982 18.3733336,7.6866672 18.32,7.58 C18.2666664,7.4733328 18.1666674,7.3266676 18.02,7.14 L17.68,6.7 L17.78,5.54 L22.84,5.54 L23.04,7.24 L21.94,7.5 L23.3,12.36 L25.28,5.7 L27.34,5.42 L29.62,12.54 L30.9,7.94 C30.9266668,7.8599996 30.94,7.8000002 30.94,7.76 C30.94,7.6399994 30.8800006,7.5600002 30.76,7.52 L29.8,7.12 L30,5.54 L33.8,5.54 L34,7.1 L30.56,16.1 L27.68,16.32 L26.02,10.76 L24.2,16.1 L21.32,16.32 L18.62,8.28 Z M35.8,1.2 L39.2,0.3 L40.02,3.34 L36.64,4.26 L35.8,1.2 Z M34.96,14.16 L36.36,13.74 L36.36,8.88 C36.36,8.5866652 36.3366669,8.3966671 36.29,8.31 C36.2433331,8.2233329 36.1266676,8.1266672 35.94,8.02 L35.06,7.54 L35.16,6.04 C36.2666722,5.8266656 37.1233303,5.6700005 37.73,5.57 C38.3366697,5.4699995 38.8933308,5.4133334 39.4,5.4 C39.5733342,5.9733362 39.6799998,6.3999986 39.72,6.68 L39.72,13.08 C39.72,13.3600014 39.7399998,13.5466662 39.78,13.64 C39.8200002,13.7333338 39.9333324,13.8333328 40.12,13.94 L41.1,14.5 L41.02,16 L35.02,16 L34.96,14.16 Z M41.96,15.78 C42.0400004,14.4733268 42.1266662,13.5066698 42.22,12.88 L43.36,12.66 L44.62,14 C45.0600022,14.133334 45.5533306,14.2 46.1,14.2 C46.4066682,14.2 46.6466658,14.1800002 46.82,14.14 C46.8600002,14.0333328 46.88,13.8866676 46.88,13.7 C46.88,13.5399992 46.8433337,13.4066672 46.77,13.3 C46.6966663,13.1933328 46.5333346,13.0666674 46.28,12.92 C46.0266654,12.7733326 45.5866698,12.5466682 44.96,12.24 C44.1733294,11.8266646 43.5733354,11.4566683 43.16,11.13 C42.7466646,10.8033317 42.4500009,10.4666684 42.27,10.12 C42.0899991,9.7733316 42,9.3600024 42,8.88 C42,7.813328 42.3966627,6.9666698 43.19,6.34 C43.9833373,5.7133302 45.0599932,5.4 46.42,5.4 C46.9800028,5.4 47.5699969,5.4633327 48.19,5.59 C48.8100031,5.7166673 49.3666642,5.8866656 49.86,6.1 C49.86,6.966671 49.8000006,7.933328 49.68,9 L48.64,9.16 L47.3,7.72 C46.9533316,7.6133328 46.44667,7.56 45.78,7.56 C45.6733328,7.56 45.4600016,7.5733332 45.14,7.6 C45.0999998,7.6800004 45.08,7.8066658 45.08,7.98 C45.08,8.1666676 45.1333328,8.3299993 45.24,8.47 C45.3466672,8.6100007 45.5366653,8.7633325 45.81,8.93 C46.0833347,9.0966675 46.519997,9.3333318 47.12,9.64 C48.0000044,10.0666688 48.6633311,10.4366651 49.11,10.75 C49.5566689,11.0633349 49.8699991,11.3799984 50.05,11.7 C50.2300009,12.0200016 50.32,12.4066644 50.32,12.86 C50.32,13.9533388 49.9033375,14.8066636 49.07,15.42 C48.2366625,16.0333364 47.086674,16.34 45.62,16.34 C44.5666614,16.34 43.3466736,16.1533352 41.96,15.78 L41.96,15.78 Z M50.94,14.1 L52.18,13.74 L52.18,4.16 C52.18,3.8666652 52.1600002,3.6766671 52.12,3.59 C52.0799998,3.5033329 51.9733342,3.4066672 51.8,3.3 L50.92,2.84 L50.98,1.32 L51.6,1.22 C53.3600088,0.8999984 54.5933298,0.7266668 55.3,0.7 C55.4200006,1.0200016 55.5066664,1.3666648 55.56,1.74 L55.56,6.3 C56.293337,5.966665 56.9166641,5.7233341 57.43,5.57 C57.9433359,5.4166659 58.4533308,5.34 58.96,5.34 C61.0400104,5.34 62.08,6.606654 62.08,9.14 L62.08,13.08 C62.08,13.3600014 62.0999998,13.5466662 62.14,13.64 C62.1800002,13.7333338 62.2933324,13.8333328 62.48,13.94 L63.44,14.5 L63.36,16 L57.84,16 L57.74,14.1 L58.72,13.82 L58.72,10.02 C58.72,9.4333304 58.7033335,9.0166679 58.67,8.77 C58.6366665,8.5233321 58.5266676,8.333334 58.34,8.2 C58.1533324,8.066666 57.8400022,8 57.4,8 C56.9733312,8 56.360004,8.0733326 55.56,8.22 L55.56,13.08 C55.56,13.3600014 55.5799998,13.5466662 55.62,13.64 C55.6600002,13.7333338 55.7666658,13.8333328 55.94,13.94 L56.92,14.5 L56.84,16 L51.04,16 L50.94,14.1 Z M69.4,14.44 C68.3066612,13.1999938 67.76,11.446678 67.76,9.18 C67.76,7.7399928 68.0233307,6.4966719 68.55,5.45 C69.0766693,4.4033281 69.839995,3.6033361 70.84,3.05 C71.840005,2.4966639 73.0266598,2.22 74.4,2.22 C75.9600078,2.22 77.5666584,2.5733298 79.22,3.28 C79.0999994,4.480006 78.906668,5.8066594 78.64,7.26 L77.12,7.36 L75.74,5.34 C75.1533304,5.1666658 74.5066702,5.08 73.8,5.08 C73.266664,5.08 72.7600024,5.1266662 72.28,5.22 C72.0666656,5.6333354 71.893334,6.1799966 71.76,6.86 C71.626666,7.5400034 71.56,8.2266632 71.56,8.92 C71.56,10.4000074 71.8299973,11.4966631 72.37,12.21 C72.9100027,12.9233369 73.7666608,13.2933332 74.94,13.32 C75.406669,13.32 75.9966631,13.2500007 76.71,13.11 C77.4233369,12.9699993 78.1199966,12.7866678 78.8,12.56 L79.42,14.76 C78.7266632,15.2133356 77.8900049,15.5833319 76.91,15.87 C75.9299951,16.1566681 74.9866712,16.3 74.08,16.3 C72.0533232,16.3 70.4933388,15.6800062 69.4,14.44 L69.4,14.44 Z M82.16,15.33 C81.6399974,14.6966635 81.38,13.7400064 81.38,12.46 L81.38,8.88 C81.38,8.5866652 81.3566669,8.3966671 81.31,8.31 C81.2633331,8.2233329 81.1466676,8.1266672 80.96,8.02 L80.06,7.54 L80.16,6.04 C80.3466676,6.0133332 80.4799996,5.9866668 80.56,5.96 C80.7066674,5.9333332 81.2299955,5.8400008 82.13,5.68 C83.0300045,5.5199992 83.779997,5.4266668 84.38,5.4 C84.5266674,5.733335 84.6399996,6.1199978 84.72,6.56 L84.72,11.6 C84.72,12.1866696 84.7366665,12.5999988 84.77,12.84 C84.8033335,13.0800012 84.9099991,13.2633327 85.09,13.39 C85.2700009,13.5166673 85.5799978,13.58 86.02,13.58 C86.6600032,13.58 87.279997,13.4666678 87.88,13.24 L87.88,8.88 C87.88,8.5866652 87.8600002,8.3966671 87.82,8.31 C87.7799998,8.2233329 87.6733342,8.1266672 87.5,8.02 L86.62,7.54 L86.7,6.04 C87.7800054,5.839999 88.6233303,5.6866672 89.23,5.58 C89.8366697,5.4733328 90.3933308,5.4133334 90.9,5.4 C91.0466674,5.733335 91.1599996,6.1199978 91.24,6.56 L91.24,13.12 C91.24,13.3600012 91.2599998,13.5266662 91.3,13.62 C91.3400002,13.7133338 91.4333326,13.8066662 91.58,13.9 L92.38,14.36 L92.32,15.6 C91.7466638,15.7466674 91.0866704,15.8766661 90.34,15.99 C89.5933296,16.1033339 88.9000032,16.1733332 88.26,16.2 C88.2066664,16.0399992 88.146667,15.8400012 88.08,15.6 C88.0666666,15.4933328 88.0333336,15.3666674 87.98,15.22 L87.92,15.22 C87.3733306,15.5400016 86.7966697,15.7966657 86.19,15.99 C85.5833303,16.1833343 85.0333358,16.28 84.54,16.28 C83.473328,16.28 82.6800026,15.9633365 82.16,15.33 L82.16,15.33 Z M92.96,14.16 L94.36,13.74 L94.36,4.16 C94.36,3.8666652 94.3366669,3.6766671 94.29,3.59 C94.2433331,3.5033329 94.1266676,3.4066672 93.94,3.3 L93.06,2.84 L93.16,1.32 C93.426668,1.2666664 93.6333326,1.2333334 93.78,1.22 C95.5400088,0.8999984 96.7666632,0.7266668 97.46,0.7 C97.593334,1.0066682 97.6799998,1.3533314 97.72,1.74 L97.72,13.08 C97.72,13.3600014 97.7399998,13.5466662 97.78,13.64 C97.8200002,13.7333338 97.9333324,13.8333328 98.12,13.94 L99.1,14.5 L99.02,16 L93.02,16 L92.96,14.16 Z M101.44,15.39 C100.879997,14.8099971 100.6,13.9266726 100.6,12.74 L100.6,7.88 L99.2,7.88 L99.2,6.42 L102.8,3.14 L103.96,3.28 L103.96,5.54 L107.32,5.54 L107.32,7.9 L103.96,7.9 L103.96,12.02 C103.96,12.6600032 104.049999,13.0866656 104.23,13.3 C104.410001,13.5133344 104.759997,13.62 105.28,13.62 C105.720002,13.62 106.333329,13.5600006 107.12,13.44 L107.36,15.48 C106.879998,15.7066678 106.343336,15.8933326 105.75,16.04 C105.156664,16.1866674 104.586669,16.26 104.04,16.26 C102.866661,16.26 102.000003,15.9700029 101.44,15.39 L101.44,15.39 Z M110.26,15.33 C109.739997,14.6966635 109.48,13.7400064 109.48,12.46 L109.48,8.88 C109.48,8.5866652 109.456667,8.3966671 109.41,8.31 C109.363333,8.2233329 109.246668,8.1266672 109.06,8.02 L108.16,7.54 L108.26,6.04 C108.446668,6.0133332 108.58,5.9866668 108.66,5.96 C108.806667,5.9333332 109.329995,5.8400008 110.23,5.68 C111.130004,5.5199992 111.879997,5.4266668 112.48,5.4 C112.626667,5.733335 112.74,6.1199978 112.82,6.56 L112.82,11.6 C112.82,12.1866696 112.836666,12.5999988 112.87,12.84 C112.903333,13.0800012 113.009999,13.2633327 113.19,13.39 C113.370001,13.5166673 113.679998,13.58 114.12,13.58 C114.760003,13.58 115.379997,13.4666678 115.98,13.24 L115.98,8.88 C115.98,8.5866652 115.96,8.3966671 115.92,8.31 C115.88,8.2233329 115.773334,8.1266672 115.6,8.02 L114.72,7.54 L114.8,6.04 C115.880005,5.839999 116.72333,5.6866672 117.33,5.58 C117.93667,5.4733328 118.493331,5.4133334 119,5.4 C119.146667,5.733335 119.26,6.1199978 119.34,6.56 L119.34,13.12 C119.34,13.3600012 119.36,13.5266662 119.4,13.62 C119.44,13.7133338 119.533333,13.8066662 119.68,13.9 L120.48,14.36 L120.42,15.6 C119.846664,15.7466674 119.18667,15.8766661 118.44,15.99 C117.69333,16.1033339 117.000003,16.1733332 116.36,16.2 C116.306666,16.0399992 116.246667,15.8400012 116.18,15.6 C116.166667,15.4933328 116.133334,15.3666674 116.08,15.22 L116.02,15.22 C115.473331,15.5400016 114.89667,15.7966657 114.29,15.99 C113.68333,16.1833343 113.133336,16.28 112.64,16.28 C111.573328,16.28 110.780003,15.9633365 110.26,15.33 L110.26,15.33 Z M121.3,14.1 L122.52,13.74 L122.52,8.88 C122.52,8.5866652 122.5,8.3966671 122.46,8.31 C122.42,8.2233329 122.313334,8.1266672 122.14,8.02 L121.26,7.54 L121.32,6.04 C121.546668,5.9866664 121.739999,5.9533334 121.9,5.94 C123.513341,5.606665 124.706663,5.4266668 125.48,5.4 C125.600001,5.7466684 125.713333,6.1799974 125.82,6.7 C126.620004,6.0733302 127.299997,5.6400012 127.86,5.4 L129,5.4 C128.986667,5.9066692 128.953334,6.4566637 128.9,7.05 C128.846666,7.6433363 128.78,8.1199982 128.7,8.48 C128.219998,8.4533332 127.866668,8.44 127.64,8.44 C127.079997,8.44 126.500003,8.473333 125.9,8.54 L125.9,13.08 C125.9,13.3600014 125.92,13.5466662 125.96,13.64 C126,13.7333338 126.106666,13.8333328 126.28,13.94 L127.48,14.58 L127.4,16 L121.4,16 L121.3,14.1 Z M130.85,14.82 C130.003329,13.8733286 129.58,12.566675 129.58,10.9 C129.58,9.7399942 129.786665,8.7433375 130.2,7.91 C130.613335,7.0766625 131.199996,6.4400022 131.96,6 C132.720004,5.5599978 133.606662,5.34 134.62,5.34 C136.126674,5.34 137.283329,5.8199952 138.09,6.78 C138.896671,7.7400048 139.28,9.1066578 139.24,10.88 L133.16,12 C133.346668,12.5600028 133.609998,12.9699987 133.95,13.23 C134.290002,13.4900013 134.739997,13.62 135.3,13.62 C135.686669,13.62 136.146664,13.5633339 136.68,13.45 C137.213336,13.3366661 137.753331,13.180001 138.3,12.98 L138.76,14.96 C138.266664,15.3333352 137.626671,15.6399988 136.84,15.88 C136.053329,16.1200012 135.260004,16.24 134.46,16.24 C132.899992,16.24 131.696671,15.7666714 130.85,14.82 L130.85,14.82 Z M135.96,9.2 C135.933333,8.6933308 135.790001,8.3233345 135.53,8.09 C135.269999,7.8566655 134.906669,7.74 134.44,7.74 C134.053331,7.74 133.686668,7.7933328 133.34,7.9 C133.059999,8.5533366 132.933333,9.2599962 132.96,10.02 L135.96,9.2 Z M140.42,15.78 C140.5,14.4733268 140.586666,13.5066698 140.68,12.88 L141.82,12.66 L143.08,14 C143.520002,14.133334 144.013331,14.2 144.56,14.2 C144.866668,14.2 145.106666,14.1800002 145.28,14.14 C145.32,14.0333328 145.34,13.8866676 145.34,13.7 C145.34,13.5399992 145.303334,13.4066672 145.23,13.3 C145.156666,13.1933328 144.993335,13.0666674 144.74,12.92 C144.486665,12.7733326 144.04667,12.5466682 143.42,12.24 C142.633329,11.8266646 142.033335,11.4566683 141.62,11.13 C141.206665,10.8033317 140.910001,10.4666684 140.73,10.12 C140.549999,9.7733316 140.46,9.3600024 140.46,8.88 C140.46,7.813328 140.856663,6.9666698 141.65,6.34 C142.443337,5.7133302 143.519993,5.4 144.88,5.4 C145.440003,5.4 146.029997,5.4633327 146.65,5.59 C147.270003,5.7166673 147.826664,5.8866656 148.32,6.1 C148.32,6.966671 148.260001,7.933328 148.14,9 L147.1,9.16 L145.76,7.72 C145.413332,7.6133328 144.90667,7.56 144.24,7.56 C144.133333,7.56 143.920002,7.5733332 143.6,7.6 C143.56,7.6800004 143.54,7.8066658 143.54,7.98 C143.54,8.1666676 143.593333,8.3299993 143.7,8.47 C143.806667,8.6100007 143.996665,8.7633325 144.27,8.93 C144.543335,9.0966675 144.979997,9.3333318 145.58,9.64 C146.460004,10.0666688 147.123331,10.4366651 147.57,10.75 C148.016669,11.0633349 148.329999,11.3799984 148.51,11.7 C148.690001,12.0200016 148.78,12.4066644 148.78,12.86 C148.78,13.9533388 148.363337,14.8066636 147.53,15.42 C146.696662,16.0333364 145.546674,16.34 144.08,16.34 C143.026661,16.34 141.806674,16.1533352 140.42,15.78 L140.42,15.78 Z M154.75,14.96 C153.916662,14.093329 153.5,12.7666756 153.5,10.98 C153.5,9.8333276 153.709998,8.8333376 154.13,7.98 C154.550002,7.1266624 155.153329,6.4733356 155.94,6.02 C156.726671,5.5666644 157.653328,5.34 158.72,5.34 C162.173351,5.34 163.9,7.1266488 163.9,10.7 C163.9,12.4466754 163.430005,13.8099951 162.49,14.79 C161.549995,15.7700049 160.233342,16.26 158.54,16.26 C156.846658,16.26 155.583337,15.826671 154.75,14.96 L154.75,14.96 Z M159.56,13.85 C159.760001,13.8033331 159.973332,13.7266672 160.2,13.62 C160.28,13.3133318 160.346666,12.9200024 160.4,12.44 C160.453334,11.9599976 160.48,11.5000022 160.48,11.06 C160.48,9.9799946 160.310002,9.1600028 159.97,8.6 C159.629998,8.0399972 159.12667,7.76 158.46,7.76 C158.019998,7.76 157.573336,7.8199994 157.12,7.94 C157.026666,8.140001 156.953334,8.4633311 156.9,8.91 C156.846666,9.3566689 156.82,9.8666638 156.82,10.44 C156.82,11.5600056 156.996665,12.419997 157.35,13.02 C157.703335,13.620003 158.206663,13.92 158.86,13.92 C159.126668,13.92 159.359999,13.8966669 159.56,13.85 L159.56,13.85 Z M164.88,14.08 L166.12,13.72 L166.12,8.88 C166.12,8.5866652 166.1,8.3966671 166.06,8.31 C166.02,8.2233329 165.913334,8.1266672 165.74,8.02 L164.86,7.54 L164.92,6.04 L165.36,5.96 C167.106675,5.6133316 168.366663,5.4266668 169.14,5.4 C169.246667,5.6800014 169.333333,5.986665 169.4,6.32 C170.213337,5.9466648 170.876664,5.6900007 171.39,5.55 C171.903336,5.4099993 172.386664,5.34 172.84,5.34 C174.960011,5.34 176.02,6.606654 176.02,9.14 L176.02,13.06 C176.02,13.3400014 176.04,13.5266662 176.08,13.62 C176.12,13.7133338 176.233332,13.8133328 176.42,13.92 L177.38,14.48 L177.3,15.98 L171.78,15.98 L171.68,14.08 L172.66,13.8 L172.66,10.02 C172.66,9.419997 172.64,9.0000012 172.6,8.76 C172.56,8.5199988 172.450001,8.333334 172.27,8.2 C172.089999,8.066666 171.773336,8 171.32,8 C170.839998,8 170.233337,8.0733326 169.5,8.22 L169.5,13.06 C169.5,13.3400014 169.52,13.5266662 169.56,13.62 C169.6,13.7133338 169.706666,13.8133328 169.88,13.92 L170.86,14.48 L170.78,15.98 L164.98,15.98 L164.88,14.08 Z M183.52,15.39 C182.959997,14.8099971 182.68,13.9266726 182.68,12.74 L182.68,7.88 L181.28,7.88 L181.28,6.42 L184.88,3.14 L186.04,3.28 L186.04,5.54 L189.4,5.54 L189.4,7.9 L186.04,7.9 L186.04,12.02 C186.04,12.6600032 186.129999,13.0866656 186.31,13.3 C186.490001,13.5133344 186.839997,13.62 187.36,13.62 C187.800002,13.62 188.413329,13.5600006 189.2,13.44 L189.44,15.48 C188.959998,15.7066678 188.423336,15.8933326 187.83,16.04 C187.236664,16.1866674 186.666669,16.26 186.12,16.26 C184.946661,16.26 184.080003,15.9700029 183.52,15.39 L183.52,15.39 Z M190.28,14.1 L191.52,13.74 L191.52,4.16 C191.52,3.8666652 191.5,3.6766671 191.46,3.59 C191.42,3.5033329 191.313334,3.4066672 191.14,3.3 L190.26,2.84 L190.32,1.32 L190.94,1.22 C192.700009,0.8999984 193.93333,0.7266668 194.64,0.7 C194.760001,1.0200016 194.846666,1.3666648 194.9,1.74 L194.9,6.3 C195.633337,5.966665 196.256664,5.7233341 196.77,5.57 C197.283336,5.4166659 197.793331,5.34 198.3,5.34 C200.38001,5.34 201.42,6.606654 201.42,9.14 L201.42,13.08 C201.42,13.3600014 201.44,13.5466662 201.48,13.64 C201.52,13.7333338 201.633332,13.8333328 201.82,13.94 L202.78,14.5 L202.7,16 L197.18,16 L197.08,14.1 L198.06,13.82 L198.06,10.02 C198.06,9.4333304 198.043333,9.0166679 198.01,8.77 C197.976666,8.5233321 197.866668,8.333334 197.68,8.2 C197.493332,8.066666 197.180002,8 196.74,8 C196.313331,8 195.700004,8.0733326 194.9,8.22 L194.9,13.08 C194.9,13.3600014 194.92,13.5466662 194.96,13.64 C195,13.7333338 195.106666,13.8333328 195.28,13.94 L196.26,14.5 L196.18,16 L190.38,16 L190.28,14.1 Z M204.53,14.82 C203.683329,13.8733286 203.26,12.566675 203.26,10.9 C203.26,9.7399942 203.466665,8.7433375 203.88,7.91 C204.293335,7.0766625 204.879996,6.4400022 205.64,6 C206.400004,5.5599978 207.286662,5.34 208.3,5.34 C209.806674,5.34 210.963329,5.8199952 211.77,6.78 C212.576671,7.7400048 212.96,9.1066578 212.92,10.88 L206.84,12 C207.026668,12.5600028 207.289998,12.9699987 207.63,13.23 C207.970002,13.4900013 208.419997,13.62 208.98,13.62 C209.366669,13.62 209.826664,13.5633339 210.36,13.45 C210.893336,13.3366661 211.433331,13.180001 211.98,12.98 L212.44,14.96 C211.946664,15.3333352 211.306671,15.6399988 210.52,15.88 C209.733329,16.1200012 208.940004,16.24 208.14,16.24 C206.579992,16.24 205.376671,15.7666714 204.53,14.82 L204.53,14.82 Z M209.64,9.2 C209.613333,8.6933308 209.470001,8.3233345 209.21,8.09 C208.949999,7.8566655 208.586669,7.74 208.12,7.74 C207.733331,7.74 207.366668,7.7933328 207.02,7.9 C206.739999,8.5533366 206.613333,9.2599962 206.64,10.02 L209.64,9.2 Z M222.06,7.16 L221.62,13.08 L221.62,13.16 C221.62,13.4133346 221.713332,13.5799996 221.9,13.66 L223.14,14.18 L222.94,16 L217.96,16 L217.76,14.22 L218.68,13.66 L219.82,5.94 C219.833333,5.8466662 219.84,5.733334 219.84,5.6 C219.84,5.4399992 219.803334,5.3200004 219.73,5.24 C219.656666,5.1599996 219.520001,5.0600006 219.32,4.94 L218.4,4.42 L218.52,2.52 L224.26,2.52 L227.12,11.84 L229.96,2.52 L235.32,2.52 L235.4,4.62 L234.12,4.94 L235.2,12.78 C235.24,13.046668 235.296666,13.2533326 235.37,13.4 C235.443334,13.5466674 235.613332,13.786665 235.88,14.12 L236.3,14.66 L236.18,16 L230.22,16 L230.04,14.16 L231.68,13.74 L231,7.04 L228.44,16.08 L225.02,16.38 L222.06,7.16 Z M238.16,15.51 C237.613331,15.0099975 237.34,14.3666706 237.34,13.58 C237.34,12.5266614 237.869995,11.700003 238.93,11.1 C239.990005,10.499997 241.533323,10.1600004 243.56,10.08 C243.56,9.4533302 243.51,8.9900015 243.41,8.69 C243.309999,8.3899985 243.130001,8.1833339 242.87,8.07 C242.609999,7.9566661 242.213336,7.9 241.68,7.9 C241.133331,7.9 240.746668,7.9199998 240.52,7.96 L239.7,9.58 L238.22,9.48 C237.993332,8.413328 237.833334,7.3066724 237.74,6.16 C238.48667,5.9066654 239.303329,5.7066674 240.19,5.56 C241.076671,5.4133326 241.906663,5.34 242.68,5.34 C244.09334,5.34 245.106664,5.6166639 245.72,6.17 C246.333336,6.7233361 246.64,7.6399936 246.64,8.92 L246.64,13.1 C246.64,13.3400012 246.663333,13.5066662 246.71,13.6 C246.756667,13.6933338 246.859999,13.7866662 247.02,13.88 L247.82,14.34 L247.74,15.58 C246.193326,15.9400018 244.973338,16.1399998 244.08,16.18 C244.053333,16.0999996 244.013334,15.9566677 243.96,15.75 C243.906666,15.5433323 243.86,15.3466676 243.82,15.16 C243.299997,15.493335 242.730003,15.759999 242.11,15.96 C241.489997,16.160001 240.900003,16.26 240.34,16.26 C239.433329,16.26 238.706669,16.0100025 238.16,15.51 L238.16,15.51 Z M243.62,13.46 L243.54,11.94 C243.219998,11.9133332 243.006667,11.9 242.9,11.9 C242.539998,11.9 242.120002,11.9366663 241.64,12.01 C241.159998,12.0833337 240.780001,12.1666662 240.5,12.26 C240.46,12.4333342 240.44,12.5933326 240.44,12.74 C240.44,13.140002 240.549999,13.4499989 240.77,13.67 C240.990001,13.8900011 241.293331,14 241.68,14 C242.213336,14 242.859996,13.8200018 243.62,13.46 L243.62,13.46 Z M248.12,18.4 L249.36,18.06 L249.36,8.88 C249.36,8.5866652 249.34,8.3966671 249.3,8.31 C249.26,8.2233329 249.146668,8.1266672 248.96,8.02 L248.06,7.54 L248.16,6.04 C248.226667,6.0266666 248.293333,6.0133334 248.36,6 C248.426667,5.9866666 248.5,5.9733334 248.58,5.96 C249.20667,5.8399994 249.869996,5.7233339 250.57,5.61 C251.270003,5.4966661 251.846664,5.4266668 252.3,5.4 C252.420001,5.6800014 252.5,5.9999982 252.54,6.36 C252.953335,6.026665 253.396664,5.7733342 253.87,5.6 C254.343336,5.4266658 254.813331,5.34 255.28,5.34 C256.61334,5.34 257.636663,5.8099953 258.35,6.75 C259.063337,7.6900047 259.42,9.026658 259.42,10.76 C259.42,12.560009 258.926672,13.9366619 257.94,14.89 C256.953328,15.8433381 255.526676,16.32 253.66,16.32 C253.459999,16.32 253.146669,16.3066668 252.72,16.28 L252.72,17.38 C252.72,17.6733348 252.74,17.8666662 252.78,17.96 C252.82,18.0533338 252.933332,18.1466662 253.12,18.24 L254.3,18.9 L254.22,20.3 L248.22,20.3 L248.12,18.4 Z M255.7,13.58 C255.806667,13.246665 255.896666,12.8433357 255.97,12.37 C256.043334,11.8966643 256.08,11.4533354 256.08,11.04 C256.08,10.0133282 255.903335,9.2200028 255.55,8.66 C255.196665,8.0999972 254.70667,7.82 254.08,7.82 C253.693331,7.82 253.240003,7.9333322 252.72,8.16 L252.72,13.6 C253.106669,13.7600008 253.59333,13.84 254.18,13.84 C254.80667,13.84 255.313331,13.7533342 255.7,13.58 L255.7,13.58 Z" id="Jewish-Cultures-on-t" fill="#FFFFFF"></path>
                <path d="M0.938,20.64 L3.318,20.01 L3.892,22.138 L1.526,22.782 L0.938,20.64 Z M0.35,29.712 L1.33,29.418 L1.33,26.016 C1.33,25.8106656 1.31366683,25.677667 1.281,25.617 C1.24833317,25.556333 1.16666732,25.488667 1.036,25.414 L0.42,25.078 L0.49,24.028 C1.26467054,23.8786659 1.86433121,23.7690003 2.289,23.699 C2.71366879,23.6289996 3.10333156,23.5893334 3.458,23.58 C3.57933394,23.9813353 3.65399986,24.279999 3.682,24.476 L3.682,28.956 C3.682,29.152001 3.69599986,29.2826663 3.724,29.348 C3.75200014,29.4133337 3.83133268,29.483333 3.962,29.558 L4.648,29.95 L4.592,31 L0.392,31 L0.35,29.712 Z M5.222,29.656 L6.09,29.404 L6.09,26.016 C6.09,25.8106656 6.07600014,25.677667 6.048,25.617 C6.01999986,25.556333 5.94533394,25.488667 5.824,25.414 L5.208,25.078 L5.25,24.028 L5.558,23.972 C6.78067278,23.7293321 7.66266396,23.5986668 8.204,23.58 C8.27866704,23.776001 8.3393331,23.9906655 8.386,24.224 C8.95533618,23.9626654 9.41966487,23.7830005 9.779,23.685 C10.1383351,23.5869995 10.4766651,23.538 10.794,23.538 C12.2780074,23.538 13.02,24.4246578 13.02,26.198 L13.02,28.942 C13.02,29.138001 13.0339999,29.2686663 13.062,29.334 C13.0900001,29.3993337 13.1693327,29.469333 13.3,29.544 L13.972,29.936 L13.916,30.986 L10.052,30.986 L9.982,29.656 L10.668,29.46 L10.668,26.814 C10.668,26.3939979 10.6540001,26.1000008 10.626,25.932 C10.5979999,25.7639992 10.5210006,25.6333338 10.395,25.54 C10.2689994,25.4466662 10.0473349,25.4 9.73,25.4 C9.39399832,25.4 8.9693359,25.4513328 8.456,25.554 L8.456,28.942 C8.456,29.138001 8.46999986,29.2686663 8.498,29.334 C8.52600014,29.3993337 8.60066606,29.469333 8.722,29.544 L9.408,29.936 L9.352,30.986 L5.292,30.986 L5.222,29.656 Z M15.484,30.573 C15.091998,30.166998 14.896,29.5486708 14.896,28.718 L14.896,25.316 L13.916,25.316 L13.916,24.294 L16.436,21.998 L17.248,22.096 L17.248,23.678 L19.6,23.678 L19.6,25.33 L17.248,25.33 L17.248,28.214 C17.248,28.6620022 17.3109994,28.9606659 17.437,29.11 C17.5630006,29.2593341 17.8079982,29.334 18.172,29.334 C18.4800015,29.334 18.9093306,29.2920004 19.46,29.208 L19.628,30.636 C19.2919983,30.7946675 18.9163354,30.9253328 18.501,31.028 C18.0856646,31.1306672 17.6866686,31.182 17.304,31.182 C16.4826626,31.182 15.876002,30.979002 15.484,30.573 L15.484,30.573 Z M21.119,30.174 C20.5263304,29.51133 20.23,28.5966725 20.23,27.43 C20.23,26.6179959 20.3746652,25.9203362 20.664,25.337 C20.9533348,24.7536637 21.3639973,24.3080015 21.896,24 C22.4280027,23.6919985 23.0486631,23.538 23.758,23.538 C24.8126719,23.538 25.6223305,23.8739966 26.187,24.546 C26.7516695,25.2180034 27.0200001,26.1746605 26.992,27.416 L22.736,28.2 C22.8666673,28.592002 23.0509988,28.8789991 23.289,29.061 C23.5270012,29.2430009 23.841998,29.334 24.234,29.334 C24.504668,29.334 24.8266648,29.2943337 25.2,29.215 C25.5733352,29.1356663 25.9513314,29.0260007 26.334,28.886 L26.656,30.272 C26.3106649,30.5333346 25.8626694,30.7479992 25.312,30.916 C24.7613306,31.0840008 24.2060028,31.168 23.646,31.168 C22.5539945,31.168 21.7116696,30.83667 21.119,30.174 L21.119,30.174 Z M24.696,26.24 C24.6773332,25.8853316 24.5770009,25.6263341 24.395,25.463 C24.2129991,25.2996658 23.9586683,25.218 23.632,25.218 C23.361332,25.218 23.1046679,25.255333 22.862,25.33 C22.665999,25.7873356 22.5773332,26.2819973 22.596,26.814 L24.696,26.24 Z M27.622,29.67 L28.476,29.418 L28.476,26.016 C28.476,25.8106656 28.4620001,25.677667 28.434,25.617 C28.4059999,25.556333 28.3313339,25.488667 28.21,25.414 L27.594,25.078 L27.636,24.028 C27.7946675,23.9906665 27.9299994,23.9673334 28.042,23.958 C29.171339,23.7246655 30.006664,23.5986668 30.548,23.58 C30.6320004,23.8226679 30.711333,24.1259982 30.786,24.49 C31.3460028,24.0513311 31.821998,23.7480008 32.214,23.58 L33.012,23.58 C33.0026666,23.9346684 32.9793335,24.3196646 32.942,24.735 C32.9046665,25.1503354 32.8580003,25.4839987 32.802,25.736 C32.4659983,25.7173332 32.2186675,25.708 32.06,25.708 C31.667998,25.708 31.2620021,25.7313331 30.842,25.778 L30.842,28.956 C30.842,29.152001 30.8559999,29.2826663 30.884,29.348 C30.9120001,29.4133337 30.9866661,29.483333 31.108,29.558 L31.948,30.006 L31.892,31 L27.692,31 L27.622,29.67 Z M34.062,30.657 C33.6793314,30.3069982 33.488,29.8566694 33.488,29.306 C33.488,28.568663 33.8589963,27.9900021 34.601,27.57 C35.3430037,27.1499979 36.4233262,26.9120003 37.842,26.856 C37.842,26.4173311 37.8070004,26.093001 37.737,25.883 C37.6669997,25.6729989 37.5410009,25.5283337 37.359,25.449 C37.1769991,25.3696663 36.8993352,25.33 36.526,25.33 C36.1433314,25.33 35.8726675,25.3439999 35.714,25.372 L35.14,26.506 L34.104,26.436 C33.9453325,25.6893296 33.8333337,24.9146707 33.768,24.112 C34.2906693,23.9346658 34.8623302,23.7946672 35.483,23.692 C36.1036698,23.5893328 36.684664,23.538 37.226,23.538 C38.2153383,23.538 38.9246645,23.7316647 39.354,24.119 C39.7833355,24.5063353 39.998,25.1479955 39.998,26.044 L39.998,28.97 C39.998,29.1380008 40.0143332,29.2546663 40.047,29.32 C40.0796668,29.3853337 40.1519994,29.4506663 40.264,29.516 L40.824,29.838 L40.768,30.706 C39.6853279,30.9580013 38.8313365,31.0979999 38.206,31.126 C38.1873332,31.0699997 38.1593335,30.9696674 38.122,30.825 C38.0846665,30.6803326 38.0520001,30.5426673 38.024,30.412 C37.6599982,30.6453345 37.2610022,30.8319993 36.827,30.972 C36.3929978,31.1120007 35.980002,31.182 35.588,31.182 C34.9533302,31.182 34.4446686,31.0070017 34.062,30.657 L34.062,30.657 Z M37.884,29.222 L37.828,28.158 C37.6039989,28.1393332 37.454667,28.13 37.38,28.13 C37.1279987,28.13 36.8340017,28.1556664 36.498,28.207 C36.1619983,28.2583336 35.896001,28.3166663 35.7,28.382 C35.6719999,28.5033339 35.658,28.6153328 35.658,28.718 C35.658,28.9980014 35.7349992,29.2149992 35.889,29.369 C36.0430008,29.5230008 36.255332,29.6 36.526,29.6 C36.8993352,29.6 37.3519973,29.4740013 37.884,29.222 L37.884,29.222 Z M42.14,30.181 C41.5426637,29.5136633 41.244,28.5920059 41.244,27.416 C41.244,26.1933272 41.5636635,25.2413367 42.203,24.56 C42.8423365,23.8786633 43.7173278,23.538 44.828,23.538 C45.6680042,23.538 46.5686619,23.7293314 47.53,24.112 C47.5113332,24.382668 47.4693337,24.7396644 47.404,25.183 C47.3386663,25.6263355 47.268667,26.0346648 47.194,26.408 L46.256,26.492 L45.388,25.386 C45.1546655,25.3393331 44.8933348,25.316 44.604,25.316 C44.3706655,25.316 44.156001,25.3299999 43.96,25.358 C43.7453323,25.7686687 43.638,26.3473296 43.638,27.094 C43.638,27.8593372 43.773332,28.4263315 44.044,28.795 C44.314668,29.1636685 44.7253306,29.348 45.276,29.348 C45.5373346,29.348 45.8546648,29.3083337 46.228,29.229 C46.6013352,29.1496663 46.983998,29.0353341 47.376,28.886 L47.712,30.286 C47.3386648,30.5473346 46.8743361,30.7619992 46.319,30.93 C45.7636639,31.0980008 45.2106694,31.182 44.66,31.182 C43.5773279,31.182 42.7373363,30.8483367 42.14,30.181 L42.14,30.181 Z M49.868,30.573 C49.475998,30.166998 49.28,29.5486708 49.28,28.718 L49.28,25.316 L48.3,25.316 L48.3,24.294 L50.82,21.998 L51.632,22.096 L51.632,23.678 L53.984,23.678 L53.984,25.33 L51.632,25.33 L51.632,28.214 C51.632,28.6620022 51.6949994,28.9606659 51.821,29.11 C51.9470006,29.2593341 52.1919982,29.334 52.556,29.334 C52.8640015,29.334 53.2933306,29.2920004 53.844,29.208 L54.012,30.636 C53.6759983,30.7946675 53.3003354,30.9253328 52.885,31.028 C52.4696646,31.1306672 52.0706686,31.182 51.688,31.182 C50.8666626,31.182 50.260002,30.979002 49.868,30.573 L49.868,30.573 Z M55.342,20.64 L57.722,20.01 L58.296,22.138 L55.93,22.782 L55.342,20.64 Z M54.754,29.712 L55.734,29.418 L55.734,26.016 C55.734,25.8106656 55.7176668,25.677667 55.685,25.617 C55.6523332,25.556333 55.5706673,25.488667 55.44,25.414 L54.824,25.078 L54.894,24.028 C55.6686705,23.8786659 56.2683312,23.7690003 56.693,23.699 C57.1176688,23.6289996 57.5073316,23.5893334 57.862,23.58 C57.9833339,23.9813353 58.0579999,24.279999 58.086,24.476 L58.086,28.956 C58.086,29.152001 58.0999999,29.2826663 58.128,29.348 C58.1560001,29.4133337 58.2353327,29.483333 58.366,29.558 L59.052,29.95 L58.996,31 L54.796,31 L54.754,29.712 Z M59.626,25.596 C59.5233328,25.3439987 59.4533335,25.180667 59.416,25.106 C59.3786665,25.031333 59.3086672,24.9286673 59.206,24.798 L58.968,24.49 L59.038,23.678 L62.566,23.678 L62.706,24.868 L61.894,25.064 L63.168,28.676 L64.4,25.358 C64.4186668,25.3019997 64.428,25.2600001 64.428,25.232 C64.428,25.1479996 64.3860004,25.0920001 64.302,25.064 L63.644,24.784 L63.77,23.678 L66.43,23.678 L66.57,24.812 L63.798,31.028 L61.782,31.182 L59.626,25.596 Z M67.921,30.174 C67.3283304,29.51133 67.032,28.5966725 67.032,27.43 C67.032,26.6179959 67.1766652,25.9203362 67.466,25.337 C67.7553348,24.7536637 68.1659973,24.3080015 68.698,24 C69.2300027,23.6919985 69.8506631,23.538 70.56,23.538 C71.6146719,23.538 72.4243305,23.8739966 72.989,24.546 C73.5536695,25.2180034 73.8220001,26.1746605 73.794,27.416 L69.538,28.2 C69.6686673,28.592002 69.8529988,28.8789991 70.091,29.061 C70.3290012,29.2430009 70.643998,29.334 71.036,29.334 C71.306668,29.334 71.6286648,29.2943337 72.002,29.215 C72.3753352,29.1356663 72.7533314,29.0260007 73.136,28.886 L73.458,30.272 C73.1126649,30.5333346 72.6646694,30.7479992 72.114,30.916 C71.5633306,31.0840008 71.0080028,31.168 70.448,31.168 C69.3559945,31.168 68.5136696,30.83667 67.921,30.174 L67.921,30.174 Z M71.498,26.24 C71.4793332,25.8853316 71.3790009,25.6263341 71.197,25.463 C71.0149991,25.2996658 70.7606683,25.218 70.434,25.218 C70.163332,25.218 69.9066679,25.255333 69.664,25.33 C69.467999,25.7873356 69.3793332,26.2819973 69.398,26.814 L71.498,26.24 Z M78.099,30.174 C77.5063304,29.51133 77.21,28.5966725 77.21,27.43 C77.21,26.6179959 77.3546652,25.9203362 77.644,25.337 C77.9333348,24.7536637 78.3439973,24.3080015 78.876,24 C79.4080027,23.6919985 80.0286631,23.538 80.738,23.538 C81.7926719,23.538 82.6023305,23.8739966 83.167,24.546 C83.7316695,25.2180034 84.0000001,26.1746605 83.972,27.416 L79.716,28.2 C79.8466673,28.592002 80.0309988,28.8789991 80.269,29.061 C80.5070012,29.2430009 80.821998,29.334 81.214,29.334 C81.484668,29.334 81.8066648,29.2943337 82.18,29.215 C82.5533352,29.1356663 82.9313314,29.0260007 83.314,28.886 L83.636,30.272 C83.2906649,30.5333346 82.8426694,30.7479992 82.292,30.916 C81.7413306,31.0840008 81.1860028,31.168 80.626,31.168 C79.5339945,31.168 78.6916696,30.83667 78.099,30.174 L78.099,30.174 Z M81.676,26.24 C81.6573332,25.8853316 81.5570009,25.6263341 81.375,25.463 C81.1929991,25.2996658 80.9386683,25.218 80.612,25.218 C80.341332,25.218 80.0846679,25.255333 79.842,25.33 C79.645999,25.7873356 79.5573332,26.2819973 79.576,26.814 L81.676,26.24 Z M84.364,29.95 L86.674,27.29 L84.826,24.882 C84.7326662,24.7606661 84.648667,24.6650003 84.574,24.595 C84.499333,24.5249996 84.4480001,24.4806668 84.42,24.462 L84.49,23.678 L88.242,23.678 L88.312,24.756 L87.752,24.882 L88.718,26.128 L89.404,25.148 C89.4413335,25.1013331 89.46,25.0500003 89.46,24.994 C89.46,24.9286663 89.4320003,24.8820001 89.376,24.854 L88.9,24.616 L88.97,23.678 L91.714,23.678 L91.784,24.742 L89.628,27.318 L91.504,29.754 C91.7093344,30.0153346 91.849333,30.183333 91.924,30.258 L91.854,31 L87.99,31 L87.92,29.978 L88.606,29.81 L87.584,28.48 L86.8,29.53 C86.7626665,29.5766669 86.744,29.6279997 86.744,29.684 C86.744,29.7493337 86.7719997,29.7959999 86.828,29.824 L87.304,30.062 L87.234,31 L84.406,31 L84.364,29.95 Z M92.386,32.68 L93.254,32.442 L93.254,26.016 C93.254,25.8106656 93.2400001,25.677667 93.212,25.617 C93.1839999,25.556333 93.1046673,25.488667 92.974,25.414 L92.344,25.078 L92.414,24.028 C92.4606669,24.0186666 92.5073331,24.0093334 92.554,24 C92.6006669,23.9906666 92.6519997,23.9813334 92.708,23.972 C93.1466689,23.8879996 93.6109976,23.8063337 94.101,23.727 C94.5910025,23.6476663 94.9946651,23.5986668 95.312,23.58 C95.3960004,23.776001 95.4519999,23.9999987 95.48,24.252 C95.7693348,24.0186655 96.079665,23.8413339 96.411,23.72 C96.742335,23.5986661 97.0713317,23.538 97.398,23.538 C98.331338,23.538 99.0476642,23.8669967 99.547,24.525 C100.046336,25.1830033 100.296,26.1186606 100.296,27.332 C100.296,28.5920063 99.9506701,29.5556633 99.26,30.223 C98.5693299,30.8903367 97.5706732,31.224 96.264,31.224 C96.1239993,31.224 95.9046682,31.2146668 95.606,31.196 L95.606,31.966 C95.606,32.1713344 95.6199999,32.3066663 95.648,32.372 C95.6760001,32.4373337 95.7553327,32.5026663 95.886,32.568 L96.712,33.03 L96.656,34.01 L92.456,34.01 L92.386,32.68 Z M97.692,29.306 C97.766667,29.0726655 97.8296664,28.790335 97.881,28.459 C97.9323336,28.127665 97.958,27.8173348 97.958,27.528 C97.958,26.8093297 97.8343346,26.254002 97.587,25.862 C97.3396654,25.469998 96.9966689,25.274 96.558,25.274 C96.287332,25.274 95.9700018,25.3533325 95.606,25.512 L95.606,29.32 C95.876668,29.4320006 96.2173313,29.488 96.628,29.488 C97.0666689,29.488 97.421332,29.4273339 97.692,29.306 L97.692,29.306 Z M100.674,29.712 L101.654,29.418 L101.654,22.712 C101.654,22.5066656 101.637667,22.373667 101.605,22.313 C101.572333,22.252333 101.490667,22.184667 101.36,22.11 L100.744,21.788 L100.814,20.724 C101.000668,20.6866665 101.145333,20.6633334 101.248,20.654 C102.480006,20.4299989 103.338664,20.3086668 103.824,20.29 C103.917334,20.5046677 103.978,20.747332 104.006,21.018 L104.006,28.956 C104.006,29.152001 104.02,29.2826663 104.048,29.348 C104.076,29.4133337 104.155333,29.483333 104.286,29.558 L104.972,29.95 L104.916,31 L100.716,31 L100.674,29.712 Z M106.267,30.272 C105.683664,29.6653303 105.392,28.7366729 105.392,27.486 C105.392,26.6833293 105.538999,25.9833363 105.833,25.386 C106.127001,24.7886637 106.549331,24.3313349 107.1,24.014 C107.650669,23.6966651 108.29933,23.538 109.046,23.538 C111.463345,23.538 112.672,24.7886542 112.672,27.29 C112.672,28.5126728 112.343003,29.4669966 111.685,30.153 C111.026997,30.8390034 110.105339,31.182 108.92,31.182 C107.734661,31.182 106.850336,30.8786697 106.267,30.272 L106.267,30.272 Z M109.634,29.495 C109.774001,29.4623332 109.923333,29.408667 110.082,29.334 C110.138,29.1193323 110.184666,28.8440017 110.222,28.508 C110.259334,28.1719983 110.278,27.8500015 110.278,27.542 C110.278,26.7859962 110.159001,26.212002 109.921,25.82 C109.682999,25.427998 109.330669,25.232 108.864,25.232 C108.555998,25.232 108.243335,25.2739996 107.926,25.358 C107.860666,25.4980007 107.809334,25.7243318 107.772,26.037 C107.734666,26.3496682 107.716,26.7066647 107.716,27.108 C107.716,27.8920039 107.839665,28.4939979 108.087,28.914 C108.334335,29.3340021 108.686664,29.544 109.144,29.544 C109.330668,29.544 109.493999,29.5276668 109.634,29.495 L109.634,29.495 Z M113.302,29.67 L114.156,29.418 L114.156,26.016 C114.156,25.8106656 114.142,25.677667 114.114,25.617 C114.086,25.556333 114.011334,25.488667 113.89,25.414 L113.274,25.078 L113.316,24.028 C113.474667,23.9906665 113.609999,23.9673334 113.722,23.958 C114.851339,23.7246655 115.686664,23.5986668 116.228,23.58 C116.312,23.8226679 116.391333,24.1259982 116.466,24.49 C117.026003,24.0513311 117.501998,23.7480008 117.894,23.58 L118.692,23.58 C118.682667,23.9346684 118.659334,24.3196646 118.622,24.735 C118.584666,25.1503354 118.538,25.4839987 118.482,25.736 C118.145998,25.7173332 117.898667,25.708 117.74,25.708 C117.347998,25.708 116.942002,25.7313331 116.522,25.778 L116.522,28.956 C116.522,29.152001 116.536,29.2826663 116.564,29.348 C116.592,29.4133337 116.666666,29.483333 116.788,29.558 L117.628,30.006 L117.572,31 L113.372,31 L113.302,29.67 Z M119.742,30.657 C119.359331,30.3069982 119.168,29.8566694 119.168,29.306 C119.168,28.568663 119.538996,27.9900021 120.281,27.57 C121.023004,27.1499979 122.103326,26.9120003 123.522,26.856 C123.522,26.4173311 123.487,26.093001 123.417,25.883 C123.347,25.6729989 123.221001,25.5283337 123.039,25.449 C122.856999,25.3696663 122.579335,25.33 122.206,25.33 C121.823331,25.33 121.552667,25.3439999 121.394,25.372 L120.82,26.506 L119.784,26.436 C119.625333,25.6893296 119.513334,24.9146707 119.448,24.112 C119.970669,23.9346658 120.54233,23.7946672 121.163,23.692 C121.78367,23.5893328 122.364664,23.538 122.906,23.538 C123.895338,23.538 124.604665,23.7316647 125.034,24.119 C125.463335,24.5063353 125.678,25.1479955 125.678,26.044 L125.678,28.97 C125.678,29.1380008 125.694333,29.2546663 125.727,29.32 C125.759667,29.3853337 125.831999,29.4506663 125.944,29.516 L126.504,29.838 L126.448,30.706 C125.365328,30.9580013 124.511336,31.0979999 123.886,31.126 C123.867333,31.0699997 123.839334,30.9696674 123.802,30.825 C123.764666,30.6803326 123.732,30.5426673 123.704,30.412 C123.339998,30.6453345 122.941002,30.8319993 122.507,30.972 C122.072998,31.1120007 121.660002,31.182 121.268,31.182 C120.63333,31.182 120.124669,31.0070017 119.742,30.657 L119.742,30.657 Z M123.564,29.222 L123.508,28.158 C123.283999,28.1393332 123.134667,28.13 123.06,28.13 C122.807999,28.13 122.514002,28.1556664 122.178,28.207 C121.841998,28.2583336 121.576001,28.3166663 121.38,28.382 C121.352,28.5033339 121.338,28.6153328 121.338,28.718 C121.338,28.9980014 121.414999,29.2149992 121.569,29.369 C121.723001,29.5230008 121.935332,29.6 122.206,29.6 C122.579335,29.6 123.031997,29.4740013 123.564,29.222 L123.564,29.222 Z M128.142,30.573 C127.749998,30.166998 127.554,29.5486708 127.554,28.718 L127.554,25.316 L126.574,25.316 L126.574,24.294 L129.094,21.998 L129.906,22.096 L129.906,23.678 L132.258,23.678 L132.258,25.33 L129.906,25.33 L129.906,28.214 C129.906,28.6620022 129.968999,28.9606659 130.095,29.11 C130.221001,29.2593341 130.465998,29.334 130.83,29.334 C131.138002,29.334 131.567331,29.2920004 132.118,29.208 L132.286,30.636 C131.949998,30.7946675 131.574335,30.9253328 131.159,31.028 C130.743665,31.1306672 130.344669,31.182 129.962,31.182 C129.140663,31.182 128.534002,30.979002 128.142,30.573 L128.142,30.573 Z M133.616,20.64 L135.996,20.01 L136.57,22.138 L134.204,22.782 L133.616,20.64 Z M133.028,29.712 L134.008,29.418 L134.008,26.016 C134.008,25.8106656 133.991667,25.677667 133.959,25.617 C133.926333,25.556333 133.844667,25.488667 133.714,25.414 L133.098,25.078 L133.168,24.028 C133.942671,23.8786659 134.542331,23.7690003 134.967,23.699 C135.391669,23.6289996 135.781332,23.5893334 136.136,23.58 C136.257334,23.9813353 136.332,24.279999 136.36,24.476 L136.36,28.956 C136.36,29.152001 136.374,29.2826663 136.402,29.348 C136.43,29.4133337 136.509333,29.483333 136.64,29.558 L137.326,29.95 L137.27,31 L133.07,31 L133.028,29.712 Z M138.621,30.272 C138.037664,29.6653303 137.746,28.7366729 137.746,27.486 C137.746,26.6833293 137.892999,25.9833363 138.187,25.386 C138.481001,24.7886637 138.903331,24.3313349 139.454,24.014 C140.004669,23.6966651 140.65333,23.538 141.4,23.538 C143.817345,23.538 145.026,24.7886542 145.026,27.29 C145.026,28.5126728 144.697003,29.4669966 144.039,30.153 C143.380997,30.8390034 142.459339,31.182 141.274,31.182 C140.088661,31.182 139.204336,30.8786697 138.621,30.272 L138.621,30.272 Z M141.988,29.495 C142.128001,29.4623332 142.277333,29.408667 142.436,29.334 C142.492,29.1193323 142.538666,28.8440017 142.576,28.508 C142.613334,28.1719983 142.632,27.8500015 142.632,27.542 C142.632,26.7859962 142.513001,26.212002 142.275,25.82 C142.036999,25.427998 141.684669,25.232 141.218,25.232 C140.909998,25.232 140.597335,25.2739996 140.28,25.358 C140.214666,25.4980007 140.163334,25.7243318 140.126,26.037 C140.088666,26.3496682 140.07,26.7066647 140.07,27.108 C140.07,27.8920039 140.193665,28.4939979 140.441,28.914 C140.688335,29.3340021 141.040664,29.544 141.498,29.544 C141.684668,29.544 141.847999,29.5276668 141.988,29.495 L141.988,29.495 Z M145.712,29.656 L146.58,29.404 L146.58,26.016 C146.58,25.8106656 146.566,25.677667 146.538,25.617 C146.51,25.556333 146.435334,25.488667 146.314,25.414 L145.698,25.078 L145.74,24.028 L146.048,23.972 C147.270673,23.7293321 148.152664,23.5986668 148.694,23.58 C148.768667,23.776001 148.829333,23.9906655 148.876,24.224 C149.445336,23.9626654 149.909665,23.7830005 150.269,23.685 C150.628335,23.5869995 150.966665,23.538 151.284,23.538 C152.768007,23.538 153.51,24.4246578 153.51,26.198 L153.51,28.942 C153.51,29.138001 153.524,29.2686663 153.552,29.334 C153.58,29.3993337 153.659333,29.469333 153.79,29.544 L154.462,29.936 L154.406,30.986 L150.542,30.986 L150.472,29.656 L151.158,29.46 L151.158,26.814 C151.158,26.3939979 151.144,26.1000008 151.116,25.932 C151.088,25.7639992 151.011001,25.6333338 150.885,25.54 C150.758999,25.4466662 150.537335,25.4 150.22,25.4 C149.883998,25.4 149.459336,25.4513328 148.946,25.554 L148.946,28.942 C148.946,29.138001 148.96,29.2686663 148.988,29.334 C149.016,29.3993337 149.090666,29.469333 149.212,29.544 L149.898,29.936 L149.842,30.986 L145.782,30.986 L145.712,29.656 Z M154.98,30.846 C155.036,29.9313288 155.096666,29.2546689 155.162,28.816 L155.96,28.662 L156.842,29.6 C157.150002,29.6933338 157.495331,29.74 157.878,29.74 C158.092668,29.74 158.260666,29.7260001 158.382,29.698 C158.41,29.623333 158.424,29.5206673 158.424,29.39 C158.424,29.2779994 158.398334,29.184667 158.347,29.11 C158.295666,29.035333 158.181334,28.9466672 158.004,28.844 C157.826666,28.7413328 157.518669,28.5826677 157.08,28.368 C156.529331,28.0786652 156.109335,27.8196678 155.82,27.591 C155.530665,27.3623322 155.323001,27.1266679 155.197,26.884 C155.070999,26.6413321 155.008,26.3520017 155.008,26.016 C155.008,25.2693296 155.285664,24.6766689 155.841,24.238 C156.396336,23.7993311 157.149995,23.58 158.102,23.58 C158.494002,23.58 158.906998,23.6243329 159.341,23.713 C159.775002,23.8016671 160.164665,23.9206659 160.51,24.07 C160.51,24.6766697 160.468,25.3533296 160.384,26.1 L159.656,26.212 L158.718,25.204 C158.475332,25.129333 158.120669,25.092 157.654,25.092 C157.579333,25.092 157.430001,25.1013332 157.206,25.12 C157.178,25.1760003 157.164,25.2646661 157.164,25.386 C157.164,25.5166673 157.201333,25.6309995 157.276,25.729 C157.350667,25.8270005 157.483666,25.9343327 157.675,26.051 C157.866334,26.1676672 158.171998,26.3333323 158.592,26.548 C159.208003,26.8466682 159.672332,27.1056656 159.985,27.325 C160.297668,27.5443344 160.516999,27.7659989 160.643,27.99 C160.769001,28.2140011 160.832,28.4846651 160.832,28.802 C160.832,29.5673372 160.540336,30.1646645 159.957,30.594 C159.373664,31.0233355 158.568672,31.238 157.542,31.238 C156.804663,31.238 155.950672,31.1073346 154.98,30.846 L154.98,30.846 Z M164.864,20.64 L167.244,20.01 L167.818,22.138 L165.452,22.782 L164.864,20.64 Z M164.276,29.712 L165.256,29.418 L165.256,26.016 C165.256,25.8106656 165.239667,25.677667 165.207,25.617 C165.174333,25.556333 165.092667,25.488667 164.962,25.414 L164.346,25.078 L164.416,24.028 C165.190671,23.8786659 165.790331,23.7690003 166.215,23.699 C166.639669,23.6289996 167.029332,23.5893334 167.384,23.58 C167.505334,23.9813353 167.58,24.279999 167.608,24.476 L167.608,28.956 C167.608,29.152001 167.622,29.2826663 167.65,29.348 C167.678,29.4133337 167.757333,29.483333 167.888,29.558 L168.574,29.95 L168.518,31 L164.318,31 L164.276,29.712 Z M169.148,29.656 L170.016,29.404 L170.016,26.016 C170.016,25.8106656 170.002,25.677667 169.974,25.617 C169.946,25.556333 169.871334,25.488667 169.75,25.414 L169.134,25.078 L169.176,24.028 L169.484,23.972 C170.706673,23.7293321 171.588664,23.5986668 172.13,23.58 C172.204667,23.776001 172.265333,23.9906655 172.312,24.224 C172.881336,23.9626654 173.345665,23.7830005 173.705,23.685 C174.064335,23.5869995 174.402665,23.538 174.72,23.538 C176.204007,23.538 176.946,24.4246578 176.946,26.198 L176.946,28.942 C176.946,29.138001 176.96,29.2686663 176.988,29.334 C177.016,29.3993337 177.095333,29.469333 177.226,29.544 L177.898,29.936 L177.842,30.986 L173.978,30.986 L173.908,29.656 L174.594,29.46 L174.594,26.814 C174.594,26.3939979 174.58,26.1000008 174.552,25.932 C174.524,25.7639992 174.447001,25.6333338 174.321,25.54 C174.194999,25.4466662 173.973335,25.4 173.656,25.4 C173.319998,25.4 172.895336,25.4513328 172.382,25.554 L172.382,28.942 C172.382,29.138001 172.396,29.2686663 172.424,29.334 C172.452,29.3993337 172.526666,29.469333 172.648,29.544 L173.334,29.936 L173.278,30.986 L169.218,30.986 L169.148,29.656 Z M182.196,30.573 C181.803998,30.166998 181.608,29.5486708 181.608,28.718 L181.608,25.316 L180.628,25.316 L180.628,24.294 L183.148,21.998 L183.96,22.096 L183.96,23.678 L186.312,23.678 L186.312,25.33 L183.96,25.33 L183.96,28.214 C183.96,28.6620022 184.022999,28.9606659 184.149,29.11 C184.275001,29.2593341 184.519998,29.334 184.884,29.334 C185.192002,29.334 185.621331,29.2920004 186.172,29.208 L186.34,30.636 C186.003998,30.7946675 185.628335,30.9253328 185.213,31.028 C184.797665,31.1306672 184.398669,31.182 184.016,31.182 C183.194663,31.182 182.588002,30.979002 182.196,30.573 L182.196,30.573 Z M187.67,20.64 L190.05,20.01 L190.624,22.138 L188.258,22.782 L187.67,20.64 Z M187.082,29.712 L188.062,29.418 L188.062,26.016 C188.062,25.8106656 188.045667,25.677667 188.013,25.617 C187.980333,25.556333 187.898667,25.488667 187.768,25.414 L187.152,25.078 L187.222,24.028 C187.996671,23.8786659 188.596331,23.7690003 189.021,23.699 C189.445669,23.6289996 189.835332,23.5893334 190.19,23.58 C190.311334,23.9813353 190.386,24.279999 190.414,24.476 L190.414,28.956 C190.414,29.152001 190.428,29.2826663 190.456,29.348 C190.484,29.4133337 190.563333,29.483333 190.694,29.558 L191.38,29.95 L191.324,31 L187.124,31 L187.082,29.712 Z M191.954,29.67 L192.822,29.418 L192.822,26.016 C192.822,25.8106656 192.808,25.677667 192.78,25.617 C192.752,25.556333 192.677334,25.488667 192.556,25.414 L191.94,25.078 L191.982,24.028 L192.36,23.958 C193.508006,23.7246655 194.357331,23.5986668 194.908,23.58 C194.982667,23.776001 195.043333,23.9766656 195.09,24.182 C195.594003,23.9486655 196.025665,23.7830005 196.385,23.685 C196.744335,23.5869995 197.073332,23.538 197.372,23.538 C197.736002,23.538 198.076665,23.605666 198.394,23.741 C198.711335,23.876334 198.949333,24.0559989 199.108,24.28 C199.640003,24.0186654 200.118331,23.8296672 200.543,23.713 C200.967669,23.5963327 201.371331,23.538 201.754,23.538 C202.519337,23.538 203.083998,23.7573311 203.448,24.196 C203.812002,24.6346689 203.994,25.3019955 203.994,26.198 L203.994,28.956 C203.994,29.152001 204.008,29.2826663 204.036,29.348 C204.064,29.4133337 204.143333,29.483333 204.274,29.558 L204.946,29.95 L204.89,31 L201.082,31 L201.012,29.67 L201.684,29.474 L201.684,26.828 C201.684,26.4266647 201.672333,26.1396675 201.649,25.967 C201.625667,25.7943325 201.548667,25.6590005 201.418,25.561 C201.287333,25.4629995 201.068002,25.414 200.76,25.414 C200.517332,25.414 200.111336,25.4559996 199.542,25.54 C199.560667,25.6893341 199.57,25.9086652 199.57,26.198 L199.57,28.956 C199.57,29.152001 199.584,29.2826663 199.612,29.348 C199.64,29.4133337 199.723999,29.483333 199.864,29.558 L200.55,29.95 L200.494,31 L196.658,31 L196.588,29.67 L197.26,29.474 L197.26,26.828 C197.26,26.4173313 197.248333,26.1256675 197.225,25.953 C197.201667,25.7803325 197.124667,25.6473338 196.994,25.554 C196.863333,25.4606662 196.648668,25.414 196.35,25.414 C196.023332,25.414 195.626669,25.4559996 195.16,25.54 L195.16,28.956 C195.16,29.152001 195.174,29.2826663 195.202,29.348 C195.23,29.4133337 195.304666,29.483333 195.426,29.558 L196.112,29.95 L196.056,31 L192.024,31 L191.954,29.67 Z M206.185,30.174 C205.59233,29.51133 205.296,28.5966725 205.296,27.43 C205.296,26.6179959 205.440665,25.9203362 205.73,25.337 C206.019335,24.7536637 206.429997,24.3080015 206.962,24 C207.494003,23.6919985 208.114663,23.538 208.824,23.538 C209.878672,23.538 210.688331,23.8739966 211.253,24.546 C211.817669,25.2180034 212.086,26.1746605 212.058,27.416 L207.802,28.2 C207.932667,28.592002 208.116999,28.8789991 208.355,29.061 C208.593001,29.2430009 208.907998,29.334 209.3,29.334 C209.570668,29.334 209.892665,29.2943337 210.266,29.215 C210.639335,29.1356663 211.017331,29.0260007 211.4,28.886 L211.722,30.272 C211.376665,30.5333346 210.928669,30.7479992 210.378,30.916 C209.827331,31.0840008 209.272003,31.168 208.712,31.168 C207.619995,31.168 206.77767,30.83667 206.185,30.174 L206.185,30.174 Z M209.762,26.24 C209.743333,25.8853316 209.643001,25.6263341 209.461,25.463 C209.278999,25.2996658 209.024668,25.218 208.698,25.218 C208.427332,25.218 208.170668,25.255333 207.928,25.33 C207.731999,25.7873356 207.643333,26.2819973 207.662,26.814 L209.762,26.24 Z M224.833,29.243 C225.229669,29.1263327 225.595998,29.0073339 225.932,28.886 L225.848,30.804 C225.399998,31.0466679 224.868003,31.168 224.252,31.168 C223.663997,31.168 223.071336,31.0560011 222.474,30.832 C222.231332,30.7386662 221.998001,30.6406672 221.774,30.538 C220.915329,30.9953356 219.996005,31.224 219.016,31.224 C218.343997,31.224 217.749003,31.1166677 217.231,30.902 C216.712997,30.6873323 216.311668,30.3816686 216.027,29.985 C215.742332,29.5883313 215.6,29.1286693 215.6,28.606 C215.6,28.0833307 215.739999,27.5956689 216.02,27.143 C216.300001,26.6903311 216.701331,26.3053349 217.224,25.988 C216.934665,25.3066633 216.79,24.6720029 216.79,24.084 C216.79,23.2439958 217.076997,22.5766691 217.651,22.082 C218.225003,21.5873309 219.001995,21.34 219.982,21.34 C220.840671,21.34 221.514998,21.5336647 222.005,21.921 C222.495002,22.3083353 222.74,22.8426633 222.74,23.524 C222.74,24.1586698 222.520669,24.7023311 222.082,25.155 C221.643331,25.6076689 220.999338,25.9506655 220.15,26.184 C220.467335,26.6133355 220.849998,27.0473311 221.298,27.486 C221.550001,27.7380013 221.909331,28.0413316 222.376,28.396 L222.488,28.158 C222.628001,27.8779986 222.698,27.6540008 222.698,27.486 C222.698,27.3273325 222.618667,27.1826673 222.46,27.052 L222.068,26.674 L222.068,26.058 C222.833337,25.787332 223.659329,25.652 224.546,25.652 C224.555333,25.7173337 224.56,25.8619989 224.56,26.086 C224.56,26.6740029 224.473668,27.201331 224.301,27.668 C224.128332,28.134669 223.841335,28.6153309 223.44,29.11 C223.654668,29.2406673 223.855332,29.343333 224.042,29.418 C224.172667,29.418 224.436331,29.3596672 224.833,29.243 L224.833,29.243 Z M219.03,23.328 C219.03,23.8506693 219.179332,24.4199969 219.478,25.036 C219.860669,24.8773325 220.138332,24.6953344 220.311,24.49 C220.483668,24.2846656 220.57,24.0420014 220.57,23.762 C220.57,23.1739971 220.215337,22.88 219.506,22.88 C219.300666,22.88 219.160667,22.8893332 219.086,22.908 C219.048666,23.0106672 219.03,23.1506658 219.03,23.328 L219.03,23.328 Z M218.358,29.243 C218.731335,29.5183347 219.193331,29.656 219.744,29.656 C219.930668,29.656 220.098666,29.6420001 220.248,29.614 C219.743997,29.2499982 219.291335,28.8580021 218.89,28.438 C218.544665,28.0739982 218.236668,27.696002 217.966,27.304 C217.853999,27.5560013 217.798,27.8126654 217.798,28.074 C217.798,28.5780025 217.984665,28.9676653 218.358,29.243 L218.358,29.243 Z M229.698,30.846 C229.754,29.9313288 229.814666,29.2546689 229.88,28.816 L230.678,28.662 L231.56,29.6 C231.868002,29.6933338 232.213331,29.74 232.596,29.74 C232.810668,29.74 232.978666,29.7260001 233.1,29.698 C233.128,29.623333 233.142,29.5206673 233.142,29.39 C233.142,29.2779994 233.116334,29.184667 233.065,29.11 C233.013666,29.035333 232.899334,28.9466672 232.722,28.844 C232.544666,28.7413328 232.236669,28.5826677 231.798,28.368 C231.247331,28.0786652 230.827335,27.8196678 230.538,27.591 C230.248665,27.3623322 230.041001,27.1266679 229.915,26.884 C229.788999,26.6413321 229.726,26.3520017 229.726,26.016 C229.726,25.2693296 230.003664,24.6766689 230.559,24.238 C231.114336,23.7993311 231.867995,23.58 232.82,23.58 C233.212002,23.58 233.624998,23.6243329 234.059,23.713 C234.493002,23.8016671 234.882665,23.9206659 235.228,24.07 C235.228,24.6766697 235.186,25.3533296 235.102,26.1 L234.374,26.212 L233.436,25.204 C233.193332,25.129333 232.838669,25.092 232.372,25.092 C232.297333,25.092 232.148001,25.1013332 231.924,25.12 C231.896,25.1760003 231.882,25.2646661 231.882,25.386 C231.882,25.5166673 231.919333,25.6309995 231.994,25.729 C232.068667,25.8270005 232.201666,25.9343327 232.393,26.051 C232.584334,26.1676672 232.889998,26.3333323 233.31,26.548 C233.926003,26.8466682 234.390332,27.1056656 234.703,27.325 C235.015668,27.5443344 235.234999,27.7659989 235.361,27.99 C235.487001,28.2140011 235.55,28.4846651 235.55,28.802 C235.55,29.5673372 235.258336,30.1646645 234.675,30.594 C234.091664,31.0233355 233.286672,31.238 232.26,31.238 C231.522663,31.238 230.668672,31.1073346 229.698,30.846 L229.698,30.846 Z M236.082,32.68 L236.95,32.442 L236.95,26.016 C236.95,25.8106656 236.936,25.677667 236.908,25.617 C236.88,25.556333 236.800667,25.488667 236.67,25.414 L236.04,25.078 L236.11,24.028 C236.156667,24.0186666 236.203333,24.0093334 236.25,24 C236.296667,23.9906666 236.348,23.9813334 236.404,23.972 C236.842669,23.8879996 237.306998,23.8063337 237.797,23.727 C238.287002,23.6476663 238.690665,23.5986668 239.008,23.58 C239.092,23.776001 239.148,23.9999987 239.176,24.252 C239.465335,24.0186655 239.775665,23.8413339 240.107,23.72 C240.438335,23.5986661 240.767332,23.538 241.094,23.538 C242.027338,23.538 242.743664,23.8669967 243.243,24.525 C243.742336,25.1830033 243.992,26.1186606 243.992,27.332 C243.992,28.5920063 243.64667,29.5556633 242.956,30.223 C242.26533,30.8903367 241.266673,31.224 239.96,31.224 C239.819999,31.224 239.600668,31.2146668 239.302,31.196 L239.302,31.966 C239.302,32.1713344 239.316,32.3066663 239.344,32.372 C239.372,32.4373337 239.451333,32.5026663 239.582,32.568 L240.408,33.03 L240.352,34.01 L236.152,34.01 L236.082,32.68 Z M241.388,29.306 C241.462667,29.0726655 241.525666,28.790335 241.577,28.459 C241.628334,28.127665 241.654,27.8173348 241.654,27.528 C241.654,26.8093297 241.530335,26.254002 241.283,25.862 C241.035665,25.469998 240.692669,25.274 240.254,25.274 C239.983332,25.274 239.666002,25.3533325 239.302,25.512 L239.302,29.32 C239.572668,29.4320006 239.913331,29.488 240.324,29.488 C240.762669,29.488 241.117332,29.4273339 241.388,29.306 L241.388,29.306 Z M245.266,30.657 C244.883331,30.3069982 244.692,29.8566694 244.692,29.306 C244.692,28.568663 245.062996,27.9900021 245.805,27.57 C246.547004,27.1499979 247.627326,26.9120003 249.046,26.856 C249.046,26.4173311 249.011,26.093001 248.941,25.883 C248.871,25.6729989 248.745001,25.5283337 248.563,25.449 C248.380999,25.3696663 248.103335,25.33 247.73,25.33 C247.347331,25.33 247.076667,25.3439999 246.918,25.372 L246.344,26.506 L245.308,26.436 C245.149333,25.6893296 245.037334,24.9146707 244.972,24.112 C245.494669,23.9346658 246.06633,23.7946672 246.687,23.692 C247.30767,23.5893328 247.888664,23.538 248.43,23.538 C249.419338,23.538 250.128665,23.7316647 250.558,24.119 C250.987335,24.5063353 251.202,25.1479955 251.202,26.044 L251.202,28.97 C251.202,29.1380008 251.218333,29.2546663 251.251,29.32 C251.283667,29.3853337 251.355999,29.4506663 251.468,29.516 L252.028,29.838 L251.972,30.706 C250.889328,30.9580013 250.035336,31.0979999 249.41,31.126 C249.391333,31.0699997 249.363334,30.9696674 249.326,30.825 C249.288666,30.6803326 249.256,30.5426673 249.228,30.412 C248.863998,30.6453345 248.465002,30.8319993 248.031,30.972 C247.596998,31.1120007 247.184002,31.182 246.792,31.182 C246.15733,31.182 245.648669,31.0070017 245.266,30.657 L245.266,30.657 Z M249.088,29.222 L249.032,28.158 C248.807999,28.1393332 248.658667,28.13 248.584,28.13 C248.331999,28.13 248.038002,28.1556664 247.702,28.207 C247.365998,28.2583336 247.100001,28.3166663 246.904,28.382 C246.876,28.5033339 246.862,28.6153328 246.862,28.718 C246.862,28.9980014 246.938999,29.2149992 247.093,29.369 C247.247001,29.5230008 247.459332,29.6 247.73,29.6 C248.103335,29.6 248.555997,29.4740013 249.088,29.222 L249.088,29.222 Z M253.344,30.181 C252.746664,29.5136633 252.448,28.5920059 252.448,27.416 C252.448,26.1933272 252.767663,25.2413367 253.407,24.56 C254.046337,23.8786633 254.921328,23.538 256.032,23.538 C256.872004,23.538 257.772662,23.7293314 258.734,24.112 C258.715333,24.382668 258.673334,24.7396644 258.608,25.183 C258.542666,25.6263355 258.472667,26.0346648 258.398,26.408 L257.46,26.492 L256.592,25.386 C256.358666,25.3393331 256.097335,25.316 255.808,25.316 C255.574666,25.316 255.360001,25.3299999 255.164,25.358 C254.949332,25.7686687 254.842,26.3473296 254.842,27.094 C254.842,27.8593372 254.977332,28.4263315 255.248,28.795 C255.518668,29.1636685 255.929331,29.348 256.48,29.348 C256.741335,29.348 257.058665,29.3083337 257.432,29.229 C257.805335,29.1496663 258.187998,29.0353341 258.58,28.886 L258.916,30.286 C258.542665,30.5473346 258.078336,30.7619992 257.523,30.93 C256.967664,31.0980008 256.414669,31.182 255.864,31.182 C254.781328,31.182 253.941336,30.8483367 253.344,30.181 L253.344,30.181 Z M260.463,30.174 C259.87033,29.51133 259.574,28.5966725 259.574,27.43 C259.574,26.6179959 259.718665,25.9203362 260.008,25.337 C260.297335,24.7536637 260.707997,24.3080015 261.24,24 C261.772003,23.6919985 262.392663,23.538 263.102,23.538 C264.156672,23.538 264.966331,23.8739966 265.531,24.546 C266.095669,25.2180034 266.364,26.1746605 266.336,27.416 L262.08,28.2 C262.210667,28.592002 262.394999,28.8789991 262.633,29.061 C262.871001,29.2430009 263.185998,29.334 263.578,29.334 C263.848668,29.334 264.170665,29.2943337 264.544,29.215 C264.917335,29.1356663 265.295331,29.0260007 265.678,28.886 L266,30.272 C265.654665,30.5333346 265.206669,30.7479992 264.656,30.916 C264.105331,31.0840008 263.550003,31.168 262.99,31.168 C261.897995,31.168 261.05567,30.83667 260.463,30.174 L260.463,30.174 Z M264.04,26.24 C264.021333,25.8853316 263.921001,25.6263341 263.739,25.463 C263.556999,25.2996658 263.302668,25.218 262.976,25.218 C262.705332,25.218 262.448668,25.255333 262.206,25.33 C262.009999,25.7873356 261.921333,26.2819973 261.94,26.814 L264.04,26.24 Z" id="interactive-explorat" fill="#818181"></path>
            </g>
        </g>
    </g>
</svg>