<?xml version="1.0" encoding="UTF-8" standalone="no"?>
<svg width="329px" height="38px" viewBox="0 0 329 38" version="1.1" xmlns="http://www.w3.org/2000/svg" xmlns:xlink="http://www.w3.org/1999/xlink">
    <!-- Generator: Sketch 3.8.3 (29802) - http://www.bohemiancoding.com/sketch -->
    <title>logo_sml</title>
    <desc>Created with Sketch.</desc>
    <defs>
        <path d="M6.08029805,17 C5.00890867,19.9458415 2.25752032,22.8058087 2.25752032,22.8058087 C-0.085760447,25.3667421 -0.0859197626,29.5181271 2.25752032,32.0792346 C4.60080108,34.6401681 8.39936161,34.6403422 10.7428017,32.0792346 C13.0860825,29.5183012 13.0862418,25.3669162 10.7428017,22.8058087 C10.7428017,22.8058087 7.99120453,19.9458415 6.919902,17 C7.99120453,14.0541585 10.7428017,11.1941913 10.7428017,11.1941913 C13.0862418,8.63308378 13.0860825,4.48169878 10.7428017,1.92076536 C8.39936161,-0.640342176 4.60080108,-0.640168062 2.25752032,1.92076536 C-0.0859197626,4.48187289 -0.085760447,8.6332579 2.25752032,11.1941913 C2.25752032,11.1941913 5.00890867,14.0541585 6.08029805,17 Z" id="path-1"></path>
        <mask id="mask-2" maskContentUnits="userSpaceOnUse" maskUnits="objectBoundingBox" x="-2" y="-2" width="16.000322" height="38">
            <rect x="-1.5" y="-2" width="16.000322" height="38" fill="white"></rect>
            <use xlink:href="#path-1" fill="black"></use>
        </mask>
        <mask id="mask-4" maskContentUnits="userSpaceOnUse" maskUnits="objectBoundingBox" x="-2" y="-2" width="16.000322" height="38">
            <rect x="-1.5" y="-2" width="16.000322" height="38" fill="white"></rect>
            <use xlink:href="#path-1" fill="black"></use>
        </mask>
    </defs>
    <g id="Symbols" stroke="none" stroke-width="1" fill="none" fill-rule="evenodd">
        <g id="logo_sml">
            <g id="Group-Copy-2">
                <path d="M8.08029805,19 C7.00890867,21.9458415 4.25752032,24.8058087 4.25752032,24.8058087 C1.91423955,27.3667421 1.91408024,31.5181271 4.25752032,34.0792346 C6.60080108,36.6401681 10.3993616,36.6403422 12.7428017,34.0792346 C15.0860825,31.5183012 15.0862418,27.3669162 12.7428017,24.8058087 C12.7428017,24.8058087 9.99120453,21.9458415 8.919902,19 C9.99120453,16.0541585 12.7428017,13.1941913 12.7428017,13.1941913 C15.0862418,10.6330838 15.0860825,6.48169878 12.7428017,3.92076536 C10.3993616,1.35965782 6.60080108,1.35983194 4.25752032,3.92076536 C1.91408024,6.48187289 1.91423955,10.6332579 4.25752032,13.1941913 C4.25752032,13.1941913 7.00890867,16.0541585 8.08029805,19 Z M14.1271722,36 C15.2245661,34.8571428 16.2697133,33.16673 16.50647,30.7725441 C17.1289312,24.4779489 10.8931882,23.5501779 10.0471255,18.9913025 C11.1479266,14.6672389 17.1216364,13.5939253 16.5487859,7.41135141 C16.314548,4.88330351 15.1792344,3.14141543 14.0239463,1.99831005 L16.0000398,1.99831005 C16.5452911,1.99831005 17,1.55097311 17,0.999155024 C17,0.443489767 16.5523026,-9.99200722e-16 16.0000398,-9.99200722e-16 L0.999960201,-9.99200722e-16 C0.454708934,-9.99200722e-16 0,0.447336941 0,0.999155024 C0,1.55482028 0.447697432,1.99831005 0.999960201,1.99831005 L2.97605369,1.99831005 C1.82076559,3.14141543 0.685452014,4.88330351 0.451214069,7.41135141 C-0.121636394,13.5939253 5.85207338,14.6672389 6.9528745,18.9913025 C6.10681176,23.5501779 -0.128931228,24.4779489 0.493529977,30.7725441 C0.730286721,33.16673 1.77543392,34.8571428 2.87282783,36 L0.999960201,36 C0.447697432,36 0,36.4434898 0,36.999155 C0,37.5509731 0.454708934,37.99831 0.999960201,37.99831 L5.69293237,37.99831 C5.73527435,38.016211 5.75792402,38.024856 5.75792402,38.024856 L8.2943519,38.0297252 L8.5,38.03012 L8.70564898,38.0305147 L11.242076,38.024856 C11.242076,38.024856 11.2647256,38.016211 11.3070676,37.99831 L16.0000398,37.99831 C16.5523026,37.99831 17,37.5548203 17,36.999155 C17,36.4473369 16.5452911,36 16.0000398,36 L14.1271722,36 Z" id="Combined-Shape" fill="#222222"></path>
                <g id="Group" transform="translate(2.000000, 2.000000)">
                    <mask id="mask-3" fill="white">
                        <use xlink:href="#path-1"></use>
                    </mask>
                    <g id="Combined-Shape" stroke="#222222" mask="url(#mask-2)" stroke-width="4">
                        <use mask="url(#mask-4)" xlink:href="#path-1"></use>
                    </g>
                    <rect id="Rectangle-197" fill="#2DC6E0" mask="url(#mask-3)" x="-1" y="7" width="15" height="10"></rect>
                    <rect id="Rectangle-197-Copy" fill="#2DC6E0" mask="url(#mask-3)" x="-1" y="27" width="15" height="10"></rect>
                </g>
                <g id="Group-2" transform="translate(6.500000, 7.250000)" fill="#222222">
                    <ellipse id="Oval-73-Copy" cx="2" cy="22" rx="2" ry="2"></ellipse>
                    <ellipse id="Oval-73" cx="2" cy="2" rx="2" ry="2"></ellipse>
                </g>
            </g>
            <text id="Jewish-Cultures-on-t" font-family="SuezOne-Regular, Suez One" font-size="20" font-weight="normal" fill="#222222">
                <tspan x="21" y="17">Jewish Cultures on the Map</tspan>
            </text>
            <text id="Interactive-Explorat" font-family="SuezOne-Regular, Suez One" font-size="16" font-weight="normal" fill="#2DC6E0">
                <tspan x="21" y="34">Interactive Exploration in Time </tspan>
                <tspan x="266.424" y="34">&amp;</tspan>
                <tspan x="279.176" y="34"> Space</tspan>
            </text>
        </g>
    </g>
</svg>