<?xml version="1.0" encoding="UTF-8"?>
<svg width="254px" height="35px" viewBox="0 0 254 35" version="1.1" xmlns="http://www.w3.org/2000/svg" xmlns:xlink="http://www.w3.org/1999/xlink">
    <!-- Generator: Sketch 45.1 (43504) - http://www.bohemiancoding.com/sketch -->
    <title>logo_negative</title>
    <desc>Created with Sketch.</desc>
    <defs>
        <path d="M7.30020271,16.0769231 C8.1769753,18.5695582 10.4289302,20.9895304 10.4289302,20.9895304 C12.3468423,23.1566214 12.3467119,26.6693318 10.4289302,28.8362755 C8.51101815,31.0033665 5.40221024,31.0032191 3.48442857,28.8362755 C1.56651651,26.6691845 1.56664689,23.1564741 3.48442857,20.9895304 C3.48442857,20.9895304 5.73621258,18.5695582 6.61305626,16.0769231 C5.73621258,13.5842879 3.48442857,11.1643157 3.48442857,11.1643157 C1.56664689,8.99737207 1.56651651,5.48466168 3.48442857,3.31757069 C5.40221024,1.15062702 8.51101815,1.1504797 10.4289302,3.31757069 C12.3467119,5.48451435 12.3468423,8.99722474 10.4289302,11.1643157 C10.4289302,11.1643157 8.1769753,13.584288 7.30020271,16.0769231 Z" id="path-1"></path>
    </defs>
    <g id="Page-1" stroke="none" stroke-width="1" fill="none" fill-rule="evenodd">
        <g id="assets" transform="translate(-44.000000, -208.000000)">
            <g id="logo_sml_negative" transform="translate(44.000000, 205.000000)">
                <g id="logo_sml" stroke-width="1" transform="translate(0.000000, 4.000000)">
                    <g id="Group-Copy-2">
                        <path d="M7.30020271,16.0769231 C8.1769753,13.584288 10.4289302,11.1643157 10.4289302,11.1643157 C12.3468423,8.99722474 12.3467119,5.48451435 10.4289302,3.31757069 C8.51101815,1.1504797 5.40221024,1.15062702 3.48442857,3.31757069 C1.56651651,5.48466168 1.56664689,8.99737207 3.48442857,11.1643157 C3.48442857,11.1643157 5.73621258,13.5842879 6.61305626,16.0769231 C5.73621258,18.5695582 3.48442857,20.9895304 3.48442857,20.9895304 C1.56664689,23.1564741 1.56651651,26.6691845 3.48442857,28.8362755 C5.40221024,31.0032191 8.51101815,31.0033665 10.4289302,28.8362755 C12.3467119,26.6693318 12.3468423,23.1566214 10.4289302,20.9895304 C10.4289302,20.9895304 8.1769753,18.5695582 7.30020271,16.0769231 Z M11.6157465,30.4615385 L13.0637126,30.4615385 C13.5409535,30.4615385 13.9130952,30.8400543 13.9130952,31.3069773 C13.9130952,31.7771556 13.5328137,32.1524162 13.0637126,32.1524162 L0.849382616,32.1524162 C0.372141688,32.1524162 0,31.7739003 0,31.3069773 C0,30.836799 0.380281551,30.4615385 0.849382616,30.4615385 L2.29734878,30.4615385 C1.37117619,29.5250035 0.479248661,28.1086444 0.310631962,26.0589832 C-0.123375727,20.7832973 5.16442606,19.9529953 5.86455984,16.0653278 C4.942441,12.3821338 -0.118895992,11.4295103 0.274826195,6.25046684 C0.4396495,4.08237194 1.41343043,2.62404909 2.38912583,1.69087773 L0.849382616,1.69087773 C0.380281551,1.69087773 0,1.31561716 0,0.845438866 C0,0.378515874 0.372141688,0 0.849382616,0 L13.0637126,0 C13.5328137,0 13.9130952,0.375260572 13.9130952,0.845438866 C13.9130952,1.31236186 13.5409535,1.69087773 13.0637126,1.69087773 L11.5239694,1.69087773 C12.4996648,2.62404909 13.4734457,4.08237194 13.638269,6.25046684 C14.0319912,11.4295103 8.97065424,12.3821338 8.0485354,16.0653278 C8.74866918,19.9529953 14.036471,20.7832973 13.6024633,26.0589832 C13.4338466,28.1086444 12.541919,29.5250035 11.6157465,30.4615385 Z" id="Combined-Shape" fill="#FFFFFF"></path>
                        <g id="Group">
                            <path d="M7.31508463,16.0769231 C8.24073051,13.5373546 10.6394258,11 10.6394258,11 C12.5573378,8.83290901 12.3467119,5.48451435 10.4289302,3.31757069 C8.51101815,1.1504797 5.40221024,1.15062702 3.48442857,3.31757069 C1.56651651,5.48466168 1.3558878,8.83305634 3.27366947,11 C3.27366947,11 5.67236474,13.5373546 6.59814915,16.0769231 C5.67236474,18.6164916 3.27366947,21.1538462 3.27366947,21.1538462 C1.3558878,23.3207898 1.56651651,26.6691845 3.48442857,28.8362755 C5.40221024,31.0032191 8.51101815,31.0033665 10.4289302,28.8362755 C12.3467119,26.6693318 12.5573378,23.3209371 10.6394258,21.1538462 C10.6394258,21.1538462 8.24073051,18.6164915 7.31508463,16.0769231 Z M9.07146744,16.0769231 C9.3161133,16.6197442 9.64537825,17.1988825 10.0411141,17.7933043 C10.387148,18.3130704 10.7607372,18.810349 11.1338837,19.2645039 C11.3548473,19.5334377 11.5222668,19.7235718 11.6365255,19.8471206 C14.1267175,22.6608432 14.1266658,27.1650211 11.6365255,29.9786853 C9.0697594,32.8789307 4.84354456,32.8788688 2.27683329,29.9786853 C-0.213358703,27.1649627 -0.213307002,22.6607848 2.30483661,19.8162626 C2.39105116,19.7236086 2.55847292,19.5334581 2.77943887,19.2645029 C3.1525889,18.8103123 3.52618151,18.3129969 3.87221889,17.7931946 C4.26790384,17.1988139 4.59713719,16.6197149 4.84177733,16.0769231 C4.59713719,15.5341313 4.26790384,14.9550322 3.87221889,14.3606515 C3.52618151,13.8408493 3.1525889,13.3435339 2.77943887,12.8893433 C2.55847292,12.6203881 2.39105116,12.4302375 2.27683329,12.3067256 C-0.213307002,9.49306134 -0.213358703,4.9888835 2.27683329,2.17516083 C4.84354456,-0.725022644 9.0697594,-0.725084578 11.6365255,2.17516083 C14.1266658,4.98882508 14.1267175,9.49300292 11.6084791,12.3376298 C11.5222668,12.4302743 11.3548473,12.6204084 11.1338837,12.8893422 C10.7607372,13.3434972 10.387148,13.8407758 10.0411141,14.3605419 C9.64537825,14.9549636 9.3161133,15.5341019 9.07146744,16.0769231 Z" id="Combined-Shape" fill="#FFFFFF" fill-rule="nonzero"></path>
                            <mask id="mask-2" fill="white">
                                <use xlink:href="#path-1"></use>
                            </mask>
                            <g id="Combined-Shape"></g>
                            <rect id="Rectangle-197" fill="#48BFD3" mask="url(#mask-2)" x="0.818417367" y="7.61538462" width="12.2762605" height="8.46153846"></rect>
                            <polygon id="Rectangle-197-Copy" fill="#48BFD3" mask="url(#mask-2)" points="0.818417367 24.5384615 13.0946779 24.5384615 13.0946779 30.8 0.818417367 30.8"></polygon>
                        </g>
                        <g id="Group-2" transform="translate(5.319713, 6.134615)" fill="#FFFFFF">
                            <ellipse id="Oval-73-Copy" cx="1.63683473" cy="18.6153846" rx="1.63683473" ry="1.69230769"></ellipse>
                            <ellipse id="Oval-73" cx="1.63683473" cy="1.69230769" rx="1.63683473" ry="1.69230769"></ellipse>
                        </g>
                    </g>
                </g>
                <path d="M25.4199219,28.3320312 L25.4199219,35 L24.1308594,35 L24.1308594,28.3320312 L25.4199219,28.3320312 Z M24.0224609,25.859375 C24.1142583,25.7187493 24.2343743,25.6074223 24.3828125,25.5253906 C24.5312507,25.443359 24.6816399,25.4023438 24.8339844,25.4023438 C25.0996107,25.4023438 25.3037102,25.4765618 25.4462891,25.625 C25.5888679,25.7734382 25.6601562,25.9628895 25.6601562,26.1933594 C25.6601562,26.3652352 25.6152348,26.5214837 25.5253906,26.6621094 C25.4355464,26.8027351 25.3183601,26.912109 25.1738281,26.9902344 C25.0292962,27.0683598 24.8750008,27.1074219 24.7109375,27.1074219 C24.5624993,27.1074219 24.4257819,27.0751956 24.3007812,27.0107422 C24.1757806,26.9462887 24.0751957,26.8535162 23.9990234,26.7324219 C23.9228512,26.6113275 23.8847656,26.472657 23.8847656,26.3164062 C23.8847656,26.1523429 23.9306636,26.0000007 24.0224609,25.859375 Z M28.7304688,28.3320312 L28.7363281,29.0351562 C29.0410171,28.828124 29.4189431,28.6406258 29.8701172,28.4726562 C30.3212913,28.3046867 30.7519511,28.2207031 31.1621094,28.2207031 C31.6230492,28.2207031 31.990233,28.3066398 32.2636719,28.4785156 C32.5371107,28.6503915 32.7363275,28.9257794 32.8613281,29.3046875 C32.9863287,29.6835956 33.0488281,30.1953093 33.0488281,30.8398438 L33.0488281,35 L31.7597656,35 L31.7597656,30.8339844 C31.7597656,30.4589825 31.730469,30.1611339 31.671875,29.9404297 C31.613281,29.7197255 31.5058602,29.554688 31.3496094,29.4453125 C31.1933586,29.335937 30.9667984,29.28125 30.6699219,29.28125 C30.599609,29.28125 30.5468752,29.2832031 30.5117188,29.2871094 C30.2773426,29.2949219 30.0087906,29.3544916 29.7060547,29.4658203 C29.4033188,29.577149 29.1250013,29.7246085 28.8710938,29.9082031 L28.8710938,35 L27.5820312,35 L27.5820312,28.3320312 L28.7304688,28.3320312 Z M35.3808594,29.2929688 L34.5136719,29.2929688 L34.5136719,28.5957031 L34.7246094,28.5371094 C34.9042978,28.4863279 35.0371089,28.4443361 35.1230469,28.4111328 C35.2089848,28.3779295 35.2841794,28.331055 35.3486328,28.2705078 C35.4130863,28.2099606 35.4648436,28.1269537 35.5039062,28.0214844 C35.5625003,27.8730461 35.6484369,27.6054707 35.7617188,27.21875 L35.890625,26.796875 L36.6640625,26.796875 L36.6640625,28.3203125 L38.5507812,28.3203125 L38.5507812,29.2929688 L36.6640625,29.2929688 L36.6640625,32.6738281 C36.6640625,33.1191429 36.6816404,33.4345694 36.7167969,33.6201172 C36.7519533,33.805665 36.8173823,33.925781 36.9130859,33.9804688 C37.0087895,34.0351565 37.1718738,34.0625 37.4023438,34.0625 C37.5703133,34.0625 37.7744129,34.0351565 38.0146484,33.9804688 C38.254884,33.925781 38.4316401,33.8691409 38.5449219,33.8105469 L38.7675781,34.5488281 C38.5761709,34.6894538 38.3017596,34.8154291 37.9443359,34.9267578 C37.5869123,35.0380865 37.2460954,35.09375 36.921875,35.09375 C36.4335913,35.09375 36.0546888,34.9716809 35.7851562,34.7275391 C35.5156237,34.4833972 35.3808594,34.0410188 35.3808594,33.4003906 L35.3808594,29.2929688 Z M45.0253906,31.4814453 C45.0175781,31.6552743 45.0000001,31.8085931 44.9726562,31.9414062 L40.8535156,31.9414062 C40.8574219,31.9687501 40.859375,32.0078122 40.859375,32.0585938 C40.9257816,33.4336006 41.6054623,34.1210938 42.8984375,34.1210938 C43.1328137,34.1210938 43.4296857,34.0839847 43.7890625,34.0097656 C44.1484393,33.9355465 44.4062492,33.851563 44.5625,33.7578125 L44.8085938,34.4960938 C44.5937489,34.6718759 44.2675803,34.8154291 43.8300781,34.9267578 C43.3925759,35.0380865 42.9667989,35.09375 42.5527344,35.09375 C41.923825,35.09375 41.3886741,34.9580092 40.9472656,34.6865234 C40.5058572,34.4150377 40.169923,34.021487 39.9394531,33.5058594 C39.7089832,32.9902318 39.59375,32.3710974 39.59375,31.6484375 C39.59375,30.9921842 39.7080067,30.4082057 39.9365234,29.8964844 C40.1650402,29.3847631 40.5029275,28.9814468 40.9501953,28.6865234 C41.3974632,28.3916001 41.9394499,28.2382813 42.5761719,28.2265625 C43.0253929,28.21875 43.4335919,28.3105459 43.8007812,28.5019531 C44.1679706,28.6933603 44.461913,28.9804668 44.6826172,29.3632812 C44.9033214,29.7460957 45.0214843,30.2070286 45.0371094,30.7460938 C45.0371094,31.0625016 45.0332032,31.3076163 45.0253906,31.4814453 Z M43.8417969,30.8105469 C43.8417969,30.3144506 43.7412119,29.9121109 43.5400391,29.6035156 C43.3388662,29.2949203 42.9941431,29.140625 42.5058594,29.140625 C42.0722635,29.140625 41.7119155,29.2939438 41.4248047,29.6005859 C41.1376939,29.9072281 40.9589847,30.4023403 40.8886719,31.0859375 L43.8300781,31.0859375 C43.8378907,30.9609369 43.8417969,30.8691409 43.8417969,30.8105469 Z M50.2167969,28.3027344 L50.2167969,29.5097656 C50.1347652,29.4628904 50.028321,29.4248048 49.8974609,29.3955078 C49.7666009,29.3662108 49.5800793,29.3515625 49.3378906,29.3515625 C49.0410141,29.3515625 48.7666028,29.4052729 48.5146484,29.5126953 C48.2626941,29.6201177 48.0507821,29.7499992 47.8789062,29.9023438 L47.8789062,35 L46.5898438,35 L46.5898438,28.3320312 L47.6738281,28.3320312 L47.7617188,29.0703125 C47.8476567,28.9531244 47.9873037,28.8281257 48.1806641,28.6953125 C48.3740244,28.5624993 48.5947253,28.4501958 48.8427734,28.3583984 C49.0908216,28.2666011 49.3320301,28.2207031 49.5664062,28.2207031 C49.8789078,28.2207031 50.0957025,28.2480466 50.2167969,28.3027344 Z M54.9980469,28.3964844 C55.3417986,28.5136725 55.609374,28.7275375 55.8007812,29.0380859 C55.9921885,29.3486344 56.0878906,29.7851534 56.0878906,30.3476562 L56.0878906,35.09375 L55.5605469,35.09375 C55.3847647,35.09375 55.2519536,35.0820314 55.1621094,35.0585938 C55.0722652,35.0351561 55.0019534,34.9804692 54.9511719,34.8945312 C54.9003904,34.8085933 54.875,34.6718759 54.875,34.484375 L54.875,34.4375 C54.6796865,34.6171884 54.4111345,34.7714837 54.0693359,34.9003906 C53.7275374,35.0292975 53.3710956,35.09375 53,35.09375 C52.6054668,35.09375 52.2529312,35.0175789 51.9423828,34.8652344 C51.6318344,34.7128899 51.3896493,34.4951186 51.2158203,34.2119141 C51.0419913,33.9287095 50.9550781,33.595705 50.9550781,33.2128906 C50.9550781,32.7910135 51.0693348,32.4257828 51.2978516,32.1171875 C51.5263683,31.8085922 51.8457011,31.5703133 52.2558594,31.4023438 C52.6191424,31.2578118 53.0302711,31.1494144 53.4892578,31.0771484 C53.9482445,31.0048825 54.3847636,30.96875 54.7988281,30.96875 L54.7988281,30.2949219 C54.7988281,29.9824203 54.7490239,29.7480477 54.6494141,29.5917969 C54.5498042,29.4355461 54.4003916,29.3300784 54.2011719,29.2753906 C54.0019521,29.2207029 53.7265643,29.1933594 53.375,29.1933594 C53.1874991,29.1933594 52.9716809,29.2187497 52.7275391,29.2695312 C52.4833972,29.3203128 52.2548839,29.3837887 52.0419922,29.4599609 C51.8291005,29.5361332 51.6718755,29.6093746 51.5703125,29.6796875 L51.2539062,28.8359375 C51.3554693,28.7734372 51.5400377,28.6933599 51.8076172,28.5957031 C52.0751967,28.4980464 52.3798811,28.4111332 52.7216797,28.3349609 C53.0634783,28.2587887 53.3925765,28.2207031 53.7089844,28.2207031 C54.224612,28.2207031 54.6542952,28.2792963 54.9980469,28.3964844 Z M53.9609375,34.0507812 C54.1640635,33.9960935 54.3427727,33.9306644 54.4970703,33.8544922 C54.651368,33.7783199 54.7519529,33.7128909 54.7988281,33.6582031 L54.7988281,31.7890625 C54.5136704,31.7890625 54.1923846,31.816406 53.8349609,31.8710938 C53.4775373,31.9257815 53.1894542,32.0058588 52.9707031,32.1113281 C52.7324207,32.2246099 52.5488288,32.3574211 52.4199219,32.5097656 C52.291015,32.6621101 52.2265625,32.8593738 52.2265625,33.1015625 C52.2265625,33.7890659 52.6113243,34.1328125 53.3808594,34.1328125 C53.564454,34.1328125 53.7578115,34.105469 53.9609375,34.0507812 Z M61.8359375,28.3349609 C62.1289077,28.4072269 62.3398431,28.4863277 62.46875,28.5722656 L62.2636719,29.5917969 C62.0839835,29.4667963 61.8730481,29.3740237 61.6308594,29.3134766 C61.3886707,29.2529294 61.0996111,29.2226562 60.7636719,29.2226562 C60.4277327,29.2226562 60.1142593,29.3085929 59.8232422,29.4804688 C59.5322251,29.6523446 59.2968759,29.9208966 59.1171875,30.2861328 C58.9374991,30.651369 58.8476562,31.1113254 58.8476562,31.6660156 C58.8476562,32.1816432 58.9296867,32.6240216 59.09375,32.9931641 C59.2578133,33.3623065 59.4824204,33.6425772 59.7675781,33.8339844 C60.0527358,34.0253916 60.3730451,34.1210938 60.7285156,34.1210938 C61.0371109,34.1210938 61.3378892,34.0810551 61.6308594,34.0009766 C61.9238296,33.920898 62.154296,33.8300786 62.3222656,33.7285156 L62.5859375,34.4609375 C62.3789052,34.6523447 62.0898456,34.8056635 61.71875,34.9208984 C61.3476544,35.0361334 60.9531271,35.09375 60.5351562,35.09375 C59.9257782,35.09375 59.3994163,34.9482436 58.9560547,34.6572266 C58.5126931,34.3662095 58.1757824,33.9667994 57.9453125,33.4589844 C57.7148426,32.9511693 57.5996094,32.3750032 57.5996094,31.7304688 C57.5996094,31.0624967 57.7216785,30.4638698 57.9658203,29.9345703 C58.2099622,29.4052708 58.5742163,28.9882828 59.0585938,28.6835938 C59.5429712,28.3789047 60.132809,28.2265625 60.828125,28.2265625 C61.2070331,28.2265625 61.5429673,28.262695 61.8359375,28.3349609 Z M64.2382812,29.2929688 L63.3710938,29.2929688 L63.3710938,28.5957031 L63.5820312,28.5371094 C63.7617196,28.4863279 63.8945308,28.4443361 63.9804688,28.4111328 C64.0664067,28.3779295 64.1416012,28.331055 64.2060547,28.2705078 C64.2705081,28.2099606 64.3222654,28.1269537 64.3613281,28.0214844 C64.4199222,27.8730461 64.5058588,27.6054707 64.6191406,27.21875 L64.7480469,26.796875 L65.5214844,26.796875 L65.5214844,28.3203125 L67.4082031,28.3203125 L67.4082031,29.2929688 L65.5214844,29.2929688 L65.5214844,32.6738281 C65.5214844,33.1191429 65.5390623,33.4345694 65.5742188,33.6201172 C65.6093752,33.805665 65.6748042,33.925781 65.7705078,33.9804688 C65.8662114,34.0351565 66.0292957,34.0625 66.2597656,34.0625 C66.4277352,34.0625 66.6318347,34.0351565 66.8720703,33.9804688 C67.1123059,33.925781 67.2890619,33.8691409 67.4023438,33.8105469 L67.625,34.5488281 C67.4335928,34.6894538 67.1591815,34.8154291 66.8017578,34.9267578 C66.4443342,35.0380865 66.1035172,35.09375 65.7792969,35.09375 C65.2910132,35.09375 64.9121107,34.9716809 64.6425781,34.7275391 C64.3730455,34.4833972 64.2382812,34.0410188 64.2382812,33.4003906 L64.2382812,29.2929688 Z M70.3027344,28.3320312 L70.3027344,35 L69.0136719,35 L69.0136719,28.3320312 L70.3027344,28.3320312 Z M68.9052734,25.859375 C68.9970708,25.7187493 69.1171868,25.6074223 69.265625,25.5253906 C69.4140632,25.443359 69.5644524,25.4023438 69.7167969,25.4023438 C69.9824232,25.4023438 70.1865227,25.4765618 70.3291016,25.625 C70.4716804,25.7734382 70.5429688,25.9628895 70.5429688,26.1933594 C70.5429688,26.3652352 70.4980473,26.5214837 70.4082031,26.6621094 C70.3183589,26.8027351 70.2011726,26.912109 70.0566406,26.9902344 C69.9121087,27.0683598 69.7578133,27.1074219 69.59375,27.1074219 C69.4453118,27.1074219 69.3085944,27.0751956 69.1835938,27.0107422 C69.0585931,26.9462887 68.9580082,26.8535162 68.8818359,26.7324219 C68.8056637,26.6113275 68.7675781,26.472657 68.7675781,26.3164062 C68.7675781,26.1523429 68.8134761,26.0000007 68.9052734,25.859375 Z M77.84375,28.3203125 L75.2773438,35.09375 L74.1933594,35.09375 L71.5449219,28.3203125 L72.9335938,28.3203125 L74.2578125,32.1230469 L74.75,33.7167969 L75.2011719,32.1230469 L76.4726562,28.3203125 L77.84375,28.3203125 Z M83.9550781,31.4814453 C83.9472656,31.6552743 83.9296876,31.8085931 83.9023438,31.9414062 L79.7832031,31.9414062 C79.7871094,31.9687501 79.7890625,32.0078122 79.7890625,32.0585938 C79.8554691,33.4336006 80.5351498,34.1210938 81.828125,34.1210938 C82.0625012,34.1210938 82.3593732,34.0839847 82.71875,34.0097656 C83.0781268,33.9355465 83.3359367,33.851563 83.4921875,33.7578125 L83.7382812,34.4960938 C83.5234364,34.6718759 83.1972678,34.8154291 82.7597656,34.9267578 C82.3222634,35.0380865 81.8964864,35.09375 81.4824219,35.09375 C80.8535125,35.09375 80.3183616,34.9580092 79.8769531,34.6865234 C79.4355447,34.4150377 79.0996105,34.021487 78.8691406,33.5058594 C78.6386707,32.9902318 78.5234375,32.3710974 78.5234375,31.6484375 C78.5234375,30.9921842 78.6376942,30.4082057 78.8662109,29.8964844 C79.0947277,29.3847631 79.432615,28.9814468 79.8798828,28.6865234 C80.3271507,28.3916001 80.8691374,28.2382813 81.5058594,28.2265625 C81.9550804,28.21875 82.3632794,28.3105459 82.7304688,28.5019531 C83.0976581,28.6933603 83.3916005,28.9804668 83.6123047,29.3632812 C83.8330089,29.7460957 83.9511718,30.2070286 83.9667969,30.7460938 C83.9667969,31.0625016 83.9628907,31.3076163 83.9550781,31.4814453 Z M82.7714844,30.8105469 C82.7714844,30.3144506 82.6708994,29.9121109 82.4697266,29.6035156 C82.2685537,29.2949203 81.9238306,29.140625 81.4355469,29.140625 C81.001951,29.140625 80.641603,29.2939438 80.3544922,29.6005859 C80.0673814,29.9072281 79.8886722,30.4023403 79.8183594,31.0859375 L82.7597656,31.0859375 C82.7675782,30.9609369 82.7714844,30.8691409 82.7714844,30.8105469 Z M94.3730469,31.4814453 C94.3652343,31.6552743 94.3476564,31.8085931 94.3203125,31.9414062 L90.2011719,31.9414062 C90.2050781,31.9687501 90.2070312,32.0078122 90.2070312,32.0585938 C90.2734378,33.4336006 90.9531185,34.1210938 92.2460938,34.1210938 C92.4804699,34.1210938 92.777342,34.0839847 93.1367188,34.0097656 C93.4960955,33.9355465 93.7539055,33.851563 93.9101562,33.7578125 L94.15625,34.4960938 C93.9414052,34.6718759 93.6152366,34.8154291 93.1777344,34.9267578 C92.7402322,35.0380865 92.3144552,35.09375 91.9003906,35.09375 C91.2714812,35.09375 90.7363303,34.9580092 90.2949219,34.6865234 C89.8535134,34.4150377 89.5175793,34.021487 89.2871094,33.5058594 C89.0566395,32.9902318 88.9414062,32.3710974 88.9414062,31.6484375 C88.9414062,30.9921842 89.0556629,30.4082057 89.2841797,29.8964844 C89.5126965,29.3847631 89.8505837,28.9814468 90.2978516,28.6865234 C90.7451194,28.3916001 91.2871062,28.2382813 91.9238281,28.2265625 C92.3730491,28.21875 92.7812482,28.3105459 93.1484375,28.5019531 C93.5156268,28.6933603 93.8095692,28.9804668 94.0302734,29.3632812 C94.2509777,29.7460957 94.3691405,30.2070286 94.3847656,30.7460938 C94.3847656,31.0625016 94.3808594,31.3076163 94.3730469,31.4814453 Z M93.1894531,30.8105469 C93.1894531,30.3144506 93.0888682,29.9121109 92.8876953,29.6035156 C92.6865224,29.2949203 92.3417993,29.140625 91.8535156,29.140625 C91.4199197,29.140625 91.0595717,29.2939438 90.7724609,29.6005859 C90.4853501,29.9072281 90.306641,30.4023403 90.2363281,31.0859375 L93.1777344,31.0859375 C93.1855469,30.9609369 93.1894531,30.8691409 93.1894531,30.8105469 Z M101.398438,35 L99.9042969,35 L98.4394531,32.7792969 L98.2402344,32.4570312 L98.0761719,32.796875 L96.7167969,35 L95.2460938,35 L97.5957031,31.6074219 L95.2285156,28.3203125 L96.6933594,28.3203125 L98.1582031,30.5351562 L98.3046875,30.78125 L98.4277344,30.5234375 L99.8984375,28.3203125 L101.345703,28.3203125 L98.9726562,31.5839844 L101.398438,35 Z M106.970703,28.5810547 C107.369143,28.817384 107.687499,29.1748023 107.925781,29.6533203 C108.164064,30.1318383 108.283203,30.7187465 108.283203,31.4140625 C108.283203,32.1289098 108.144533,32.7656222 107.867188,33.3242188 C107.589842,33.8828153 107.198245,34.3173813 106.692383,34.6279297 C106.186521,34.9384781 105.601566,35.09375 104.9375,35.09375 C104.539061,35.09375 104.17383,35.0371099 103.841797,34.9238281 L103.859375,35.8144531 L103.859375,37.9648438 L102.570312,37.9648438 L102.570312,28.3203125 L103.736328,28.3203125 L103.736328,29.0410156 C103.955079,28.8105457 104.208983,28.6171883 104.498047,28.4609375 C104.787111,28.3046867 105.169919,28.2265625 105.646484,28.2265625 C106.130862,28.2265625 106.572264,28.3447254 106.970703,28.5810547 Z M106.540039,29.8056641 C106.252928,29.4287091 105.83594,29.2402344 105.289062,29.2402344 C105.003905,29.2402344 104.741212,29.2939448 104.500977,29.4013672 C104.260741,29.5087896 104.046876,29.636718 103.859375,29.7851562 L103.859375,33.8574219 C103.980469,33.9628912 104.137694,34.0390623 104.331055,34.0859375 C104.524415,34.1328127 104.767577,34.15625 105.060547,34.15625 C105.427736,34.15625 105.755858,34.0546885 106.044922,33.8515625 C106.333986,33.6484365 106.560546,33.3496113 106.724609,32.9550781 C106.888673,32.5605449 106.970703,32.0839872 106.970703,31.5253906 C106.970703,30.7558555 106.82715,30.1826191 106.540039,29.8056641 Z M111.294922,25.25 L111.294922,35 L110.005859,35 L110.005859,25.25 L111.294922,25.25 Z M113.398438,29.7705078 C113.660158,29.2646459 114.021482,28.8808607 114.482422,28.6191406 C114.943362,28.3574206 115.466794,28.2265625 116.052734,28.2265625 C116.728519,28.2265625 117.285154,28.3828109 117.722656,28.6953125 C118.160158,29.0078141 118.480468,29.4257786 118.683594,29.9492188 C118.88672,30.4726589 118.988281,31.0624967 118.988281,31.71875 C118.988281,32.4335973 118.857423,33.0449193 118.595703,33.5527344 C118.333983,34.0605494 117.972659,34.4443346 117.511719,34.7041016 C117.050779,34.9638685 116.525394,35.09375 115.935547,35.09375 C115.263669,35.09375 114.708987,34.9375016 114.271484,34.625 C113.833982,34.3124984 113.513673,33.8945339 113.310547,33.3710938 C113.107421,32.8476536 113.005859,32.2578158 113.005859,31.6015625 C113.005859,30.8867152 113.136717,30.2763697 113.398438,29.7705078 Z M117.49707,30.4091797 C117.374023,30.0205059 117.185548,29.7138683 116.931641,29.4892578 C116.677733,29.2646473 116.359377,29.1523438 115.976562,29.1523438 C115.433591,29.1523438 115.020509,29.3583964 114.737305,29.7705078 C114.4541,30.1826192 114.3125,30.7714805 114.3125,31.5371094 C114.3125,32.0332056 114.374999,32.4814433 114.5,32.8818359 C114.625001,33.2822286 114.814452,33.5986317 115.068359,33.8310547 C115.322267,34.0634777 115.636717,34.1796875 116.011719,34.1796875 C116.55469,34.1796875 116.968749,33.966799 117.253906,33.5410156 C117.539064,33.1152322 117.681641,32.5156289 117.681641,31.7421875 C117.681641,31.242185 117.620118,30.7978535 117.49707,30.4091797 Z M124.162109,28.3027344 L124.162109,29.5097656 C124.080078,29.4628904 123.973633,29.4248048 123.842773,29.3955078 C123.711913,29.3662108 123.525392,29.3515625 123.283203,29.3515625 C122.986327,29.3515625 122.711915,29.4052729 122.459961,29.5126953 C122.208007,29.6201177 121.996095,29.7499992 121.824219,29.9023438 L121.824219,35 L120.535156,35 L120.535156,28.3320312 L121.619141,28.3320312 L121.707031,29.0703125 C121.792969,28.9531244 121.932616,28.8281257 122.125977,28.6953125 C122.319337,28.5624993 122.540038,28.4501958 122.788086,28.3583984 C123.036134,28.2666011 123.277343,28.2207031 123.511719,28.2207031 C123.82422,28.2207031 124.041015,28.2480466 124.162109,28.3027344 Z M128.943359,28.3964844 C129.287111,28.5136725 129.554687,28.7275375 129.746094,29.0380859 C129.937501,29.3486344 130.033203,29.7851534 130.033203,30.3476562 L130.033203,35.09375 L129.505859,35.09375 C129.330077,35.09375 129.197266,35.0820314 129.107422,35.0585938 C129.017578,35.0351561 128.947266,34.9804692 128.896484,34.8945312 C128.845703,34.8085933 128.820312,34.6718759 128.820312,34.484375 L128.820312,34.4375 C128.624999,34.6171884 128.356447,34.7714837 128.014648,34.9003906 C127.67285,35.0292975 127.316408,35.09375 126.945312,35.09375 C126.550779,35.09375 126.198244,35.0175789 125.887695,34.8652344 C125.577147,34.7128899 125.334962,34.4951186 125.161133,34.2119141 C124.987304,33.9287095 124.900391,33.595705 124.900391,33.2128906 C124.900391,32.7910135 125.014647,32.4257828 125.243164,32.1171875 C125.471681,31.8085922 125.791014,31.5703133 126.201172,31.4023438 C126.564455,31.2578118 126.975584,31.1494144 127.43457,31.0771484 C127.893557,31.0048825 128.330076,30.96875 128.744141,30.96875 L128.744141,30.2949219 C128.744141,29.9824203 128.694336,29.7480477 128.594727,29.5917969 C128.495117,29.4355461 128.345704,29.3300784 128.146484,29.2753906 C127.947265,29.2207029 127.671877,29.1933594 127.320312,29.1933594 C127.132812,29.1933594 126.916993,29.2187497 126.672852,29.2695312 C126.42871,29.3203128 126.200196,29.3837887 125.987305,29.4599609 C125.774413,29.5361332 125.617188,29.6093746 125.515625,29.6796875 L125.199219,28.8359375 C125.300782,28.7734372 125.48535,28.6933599 125.75293,28.5957031 C126.020509,28.4980464 126.325194,28.4111332 126.666992,28.3349609 C127.008791,28.2587887 127.337889,28.2207031 127.654297,28.2207031 C128.169924,28.2207031 128.599608,28.2792963 128.943359,28.3964844 Z M127.90625,34.0507812 C128.109376,33.9960935 128.288085,33.9306644 128.442383,33.8544922 C128.59668,33.7783199 128.697265,33.7128909 128.744141,33.6582031 L128.744141,31.7890625 C128.458983,31.7890625 128.137697,31.816406 127.780273,31.8710938 C127.42285,31.9257815 127.134767,32.0058588 126.916016,32.1113281 C126.677733,32.2246099 126.494141,32.3574211 126.365234,32.5097656 C126.236327,32.6621101 126.171875,32.8593738 126.171875,33.1015625 C126.171875,33.7890659 126.556637,34.1328125 127.326172,34.1328125 C127.509767,34.1328125 127.703124,34.105469 127.90625,34.0507812 Z M132.3125,29.2929688 L131.445312,29.2929688 L131.445312,28.5957031 L131.65625,28.5371094 C131.835938,28.4863279 131.96875,28.4443361 132.054688,28.4111328 C132.140625,28.3779295 132.21582,28.331055 132.280273,28.2705078 C132.344727,28.2099606 132.396484,28.1269537 132.435547,28.0214844 C132.494141,27.8730461 132.580078,27.6054707 132.693359,27.21875 L132.822266,26.796875 L133.595703,26.796875 L133.595703,28.3203125 L135.482422,28.3203125 L135.482422,29.2929688 L133.595703,29.2929688 L133.595703,32.6738281 C133.595703,33.1191429 133.613281,33.4345694 133.648438,33.6201172 C133.683594,33.805665 133.749023,33.925781 133.844727,33.9804688 C133.94043,34.0351565 134.103514,34.0625 134.333984,34.0625 C134.501954,34.0625 134.706053,34.0351565 134.946289,33.9804688 C135.186525,33.925781 135.363281,33.8691409 135.476562,33.8105469 L135.699219,34.5488281 C135.507812,34.6894538 135.2334,34.8154291 134.875977,34.9267578 C134.518553,35.0380865 134.177736,35.09375 133.853516,35.09375 C133.365232,35.09375 132.986329,34.9716809 132.716797,34.7275391 C132.447264,34.4833972 132.3125,34.0410188 132.3125,33.4003906 L132.3125,29.2929688 Z M138.376953,28.3320312 L138.376953,35 L137.087891,35 L137.087891,28.3320312 L138.376953,28.3320312 Z M136.979492,25.859375 C137.07129,25.7187493 137.191406,25.6074223 137.339844,25.5253906 C137.488282,25.443359 137.638671,25.4023438 137.791016,25.4023438 C138.056642,25.4023438 138.260741,25.4765618 138.40332,25.625 C138.545899,25.7734382 138.617188,25.9628895 138.617188,26.1933594 C138.617188,26.3652352 138.572266,26.5214837 138.482422,26.6621094 C138.392578,26.8027351 138.275391,26.912109 138.130859,26.9902344 C137.986327,27.0683598 137.832032,27.1074219 137.667969,27.1074219 C137.519531,27.1074219 137.382813,27.0751956 137.257812,27.0107422 C137.132812,26.9462887 137.032227,26.8535162 136.956055,26.7324219 C136.879882,26.6113275 136.841797,26.472657 136.841797,26.3164062 C136.841797,26.1523429 136.887695,26.0000007 136.979492,25.859375 Z M140.462891,29.7705078 C140.724611,29.2646459 141.085935,28.8808607 141.546875,28.6191406 C142.007815,28.3574206 142.531247,28.2265625 143.117188,28.2265625 C143.792972,28.2265625 144.349607,28.3828109 144.787109,28.6953125 C145.224612,29.0078141 145.544921,29.4257786 145.748047,29.9492188 C145.951173,30.4726589 146.052734,31.0624967 146.052734,31.71875 C146.052734,32.4335973 145.921876,33.0449193 145.660156,33.5527344 C145.398436,34.0605494 145.037112,34.4443346 144.576172,34.7041016 C144.115232,34.9638685 143.589847,35.09375 143,35.09375 C142.328122,35.09375 141.77344,34.9375016 141.335938,34.625 C140.898435,34.3124984 140.578126,33.8945339 140.375,33.3710938 C140.171874,32.8476536 140.070312,32.2578158 140.070312,31.6015625 C140.070312,30.8867152 140.201171,30.2763697 140.462891,29.7705078 Z M144.561523,30.4091797 C144.438476,30.0205059 144.250001,29.7138683 143.996094,29.4892578 C143.742186,29.2646473 143.42383,29.1523438 143.041016,29.1523438 C142.498044,29.1523438 142.084962,29.3583964 141.801758,29.7705078 C141.518553,30.1826192 141.376953,30.7714805 141.376953,31.5371094 C141.376953,32.0332056 141.439453,32.4814433 141.564453,32.8818359 C141.689454,33.2822286 141.878905,33.5986317 142.132812,33.8310547 C142.38672,34.0634777 142.70117,34.1796875 143.076172,34.1796875 C143.619143,34.1796875 144.033202,33.966799 144.318359,33.5410156 C144.603517,33.1152322 144.746094,32.5156289 144.746094,31.7421875 C144.746094,31.242185 144.684571,30.7978535 144.561523,30.4091797 Z M148.794922,28.3320312 L148.800781,29.0351562 C149.10547,28.828124 149.483396,28.6406258 149.93457,28.4726562 C150.385744,28.3046867 150.816404,28.2207031 151.226562,28.2207031 C151.687502,28.2207031 152.054686,28.3066398 152.328125,28.4785156 C152.601564,28.6503915 152.800781,28.9257794 152.925781,29.3046875 C153.050782,29.6835956 153.113281,30.1953093 153.113281,30.8398438 L153.113281,35 L151.824219,35 L151.824219,30.8339844 C151.824219,30.4589825 151.794922,30.1611339 151.736328,29.9404297 C151.677734,29.7197255 151.570313,29.554688 151.414062,29.4453125 C151.257812,29.335937 151.031251,29.28125 150.734375,29.28125 C150.664062,29.28125 150.611328,29.2832031 150.576172,29.2871094 C150.341796,29.2949219 150.073244,29.3544916 149.770508,29.4658203 C149.467772,29.577149 149.189454,29.7246085 148.935547,29.9082031 L148.935547,35 L147.646484,35 L147.646484,28.3320312 L148.794922,28.3320312 Z M155.369141,33.8486328 C155.56836,33.9248051 155.80078,33.9921872 156.066406,34.0507812 C156.332033,34.1093753 156.595702,34.1386719 156.857422,34.1386719 C157.240236,34.1386719 157.534179,34.066407 157.739258,33.921875 C157.944337,33.777343 158.046875,33.5761732 158.046875,33.3183594 C158.046875,33.0722644 157.930665,32.861329 157.698242,32.6855469 C157.465819,32.5097647 157.123049,32.3261728 156.669922,32.1347656 C156.080075,31.8847644 155.622072,31.5917986 155.295898,31.2558594 C154.969725,30.9199202 154.806641,30.4960963 154.806641,29.984375 C154.806641,29.6054669 154.913085,29.284181 155.125977,29.0205078 C155.338868,28.7568346 155.626951,28.5585944 155.990234,28.4257812 C156.353517,28.2929681 156.76367,28.2265625 157.220703,28.2265625 C157.58008,28.2265625 157.917967,28.2656246 158.234375,28.34375 C158.550783,28.4218754 158.777343,28.4980465 158.914062,28.5722656 L158.703125,29.5449219 C158.593749,29.4511714 158.400392,29.3662113 158.123047,29.2900391 C157.845702,29.2138668 157.558595,29.1757812 157.261719,29.1757812 C156.85156,29.1757812 156.538087,29.2421868 156.321289,29.375 C156.104491,29.5078132 155.996094,29.689452 155.996094,29.9199219 C155.996094,30.1152354 156.045898,30.2832024 156.145508,30.4238281 C156.245118,30.5644538 156.386718,30.6874995 156.570312,30.7929688 C156.753907,30.898438 156.994139,31.0117181 157.291016,31.1328125 C157.861331,31.3632824 158.330076,31.6415999 158.697266,31.9677734 C159.064455,32.2939469 159.248047,32.7128881 159.248047,33.2246094 C159.248047,33.6230489 159.153321,33.9619127 158.963867,34.2412109 C158.774413,34.5205092 158.502931,34.7324212 158.149414,34.8769531 C157.795897,35.0214851 157.376956,35.09375 156.892578,35.09375 C156.458982,35.09375 156.038088,35.0449224 155.629883,34.9472656 C155.221678,34.8496089 154.933595,34.740235 154.765625,34.6191406 L154.958984,33.6582031 C155.033203,33.7089846 155.169921,33.7724606 155.369141,33.8486328 Z M166.091797,28.3320312 L166.091797,35 L164.802734,35 L164.802734,28.3320312 L166.091797,28.3320312 Z M164.694336,25.859375 C164.786133,25.7187493 164.906249,25.6074223 165.054688,25.5253906 C165.203126,25.443359 165.353515,25.4023438 165.505859,25.4023438 C165.771486,25.4023438 165.975585,25.4765618 166.118164,25.625 C166.260743,25.7734382 166.332031,25.9628895 166.332031,26.1933594 C166.332031,26.3652352 166.28711,26.5214837 166.197266,26.6621094 C166.107421,26.8027351 165.990235,26.912109 165.845703,26.9902344 C165.701171,27.0683598 165.546876,27.1074219 165.382812,27.1074219 C165.234374,27.1074219 165.097657,27.0751956 164.972656,27.0107422 C164.847656,26.9462887 164.747071,26.8535162 164.670898,26.7324219 C164.594726,26.6113275 164.556641,26.472657 164.556641,26.3164062 C164.556641,26.1523429 164.602539,26.0000007 164.694336,25.859375 Z M169.402344,28.3320312 L169.408203,29.0351562 C169.712892,28.828124 170.090818,28.6406258 170.541992,28.4726562 C170.993166,28.3046867 171.423826,28.2207031 171.833984,28.2207031 C172.294924,28.2207031 172.662108,28.3066398 172.935547,28.4785156 C173.208986,28.6503915 173.408202,28.9257794 173.533203,29.3046875 C173.658204,29.6835956 173.720703,30.1953093 173.720703,30.8398438 L173.720703,35 L172.431641,35 L172.431641,30.8339844 C172.431641,30.4589825 172.402344,30.1611339 172.34375,29.9404297 C172.285156,29.7197255 172.177735,29.554688 172.021484,29.4453125 C171.865234,29.335937 171.638673,29.28125 171.341797,29.28125 C171.271484,29.28125 171.21875,29.2832031 171.183594,29.2871094 C170.949218,29.2949219 170.680666,29.3544916 170.37793,29.4658203 C170.075194,29.577149 169.796876,29.7246085 169.542969,29.9082031 L169.542969,35 L168.253906,35 L168.253906,28.3320312 L169.402344,28.3320312 Z M179.890625,29.2929688 L179.023438,29.2929688 L179.023438,28.5957031 L179.234375,28.5371094 C179.414063,28.4863279 179.546875,28.4443361 179.632812,28.4111328 C179.71875,28.3779295 179.793945,28.331055 179.858398,28.2705078 C179.922852,28.2099606 179.974609,28.1269537 180.013672,28.0214844 C180.072266,27.8730461 180.158203,27.6054707 180.271484,27.21875 L180.400391,26.796875 L181.173828,26.796875 L181.173828,28.3203125 L183.060547,28.3203125 L183.060547,29.2929688 L181.173828,29.2929688 L181.173828,32.6738281 C181.173828,33.1191429 181.191406,33.4345694 181.226562,33.6201172 C181.261719,33.805665 181.327148,33.925781 181.422852,33.9804688 C181.518555,34.0351565 181.681639,34.0625 181.912109,34.0625 C182.080079,34.0625 182.284178,34.0351565 182.524414,33.9804688 C182.76465,33.925781 182.941406,33.8691409 183.054688,33.8105469 L183.277344,34.5488281 C183.085937,34.6894538 182.811525,34.8154291 182.454102,34.9267578 C182.096678,35.0380865 181.755861,35.09375 181.431641,35.09375 C180.943357,35.09375 180.564454,34.9716809 180.294922,34.7275391 C180.025389,34.4833972 179.890625,34.0410188 179.890625,33.4003906 L179.890625,29.2929688 Z M185.955078,28.3320312 L185.955078,35 L184.666016,35 L184.666016,28.3320312 L185.955078,28.3320312 Z M184.557617,25.859375 C184.649415,25.7187493 184.769531,25.6074223 184.917969,25.5253906 C185.066407,25.443359 185.216796,25.4023438 185.369141,25.4023438 C185.634767,25.4023438 185.838866,25.4765618 185.981445,25.625 C186.124024,25.7734382 186.195312,25.9628895 186.195312,26.1933594 C186.195312,26.3652352 186.150391,26.5214837 186.060547,26.6621094 C185.970703,26.8027351 185.853516,26.912109 185.708984,26.9902344 C185.564452,27.0683598 185.410157,27.1074219 185.246094,27.1074219 C185.097656,27.1074219 184.960938,27.0751956 184.835938,27.0107422 C184.710937,26.9462887 184.610352,26.8535162 184.53418,26.7324219 C184.458007,26.6113275 184.419922,26.472657 184.419922,26.3164062 C184.419922,26.1523429 184.46582,26.0000007 184.557617,25.859375 Z M196.835938,28.4726562 C197.113283,28.6406258 197.317382,28.9130841 197.448242,29.2900391 C197.579102,29.6669941 197.644531,30.175778 197.644531,30.8164062 L197.644531,35 L196.355469,35 L196.355469,30.8339844 C196.355469,30.4433574 196.324219,30.1376964 196.261719,29.9169922 C196.199218,29.696288 196.080079,29.5341802 195.904297,29.4306641 C195.728515,29.3271479 195.472658,29.283203 195.136719,29.2988281 C194.898436,29.3066407 194.628908,29.3642573 194.328125,29.4716797 C194.027342,29.5791021 193.751954,29.7207022 193.501953,29.8964844 C193.53711,30.166017 193.554688,30.4726545 193.554688,30.8164062 L193.554688,35 L192.265625,35 L192.265625,30.8339844 C192.265625,30.4433574 192.233399,30.1376964 192.168945,29.9169922 C192.104492,29.696288 191.984376,29.5341802 191.808594,29.4306641 C191.632812,29.3271479 191.378908,29.283203 191.046875,29.2988281 C190.816405,29.3066407 190.547853,29.3642573 190.241211,29.4716797 C189.934569,29.5791021 189.656251,29.7246085 189.40625,29.9082031 L189.40625,35 L188.117188,35 L188.117188,28.3320312 L189.265625,28.3320312 L189.271484,29.0351562 C189.572267,28.8320302 189.930662,28.6484383 190.34668,28.484375 C190.762697,28.3203117 191.16992,28.2324219 191.568359,28.2207031 C192.009768,28.2089843 192.368163,28.268554 192.643555,28.3994141 C192.918947,28.5302741 193.128906,28.7480454 193.273438,29.0527344 C193.570314,28.830077 193.946287,28.635743 194.401367,28.4697266 C194.856448,28.3037101 195.296873,28.2207031 195.722656,28.2207031 C196.187502,28.2207031 196.558592,28.3046867 196.835938,28.4726562 Z M204.640625,31.4814453 C204.632812,31.6552743 204.615235,31.8085931 204.587891,31.9414062 L200.46875,31.9414062 C200.472656,31.9687501 200.474609,32.0078122 200.474609,32.0585938 C200.541016,33.4336006 201.220697,34.1210938 202.513672,34.1210938 C202.748048,34.1210938 203.04492,34.0839847 203.404297,34.0097656 C203.763674,33.9355465 204.021484,33.851563 204.177734,33.7578125 L204.423828,34.4960938 C204.208983,34.6718759 203.882815,34.8154291 203.445312,34.9267578 C203.00781,35.0380865 202.582033,35.09375 202.167969,35.09375 C201.539059,35.09375 201.003908,34.9580092 200.5625,34.6865234 C200.121092,34.4150377 199.785157,34.021487 199.554688,33.5058594 C199.324218,32.9902318 199.208984,32.3710974 199.208984,31.6484375 C199.208984,30.9921842 199.323241,30.4082057 199.551758,29.8964844 C199.780275,29.3847631 200.118162,28.9814468 200.56543,28.6865234 C201.012698,28.3916001 201.554684,28.2382813 202.191406,28.2265625 C202.640627,28.21875 203.048826,28.3105459 203.416016,28.5019531 C203.783205,28.6933603 204.077147,28.9804668 204.297852,29.3632812 C204.518556,29.7460957 204.636719,30.2070286 204.652344,30.7460938 C204.652344,31.0625016 204.648438,31.3076163 204.640625,31.4814453 Z M203.457031,30.8105469 C203.457031,30.3144506 203.356446,29.9121109 203.155273,29.6035156 C202.954101,29.2949203 202.609377,29.140625 202.121094,29.140625 C201.687498,29.140625 201.32715,29.2939438 201.040039,29.6005859 C200.752928,29.9072281 200.574219,30.4023403 200.503906,31.0859375 L203.445312,31.0859375 C203.453125,30.9609369 203.457031,30.8691409 203.457031,30.8105469 Z M216.740234,34.2148438 C216.935548,34.2734378 217.166014,34.3164061 217.431641,34.34375 L217.431641,35.0058594 C217.232421,35.0644534 217.003908,35.09375 216.746094,35.09375 C216.45703,35.09375 216.200196,35.056641 215.975586,34.9824219 C215.750975,34.9082028 215.521486,34.7910164 215.287109,34.6308594 C215.025389,34.7675788 214.731447,34.8789058 214.405273,34.9648438 C214.0791,35.0507817 213.765627,35.09375 213.464844,35.09375 C212.757809,35.09375 212.138675,35.0039071 211.607422,34.8242188 C211.076169,34.6445304 210.662111,34.3740252 210.365234,34.0126953 C210.068358,33.6513654 209.919922,33.2109401 209.919922,32.6914062 C209.919922,32.1757787 210.084959,31.727541 210.415039,31.3466797 C210.745119,30.9658184 211.187497,30.6464857 211.742188,30.3886719 C211.433592,29.9785136 211.191407,29.5898456 211.015625,29.2226562 C210.839843,28.8554669 210.751953,28.4609396 210.751953,28.0390625 C210.751953,27.6093729 210.851562,27.2373063 211.050781,26.9228516 C211.250001,26.6083969 211.532225,26.3662118 211.897461,26.1962891 C212.262697,26.0263663 212.689451,25.9414062 213.177734,25.9414062 C213.619143,25.9414062 214.005858,26.0351553 214.337891,26.2226562 C214.669924,26.4101572 214.924804,26.6582016 215.102539,26.9667969 C215.280274,27.2753922 215.369141,27.605467 215.369141,27.9570312 C215.369141,28.4296899 215.291993,28.8369124 215.137695,29.1787109 C214.983398,29.5205095 214.762697,29.8134753 214.475586,30.0576172 C214.188475,30.301759 213.824221,30.5253896 213.382812,30.7285156 C213.640626,31.0878924 213.971678,31.525388 214.375977,32.0410156 C214.780275,32.5566432 215.119139,32.9667954 215.392578,33.2714844 C215.712892,32.9394515 215.873047,32.4941434 215.873047,31.9355469 C215.873047,31.5839826 215.808594,31.183596 215.679688,30.734375 L216.804688,30.734375 C216.917969,31.1289082 216.974609,31.5312479 216.974609,31.9414062 C216.974609,32.7968793 216.705081,33.4648413 216.166016,33.9453125 C216.353517,34.0664069 216.544921,34.1562497 216.740234,34.2148438 Z M212.287109,27.1367188 C212.060546,27.3242197 211.947266,27.6152324 211.947266,28.0097656 C211.947266,28.2480481 211.970703,28.451171 212.017578,28.6191406 C212.064453,28.7871102 212.130859,28.9423821 212.216797,29.0849609 C212.302735,29.2275398 212.437499,29.4238269 212.621094,29.6738281 C212.742188,29.8417977 212.814453,29.9414061 212.837891,29.9726562 C213.310549,29.7695302 213.667968,29.5107438 213.910156,29.1962891 C214.152345,28.8818344 214.273438,28.4746119 214.273438,27.9746094 C214.273438,27.8027335 214.230469,27.6308602 214.144531,27.4589844 C214.058593,27.2871085 213.930665,27.1435553 213.760742,27.0283203 C213.590819,26.9130854 213.388673,26.8554688 213.154297,26.8554688 C212.802733,26.8554688 212.513673,26.9492178 212.287109,27.1367188 Z M213.954102,34.1035156 C214.124024,34.0644529 214.30078,34.0058598 214.484375,33.9277344 C214.171873,33.5761701 213.814455,33.1376979 213.412109,32.6123047 C213.009764,32.0869114 212.646486,31.5976585 212.322266,31.1445312 C211.95117,31.3398447 211.660157,31.5644519 211.449219,31.8183594 C211.23828,32.0722669 211.132812,32.351561 211.132812,32.65625 C211.132812,32.9257826 211.208007,33.173827 211.358398,33.4003906 C211.50879,33.6269543 211.751951,33.8105462 212.087891,33.9511719 C212.42383,34.0917976 212.857419,34.1621094 213.388672,34.1621094 C213.595704,34.1621094 213.784179,34.1425783 213.954102,34.1035156 Z M223.132812,33.8486328 C223.332032,33.9248051 223.564452,33.9921872 223.830078,34.0507812 C224.095704,34.1093753 224.359374,34.1386719 224.621094,34.1386719 C225.003908,34.1386719 225.297851,34.066407 225.50293,33.921875 C225.708009,33.777343 225.810547,33.5761732 225.810547,33.3183594 C225.810547,33.0722644 225.694337,32.861329 225.461914,32.6855469 C225.229491,32.5097647 224.886721,32.3261728 224.433594,32.1347656 C223.843747,31.8847644 223.385744,31.5917986 223.05957,31.2558594 C222.733397,30.9199202 222.570312,30.4960963 222.570312,29.984375 C222.570312,29.6054669 222.676757,29.284181 222.889648,29.0205078 C223.10254,28.7568346 223.390623,28.5585944 223.753906,28.4257812 C224.117189,28.2929681 224.527341,28.2265625 224.984375,28.2265625 C225.343752,28.2265625 225.681639,28.2656246 225.998047,28.34375 C226.314455,28.4218754 226.541015,28.4980465 226.677734,28.5722656 L226.466797,29.5449219 C226.357421,29.4511714 226.164064,29.3662113 225.886719,29.2900391 C225.609374,29.2138668 225.322267,29.1757812 225.025391,29.1757812 C224.615232,29.1757812 224.301759,29.2421868 224.084961,29.375 C223.868163,29.5078132 223.759766,29.689452 223.759766,29.9199219 C223.759766,30.1152354 223.80957,30.2832024 223.90918,30.4238281 C224.00879,30.5644538 224.15039,30.6874995 224.333984,30.7929688 C224.517579,30.898438 224.757811,31.0117181 225.054688,31.1328125 C225.625003,31.3632824 226.093748,31.6415999 226.460938,31.9677734 C226.828127,32.2939469 227.011719,32.7128881 227.011719,33.2246094 C227.011719,33.6230489 226.916993,33.9619127 226.727539,34.2412109 C226.538085,34.5205092 226.266603,34.7324212 225.913086,34.8769531 C225.559569,35.0214851 225.140627,35.09375 224.65625,35.09375 C224.222654,35.09375 223.80176,35.0449224 223.393555,34.9472656 C222.98535,34.8496089 222.697266,34.740235 222.529297,34.6191406 L222.722656,33.6582031 C222.796875,33.7089846 222.933593,33.7724606 223.132812,33.8486328 Z M232.970703,28.5810547 C233.369143,28.817384 233.687499,29.1748023 233.925781,29.6533203 C234.164064,30.1318383 234.283203,30.7187465 234.283203,31.4140625 C234.283203,32.1289098 234.144533,32.7656222 233.867188,33.3242188 C233.589842,33.8828153 233.198245,34.3173813 232.692383,34.6279297 C232.186521,34.9384781 231.601566,35.09375 230.9375,35.09375 C230.539061,35.09375 230.17383,35.0371099 229.841797,34.9238281 L229.859375,35.8144531 L229.859375,37.9648438 L228.570312,37.9648438 L228.570312,28.3203125 L229.736328,28.3203125 L229.736328,29.0410156 C229.955079,28.8105457 230.208983,28.6171883 230.498047,28.4609375 C230.787111,28.3046867 231.169919,28.2265625 231.646484,28.2265625 C232.130862,28.2265625 232.572264,28.3447254 232.970703,28.5810547 Z M232.540039,29.8056641 C232.252928,29.4287091 231.83594,29.2402344 231.289062,29.2402344 C231.003905,29.2402344 230.741212,29.2939448 230.500977,29.4013672 C230.260741,29.5087896 230.046876,29.636718 229.859375,29.7851562 L229.859375,33.8574219 C229.980469,33.9628912 230.137694,34.0390623 230.331055,34.0859375 C230.524415,34.1328127 230.767577,34.15625 231.060547,34.15625 C231.427736,34.15625 231.755858,34.0546885 232.044922,33.8515625 C232.333986,33.6484365 232.560546,33.3496113 232.724609,32.9550781 C232.888673,32.5605449 232.970703,32.0839872 232.970703,31.5253906 C232.970703,30.7558555 232.82715,30.1826191 232.540039,29.8056641 Z M239.445312,28.3964844 C239.789064,28.5136725 240.05664,28.7275375 240.248047,29.0380859 C240.439454,29.3486344 240.535156,29.7851534 240.535156,30.3476562 L240.535156,35.09375 L240.007812,35.09375 C239.83203,35.09375 239.699219,35.0820314 239.609375,35.0585938 C239.519531,35.0351561 239.449219,34.9804692 239.398438,34.8945312 C239.347656,34.8085933 239.322266,34.6718759 239.322266,34.484375 L239.322266,34.4375 C239.126952,34.6171884 238.8584,34.7714837 238.516602,34.9003906 C238.174803,35.0292975 237.818361,35.09375 237.447266,35.09375 C237.052732,35.09375 236.700197,35.0175789 236.389648,34.8652344 C236.0791,34.7128899 235.836915,34.4951186 235.663086,34.2119141 C235.489257,33.9287095 235.402344,33.595705 235.402344,33.2128906 C235.402344,32.7910135 235.5166,32.4257828 235.745117,32.1171875 C235.973634,31.8085922 236.292967,31.5703133 236.703125,31.4023438 C237.066408,31.2578118 237.477537,31.1494144 237.936523,31.0771484 C238.39551,31.0048825 238.832029,30.96875 239.246094,30.96875 L239.246094,30.2949219 C239.246094,29.9824203 239.19629,29.7480477 239.09668,29.5917969 C238.99707,29.4355461 238.847657,29.3300784 238.648438,29.2753906 C238.449218,29.2207029 238.17383,29.1933594 237.822266,29.1933594 C237.634765,29.1933594 237.418947,29.2187497 237.174805,29.2695312 C236.930663,29.3203128 236.70215,29.3837887 236.489258,29.4599609 C236.276366,29.5361332 236.119141,29.6093746 236.017578,29.6796875 L235.701172,28.8359375 C235.802735,28.7734372 235.987303,28.6933599 236.254883,28.5957031 C236.522462,28.4980464 236.827147,28.4111332 237.168945,28.3349609 C237.510744,28.2587887 237.839842,28.2207031 238.15625,28.2207031 C238.671878,28.2207031 239.101561,28.2792963 239.445312,28.3964844 Z M238.408203,34.0507812 C238.611329,33.9960935 238.790038,33.9306644 238.944336,33.8544922 C239.098634,33.7783199 239.199219,33.7128909 239.246094,33.6582031 L239.246094,31.7890625 C238.960936,31.7890625 238.63965,31.816406 238.282227,31.8710938 C237.924803,31.9257815 237.63672,32.0058588 237.417969,32.1113281 C237.179686,32.2246099 236.996094,32.3574211 236.867188,32.5097656 C236.738281,32.6621101 236.673828,32.8593738 236.673828,33.1015625 C236.673828,33.7890659 237.05859,34.1328125 237.828125,34.1328125 C238.01172,34.1328125 238.205077,34.105469 238.408203,34.0507812 Z M246.283203,28.3349609 C246.576173,28.4072269 246.787109,28.4863277 246.916016,28.5722656 L246.710938,29.5917969 C246.531249,29.4667963 246.320314,29.3740237 246.078125,29.3134766 C245.835936,29.2529294 245.546877,29.2226562 245.210938,29.2226562 C244.874998,29.2226562 244.561525,29.3085929 244.270508,29.4804688 C243.979491,29.6523446 243.744142,29.9208966 243.564453,30.2861328 C243.384765,30.651369 243.294922,31.1113254 243.294922,31.6660156 C243.294922,32.1816432 243.376952,32.6240216 243.541016,32.9931641 C243.705079,33.3623065 243.929686,33.6425772 244.214844,33.8339844 C244.500001,34.0253916 244.820311,34.1210938 245.175781,34.1210938 C245.484377,34.1210938 245.785155,34.0810551 246.078125,34.0009766 C246.371095,33.920898 246.601562,33.8300786 246.769531,33.7285156 L247.033203,34.4609375 C246.826171,34.6523447 246.537111,34.8056635 246.166016,34.9208984 C245.79492,35.0361334 245.400393,35.09375 244.982422,35.09375 C244.373044,35.09375 243.846682,34.9482436 243.40332,34.6572266 C242.959959,34.3662095 242.623048,33.9667994 242.392578,33.4589844 C242.162108,32.9511693 242.046875,32.3750032 242.046875,31.7304688 C242.046875,31.0624967 242.168944,30.4638698 242.413086,29.9345703 C242.657228,29.4052708 243.021482,28.9882828 243.505859,28.6835938 C243.990237,28.3789047 244.580075,28.2265625 245.275391,28.2265625 C245.654299,28.2265625 245.990233,28.262695 246.283203,28.3349609 Z M253.349609,31.4814453 C253.341797,31.6552743 253.324219,31.8085931 253.296875,31.9414062 L249.177734,31.9414062 C249.181641,31.9687501 249.183594,32.0078122 249.183594,32.0585938 C249.25,33.4336006 249.929681,34.1210938 251.222656,34.1210938 C251.457032,34.1210938 251.753904,34.0839847 252.113281,34.0097656 C252.472658,33.9355465 252.730468,33.851563 252.886719,33.7578125 L253.132812,34.4960938 C252.917968,34.6718759 252.591799,34.8154291 252.154297,34.9267578 C251.716795,35.0380865 251.291018,35.09375 250.876953,35.09375 C250.248044,35.09375 249.712893,34.9580092 249.271484,34.6865234 C248.830076,34.4150377 248.494142,34.021487 248.263672,33.5058594 C248.033202,32.9902318 247.917969,32.3710974 247.917969,31.6484375 C247.917969,30.9921842 248.032225,30.4082057 248.260742,29.8964844 C248.489259,29.3847631 248.827146,28.9814468 249.274414,28.6865234 C249.721682,28.3916001 250.263669,28.2382813 250.900391,28.2265625 C251.349612,28.21875 251.757811,28.3105459 252.125,28.5019531 C252.492189,28.6933603 252.786132,28.9804668 253.006836,29.3632812 C253.22754,29.7460957 253.345703,30.2070286 253.361328,30.7460938 C253.361328,31.0625016 253.357422,31.3076163 253.349609,31.4814453 Z M252.166016,30.8105469 C252.166016,30.3144506 252.065431,29.9121109 251.864258,29.6035156 C251.663085,29.2949203 251.318362,29.140625 250.830078,29.140625 C250.396482,29.140625 250.036134,29.2939438 249.749023,29.6005859 C249.461913,29.9072281 249.283203,30.4023403 249.212891,31.0859375 L252.154297,31.0859375 C252.162109,30.9609369 252.166016,30.8691409 252.166016,30.8105469 Z" id="interactive-explorat-copy-2" fill="#FFFFFF"></path>
                <path d="M24.74,20.38 C24.3533314,20.0999986 23.9066692,19.6866694 23.4,19.14 L25.02,17.18 L25.02,8.9 C25.02,8.5533316 24.9933336,8.3233339 24.94,8.21 C24.8866664,8.0966661 24.7466678,7.9933338 24.52,7.9 L23.5,7.3 L23.58,5.52 L30,5.52 L30.1,7.56 L28.64,7.96 L28.64,14.36 C28.64,15.7733404 28.5266678,16.9299955 28.3,17.83 C28.0733322,18.7300045 27.6666696,19.6333288 27.08,20.54 L26.46,21.42 C25.6999962,21.0066646 25.1266686,20.6600014 24.74,20.38 Z M31.73,17.82 C30.8833291,16.8733286 30.46,15.566675 30.46,13.9 C30.46,12.7399942 30.6666646,11.7433375 31.08,10.91 C31.4933354,10.0766625 32.0799962,9.4400022 32.84,9 C33.6000038,8.5599978 34.4866616,8.34 35.5,8.34 C37.0066742,8.34 38.1633293,8.8199952 38.97,9.78 C39.7766707,10.7400048 40.1600002,12.1066578 40.12,13.88 L34.04,15 C34.2266676,15.5600028 34.4899983,15.9699987 34.83,16.23 C35.1700017,16.4900013 35.6199972,16.62 36.18,16.62 C36.5666686,16.62 37.026664,16.5633339 37.56,16.45 C38.093336,16.3366661 38.6333306,16.180001 39.18,15.98 L39.64,17.96 C39.1466642,18.3333352 38.5066706,18.6399988 37.72,18.88 C36.9333294,19.1200012 36.140004,19.24 35.34,19.24 C33.7799922,19.24 32.5766709,18.7666714 31.73,17.82 Z M36.84,12.2 C36.8133332,11.6933308 36.6700013,11.3233345 36.41,11.09 C36.1499987,10.8566655 35.786669,10.74 35.32,10.74 C34.9333314,10.74 34.5666684,10.7933328 34.22,10.9 C33.9399986,11.5533366 33.8133332,12.2599962 33.84,13.02 L36.84,12.2 Z M41.62,11.28 C41.4733326,10.9199982 41.3733336,10.6866672 41.32,10.58 C41.2666664,10.4733328 41.1666674,10.3266676 41.02,10.14 L40.68,9.7 L40.78,8.54 L45.84,8.54 L46.04,10.24 L44.94,10.5 L46.3,15.36 L48.28,8.7 L50.34,8.42 L52.62,15.54 L53.9,10.94 C53.9266668,10.8599996 53.94,10.8000002 53.94,10.76 C53.94,10.6399994 53.8800006,10.5600002 53.76,10.52 L52.8,10.12 L53,8.54 L56.8,8.54 L57,10.1 L53.56,19.1 L50.68,19.32 L49.02,13.76 L47.2,19.1 L44.32,19.32 L41.62,11.28 Z M58.8,4.2 L62.2,3.3 L63.02,6.34 L59.64,7.26 L58.8,4.2 Z M57.96,17.16 L59.36,16.74 L59.36,11.88 C59.36,11.5866652 59.3366669,11.3966671 59.29,11.31 C59.2433331,11.2233329 59.1266676,11.1266672 58.94,11.02 L58.06,10.54 L58.16,9.04 C59.2666722,8.8266656 60.1233303,8.6700005 60.73,8.57 C61.3366697,8.4699995 61.8933308,8.4133334 62.4,8.4 C62.5733342,8.9733362 62.6799998,9.3999986 62.72,9.68 L62.72,16.08 C62.72,16.3600014 62.7399998,16.5466662 62.78,16.64 C62.8200002,16.7333338 62.9333324,16.8333328 63.12,16.94 L64.1,17.5 L64.02,19 L58.02,19 L57.96,17.16 Z M64.96,18.78 C65.0400004,17.4733268 65.1266662,16.5066698 65.22,15.88 L66.36,15.66 L67.62,17 C68.0600022,17.133334 68.5533306,17.2 69.1,17.2 C69.4066682,17.2 69.6466658,17.1800002 69.82,17.14 C69.8600002,17.0333328 69.88,16.8866676 69.88,16.7 C69.88,16.5399992 69.8433337,16.4066672 69.77,16.3 C69.6966663,16.1933328 69.5333346,16.0666674 69.28,15.92 C69.0266654,15.7733326 68.5866698,15.5466682 67.96,15.24 C67.1733294,14.8266646 66.5733354,14.4566683 66.16,14.13 C65.7466646,13.8033317 65.4500009,13.4666684 65.27,13.12 C65.0899991,12.7733316 65,12.3600024 65,11.88 C65,10.813328 65.3966627,9.9666698 66.19,9.34 C66.9833373,8.7133302 68.0599932,8.4 69.42,8.4 C69.9800028,8.4 70.5699969,8.4633327 71.19,8.59 C71.8100031,8.7166673 72.3666642,8.8866656 72.86,9.1 C72.86,9.966671 72.8000006,10.933328 72.68,12 L71.64,12.16 L70.3,10.72 C69.9533316,10.6133328 69.44667,10.56 68.78,10.56 C68.6733328,10.56 68.4600016,10.5733332 68.14,10.6 C68.0999998,10.6800004 68.08,10.8066658 68.08,10.98 C68.08,11.1666676 68.1333328,11.3299993 68.24,11.47 C68.3466672,11.6100007 68.5366653,11.7633325 68.81,11.93 C69.0833347,12.0966675 69.519997,12.3333318 70.12,12.64 C71.0000044,13.0666688 71.6633311,13.4366651 72.11,13.75 C72.5566689,14.0633349 72.8699991,14.3799984 73.05,14.7 C73.2300009,15.0200016 73.32,15.4066644 73.32,15.86 C73.32,16.9533388 72.9033375,17.8066636 72.07,18.42 C71.2366625,19.0333364 70.086674,19.34 68.62,19.34 C67.5666614,19.34 66.3466736,19.1533352 64.96,18.78 Z M73.94,17.1 L75.18,16.74 L75.18,7.16 C75.18,6.8666652 75.1600002,6.6766671 75.12,6.59 C75.0799998,6.5033329 74.9733342,6.4066672 74.8,6.3 L73.92,5.84 L73.98,4.32 L74.6,4.22 C76.3600088,3.8999984 77.5933298,3.7266668 78.3,3.7 C78.4200006,4.0200016 78.5066664,4.3666648 78.56,4.74 L78.56,9.3 C79.293337,8.966665 79.9166641,8.7233341 80.43,8.57 C80.9433359,8.4166659 81.4533308,8.34 81.96,8.34 C84.0400104,8.34 85.08,9.606654 85.08,12.14 L85.08,16.08 C85.08,16.3600014 85.0999998,16.5466662 85.14,16.64 C85.1800002,16.7333338 85.2933324,16.8333328 85.48,16.94 L86.44,17.5 L86.36,19 L80.84,19 L80.74,17.1 L81.72,16.82 L81.72,13.02 C81.72,12.4333304 81.7033335,12.0166679 81.67,11.77 C81.6366665,11.5233321 81.5266676,11.333334 81.34,11.2 C81.1533324,11.066666 80.8400022,11 80.4,11 C79.9733312,11 79.360004,11.0733326 78.56,11.22 L78.56,16.08 C78.56,16.3600014 78.5799998,16.5466662 78.62,16.64 C78.6600002,16.7333338 78.7666658,16.8333328 78.94,16.94 L79.92,17.5 L79.84,19 L74.04,19 L73.94,17.1 Z M92.4,17.44 C91.3066612,16.1999938 90.76,14.446678 90.76,12.18 C90.76,10.7399928 91.0233307,9.4966719 91.55,8.45 C92.0766693,7.4033281 92.839995,6.6033361 93.84,6.05 C94.840005,5.4966639 96.0266598,5.22 97.4,5.22 C98.9600078,5.22 100.566658,5.5733298 102.22,6.28 C102.099999,7.480006 101.906668,8.8066594 101.64,10.26 L100.12,10.36 L98.74,8.34 C98.1533304,8.1666658 97.5066702,8.08 96.8,8.08 C96.266664,8.08 95.7600024,8.1266662 95.28,8.22 C95.0666656,8.6333354 94.893334,9.1799966 94.76,9.86 C94.626666,10.5400034 94.56,11.2266632 94.56,11.92 C94.56,13.4000074 94.8299973,14.4966631 95.37,15.21 C95.9100027,15.9233369 96.7666608,16.2933332 97.94,16.32 C98.406669,16.32 98.9966631,16.2500007 99.71,16.11 C100.423337,15.9699993 101.119997,15.7866678 101.8,15.56 L102.42,17.76 C101.726663,18.2133356 100.890005,18.5833319 99.91,18.87 C98.9299951,19.1566681 97.9866712,19.3 97.08,19.3 C95.0533232,19.3 93.4933388,18.6800062 92.4,17.44 Z M105.16,18.33 C104.639997,17.6966635 104.38,16.7400064 104.38,15.46 L104.38,11.88 C104.38,11.5866652 104.356667,11.3966671 104.31,11.31 C104.263333,11.2233329 104.146668,11.1266672 103.96,11.02 L103.06,10.54 L103.16,9.04 C103.346668,9.0133332 103.48,8.9866668 103.56,8.96 C103.706667,8.9333332 104.229995,8.8400008 105.13,8.68 C106.030004,8.5199992 106.779997,8.4266668 107.38,8.4 C107.526667,8.733335 107.64,9.1199978 107.72,9.56 L107.72,14.6 C107.72,15.1866696 107.736666,15.5999988 107.77,15.84 C107.803333,16.0800012 107.909999,16.2633327 108.09,16.39 C108.270001,16.5166673 108.579998,16.58 109.02,16.58 C109.660003,16.58 110.279997,16.4666678 110.88,16.24 L110.88,11.88 C110.88,11.5866652 110.86,11.3966671 110.82,11.31 C110.78,11.2233329 110.673334,11.1266672 110.5,11.02 L109.62,10.54 L109.7,9.04 C110.780005,8.839999 111.62333,8.6866672 112.23,8.58 C112.83667,8.4733328 113.393331,8.4133334 113.9,8.4 C114.046667,8.733335 114.16,9.1199978 114.24,9.56 L114.24,16.12 C114.24,16.3600012 114.26,16.5266662 114.3,16.62 C114.34,16.7133338 114.433333,16.8066662 114.58,16.9 L115.38,17.36 L115.32,18.6 C114.746664,18.7466674 114.08667,18.8766661 113.34,18.99 C112.59333,19.1033339 111.900003,19.1733332 111.26,19.2 C111.206666,19.0399992 111.146667,18.8400012 111.08,18.6 C111.066667,18.4933328 111.033334,18.3666674 110.98,18.22 L110.92,18.22 C110.373331,18.5400016 109.79667,18.7966657 109.19,18.99 C108.58333,19.1833343 108.033336,19.28 107.54,19.28 C106.473328,19.28 105.680003,18.9633365 105.16,18.33 Z M115.96,17.16 L117.36,16.74 L117.36,7.16 C117.36,6.8666652 117.336667,6.6766671 117.29,6.59 C117.243333,6.5033329 117.126668,6.4066672 116.94,6.3 L116.06,5.84 L116.16,4.32 C116.426668,4.2666664 116.633333,4.2333334 116.78,4.22 C118.540009,3.8999984 119.766663,3.7266668 120.46,3.7 C120.593334,4.0066682 120.68,4.3533314 120.72,4.74 L120.72,16.08 C120.72,16.3600014 120.74,16.5466662 120.78,16.64 C120.82,16.7333338 120.933332,16.8333328 121.12,16.94 L122.1,17.5 L122.02,19 L116.02,19 L115.96,17.16 Z M124.44,18.39 C123.879997,17.8099971 123.6,16.9266726 123.6,15.74 L123.6,10.88 L122.2,10.88 L122.2,9.42 L125.8,6.14 L126.96,6.28 L126.96,8.54 L130.32,8.54 L130.32,10.9 L126.96,10.9 L126.96,15.02 C126.96,15.6600032 127.049999,16.0866656 127.23,16.3 C127.410001,16.5133344 127.759997,16.62 128.28,16.62 C128.720002,16.62 129.333329,16.5600006 130.12,16.44 L130.36,18.48 C129.879998,18.7066678 129.343336,18.8933326 128.75,19.04 C128.156664,19.1866674 127.586669,19.26 127.04,19.26 C125.866661,19.26 125.000003,18.9700029 124.44,18.39 Z M133.26,18.33 C132.739997,17.6966635 132.48,16.7400064 132.48,15.46 L132.48,11.88 C132.48,11.5866652 132.456667,11.3966671 132.41,11.31 C132.363333,11.2233329 132.246668,11.1266672 132.06,11.02 L131.16,10.54 L131.26,9.04 C131.446668,9.0133332 131.58,8.9866668 131.66,8.96 C131.806667,8.9333332 132.329995,8.8400008 133.23,8.68 C134.130005,8.5199992 134.879997,8.4266668 135.48,8.4 C135.626667,8.733335 135.74,9.1199978 135.82,9.56 L135.82,14.6 C135.82,15.1866696 135.836667,15.5999988 135.87,15.84 C135.903334,16.0800012 136.009999,16.2633327 136.19,16.39 C136.370001,16.5166673 136.679998,16.58 137.12,16.58 C137.760003,16.58 138.379997,16.4666678 138.98,16.24 L138.98,11.88 C138.98,11.5866652 138.96,11.3966671 138.92,11.31 C138.88,11.2233329 138.773334,11.1266672 138.6,11.02 L137.72,10.54 L137.8,9.04 C138.880005,8.839999 139.72333,8.6866672 140.33,8.58 C140.93667,8.4733328 141.493331,8.4133334 142,8.4 C142.146667,8.733335 142.26,9.1199978 142.34,9.56 L142.34,16.12 C142.34,16.3600012 142.36,16.5266662 142.4,16.62 C142.44,16.7133338 142.533333,16.8066662 142.68,16.9 L143.48,17.36 L143.42,18.6 C142.846664,18.7466674 142.18667,18.8766661 141.44,18.99 C140.69333,19.1033339 140.000003,19.1733332 139.36,19.2 C139.306666,19.0399992 139.246667,18.8400012 139.18,18.6 C139.166667,18.4933328 139.133334,18.3666674 139.08,18.22 L139.02,18.22 C138.473331,18.5400016 137.89667,18.7966657 137.29,18.99 C136.68333,19.1833343 136.133336,19.28 135.64,19.28 C134.573328,19.28 133.780003,18.9633365 133.26,18.33 Z M144.3,17.1 L145.52,16.74 L145.52,11.88 C145.52,11.5866652 145.5,11.3966671 145.46,11.31 C145.42,11.2233329 145.313334,11.1266672 145.14,11.02 L144.26,10.54 L144.32,9.04 C144.546668,8.9866664 144.739999,8.9533334 144.9,8.94 C146.513341,8.606665 147.706663,8.4266668 148.48,8.4 C148.600001,8.7466684 148.713333,9.1799974 148.82,9.7 C149.620004,9.0733302 150.299997,8.6400012 150.86,8.4 L152,8.4 C151.986667,8.9066692 151.953334,9.4566637 151.9,10.05 C151.846666,10.6433363 151.78,11.1199982 151.7,11.48 C151.219998,11.4533332 150.866668,11.44 150.64,11.44 C150.079997,11.44 149.500003,11.473333 148.9,11.54 L148.9,16.08 C148.9,16.3600014 148.92,16.5466662 148.96,16.64 C149,16.7333338 149.106666,16.8333328 149.28,16.94 L150.48,17.58 L150.4,19 L144.4,19 L144.3,17.1 Z M153.85,17.82 C153.003329,16.8733286 152.58,15.566675 152.58,13.9 C152.58,12.7399942 152.786665,11.7433375 153.2,10.91 C153.613335,10.0766625 154.199996,9.4400022 154.96,9 C155.720004,8.5599978 156.606662,8.34 157.62,8.34 C159.126674,8.34 160.283329,8.8199952 161.09,9.78 C161.896671,10.7400048 162.28,12.1066578 162.24,13.88 L156.16,15 C156.346668,15.5600028 156.609998,15.9699987 156.95,16.23 C157.290002,16.4900013 157.739997,16.62 158.3,16.62 C158.686669,16.62 159.146664,16.5633339 159.68,16.45 C160.213336,16.3366661 160.753331,16.180001 161.3,15.98 L161.76,17.96 C161.266664,18.3333352 160.626671,18.6399988 159.84,18.88 C159.053329,19.1200012 158.260004,19.24 157.46,19.24 C155.899992,19.24 154.696671,18.7666714 153.85,17.82 Z M158.96,12.2 C158.933333,11.6933308 158.790001,11.3233345 158.53,11.09 C158.269999,10.8566655 157.906669,10.74 157.44,10.74 C157.053331,10.74 156.686668,10.7933328 156.34,10.9 C156.059999,11.5533366 155.933333,12.2599962 155.96,13.02 L158.96,12.2 Z M163.42,18.78 C163.5,17.4733268 163.586666,16.5066698 163.68,15.88 L164.82,15.66 L166.08,17 C166.520002,17.133334 167.013331,17.2 167.56,17.2 C167.866668,17.2 168.106666,17.1800002 168.28,17.14 C168.32,17.0333328 168.34,16.8866676 168.34,16.7 C168.34,16.5399992 168.303334,16.4066672 168.23,16.3 C168.156666,16.1933328 167.993335,16.0666674 167.74,15.92 C167.486665,15.7733326 167.04667,15.5466682 166.42,15.24 C165.633329,14.8266646 165.033335,14.4566683 164.62,14.13 C164.206665,13.8033317 163.910001,13.4666684 163.73,13.12 C163.549999,12.7733316 163.46,12.3600024 163.46,11.88 C163.46,10.813328 163.856663,9.9666698 164.65,9.34 C165.443337,8.7133302 166.519993,8.4 167.88,8.4 C168.440003,8.4 169.029997,8.4633327 169.65,8.59 C170.270003,8.7166673 170.826664,8.8866656 171.32,9.1 C171.32,9.966671 171.260001,10.933328 171.14,12 L170.1,12.16 L168.76,10.72 C168.413332,10.6133328 167.90667,10.56 167.24,10.56 C167.133333,10.56 166.920002,10.5733332 166.6,10.6 C166.56,10.6800004 166.54,10.8066658 166.54,10.98 C166.54,11.1666676 166.593333,11.3299993 166.7,11.47 C166.806667,11.6100007 166.996665,11.7633325 167.27,11.93 C167.543335,12.0966675 167.979997,12.3333318 168.58,12.64 C169.460004,13.0666688 170.123331,13.4366651 170.57,13.75 C171.016669,14.0633349 171.329999,14.3799984 171.51,14.7 C171.690001,15.0200016 171.78,15.4066644 171.78,15.86 C171.78,16.9533388 171.363337,17.8066636 170.53,18.42 C169.696662,19.0333364 168.546674,19.34 167.08,19.34 C166.026661,19.34 164.806674,19.1533352 163.42,18.78 Z M180.76,10.16 L180.32,16.08 L180.32,16.16 C180.32,16.4133346 180.413332,16.5799996 180.6,16.66 L181.84,17.18 L181.64,19 L176.66,19 L176.46,17.22 L177.38,16.66 L178.52,8.94 C178.533333,8.8466662 178.54,8.733334 178.54,8.6 C178.54,8.4399992 178.503334,8.3200004 178.43,8.24 C178.356666,8.1599996 178.220001,8.0600006 178.02,7.94 L177.1,7.42 L177.22,5.52 L182.96,5.52 L185.82,14.84 L188.66,5.52 L194.02,5.52 L194.1,7.62 L192.82,7.94 L193.9,15.78 C193.94,16.046668 193.996666,16.2533326 194.07,16.4 C194.143334,16.5466674 194.313332,16.786665 194.58,17.12 L195,17.66 L194.88,19 L188.92,19 L188.74,17.16 L190.38,16.74 L189.7,10.04 L187.14,19.08 L183.72,19.38 L180.76,10.16 Z M196.86,18.51 C196.313331,18.0099975 196.04,17.3666706 196.04,16.58 C196.04,15.5266614 196.569995,14.700003 197.63,14.1 C198.690005,13.499997 200.233323,13.1600004 202.26,13.08 C202.26,12.4533302 202.210001,11.9900015 202.11,11.69 C202.01,11.3899985 201.830001,11.1833339 201.57,11.07 C201.309999,10.9566661 200.913336,10.9 200.38,10.9 C199.833331,10.9 199.446668,10.9199998 199.22,10.96 L198.4,12.58 L196.92,12.48 C196.693332,11.413328 196.533334,10.3066724 196.44,9.16 C197.18667,8.9066654 198.003329,8.7066674 198.89,8.56 C199.776671,8.4133326 200.606663,8.34 201.38,8.34 C202.79334,8.34 203.806664,8.6166639 204.42,9.17 C205.033336,9.7233361 205.34,10.6399936 205.34,11.92 L205.34,16.1 C205.34,16.3400012 205.363333,16.5066662 205.41,16.6 C205.456667,16.6933338 205.559999,16.7866662 205.72,16.88 L206.52,17.34 L206.44,18.58 C204.893326,18.9400018 203.673338,19.1399998 202.78,19.18 C202.753333,19.0999996 202.713334,18.9566677 202.66,18.75 C202.606666,18.5433323 202.56,18.3466676 202.52,18.16 C201.999997,18.493335 201.430003,18.759999 200.81,18.96 C200.189997,19.160001 199.600003,19.26 199.04,19.26 C198.133329,19.26 197.406669,19.0100025 196.86,18.51 Z M202.32,16.46 L202.24,14.94 C201.919998,14.9133332 201.706667,14.9 201.6,14.9 C201.239998,14.9 200.820002,14.9366663 200.34,15.01 C199.859998,15.0833337 199.480001,15.1666662 199.2,15.26 C199.16,15.4333342 199.14,15.5933326 199.14,15.74 C199.14,16.140002 199.249999,16.4499989 199.47,16.67 C199.690001,16.8900011 199.993331,17 200.38,17 C200.913336,17 201.559996,16.8200018 202.32,16.46 Z M206.82,21.4 L208.06,21.06 L208.06,11.88 C208.06,11.5866652 208.04,11.3966671 208,11.31 C207.96,11.2233329 207.846668,11.1266672 207.66,11.02 L206.76,10.54 L206.86,9.04 L207.06,9 C207.126667,8.9866666 207.2,8.9733334 207.28,8.96 C207.90667,8.8399994 208.569997,8.7233339 209.27,8.61 C209.970004,8.4966661 210.546664,8.4266668 211,8.4 C211.120001,8.6800014 211.2,8.9999982 211.24,9.36 C211.653335,9.026665 212.096664,8.7733342 212.57,8.6 C213.043336,8.4266658 213.513331,8.34 213.98,8.34 C215.31334,8.34 216.336663,8.8099953 217.05,9.75 C217.763337,10.6900047 218.12,12.026658 218.12,13.76 C218.12,15.560009 217.626672,16.9366619 216.64,17.89 C215.653328,18.8433381 214.226676,19.32 212.36,19.32 C212.159999,19.32 211.846669,19.3066668 211.42,19.28 L211.42,20.38 C211.42,20.6733348 211.44,20.8666662 211.48,20.96 C211.52,21.0533338 211.633332,21.1466662 211.82,21.24 L213,21.9 L212.92,23.3 L206.92,23.3 L206.82,21.4 Z M214.4,16.58 C214.506667,16.246665 214.596666,15.8433357 214.67,15.37 C214.743334,14.8966643 214.78,14.4533354 214.78,14.04 C214.78,13.0133282 214.603335,12.2200028 214.25,11.66 C213.896665,11.0999972 213.40667,10.82 212.78,10.82 C212.393331,10.82 211.940003,10.9333322 211.42,11.16 L211.42,16.6 C211.806669,16.7600008 212.29333,16.84 212.88,16.84 C213.50667,16.84 214.013331,16.7533342 214.4,16.58 Z M218.92,21.4 L220.16,21.06 L220.16,11.88 C220.16,11.5866652 220.14,11.3966671 220.1,11.31 C220.06,11.2233329 219.946668,11.1266672 219.76,11.02 L218.86,10.54 L218.96,9.04 L219.16,9 C219.226667,8.9866666 219.3,8.9733334 219.38,8.96 C220.00667,8.8399994 220.669996,8.7233339 221.37,8.61 C222.070003,8.4966661 222.646664,8.4266668 223.1,8.4 C223.220001,8.6800014 223.3,8.9999982 223.34,9.36 C223.753335,9.026665 224.196664,8.7733342 224.67,8.6 C225.143336,8.4266658 225.613331,8.34 226.08,8.34 C227.41334,8.34 228.436663,8.8099953 229.15,9.75 C229.863337,10.6900047 230.22,12.026658 230.22,13.76 C230.22,15.560009 229.726672,16.9366619 228.74,17.89 C227.753328,18.8433381 226.326676,19.32 224.46,19.32 C224.259999,19.32 223.946669,19.3066668 223.52,19.28 L223.52,20.38 C223.52,20.6733348 223.54,20.8666662 223.58,20.96 C223.62,21.0533338 223.733332,21.1466662 223.92,21.24 L225.1,21.9 L225.02,23.3 L219.02,23.3 L218.92,21.4 Z M226.5,16.58 C226.606667,16.246665 226.696666,15.8433357 226.77,15.37 C226.843334,14.8966643 226.88,14.4533354 226.88,14.04 C226.88,13.0133282 226.703335,12.2200028 226.35,11.66 C225.996665,11.0999972 225.50667,10.82 224.88,10.82 C224.493331,10.82 224.040003,10.9333322 223.52,11.16 L223.52,16.6 C223.906669,16.7600008 224.39333,16.84 224.98,16.84 C225.60667,16.84 226.113331,16.7533342 226.5,16.58 Z M232.93,17.82 C232.083329,16.8733286 231.66,15.566675 231.66,13.9 C231.66,12.7399942 231.866665,11.7433375 232.28,10.91 C232.693335,10.0766625 233.279996,9.4400022 234.04,9 C234.800004,8.5599978 235.686662,8.34 236.7,8.34 C238.206674,8.34 239.363329,8.8199952 240.17,9.78 C240.976671,10.7400048 241.36,12.1066578 241.32,13.88 L235.24,15 C235.426668,15.5600028 235.689998,15.9699987 236.03,16.23 C236.370002,16.4900013 236.819997,16.62 237.38,16.62 C237.766669,16.62 238.226664,16.5633339 238.76,16.45 C239.293336,16.3366661 239.833331,16.180001 240.38,15.98 L240.84,17.96 C240.346664,18.3333352 239.706671,18.6399988 238.92,18.88 C238.133329,19.1200012 237.340004,19.24 236.54,19.24 C234.979992,19.24 233.776671,18.7666714 232.93,17.82 Z M238.04,12.2 C238.013333,11.6933308 237.870001,11.3233345 237.61,11.09 C237.349999,10.8566655 236.986669,10.74 236.52,10.74 C236.133331,10.74 235.766668,10.7933328 235.42,10.9 C235.139999,11.5533366 235.013333,12.2599962 235.04,13.02 L238.04,12.2 Z M243.72,17.82 C242.999996,16.8599952 242.64,15.5733414 242.64,13.96 C242.64,12.1066574 243.129995,10.7066714 244.11,9.76 C245.090005,8.8133286 246.486658,8.34 248.3,8.34 C248.406667,8.34 248.75333,8.3533332 249.34,8.38 L249.34,7.18 C249.34,6.8866652 249.32,6.6933338 249.28,6.6 C249.24,6.5066662 249.126668,6.4066672 248.94,6.3 L248.04,5.84 L248.14,4.32 C249.420006,4.0933322 250.366664,3.9366671 250.98,3.85 C251.593336,3.7633329 252.079998,3.7133334 252.44,3.7 C252.560001,4.0066682 252.646666,4.3533314 252.7,4.74 L252.7,16.12 C252.7,16.3600012 252.723333,16.5266662 252.77,16.62 C252.816667,16.7133338 252.926666,16.8066662 253.1,16.9 L253.86,17.36 L253.78,18.6 C252.473327,18.933335 251.19334,19.133333 249.94,19.2 C249.846666,18.9466654 249.753334,18.6400018 249.66,18.28 C248.753329,18.9333366 247.773339,19.26 246.72,19.26 C245.439994,19.26 244.440004,18.7800048 243.72,17.82 Z M249.36,16.26 L249.36,11.08 C248.959998,10.9066658 248.44667,10.82 247.82,10.82 C247.313331,10.82 246.826669,10.886666 246.36,11.02 C246.253333,11.2733346 246.17,11.6199978 246.11,12.06 C246.05,12.5000022 246.02,12.986664 246.02,13.52 C246.02,14.6133388 246.169999,15.4166641 246.47,15.93 C246.770002,16.4433359 247.239997,16.7 247.88,16.7 C248.320002,16.7 248.813331,16.5533348 249.36,16.26 Z" id="Jewish-Cultures-Mapp-Copy" fill="#FFFFFF"></path>
            </g>
        </g>
    </g>
</svg>