<?xml version="1.0" encoding="UTF-8" standalone="no"?>
<svg width="329px" height="38px" viewBox="0 0 329 38" version="1.1" xmlns="http://www.w3.org/2000/svg" xmlns:xlink="http://www.w3.org/1999/xlink">
    <!-- Generator: Sketch 3.8.3 (29802) - http://www.bohemiancoding.com/sketch -->
    <title>jewish_cultures_on_the_map</title>
    <desc>Created with Sketch.</desc>
    <defs>
        <path d="M6.08029805,17 C5.00890867,19.9458415 2.25752032,22.8058087 2.25752032,22.8058087 C-0.085760447,25.3667421 -0.0859197626,29.5181271 2.25752032,32.0792346 C4.60080108,34.6401681 8.39936161,34.6403422 10.7428017,32.0792346 C13.0860825,29.5183012 13.0862418,25.3669162 10.7428017,22.8058087 C10.7428017,22.8058087 7.99120453,19.9458415 6.919902,17 C7.99120453,14.0541585 10.7428017,11.1941913 10.7428017,11.1941913 C13.0862418,8.63308378 13.0860825,4.48169878 10.7428017,1.92076536 C8.39936161,-0.640342176 4.60080108,-0.640168062 2.25752032,1.92076536 C-0.0859197626,4.48187289 -0.085760447,8.6332579 2.25752032,11.1941913 C2.25752032,11.1941913 5.00890867,14.0541585 6.08029805,17 Z" id="path-1"></path>
        <mask id="mask-2" maskContentUnits="userSpaceOnUse" maskUnits="objectBoundingBox" x="-2" y="-2" width="16.000322" height="38">
            <rect x="-1.5" y="-2" width="16.000322" height="38" fill="white"></rect>
            <use xlink:href="#path-1" fill="black"></use>
        </mask>
        <mask id="mask-4" maskContentUnits="userSpaceOnUse" maskUnits="objectBoundingBox" x="-2" y="-2" width="16.000322" height="38">
            <rect x="-1.5" y="-2" width="16.000322" height="38" fill="white"></rect>
            <use xlink:href="#path-1" fill="black"></use>
        </mask>
    </defs>
    <g id="Symbols" stroke="none" stroke-width="1" fill="none" fill-rule="evenodd">
        <g id="jewish_cultures_on_the_map">
            <g id="Group-Copy-2">
                <path d="M8.08029805,19 C7.00890867,21.9458415 4.25752032,24.8058087 4.25752032,24.8058087 C1.91423955,27.3667421 1.91408024,31.5181271 4.25752032,34.0792346 C6.60080108,36.6401681 10.3993616,36.6403422 12.7428017,34.0792346 C15.0860825,31.5183012 15.0862418,27.3669162 12.7428017,24.8058087 C12.7428017,24.8058087 9.99120453,21.9458415 8.919902,19 C9.99120453,16.0541585 12.7428017,13.1941913 12.7428017,13.1941913 C15.0862418,10.6330838 15.0860825,6.48169878 12.7428017,3.92076536 C10.3993616,1.35965782 6.60080108,1.35983194 4.25752032,3.92076536 C1.91408024,6.48187289 1.91423955,10.6332579 4.25752032,13.1941913 C4.25752032,13.1941913 7.00890867,16.0541585 8.08029805,19 Z M14.1271722,36 C15.2245661,34.8571428 16.2697133,33.16673 16.50647,30.7725441 C17.1289312,24.4779489 10.8931882,23.5501779 10.0471255,18.9913025 C11.1479266,14.6672389 17.1216364,13.5939253 16.5487859,7.41135141 C16.314548,4.88330351 15.1792344,3.14141543 14.0239463,1.99831005 L16.0000398,1.99831005 C16.5452911,1.99831005 17,1.55097311 17,0.999155024 C17,0.443489767 16.5523026,-9.99200722e-16 16.0000398,-9.99200722e-16 L0.999960201,-9.99200722e-16 C0.454708934,-9.99200722e-16 0,0.447336941 0,0.999155024 C0,1.55482028 0.447697432,1.99831005 0.999960201,1.99831005 L2.97605369,1.99831005 C1.82076559,3.14141543 0.685452014,4.88330351 0.451214069,7.41135141 C-0.121636394,13.5939253 5.85207338,14.6672389 6.9528745,18.9913025 C6.10681176,23.5501779 -0.128931228,24.4779489 0.493529977,30.7725441 C0.730286721,33.16673 1.77543392,34.8571428 2.87282783,36 L0.999960201,36 C0.447697432,36 0,36.4434898 0,36.999155 C0,37.5509731 0.454708934,37.99831 0.999960201,37.99831 L5.69293237,37.99831 C5.73527435,38.016211 5.75792402,38.024856 5.75792402,38.024856 L8.2943519,38.0297252 L8.5,38.03012 L8.70564898,38.0305147 L11.242076,38.024856 C11.242076,38.024856 11.2647256,38.016211 11.3070676,37.99831 L16.0000398,37.99831 C16.5523026,37.99831 17,37.5548203 17,36.999155 C17,36.4473369 16.5452911,36 16.0000398,36 L14.1271722,36 Z" id="Combined-Shape" fill="#222222"></path>
                <g id="Group" transform="translate(2.000000, 2.000000)">
                    <mask id="mask-3" fill="white">
                        <use xlink:href="#path-1"></use>
                    </mask>
                    <g id="Combined-Shape" stroke="#222222" mask="url(#mask-2)" stroke-width="4">
                        <use mask="url(#mask-4)" xlink:href="#path-1"></use>
                    </g>
                    <rect id="Rectangle-197" fill="#2DC6E0" mask="url(#mask-3)" x="-1" y="7" width="15" height="10"></rect>
                    <rect id="Rectangle-197-Copy" fill="#2DC6E0" mask="url(#mask-3)" x="-1" y="27" width="15" height="10"></rect>
                </g>
                <g id="Group-2" transform="translate(6.500000, 7.250000)" fill="#222222">
                    <ellipse id="Oval-73-Copy" cx="2" cy="22" rx="2" ry="2"></ellipse>
                    <ellipse id="Oval-73" cx="2" cy="2" rx="2" ry="2"></ellipse>
                </g>
            </g>
            <g id="Group-3-Copy" transform="translate(21.000000, 4.000000)">
                <path d="M1.74,17.38 C1.3533314,17.0999986 0.9066692,16.6866694 0.4,16.14 L2.02,14.18 L2.02,5.9 C2.02,5.5533316 1.9933336,5.3233339 1.94,5.21 C1.8866664,5.0966661 1.7466678,4.9933338 1.52,4.9 L0.5,4.3 L0.58,2.52 L7,2.52 L7.1,4.56 L5.64,4.96 L5.64,11.36 C5.64,12.7733404 5.5266678,13.9299955 5.3,14.83 C5.0733322,15.7300045 4.6666696,16.6333288 4.08,17.54 L3.46,18.42 C2.6999962,18.0066646 2.1266686,17.6600014 1.74,17.38 L1.74,17.38 Z M8.73,14.82 C7.8833291,13.8733286 7.46,12.566675 7.46,10.9 C7.46,9.7399942 7.6666646,8.7433375 8.08,7.91 C8.4933354,7.0766625 9.0799962,6.4400022 9.84,6 C10.6000038,5.5599978 11.4866616,5.34 12.5,5.34 C14.0066742,5.34 15.1633293,5.8199952 15.97,6.78 C16.7766707,7.7400048 17.1600002,9.1066578 17.12,10.88 L11.04,12 C11.2266676,12.5600028 11.4899983,12.9699987 11.83,13.23 C12.1700017,13.4900013 12.6199972,13.62 13.18,13.62 C13.5666686,13.62 14.026664,13.5633339 14.56,13.45 C15.093336,13.3366661 15.6333306,13.180001 16.18,12.98 L16.64,14.96 C16.1466642,15.3333352 15.5066706,15.6399988 14.72,15.88 C13.9333294,16.1200012 13.140004,16.24 12.34,16.24 C10.7799922,16.24 9.5766709,15.7666714 8.73,14.82 L8.73,14.82 Z M13.84,9.2 C13.8133332,8.6933308 13.6700013,8.3233345 13.41,8.09 C13.1499987,7.8566655 12.786669,7.74 12.32,7.74 C11.9333314,7.74 11.5666684,7.7933328 11.22,7.9 C10.9399986,8.5533366 10.8133332,9.2599962 10.84,10.02 L13.84,9.2 Z M18.62,8.28 C18.4733326,7.9199982 18.3733336,7.6866672 18.32,7.58 C18.2666664,7.4733328 18.1666674,7.3266676 18.02,7.14 L17.68,6.7 L17.78,5.54 L22.84,5.54 L23.04,7.24 L21.94,7.5 L23.3,12.36 L25.28,5.7 L27.34,5.42 L29.62,12.54 L30.9,7.94 C30.9266668,7.8599996 30.94,7.8000002 30.94,7.76 C30.94,7.6399994 30.8800006,7.5600002 30.76,7.52 L29.8,7.12 L30,5.54 L33.8,5.54 L34,7.1 L30.56,16.1 L27.68,16.32 L26.02,10.76 L24.2,16.1 L21.32,16.32 L18.62,8.28 Z M35.8,1.2 L39.2,0.3 L40.02,3.34 L36.64,4.26 L35.8,1.2 Z M34.96,14.16 L36.36,13.74 L36.36,8.88 C36.36,8.5866652 36.3366669,8.3966671 36.29,8.31 C36.2433331,8.2233329 36.1266676,8.1266672 35.94,8.02 L35.06,7.54 L35.16,6.04 C36.2666722,5.8266656 37.1233303,5.6700005 37.73,5.57 C38.3366697,5.4699995 38.8933308,5.4133334 39.4,5.4 C39.5733342,5.9733362 39.6799998,6.3999986 39.72,6.68 L39.72,13.08 C39.72,13.3600014 39.7399998,13.5466662 39.78,13.64 C39.8200002,13.7333338 39.9333324,13.8333328 40.12,13.94 L41.1,14.5 L41.02,16 L35.02,16 L34.96,14.16 Z M41.96,15.78 C42.0400004,14.4733268 42.1266662,13.5066698 42.22,12.88 L43.36,12.66 L44.62,14 C45.0600022,14.133334 45.5533306,14.2 46.1,14.2 C46.4066682,14.2 46.6466658,14.1800002 46.82,14.14 C46.8600002,14.0333328 46.88,13.8866676 46.88,13.7 C46.88,13.5399992 46.8433337,13.4066672 46.77,13.3 C46.6966663,13.1933328 46.5333346,13.0666674 46.28,12.92 C46.0266654,12.7733326 45.5866698,12.5466682 44.96,12.24 C44.1733294,11.8266646 43.5733354,11.4566683 43.16,11.13 C42.7466646,10.8033317 42.4500009,10.4666684 42.27,10.12 C42.0899991,9.7733316 42,9.3600024 42,8.88 C42,7.813328 42.3966627,6.9666698 43.19,6.34 C43.9833373,5.7133302 45.0599932,5.4 46.42,5.4 C46.9800028,5.4 47.5699969,5.4633327 48.19,5.59 C48.8100031,5.7166673 49.3666642,5.8866656 49.86,6.1 C49.86,6.966671 49.8000006,7.933328 49.68,9 L48.64,9.16 L47.3,7.72 C46.9533316,7.6133328 46.44667,7.56 45.78,7.56 C45.6733328,7.56 45.4600016,7.5733332 45.14,7.6 C45.0999998,7.6800004 45.08,7.8066658 45.08,7.98 C45.08,8.1666676 45.1333328,8.3299993 45.24,8.47 C45.3466672,8.6100007 45.5366653,8.7633325 45.81,8.93 C46.0833347,9.0966675 46.519997,9.3333318 47.12,9.64 C48.0000044,10.0666688 48.6633311,10.4366651 49.11,10.75 C49.5566689,11.0633349 49.8699991,11.3799984 50.05,11.7 C50.2300009,12.0200016 50.32,12.4066644 50.32,12.86 C50.32,13.9533388 49.9033375,14.8066636 49.07,15.42 C48.2366625,16.0333364 47.086674,16.34 45.62,16.34 C44.5666614,16.34 43.3466736,16.1533352 41.96,15.78 L41.96,15.78 Z M50.94,14.1 L52.18,13.74 L52.18,4.16 C52.18,3.8666652 52.1600002,3.6766671 52.12,3.59 C52.0799998,3.5033329 51.9733342,3.4066672 51.8,3.3 L50.92,2.84 L50.98,1.32 L51.6,1.22 C53.3600088,0.8999984 54.5933298,0.7266668 55.3,0.7 C55.4200006,1.0200016 55.5066664,1.3666648 55.56,1.74 L55.56,6.3 C56.293337,5.966665 56.9166641,5.7233341 57.43,5.57 C57.9433359,5.4166659 58.4533308,5.34 58.96,5.34 C61.0400104,5.34 62.08,6.606654 62.08,9.14 L62.08,13.08 C62.08,13.3600014 62.0999998,13.5466662 62.14,13.64 C62.1800002,13.7333338 62.2933324,13.8333328 62.48,13.94 L63.44,14.5 L63.36,16 L57.84,16 L57.74,14.1 L58.72,13.82 L58.72,10.02 C58.72,9.4333304 58.7033335,9.0166679 58.67,8.77 C58.6366665,8.5233321 58.5266676,8.333334 58.34,8.2 C58.1533324,8.066666 57.8400022,8 57.4,8 C56.9733312,8 56.360004,8.0733326 55.56,8.22 L55.56,13.08 C55.56,13.3600014 55.5799998,13.5466662 55.62,13.64 C55.6600002,13.7333338 55.7666658,13.8333328 55.94,13.94 L56.92,14.5 L56.84,16 L51.04,16 L50.94,14.1 Z M69.4,14.44 C68.3066612,13.1999938 67.76,11.446678 67.76,9.18 C67.76,7.7399928 68.0233307,6.4966719 68.55,5.45 C69.0766693,4.4033281 69.839995,3.6033361 70.84,3.05 C71.840005,2.4966639 73.0266598,2.22 74.4,2.22 C75.9600078,2.22 77.5666584,2.5733298 79.22,3.28 C79.0999994,4.480006 78.906668,5.8066594 78.64,7.26 L77.12,7.36 L75.74,5.34 C75.1533304,5.1666658 74.5066702,5.08 73.8,5.08 C73.266664,5.08 72.7600024,5.1266662 72.28,5.22 C72.0666656,5.6333354 71.893334,6.1799966 71.76,6.86 C71.626666,7.5400034 71.56,8.2266632 71.56,8.92 C71.56,10.4000074 71.8299973,11.4966631 72.37,12.21 C72.9100027,12.9233369 73.7666608,13.2933332 74.94,13.32 C75.406669,13.32 75.9966631,13.2500007 76.71,13.11 C77.4233369,12.9699993 78.1199966,12.7866678 78.8,12.56 L79.42,14.76 C78.7266632,15.2133356 77.8900049,15.5833319 76.91,15.87 C75.9299951,16.1566681 74.9866712,16.3 74.08,16.3 C72.0533232,16.3 70.4933388,15.6800062 69.4,14.44 L69.4,14.44 Z M82.16,15.33 C81.6399974,14.6966635 81.38,13.7400064 81.38,12.46 L81.38,8.88 C81.38,8.5866652 81.3566669,8.3966671 81.31,8.31 C81.2633331,8.2233329 81.1466676,8.1266672 80.96,8.02 L80.06,7.54 L80.16,6.04 C80.3466676,6.0133332 80.4799996,5.9866668 80.56,5.96 C80.7066674,5.9333332 81.2299955,5.8400008 82.13,5.68 C83.0300045,5.5199992 83.779997,5.4266668 84.38,5.4 C84.5266674,5.733335 84.6399996,6.1199978 84.72,6.56 L84.72,11.6 C84.72,12.1866696 84.7366665,12.5999988 84.77,12.84 C84.8033335,13.0800012 84.9099991,13.2633327 85.09,13.39 C85.2700009,13.5166673 85.5799978,13.58 86.02,13.58 C86.6600032,13.58 87.279997,13.4666678 87.88,13.24 L87.88,8.88 C87.88,8.5866652 87.8600002,8.3966671 87.82,8.31 C87.7799998,8.2233329 87.6733342,8.1266672 87.5,8.02 L86.62,7.54 L86.7,6.04 C87.7800054,5.839999 88.6233303,5.6866672 89.23,5.58 C89.8366697,5.4733328 90.3933308,5.4133334 90.9,5.4 C91.0466674,5.733335 91.1599996,6.1199978 91.24,6.56 L91.24,13.12 C91.24,13.3600012 91.2599998,13.5266662 91.3,13.62 C91.3400002,13.7133338 91.4333326,13.8066662 91.58,13.9 L92.38,14.36 L92.32,15.6 C91.7466638,15.7466674 91.0866704,15.8766661 90.34,15.99 C89.5933296,16.1033339 88.9000032,16.1733332 88.26,16.2 C88.2066664,16.0399992 88.146667,15.8400012 88.08,15.6 C88.0666666,15.4933328 88.0333336,15.3666674 87.98,15.22 L87.92,15.22 C87.3733306,15.5400016 86.7966697,15.7966657 86.19,15.99 C85.5833303,16.1833343 85.0333358,16.28 84.54,16.28 C83.473328,16.28 82.6800026,15.9633365 82.16,15.33 L82.16,15.33 Z M92.96,14.16 L94.36,13.74 L94.36,4.16 C94.36,3.8666652 94.3366669,3.6766671 94.29,3.59 C94.2433331,3.5033329 94.1266676,3.4066672 93.94,3.3 L93.06,2.84 L93.16,1.32 C93.426668,1.2666664 93.6333326,1.2333334 93.78,1.22 C95.5400088,0.8999984 96.7666632,0.7266668 97.46,0.7 C97.593334,1.0066682 97.6799998,1.3533314 97.72,1.74 L97.72,13.08 C97.72,13.3600014 97.7399998,13.5466662 97.78,13.64 C97.8200002,13.7333338 97.9333324,13.8333328 98.12,13.94 L99.1,14.5 L99.02,16 L93.02,16 L92.96,14.16 Z M101.44,15.39 C100.879997,14.8099971 100.6,13.9266726 100.6,12.74 L100.6,7.88 L99.2,7.88 L99.2,6.42 L102.8,3.14 L103.96,3.28 L103.96,5.54 L107.32,5.54 L107.32,7.9 L103.96,7.9 L103.96,12.02 C103.96,12.6600032 104.049999,13.0866656 104.23,13.3 C104.410001,13.5133344 104.759997,13.62 105.28,13.62 C105.720002,13.62 106.333329,13.5600006 107.12,13.44 L107.36,15.48 C106.879998,15.7066678 106.343336,15.8933326 105.75,16.04 C105.156664,16.1866674 104.586669,16.26 104.04,16.26 C102.866661,16.26 102.000003,15.9700029 101.44,15.39 L101.44,15.39 Z M110.26,15.33 C109.739997,14.6966635 109.48,13.7400064 109.48,12.46 L109.48,8.88 C109.48,8.5866652 109.456667,8.3966671 109.41,8.31 C109.363333,8.2233329 109.246668,8.1266672 109.06,8.02 L108.16,7.54 L108.26,6.04 C108.446668,6.0133332 108.58,5.9866668 108.66,5.96 C108.806667,5.9333332 109.329995,5.8400008 110.23,5.68 C111.130004,5.5199992 111.879997,5.4266668 112.48,5.4 C112.626667,5.733335 112.74,6.1199978 112.82,6.56 L112.82,11.6 C112.82,12.1866696 112.836666,12.5999988 112.87,12.84 C112.903333,13.0800012 113.009999,13.2633327 113.19,13.39 C113.370001,13.5166673 113.679998,13.58 114.12,13.58 C114.760003,13.58 115.379997,13.4666678 115.98,13.24 L115.98,8.88 C115.98,8.5866652 115.96,8.3966671 115.92,8.31 C115.88,8.2233329 115.773334,8.1266672 115.6,8.02 L114.72,7.54 L114.8,6.04 C115.880005,5.839999 116.72333,5.6866672 117.33,5.58 C117.93667,5.4733328 118.493331,5.4133334 119,5.4 C119.146667,5.733335 119.26,6.1199978 119.34,6.56 L119.34,13.12 C119.34,13.3600012 119.36,13.5266662 119.4,13.62 C119.44,13.7133338 119.533333,13.8066662 119.68,13.9 L120.48,14.36 L120.42,15.6 C119.846664,15.7466674 119.18667,15.8766661 118.44,15.99 C117.69333,16.1033339 117.000003,16.1733332 116.36,16.2 C116.306666,16.0399992 116.246667,15.8400012 116.18,15.6 C116.166667,15.4933328 116.133334,15.3666674 116.08,15.22 L116.02,15.22 C115.473331,15.5400016 114.89667,15.7966657 114.29,15.99 C113.68333,16.1833343 113.133336,16.28 112.64,16.28 C111.573328,16.28 110.780003,15.9633365 110.26,15.33 L110.26,15.33 Z M121.3,14.1 L122.52,13.74 L122.52,8.88 C122.52,8.5866652 122.5,8.3966671 122.46,8.31 C122.42,8.2233329 122.313334,8.1266672 122.14,8.02 L121.26,7.54 L121.32,6.04 C121.546668,5.9866664 121.739999,5.9533334 121.9,5.94 C123.513341,5.606665 124.706663,5.4266668 125.48,5.4 C125.600001,5.7466684 125.713333,6.1799974 125.82,6.7 C126.620004,6.0733302 127.299997,5.6400012 127.86,5.4 L129,5.4 C128.986667,5.9066692 128.953334,6.4566637 128.9,7.05 C128.846666,7.6433363 128.78,8.1199982 128.7,8.48 C128.219998,8.4533332 127.866668,8.44 127.64,8.44 C127.079997,8.44 126.500003,8.473333 125.9,8.54 L125.9,13.08 C125.9,13.3600014 125.92,13.5466662 125.96,13.64 C126,13.7333338 126.106666,13.8333328 126.28,13.94 L127.48,14.58 L127.4,16 L121.4,16 L121.3,14.1 Z M130.85,14.82 C130.003329,13.8733286 129.58,12.566675 129.58,10.9 C129.58,9.7399942 129.786665,8.7433375 130.2,7.91 C130.613335,7.0766625 131.199996,6.4400022 131.96,6 C132.720004,5.5599978 133.606662,5.34 134.62,5.34 C136.126674,5.34 137.283329,5.8199952 138.09,6.78 C138.896671,7.7400048 139.28,9.1066578 139.24,10.88 L133.16,12 C133.346668,12.5600028 133.609998,12.9699987 133.95,13.23 C134.290002,13.4900013 134.739997,13.62 135.3,13.62 C135.686669,13.62 136.146664,13.5633339 136.68,13.45 C137.213336,13.3366661 137.753331,13.180001 138.3,12.98 L138.76,14.96 C138.266664,15.3333352 137.626671,15.6399988 136.84,15.88 C136.053329,16.1200012 135.260004,16.24 134.46,16.24 C132.899992,16.24 131.696671,15.7666714 130.85,14.82 L130.85,14.82 Z M135.96,9.2 C135.933333,8.6933308 135.790001,8.3233345 135.53,8.09 C135.269999,7.8566655 134.906669,7.74 134.44,7.74 C134.053331,7.74 133.686668,7.7933328 133.34,7.9 C133.059999,8.5533366 132.933333,9.2599962 132.96,10.02 L135.96,9.2 Z M140.42,15.78 C140.5,14.4733268 140.586666,13.5066698 140.68,12.88 L141.82,12.66 L143.08,14 C143.520002,14.133334 144.013331,14.2 144.56,14.2 C144.866668,14.2 145.106666,14.1800002 145.28,14.14 C145.32,14.0333328 145.34,13.8866676 145.34,13.7 C145.34,13.5399992 145.303334,13.4066672 145.23,13.3 C145.156666,13.1933328 144.993335,13.0666674 144.74,12.92 C144.486665,12.7733326 144.04667,12.5466682 143.42,12.24 C142.633329,11.8266646 142.033335,11.4566683 141.62,11.13 C141.206665,10.8033317 140.910001,10.4666684 140.73,10.12 C140.549999,9.7733316 140.46,9.3600024 140.46,8.88 C140.46,7.813328 140.856663,6.9666698 141.65,6.34 C142.443337,5.7133302 143.519993,5.4 144.88,5.4 C145.440003,5.4 146.029997,5.4633327 146.65,5.59 C147.270003,5.7166673 147.826664,5.8866656 148.32,6.1 C148.32,6.966671 148.260001,7.933328 148.14,9 L147.1,9.16 L145.76,7.72 C145.413332,7.6133328 144.90667,7.56 144.24,7.56 C144.133333,7.56 143.920002,7.5733332 143.6,7.6 C143.56,7.6800004 143.54,7.8066658 143.54,7.98 C143.54,8.1666676 143.593333,8.3299993 143.7,8.47 C143.806667,8.6100007 143.996665,8.7633325 144.27,8.93 C144.543335,9.0966675 144.979997,9.3333318 145.58,9.64 C146.460004,10.0666688 147.123331,10.4366651 147.57,10.75 C148.016669,11.0633349 148.329999,11.3799984 148.51,11.7 C148.690001,12.0200016 148.78,12.4066644 148.78,12.86 C148.78,13.9533388 148.363337,14.8066636 147.53,15.42 C146.696662,16.0333364 145.546674,16.34 144.08,16.34 C143.026661,16.34 141.806674,16.1533352 140.42,15.78 L140.42,15.78 Z M154.75,14.96 C153.916662,14.093329 153.5,12.7666756 153.5,10.98 C153.5,9.8333276 153.709998,8.8333376 154.13,7.98 C154.550002,7.1266624 155.153329,6.4733356 155.94,6.02 C156.726671,5.5666644 157.653328,5.34 158.72,5.34 C162.173351,5.34 163.9,7.1266488 163.9,10.7 C163.9,12.4466754 163.430005,13.8099951 162.49,14.79 C161.549995,15.7700049 160.233342,16.26 158.54,16.26 C156.846658,16.26 155.583337,15.826671 154.75,14.96 L154.75,14.96 Z M159.56,13.85 C159.760001,13.8033331 159.973332,13.7266672 160.2,13.62 C160.28,13.3133318 160.346666,12.9200024 160.4,12.44 C160.453334,11.9599976 160.48,11.5000022 160.48,11.06 C160.48,9.9799946 160.310002,9.1600028 159.97,8.6 C159.629998,8.0399972 159.12667,7.76 158.46,7.76 C158.019998,7.76 157.573336,7.8199994 157.12,7.94 C157.026666,8.140001 156.953334,8.4633311 156.9,8.91 C156.846666,9.3566689 156.82,9.8666638 156.82,10.44 C156.82,11.5600056 156.996665,12.419997 157.35,13.02 C157.703335,13.620003 158.206663,13.92 158.86,13.92 C159.126668,13.92 159.359999,13.8966669 159.56,13.85 L159.56,13.85 Z M164.88,14.08 L166.12,13.72 L166.12,8.88 C166.12,8.5866652 166.1,8.3966671 166.06,8.31 C166.02,8.2233329 165.913334,8.1266672 165.74,8.02 L164.86,7.54 L164.92,6.04 L165.36,5.96 C167.106675,5.6133316 168.366663,5.4266668 169.14,5.4 C169.246667,5.6800014 169.333333,5.986665 169.4,6.32 C170.213337,5.9466648 170.876664,5.6900007 171.39,5.55 C171.903336,5.4099993 172.386664,5.34 172.84,5.34 C174.960011,5.34 176.02,6.606654 176.02,9.14 L176.02,13.06 C176.02,13.3400014 176.04,13.5266662 176.08,13.62 C176.12,13.7133338 176.233332,13.8133328 176.42,13.92 L177.38,14.48 L177.3,15.98 L171.78,15.98 L171.68,14.08 L172.66,13.8 L172.66,10.02 C172.66,9.419997 172.64,9.0000012 172.6,8.76 C172.56,8.5199988 172.450001,8.333334 172.27,8.2 C172.089999,8.066666 171.773336,8 171.32,8 C170.839998,8 170.233337,8.0733326 169.5,8.22 L169.5,13.06 C169.5,13.3400014 169.52,13.5266662 169.56,13.62 C169.6,13.7133338 169.706666,13.8133328 169.88,13.92 L170.86,14.48 L170.78,15.98 L164.98,15.98 L164.88,14.08 Z M183.52,15.39 C182.959997,14.8099971 182.68,13.9266726 182.68,12.74 L182.68,7.88 L181.28,7.88 L181.28,6.42 L184.88,3.14 L186.04,3.28 L186.04,5.54 L189.4,5.54 L189.4,7.9 L186.04,7.9 L186.04,12.02 C186.04,12.6600032 186.129999,13.0866656 186.31,13.3 C186.490001,13.5133344 186.839997,13.62 187.36,13.62 C187.800002,13.62 188.413329,13.5600006 189.2,13.44 L189.44,15.48 C188.959998,15.7066678 188.423336,15.8933326 187.83,16.04 C187.236664,16.1866674 186.666669,16.26 186.12,16.26 C184.946661,16.26 184.080003,15.9700029 183.52,15.39 L183.52,15.39 Z M190.28,14.1 L191.52,13.74 L191.52,4.16 C191.52,3.8666652 191.5,3.6766671 191.46,3.59 C191.42,3.5033329 191.313334,3.4066672 191.14,3.3 L190.26,2.84 L190.32,1.32 L190.94,1.22 C192.700009,0.8999984 193.93333,0.7266668 194.64,0.7 C194.760001,1.0200016 194.846666,1.3666648 194.9,1.74 L194.9,6.3 C195.633337,5.966665 196.256664,5.7233341 196.77,5.57 C197.283336,5.4166659 197.793331,5.34 198.3,5.34 C200.38001,5.34 201.42,6.606654 201.42,9.14 L201.42,13.08 C201.42,13.3600014 201.44,13.5466662 201.48,13.64 C201.52,13.7333338 201.633332,13.8333328 201.82,13.94 L202.78,14.5 L202.7,16 L197.18,16 L197.08,14.1 L198.06,13.82 L198.06,10.02 C198.06,9.4333304 198.043333,9.0166679 198.01,8.77 C197.976666,8.5233321 197.866668,8.333334 197.68,8.2 C197.493332,8.066666 197.180002,8 196.74,8 C196.313331,8 195.700004,8.0733326 194.9,8.22 L194.9,13.08 C194.9,13.3600014 194.92,13.5466662 194.96,13.64 C195,13.7333338 195.106666,13.8333328 195.28,13.94 L196.26,14.5 L196.18,16 L190.38,16 L190.28,14.1 Z M204.53,14.82 C203.683329,13.8733286 203.26,12.566675 203.26,10.9 C203.26,9.7399942 203.466665,8.7433375 203.88,7.91 C204.293335,7.0766625 204.879996,6.4400022 205.64,6 C206.400004,5.5599978 207.286662,5.34 208.3,5.34 C209.806674,5.34 210.963329,5.8199952 211.77,6.78 C212.576671,7.7400048 212.96,9.1066578 212.92,10.88 L206.84,12 C207.026668,12.5600028 207.289998,12.9699987 207.63,13.23 C207.970002,13.4900013 208.419997,13.62 208.98,13.62 C209.366669,13.62 209.826664,13.5633339 210.36,13.45 C210.893336,13.3366661 211.433331,13.180001 211.98,12.98 L212.44,14.96 C211.946664,15.3333352 211.306671,15.6399988 210.52,15.88 C209.733329,16.1200012 208.940004,16.24 208.14,16.24 C206.579992,16.24 205.376671,15.7666714 204.53,14.82 L204.53,14.82 Z M209.64,9.2 C209.613333,8.6933308 209.470001,8.3233345 209.21,8.09 C208.949999,7.8566655 208.586669,7.74 208.12,7.74 C207.733331,7.74 207.366668,7.7933328 207.02,7.9 C206.739999,8.5533366 206.613333,9.2599962 206.64,10.02 L209.64,9.2 Z M222.06,7.16 L221.62,13.08 L221.62,13.16 C221.62,13.4133346 221.713332,13.5799996 221.9,13.66 L223.14,14.18 L222.94,16 L217.96,16 L217.76,14.22 L218.68,13.66 L219.82,5.94 C219.833333,5.8466662 219.84,5.733334 219.84,5.6 C219.84,5.4399992 219.803334,5.3200004 219.73,5.24 C219.656666,5.1599996 219.520001,5.0600006 219.32,4.94 L218.4,4.42 L218.52,2.52 L224.26,2.52 L227.12,11.84 L229.96,2.52 L235.32,2.52 L235.4,4.62 L234.12,4.94 L235.2,12.78 C235.24,13.046668 235.296666,13.2533326 235.37,13.4 C235.443334,13.5466674 235.613332,13.786665 235.88,14.12 L236.3,14.66 L236.18,16 L230.22,16 L230.04,14.16 L231.68,13.74 L231,7.04 L228.44,16.08 L225.02,16.38 L222.06,7.16 Z M238.16,15.51 C237.613331,15.0099975 237.34,14.3666706 237.34,13.58 C237.34,12.5266614 237.869995,11.700003 238.93,11.1 C239.990005,10.499997 241.533323,10.1600004 243.56,10.08 C243.56,9.4533302 243.51,8.9900015 243.41,8.69 C243.309999,8.3899985 243.130001,8.1833339 242.87,8.07 C242.609999,7.9566661 242.213336,7.9 241.68,7.9 C241.133331,7.9 240.746668,7.9199998 240.52,7.96 L239.7,9.58 L238.22,9.48 C237.993332,8.413328 237.833334,7.3066724 237.74,6.16 C238.48667,5.9066654 239.303329,5.7066674 240.19,5.56 C241.076671,5.4133326 241.906663,5.34 242.68,5.34 C244.09334,5.34 245.106664,5.6166639 245.72,6.17 C246.333336,6.7233361 246.64,7.6399936 246.64,8.92 L246.64,13.1 C246.64,13.3400012 246.663333,13.5066662 246.71,13.6 C246.756667,13.6933338 246.859999,13.7866662 247.02,13.88 L247.82,14.34 L247.74,15.58 C246.193326,15.9400018 244.973338,16.1399998 244.08,16.18 C244.053333,16.0999996 244.013334,15.9566677 243.96,15.75 C243.906666,15.5433323 243.86,15.3466676 243.82,15.16 C243.299997,15.493335 242.730003,15.759999 242.11,15.96 C241.489997,16.160001 240.900003,16.26 240.34,16.26 C239.433329,16.26 238.706669,16.0100025 238.16,15.51 L238.16,15.51 Z M243.62,13.46 L243.54,11.94 C243.219998,11.9133332 243.006667,11.9 242.9,11.9 C242.539998,11.9 242.120002,11.9366663 241.64,12.01 C241.159998,12.0833337 240.780001,12.1666662 240.5,12.26 C240.46,12.4333342 240.44,12.5933326 240.44,12.74 C240.44,13.140002 240.549999,13.4499989 240.77,13.67 C240.990001,13.8900011 241.293331,14 241.68,14 C242.213336,14 242.859996,13.8200018 243.62,13.46 L243.62,13.46 Z M248.12,18.4 L249.36,18.06 L249.36,8.88 C249.36,8.5866652 249.34,8.3966671 249.3,8.31 C249.26,8.2233329 249.146668,8.1266672 248.96,8.02 L248.06,7.54 L248.16,6.04 C248.226667,6.0266666 248.293333,6.0133334 248.36,6 C248.426667,5.9866666 248.5,5.9733334 248.58,5.96 C249.20667,5.8399994 249.869996,5.7233339 250.57,5.61 C251.270003,5.4966661 251.846664,5.4266668 252.3,5.4 C252.420001,5.6800014 252.5,5.9999982 252.54,6.36 C252.953335,6.026665 253.396664,5.7733342 253.87,5.6 C254.343336,5.4266658 254.813331,5.34 255.28,5.34 C256.61334,5.34 257.636663,5.8099953 258.35,6.75 C259.063337,7.6900047 259.42,9.026658 259.42,10.76 C259.42,12.560009 258.926672,13.9366619 257.94,14.89 C256.953328,15.8433381 255.526676,16.32 253.66,16.32 C253.459999,16.32 253.146669,16.3066668 252.72,16.28 L252.72,17.38 C252.72,17.6733348 252.74,17.8666662 252.78,17.96 C252.82,18.0533338 252.933332,18.1466662 253.12,18.24 L254.3,18.9 L254.22,20.3 L248.22,20.3 L248.12,18.4 Z M255.7,13.58 C255.806667,13.246665 255.896666,12.8433357 255.97,12.37 C256.043334,11.8966643 256.08,11.4533354 256.08,11.04 C256.08,10.0133282 255.903335,9.2200028 255.55,8.66 C255.196665,8.0999972 254.70667,7.82 254.08,7.82 C253.693331,7.82 253.240003,7.9333322 252.72,8.16 L252.72,13.6 C253.106669,13.7600008 253.59333,13.84 254.18,13.84 C254.80667,13.84 255.313331,13.7533342 255.7,13.58 L255.7,13.58 Z" id="Jewish-Cultures-on-t" fill="#222222"></path>
                <path d="M0.938,20.64 L3.318,20.01 L3.892,22.138 L1.526,22.782 L0.938,20.64 Z M0.35,29.712 L1.33,29.418 L1.33,26.016 C1.33,25.8106656 1.31366683,25.677667 1.281,25.617 C1.24833317,25.556333 1.16666732,25.488667 1.036,25.414 L0.42,25.078 L0.49,24.028 C1.26467054,23.8786659 1.86433121,23.7690003 2.289,23.699 C2.71366879,23.6289997 3.10333156,23.5893334 3.458,23.58 C3.57933394,23.9813353 3.65399986,24.279999 3.682,24.476 L3.682,28.956 C3.682,29.152001 3.69599986,29.2826663 3.724,29.348 C3.75200014,29.4133337 3.83133268,29.483333 3.962,29.558 L4.648,29.95 L4.592,31 L0.392,31 L0.35,29.712 Z M5.222,29.656 L6.09,29.404 L6.09,26.016 C6.09,25.8106656 6.07600014,25.677667 6.048,25.617 C6.01999986,25.556333 5.94533394,25.488667 5.824,25.414 L5.208,25.078 L5.25,24.028 L5.558,23.972 C6.78067278,23.7293321 7.66266396,23.5986668 8.204,23.58 C8.27866704,23.776001 8.3393331,23.9906655 8.386,24.224 C8.95533618,23.9626654 9.41966487,23.7830005 9.779,23.685 C10.1383351,23.5869995 10.4766651,23.538 10.794,23.538 C12.2780074,23.538 13.02,24.4246578 13.02,26.198 L13.02,28.942 C13.02,29.138001 13.0339999,29.2686663 13.062,29.334 C13.0900001,29.3993337 13.1693327,29.469333 13.3,29.544 L13.972,29.936 L13.916,30.986 L10.052,30.986 L9.982,29.656 L10.668,29.46 L10.668,26.814 C10.668,26.3939979 10.6540001,26.1000008 10.626,25.932 C10.5979999,25.7639992 10.5210006,25.6333338 10.395,25.54 C10.2689994,25.4466662 10.0473349,25.4 9.73,25.4 C9.39399832,25.4 8.9693359,25.4513328 8.456,25.554 L8.456,28.942 C8.456,29.138001 8.46999986,29.2686663 8.498,29.334 C8.52600014,29.3993337 8.60066606,29.469333 8.722,29.544 L9.408,29.936 L9.352,30.986 L5.292,30.986 L5.222,29.656 Z M15.484,30.573 C15.091998,30.166998 14.896,29.5486708 14.896,28.718 L14.896,25.316 L13.916,25.316 L13.916,24.294 L16.436,21.998 L17.248,22.096 L17.248,23.678 L19.6,23.678 L19.6,25.33 L17.248,25.33 L17.248,28.214 C17.248,28.6620022 17.3109994,28.9606659 17.437,29.11 C17.5630006,29.2593341 17.8079982,29.334 18.172,29.334 C18.4800015,29.334 18.9093306,29.2920004 19.46,29.208 L19.628,30.636 C19.2919983,30.7946675 18.9163354,30.9253328 18.501,31.028 C18.0856646,31.1306672 17.6866686,31.182 17.304,31.182 C16.4826626,31.182 15.876002,30.979002 15.484,30.573 L15.484,30.573 Z M21.119,30.174 C20.5263304,29.51133 20.23,28.5966725 20.23,27.43 C20.23,26.6179959 20.3746652,25.9203362 20.664,25.337 C20.9533348,24.7536638 21.3639973,24.3080015 21.896,24 C22.4280027,23.6919985 23.0486631,23.538 23.758,23.538 C24.8126719,23.538 25.6223305,23.8739966 26.187,24.546 C26.7516695,25.2180034 27.0200001,26.1746605 26.992,27.416 L22.736,28.2 C22.8666673,28.592002 23.0509988,28.8789991 23.289,29.061 C23.5270012,29.2430009 23.841998,29.334 24.234,29.334 C24.504668,29.334 24.8266648,29.2943337 25.2,29.215 C25.5733352,29.1356663 25.9513314,29.0260007 26.334,28.886 L26.656,30.272 C26.3106649,30.5333346 25.8626694,30.7479992 25.312,30.916 C24.7613306,31.0840008 24.2060028,31.168 23.646,31.168 C22.5539945,31.168 21.7116696,30.83667 21.119,30.174 L21.119,30.174 Z M24.696,26.24 C24.6773332,25.8853316 24.5770009,25.6263342 24.395,25.463 C24.2129991,25.2996659 23.9586683,25.218 23.632,25.218 C23.361332,25.218 23.1046679,25.255333 22.862,25.33 C22.665999,25.7873356 22.5773332,26.2819973 22.596,26.814 L24.696,26.24 Z M27.622,29.67 L28.476,29.418 L28.476,26.016 C28.476,25.8106656 28.4620001,25.677667 28.434,25.617 C28.4059999,25.556333 28.3313339,25.488667 28.21,25.414 L27.594,25.078 L27.636,24.028 C27.7946675,23.9906665 27.9299994,23.9673334 28.042,23.958 C29.171339,23.7246655 30.006664,23.5986668 30.548,23.58 C30.6320004,23.8226679 30.711333,24.1259982 30.786,24.49 C31.3460028,24.0513311 31.821998,23.7480008 32.214,23.58 L33.012,23.58 C33.0026666,23.9346684 32.9793335,24.3196646 32.942,24.735 C32.9046665,25.1503354 32.8580003,25.4839987 32.802,25.736 C32.4659983,25.7173332 32.2186675,25.708 32.06,25.708 C31.667998,25.708 31.2620021,25.7313331 30.842,25.778 L30.842,28.956 C30.842,29.152001 30.8559999,29.2826663 30.884,29.348 C30.9120001,29.4133337 30.9866661,29.483333 31.108,29.558 L31.948,30.006 L31.892,31 L27.692,31 L27.622,29.67 Z M34.062,30.657 C33.6793314,30.3069982 33.488,29.8566694 33.488,29.306 C33.488,28.568663 33.8589963,27.9900021 34.601,27.57 C35.3430037,27.1499979 36.4233262,26.9120003 37.842,26.856 C37.842,26.4173311 37.8070004,26.093001 37.737,25.883 C37.6669997,25.672999 37.5410009,25.5283337 37.359,25.449 C37.1769991,25.3696663 36.8993352,25.33 36.526,25.33 C36.1433314,25.33 35.8726675,25.3439999 35.714,25.372 L35.14,26.506 L34.104,26.436 C33.9453325,25.6893296 33.8333337,24.9146707 33.768,24.112 C34.2906693,23.9346658 34.8623302,23.7946672 35.483,23.692 C36.1036698,23.5893328 36.684664,23.538 37.226,23.538 C38.2153383,23.538 38.9246645,23.7316647 39.354,24.119 C39.7833355,24.5063353 39.998,25.1479955 39.998,26.044 L39.998,28.97 C39.998,29.1380008 40.0143332,29.2546663 40.047,29.32 C40.0796668,29.3853337 40.1519994,29.4506663 40.264,29.516 L40.824,29.838 L40.768,30.706 C39.6853279,30.9580013 38.8313365,31.0979999 38.206,31.126 C38.1873332,31.0699997 38.1593335,30.9696674 38.122,30.825 C38.0846665,30.6803326 38.0520001,30.5426673 38.024,30.412 C37.6599982,30.6453345 37.2610022,30.8319993 36.827,30.972 C36.3929978,31.1120007 35.980002,31.182 35.588,31.182 C34.9533302,31.182 34.4446686,31.0070018 34.062,30.657 L34.062,30.657 Z M37.884,29.222 L37.828,28.158 C37.6039989,28.1393332 37.454667,28.13 37.38,28.13 C37.1279987,28.13 36.8340017,28.1556664 36.498,28.207 C36.1619983,28.2583336 35.896001,28.3166663 35.7,28.382 C35.6719999,28.5033339 35.658,28.6153328 35.658,28.718 C35.658,28.9980014 35.7349992,29.2149992 35.889,29.369 C36.0430008,29.5230008 36.255332,29.6 36.526,29.6 C36.8993352,29.6 37.3519973,29.4740013 37.884,29.222 L37.884,29.222 Z M42.14,30.181 C41.5426637,29.5136633 41.244,28.5920059 41.244,27.416 C41.244,26.1933272 41.5636635,25.2413367 42.203,24.56 C42.8423365,23.8786633 43.7173278,23.538 44.828,23.538 C45.6680042,23.538 46.5686619,23.7293314 47.53,24.112 C47.5113332,24.382668 47.4693337,24.7396644 47.404,25.183 C47.3386663,25.6263356 47.268667,26.0346648 47.194,26.408 L46.256,26.492 L45.388,25.386 C45.1546655,25.3393331 44.8933348,25.316 44.604,25.316 C44.3706655,25.316 44.156001,25.3299999 43.96,25.358 C43.7453323,25.7686687 43.638,26.3473296 43.638,27.094 C43.638,27.8593372 43.773332,28.4263315 44.044,28.795 C44.314668,29.1636685 44.7253306,29.348 45.276,29.348 C45.5373346,29.348 45.8546648,29.3083337 46.228,29.229 C46.6013352,29.1496663 46.983998,29.0353341 47.376,28.886 L47.712,30.286 C47.3386648,30.5473346 46.8743361,30.7619992 46.319,30.93 C45.7636639,31.0980008 45.2106694,31.182 44.66,31.182 C43.5773279,31.182 42.7373363,30.8483367 42.14,30.181 L42.14,30.181 Z M49.868,30.573 C49.475998,30.166998 49.28,29.5486708 49.28,28.718 L49.28,25.316 L48.3,25.316 L48.3,24.294 L50.82,21.998 L51.632,22.096 L51.632,23.678 L53.984,23.678 L53.984,25.33 L51.632,25.33 L51.632,28.214 C51.632,28.6620022 51.6949994,28.9606659 51.821,29.11 C51.9470006,29.2593341 52.1919982,29.334 52.556,29.334 C52.8640015,29.334 53.2933306,29.2920004 53.844,29.208 L54.012,30.636 C53.6759983,30.7946675 53.3003354,30.9253328 52.885,31.028 C52.4696646,31.1306672 52.0706686,31.182 51.688,31.182 C50.8666626,31.182 50.260002,30.979002 49.868,30.573 L49.868,30.573 Z M55.342,20.64 L57.722,20.01 L58.296,22.138 L55.93,22.782 L55.342,20.64 Z M54.754,29.712 L55.734,29.418 L55.734,26.016 C55.734,25.8106656 55.7176668,25.677667 55.685,25.617 C55.6523332,25.556333 55.5706673,25.488667 55.44,25.414 L54.824,25.078 L54.894,24.028 C55.6686705,23.8786659 56.2683312,23.7690003 56.693,23.699 C57.1176688,23.6289997 57.5073316,23.5893334 57.862,23.58 C57.9833339,23.9813353 58.0579999,24.279999 58.086,24.476 L58.086,28.956 C58.086,29.152001 58.0999999,29.2826663 58.128,29.348 C58.1560001,29.4133337 58.2353327,29.483333 58.366,29.558 L59.052,29.95 L58.996,31 L54.796,31 L54.754,29.712 Z M59.626,25.596 C59.5233328,25.3439987 59.4533335,25.180667 59.416,25.106 C59.3786665,25.031333 59.3086672,24.9286673 59.206,24.798 L58.968,24.49 L59.038,23.678 L62.566,23.678 L62.706,24.868 L61.894,25.064 L63.168,28.676 L64.4,25.358 C64.4186668,25.3019997 64.428,25.2600001 64.428,25.232 C64.428,25.1479996 64.3860004,25.0920001 64.302,25.064 L63.644,24.784 L63.77,23.678 L66.43,23.678 L66.57,24.812 L63.798,31.028 L61.782,31.182 L59.626,25.596 Z M67.921,30.174 C67.3283304,29.51133 67.032,28.5966725 67.032,27.43 C67.032,26.6179959 67.1766652,25.9203362 67.466,25.337 C67.7553348,24.7536638 68.1659973,24.3080015 68.698,24 C69.2300027,23.6919985 69.8506631,23.538 70.56,23.538 C71.6146719,23.538 72.4243305,23.8739966 72.989,24.546 C73.5536695,25.2180034 73.8220001,26.1746605 73.794,27.416 L69.538,28.2 C69.6686673,28.592002 69.8529988,28.8789991 70.091,29.061 C70.3290012,29.2430009 70.643998,29.334 71.036,29.334 C71.306668,29.334 71.6286648,29.2943337 72.002,29.215 C72.3753352,29.1356663 72.7533314,29.0260007 73.136,28.886 L73.458,30.272 C73.1126649,30.5333346 72.6646694,30.7479992 72.114,30.916 C71.5633306,31.0840008 71.0080028,31.168 70.448,31.168 C69.3559945,31.168 68.5136696,30.83667 67.921,30.174 L67.921,30.174 Z M71.498,26.24 C71.4793332,25.8853316 71.3790009,25.6263342 71.197,25.463 C71.0149991,25.2996659 70.7606683,25.218 70.434,25.218 C70.163332,25.218 69.9066679,25.255333 69.664,25.33 C69.467999,25.7873356 69.3793332,26.2819973 69.398,26.814 L71.498,26.24 Z M78.099,30.174 C77.5063304,29.51133 77.21,28.5966725 77.21,27.43 C77.21,26.6179959 77.3546652,25.9203362 77.644,25.337 C77.9333348,24.7536638 78.3439973,24.3080015 78.876,24 C79.4080027,23.6919985 80.0286631,23.538 80.738,23.538 C81.7926719,23.538 82.6023305,23.8739966 83.167,24.546 C83.7316695,25.2180034 84.0000001,26.1746605 83.972,27.416 L79.716,28.2 C79.8466673,28.592002 80.0309988,28.8789991 80.269,29.061 C80.5070012,29.2430009 80.821998,29.334 81.214,29.334 C81.484668,29.334 81.8066648,29.2943337 82.18,29.215 C82.5533352,29.1356663 82.9313314,29.0260007 83.314,28.886 L83.636,30.272 C83.2906649,30.5333346 82.8426694,30.7479992 82.292,30.916 C81.7413306,31.0840008 81.1860028,31.168 80.626,31.168 C79.5339945,31.168 78.6916696,30.83667 78.099,30.174 L78.099,30.174 Z M81.676,26.24 C81.6573332,25.8853316 81.5570009,25.6263342 81.375,25.463 C81.1929991,25.2996659 80.9386683,25.218 80.612,25.218 C80.341332,25.218 80.0846679,25.255333 79.842,25.33 C79.645999,25.7873356 79.5573332,26.2819973 79.576,26.814 L81.676,26.24 Z M84.364,29.95 L86.674,27.29 L84.826,24.882 C84.7326662,24.7606661 84.648667,24.6650003 84.574,24.595 C84.499333,24.5249996 84.4480001,24.4806668 84.42,24.462 L84.49,23.678 L88.242,23.678 L88.312,24.756 L87.752,24.882 L88.718,26.128 L89.404,25.148 C89.4413335,25.1013331 89.46,25.0500003 89.46,24.994 C89.46,24.9286663 89.4320003,24.8820001 89.376,24.854 L88.9,24.616 L88.97,23.678 L91.714,23.678 L91.784,24.742 L89.628,27.318 L91.504,29.754 C91.7093344,30.0153346 91.849333,30.183333 91.924,30.258 L91.854,31 L87.99,31 L87.92,29.978 L88.606,29.81 L87.584,28.48 L86.8,29.53 C86.7626665,29.5766669 86.744,29.6279997 86.744,29.684 C86.744,29.7493337 86.7719997,29.7959999 86.828,29.824 L87.304,30.062 L87.234,31 L84.406,31 L84.364,29.95 Z M92.386,32.68 L93.254,32.442 L93.254,26.016 C93.254,25.8106656 93.2400001,25.677667 93.212,25.617 C93.1839999,25.556333 93.1046673,25.488667 92.974,25.414 L92.344,25.078 L92.414,24.028 C92.4606669,24.0186666 92.5073331,24.0093334 92.554,24 C92.6006669,23.9906666 92.6519997,23.9813334 92.708,23.972 C93.1466689,23.8879996 93.6109976,23.8063337 94.101,23.727 C94.5910025,23.6476663 94.9946651,23.5986668 95.312,23.58 C95.3960004,23.776001 95.4519999,23.9999987 95.48,24.252 C95.7693348,24.0186655 96.079665,23.8413339 96.411,23.72 C96.742335,23.5986661 97.0713317,23.538 97.398,23.538 C98.331338,23.538 99.0476642,23.8669967 99.547,24.525 C100.046336,25.1830033 100.296,26.1186606 100.296,27.332 C100.296,28.5920063 99.9506701,29.5556633 99.26,30.223 C98.5693299,30.8903367 97.5706732,31.224 96.264,31.224 C96.1239993,31.224 95.9046682,31.2146668 95.606,31.196 L95.606,31.966 C95.606,32.1713344 95.6199999,32.3066663 95.648,32.372 C95.6760001,32.4373337 95.7553327,32.5026663 95.886,32.568 L96.712,33.03 L96.656,34.01 L92.456,34.01 L92.386,32.68 Z M97.692,29.306 C97.766667,29.0726655 97.8296664,28.790335 97.881,28.459 C97.9323336,28.127665 97.958,27.8173348 97.958,27.528 C97.958,26.8093297 97.8343346,26.254002 97.587,25.862 C97.3396654,25.469998 96.9966689,25.274 96.558,25.274 C96.287332,25.274 95.9700018,25.3533325 95.606,25.512 L95.606,29.32 C95.876668,29.4320006 96.2173313,29.488 96.628,29.488 C97.0666689,29.488 97.421332,29.4273339 97.692,29.306 L97.692,29.306 Z M100.674,29.712 L101.654,29.418 L101.654,22.712 C101.654,22.5066656 101.637667,22.373667 101.605,22.313 C101.572333,22.252333 101.490667,22.184667 101.36,22.11 L100.744,21.788 L100.814,20.724 C101.000668,20.6866665 101.145333,20.6633334 101.248,20.654 C102.480006,20.4299989 103.338664,20.3086668 103.824,20.29 C103.917334,20.5046677 103.978,20.747332 104.006,21.018 L104.006,28.956 C104.006,29.152001 104.02,29.2826663 104.048,29.348 C104.076,29.4133337 104.155333,29.483333 104.286,29.558 L104.972,29.95 L104.916,31 L100.716,31 L100.674,29.712 Z M106.267,30.272 C105.683664,29.6653303 105.392,28.7366729 105.392,27.486 C105.392,26.6833293 105.538999,25.9833363 105.833,25.386 C106.127001,24.7886637 106.549331,24.3313349 107.1,24.014 C107.650669,23.6966651 108.29933,23.538 109.046,23.538 C111.463345,23.538 112.672,24.7886542 112.672,27.29 C112.672,28.5126728 112.343003,29.4669966 111.685,30.153 C111.026997,30.8390034 110.105339,31.182 108.92,31.182 C107.734661,31.182 106.850336,30.8786697 106.267,30.272 L106.267,30.272 Z M109.634,29.495 C109.774001,29.4623332 109.923333,29.408667 110.082,29.334 C110.138,29.1193323 110.184666,28.8440017 110.222,28.508 C110.259334,28.1719983 110.278,27.8500015 110.278,27.542 C110.278,26.7859962 110.159001,26.212002 109.921,25.82 C109.682999,25.427998 109.330669,25.232 108.864,25.232 C108.555998,25.232 108.243335,25.2739996 107.926,25.358 C107.860666,25.4980007 107.809334,25.7243318 107.772,26.037 C107.734666,26.3496682 107.716,26.7066647 107.716,27.108 C107.716,27.8920039 107.839665,28.4939979 108.087,28.914 C108.334335,29.3340021 108.686664,29.544 109.144,29.544 C109.330668,29.544 109.493999,29.5276668 109.634,29.495 L109.634,29.495 Z M113.302,29.67 L114.156,29.418 L114.156,26.016 C114.156,25.8106656 114.142,25.677667 114.114,25.617 C114.086,25.556333 114.011334,25.488667 113.89,25.414 L113.274,25.078 L113.316,24.028 C113.474667,23.9906665 113.609999,23.9673334 113.722,23.958 C114.851339,23.7246655 115.686664,23.5986668 116.228,23.58 C116.312,23.8226679 116.391333,24.1259982 116.466,24.49 C117.026003,24.0513311 117.501998,23.7480008 117.894,23.58 L118.692,23.58 C118.682667,23.9346684 118.659334,24.3196646 118.622,24.735 C118.584666,25.1503354 118.538,25.4839987 118.482,25.736 C118.145998,25.7173332 117.898667,25.708 117.74,25.708 C117.347998,25.708 116.942002,25.7313331 116.522,25.778 L116.522,28.956 C116.522,29.152001 116.536,29.2826663 116.564,29.348 C116.592,29.4133337 116.666666,29.483333 116.788,29.558 L117.628,30.006 L117.572,31 L113.372,31 L113.302,29.67 Z M119.742,30.657 C119.359331,30.3069982 119.168,29.8566694 119.168,29.306 C119.168,28.568663 119.538996,27.9900021 120.281,27.57 C121.023004,27.1499979 122.103326,26.9120003 123.522,26.856 C123.522,26.4173311 123.487,26.093001 123.417,25.883 C123.347,25.672999 123.221001,25.5283337 123.039,25.449 C122.856999,25.3696663 122.579335,25.33 122.206,25.33 C121.823331,25.33 121.552667,25.3439999 121.394,25.372 L120.82,26.506 L119.784,26.436 C119.625333,25.6893296 119.513334,24.9146707 119.448,24.112 C119.970669,23.9346658 120.54233,23.7946672 121.163,23.692 C121.78367,23.5893328 122.364664,23.538 122.906,23.538 C123.895338,23.538 124.604665,23.7316647 125.034,24.119 C125.463335,24.5063353 125.678,25.1479955 125.678,26.044 L125.678,28.97 C125.678,29.1380008 125.694333,29.2546663 125.727,29.32 C125.759667,29.3853337 125.831999,29.4506663 125.944,29.516 L126.504,29.838 L126.448,30.706 C125.365328,30.9580013 124.511336,31.0979999 123.886,31.126 C123.867333,31.0699997 123.839334,30.9696674 123.802,30.825 C123.764666,30.6803326 123.732,30.5426673 123.704,30.412 C123.339998,30.6453345 122.941002,30.8319993 122.507,30.972 C122.072998,31.1120007 121.660002,31.182 121.268,31.182 C120.63333,31.182 120.124669,31.0070018 119.742,30.657 L119.742,30.657 Z M123.564,29.222 L123.508,28.158 C123.283999,28.1393332 123.134667,28.13 123.06,28.13 C122.807999,28.13 122.514002,28.1556664 122.178,28.207 C121.841998,28.2583336 121.576001,28.3166663 121.38,28.382 C121.352,28.5033339 121.338,28.6153328 121.338,28.718 C121.338,28.9980014 121.414999,29.2149992 121.569,29.369 C121.723001,29.5230008 121.935332,29.6 122.206,29.6 C122.579335,29.6 123.031997,29.4740013 123.564,29.222 L123.564,29.222 Z M128.142,30.573 C127.749998,30.166998 127.554,29.5486708 127.554,28.718 L127.554,25.316 L126.574,25.316 L126.574,24.294 L129.094,21.998 L129.906,22.096 L129.906,23.678 L132.258,23.678 L132.258,25.33 L129.906,25.33 L129.906,28.214 C129.906,28.6620022 129.968999,28.9606659 130.095,29.11 C130.221001,29.2593341 130.465998,29.334 130.83,29.334 C131.138002,29.334 131.567331,29.2920004 132.118,29.208 L132.286,30.636 C131.949998,30.7946675 131.574335,30.9253328 131.159,31.028 C130.743665,31.1306672 130.344669,31.182 129.962,31.182 C129.140663,31.182 128.534002,30.979002 128.142,30.573 L128.142,30.573 Z M133.616,20.64 L135.996,20.01 L136.57,22.138 L134.204,22.782 L133.616,20.64 Z M133.028,29.712 L134.008,29.418 L134.008,26.016 C134.008,25.8106656 133.991667,25.677667 133.959,25.617 C133.926333,25.556333 133.844667,25.488667 133.714,25.414 L133.098,25.078 L133.168,24.028 C133.942671,23.8786659 134.542331,23.7690003 134.967,23.699 C135.391669,23.6289997 135.781332,23.5893334 136.136,23.58 C136.257334,23.9813353 136.332,24.279999 136.36,24.476 L136.36,28.956 C136.36,29.152001 136.374,29.2826663 136.402,29.348 C136.43,29.4133337 136.509333,29.483333 136.64,29.558 L137.326,29.95 L137.27,31 L133.07,31 L133.028,29.712 Z M138.621,30.272 C138.037664,29.6653303 137.746,28.7366729 137.746,27.486 C137.746,26.6833293 137.892999,25.9833363 138.187,25.386 C138.481001,24.7886637 138.903331,24.3313349 139.454,24.014 C140.004669,23.6966651 140.65333,23.538 141.4,23.538 C143.817345,23.538 145.026,24.7886542 145.026,27.29 C145.026,28.5126728 144.697003,29.4669966 144.039,30.153 C143.380997,30.8390034 142.459339,31.182 141.274,31.182 C140.088661,31.182 139.204336,30.8786697 138.621,30.272 L138.621,30.272 Z M141.988,29.495 C142.128001,29.4623332 142.277333,29.408667 142.436,29.334 C142.492,29.1193323 142.538666,28.8440017 142.576,28.508 C142.613334,28.1719983 142.632,27.8500015 142.632,27.542 C142.632,26.7859962 142.513001,26.212002 142.275,25.82 C142.036999,25.427998 141.684669,25.232 141.218,25.232 C140.909998,25.232 140.597335,25.2739996 140.28,25.358 C140.214666,25.4980007 140.163334,25.7243318 140.126,26.037 C140.088666,26.3496682 140.07,26.7066647 140.07,27.108 C140.07,27.8920039 140.193665,28.4939979 140.441,28.914 C140.688335,29.3340021 141.040664,29.544 141.498,29.544 C141.684668,29.544 141.847999,29.5276668 141.988,29.495 L141.988,29.495 Z M145.712,29.656 L146.58,29.404 L146.58,26.016 C146.58,25.8106656 146.566,25.677667 146.538,25.617 C146.51,25.556333 146.435334,25.488667 146.314,25.414 L145.698,25.078 L145.74,24.028 L146.048,23.972 C147.270673,23.7293321 148.152664,23.5986668 148.694,23.58 C148.768667,23.776001 148.829333,23.9906655 148.876,24.224 C149.445336,23.9626654 149.909665,23.7830005 150.269,23.685 C150.628335,23.5869995 150.966665,23.538 151.284,23.538 C152.768007,23.538 153.51,24.4246578 153.51,26.198 L153.51,28.942 C153.51,29.138001 153.524,29.2686663 153.552,29.334 C153.58,29.3993337 153.659333,29.469333 153.79,29.544 L154.462,29.936 L154.406,30.986 L150.542,30.986 L150.472,29.656 L151.158,29.46 L151.158,26.814 C151.158,26.3939979 151.144,26.1000008 151.116,25.932 C151.088,25.7639992 151.011001,25.6333338 150.885,25.54 C150.758999,25.4466662 150.537335,25.4 150.22,25.4 C149.883998,25.4 149.459336,25.4513328 148.946,25.554 L148.946,28.942 C148.946,29.138001 148.96,29.2686663 148.988,29.334 C149.016,29.3993337 149.090666,29.469333 149.212,29.544 L149.898,29.936 L149.842,30.986 L145.782,30.986 L145.712,29.656 Z M158.41,20.64 L160.79,20.01 L161.364,22.138 L158.998,22.782 L158.41,20.64 Z M157.822,29.712 L158.802,29.418 L158.802,26.016 C158.802,25.8106656 158.785667,25.677667 158.753,25.617 C158.720333,25.556333 158.638667,25.488667 158.508,25.414 L157.892,25.078 L157.962,24.028 C158.736671,23.8786659 159.336331,23.7690003 159.761,23.699 C160.185669,23.6289997 160.575332,23.5893334 160.93,23.58 C161.051334,23.9813353 161.126,24.279999 161.154,24.476 L161.154,28.956 C161.154,29.152001 161.168,29.2826663 161.196,29.348 C161.224,29.4133337 161.303333,29.483333 161.434,29.558 L162.12,29.95 L162.064,31 L157.864,31 L157.822,29.712 Z M162.694,29.656 L163.562,29.404 L163.562,26.016 C163.562,25.8106656 163.548,25.677667 163.52,25.617 C163.492,25.556333 163.417334,25.488667 163.296,25.414 L162.68,25.078 L162.722,24.028 L163.03,23.972 C164.252673,23.7293321 165.134664,23.5986668 165.676,23.58 C165.750667,23.776001 165.811333,23.9906655 165.858,24.224 C166.427336,23.9626654 166.891665,23.7830005 167.251,23.685 C167.610335,23.5869995 167.948665,23.538 168.266,23.538 C169.750007,23.538 170.492,24.4246578 170.492,26.198 L170.492,28.942 C170.492,29.138001 170.506,29.2686663 170.534,29.334 C170.562,29.3993337 170.641333,29.469333 170.772,29.544 L171.444,29.936 L171.388,30.986 L167.524,30.986 L167.454,29.656 L168.14,29.46 L168.14,26.814 C168.14,26.3939979 168.126,26.1000008 168.098,25.932 C168.07,25.7639992 167.993001,25.6333338 167.867,25.54 C167.740999,25.4466662 167.519335,25.4 167.202,25.4 C166.865998,25.4 166.441336,25.4513328 165.928,25.554 L165.928,28.942 C165.928,29.138001 165.942,29.2686663 165.97,29.334 C165.998,29.3993337 166.072666,29.469333 166.194,29.544 L166.88,29.936 L166.824,30.986 L162.764,30.986 L162.694,29.656 Z M175.742,30.573 C175.349998,30.166998 175.154,29.5486708 175.154,28.718 L175.154,25.316 L174.174,25.316 L174.174,24.294 L176.694,21.998 L177.506,22.096 L177.506,23.678 L179.858,23.678 L179.858,25.33 L177.506,25.33 L177.506,28.214 C177.506,28.6620022 177.568999,28.9606659 177.695,29.11 C177.821001,29.2593341 178.065998,29.334 178.43,29.334 C178.738002,29.334 179.167331,29.2920004 179.718,29.208 L179.886,30.636 C179.549998,30.7946675 179.174335,30.9253328 178.759,31.028 C178.343665,31.1306672 177.944669,31.182 177.562,31.182 C176.740663,31.182 176.134002,30.979002 175.742,30.573 L175.742,30.573 Z M181.216,20.64 L183.596,20.01 L184.17,22.138 L181.804,22.782 L181.216,20.64 Z M180.628,29.712 L181.608,29.418 L181.608,26.016 C181.608,25.8106656 181.591667,25.677667 181.559,25.617 C181.526333,25.556333 181.444667,25.488667 181.314,25.414 L180.698,25.078 L180.768,24.028 C181.542671,23.8786659 182.142331,23.7690003 182.567,23.699 C182.991669,23.6289997 183.381332,23.5893334 183.736,23.58 C183.857334,23.9813353 183.932,24.279999 183.96,24.476 L183.96,28.956 C183.96,29.152001 183.974,29.2826663 184.002,29.348 C184.03,29.4133337 184.109333,29.483333 184.24,29.558 L184.926,29.95 L184.87,31 L180.67,31 L180.628,29.712 Z M185.5,29.67 L186.368,29.418 L186.368,26.016 C186.368,25.8106656 186.354,25.677667 186.326,25.617 C186.298,25.556333 186.223334,25.488667 186.102,25.414 L185.486,25.078 L185.528,24.028 L185.906,23.958 C187.054006,23.7246655 187.903331,23.5986668 188.454,23.58 C188.528667,23.776001 188.589333,23.9766656 188.636,24.182 C189.140003,23.9486655 189.571665,23.7830005 189.931,23.685 C190.290335,23.5869995 190.619332,23.538 190.918,23.538 C191.282002,23.538 191.622665,23.605666 191.94,23.741 C192.257335,23.876334 192.495333,24.0559989 192.654,24.28 C193.186003,24.0186654 193.664331,23.8296672 194.089,23.713 C194.513669,23.5963328 194.917331,23.538 195.3,23.538 C196.065337,23.538 196.629998,23.7573311 196.994,24.196 C197.358002,24.6346689 197.54,25.3019955 197.54,26.198 L197.54,28.956 C197.54,29.152001 197.554,29.2826663 197.582,29.348 C197.61,29.4133337 197.689333,29.483333 197.82,29.558 L198.492,29.95 L198.436,31 L194.628,31 L194.558,29.67 L195.23,29.474 L195.23,26.828 C195.23,26.4266647 195.218333,26.1396675 195.195,25.967 C195.171667,25.7943325 195.094667,25.6590005 194.964,25.561 C194.833333,25.4629995 194.614002,25.414 194.306,25.414 C194.063332,25.414 193.657336,25.4559996 193.088,25.54 C193.106667,25.6893341 193.116,25.9086652 193.116,26.198 L193.116,28.956 C193.116,29.152001 193.13,29.2826663 193.158,29.348 C193.186,29.4133337 193.269999,29.483333 193.41,29.558 L194.096,29.95 L194.04,31 L190.204,31 L190.134,29.67 L190.806,29.474 L190.806,26.828 C190.806,26.4173313 190.794333,26.1256675 190.771,25.953 C190.747667,25.7803325 190.670667,25.6473338 190.54,25.554 C190.409333,25.4606662 190.194668,25.414 189.896,25.414 C189.569332,25.414 189.172669,25.4559996 188.706,25.54 L188.706,28.956 C188.706,29.152001 188.72,29.2826663 188.748,29.348 C188.776,29.4133337 188.850666,29.483333 188.972,29.558 L189.658,29.95 L189.602,31 L185.57,31 L185.5,29.67 Z M199.731,30.174 C199.13833,29.51133 198.842,28.5966725 198.842,27.43 C198.842,26.6179959 198.986665,25.9203362 199.276,25.337 C199.565335,24.7536638 199.975997,24.3080015 200.508,24 C201.040003,23.6919985 201.660663,23.538 202.37,23.538 C203.424672,23.538 204.234331,23.8739966 204.799,24.546 C205.363669,25.2180034 205.632,26.1746605 205.604,27.416 L201.348,28.2 C201.478667,28.592002 201.662999,28.8789991 201.901,29.061 C202.139001,29.2430009 202.453998,29.334 202.846,29.334 C203.116668,29.334 203.438665,29.2943337 203.812,29.215 C204.185335,29.1356663 204.563331,29.0260007 204.946,28.886 L205.268,30.272 C204.922665,30.5333346 204.474669,30.7479992 203.924,30.916 C203.373331,31.0840008 202.818003,31.168 202.258,31.168 C201.165995,31.168 200.32367,30.83667 199.731,30.174 L199.731,30.174 Z M203.308,26.24 C203.289333,25.8853316 203.189001,25.6263342 203.007,25.463 C202.824999,25.2996659 202.570668,25.218 202.244,25.218 C201.973332,25.218 201.716668,25.255333 201.474,25.33 C201.277999,25.7873356 201.189333,26.2819973 201.208,26.814 L203.308,26.24 Z M218.379,29.243 C218.775669,29.1263328 219.141998,29.0073339 219.478,28.886 L219.394,30.804 C218.945998,31.0466679 218.414003,31.168 217.798,31.168 C217.209997,31.168 216.617336,31.0560011 216.02,30.832 C215.777332,30.7386662 215.544001,30.6406672 215.32,30.538 C214.461329,30.9953356 213.542005,31.224 212.562,31.224 C211.889997,31.224 211.295003,31.1166677 210.777,30.902 C210.258997,30.6873323 209.857668,30.3816687 209.573,29.985 C209.288332,29.5883314 209.146,29.1286693 209.146,28.606 C209.146,28.0833307 209.285999,27.5956689 209.566,27.143 C209.846001,26.6903311 210.247331,26.3053349 210.77,25.988 C210.480665,25.3066633 210.336,24.6720029 210.336,24.084 C210.336,23.2439958 210.622997,22.5766691 211.197,22.082 C211.771003,21.5873309 212.547995,21.34 213.528,21.34 C214.386671,21.34 215.060998,21.5336647 215.551,21.921 C216.041002,22.3083353 216.286,22.8426633 216.286,23.524 C216.286,24.1586698 216.066669,24.7023311 215.628,25.155 C215.189331,25.6076689 214.545338,25.9506655 213.696,26.184 C214.013335,26.6133355 214.395998,27.0473311 214.844,27.486 C215.096001,27.7380013 215.455331,28.0413316 215.922,28.396 L216.034,28.158 C216.174001,27.8779986 216.244,27.6540008 216.244,27.486 C216.244,27.3273325 216.164667,27.1826673 216.006,27.052 L215.614,26.674 L215.614,26.058 C216.379337,25.787332 217.205329,25.652 218.092,25.652 C218.101333,25.7173337 218.106,25.8619989 218.106,26.086 C218.106,26.6740029 218.019668,27.201331 217.847,27.668 C217.674332,28.134669 217.387335,28.6153309 216.986,29.11 C217.200668,29.2406673 217.401332,29.343333 217.588,29.418 C217.718667,29.418 217.982331,29.3596673 218.379,29.243 L218.379,29.243 Z M212.576,23.328 C212.576,23.8506693 212.725332,24.4199969 213.024,25.036 C213.406669,24.8773325 213.684332,24.6953344 213.857,24.49 C214.029668,24.2846656 214.116,24.0420014 214.116,23.762 C214.116,23.1739971 213.761337,22.88 213.052,22.88 C212.846666,22.88 212.706667,22.8893332 212.632,22.908 C212.594666,23.0106672 212.576,23.1506658 212.576,23.328 L212.576,23.328 Z M211.904,29.243 C212.277335,29.5183347 212.739331,29.656 213.29,29.656 C213.476668,29.656 213.644666,29.6420001 213.794,29.614 C213.289997,29.2499982 212.837335,28.8580021 212.436,28.438 C212.090665,28.0739982 211.782668,27.696002 211.512,27.304 C211.399999,27.5560013 211.344,27.8126654 211.344,28.074 C211.344,28.5780025 211.530665,28.9676653 211.904,29.243 L211.904,29.243 Z M223.244,30.846 C223.3,29.9313288 223.360666,29.2546689 223.426,28.816 L224.224,28.662 L225.106,29.6 C225.414002,29.6933338 225.759331,29.74 226.142,29.74 C226.356668,29.74 226.524666,29.7260001 226.646,29.698 C226.674,29.623333 226.688,29.5206673 226.688,29.39 C226.688,29.2779994 226.662334,29.184667 226.611,29.11 C226.559666,29.035333 226.445334,28.9466672 226.268,28.844 C226.090666,28.7413328 225.782669,28.5826677 225.344,28.368 C224.793331,28.0786652 224.373335,27.8196678 224.084,27.591 C223.794665,27.3623322 223.587001,27.1266679 223.461,26.884 C223.334999,26.6413321 223.272,26.3520017 223.272,26.016 C223.272,25.2693296 223.549664,24.6766689 224.105,24.238 C224.660336,23.7993311 225.413995,23.58 226.366,23.58 C226.758002,23.58 227.170998,23.6243329 227.605,23.713 C228.039002,23.8016671 228.428665,23.9206659 228.774,24.07 C228.774,24.6766697 228.732,25.3533296 228.648,26.1 L227.92,26.212 L226.982,25.204 C226.739332,25.129333 226.384669,25.092 225.918,25.092 C225.843333,25.092 225.694001,25.1013332 225.47,25.12 C225.442,25.1760003 225.428,25.2646661 225.428,25.386 C225.428,25.5166673 225.465333,25.6309995 225.54,25.729 C225.614667,25.8270005 225.747666,25.9343328 225.939,26.051 C226.130334,26.1676673 226.435998,26.3333323 226.856,26.548 C227.472003,26.8466682 227.936332,27.1056656 228.249,27.325 C228.561668,27.5443344 228.780999,27.7659989 228.907,27.99 C229.033001,28.2140011 229.096,28.4846651 229.096,28.802 C229.096,29.5673372 228.804336,30.1646645 228.221,30.594 C227.637664,31.0233355 226.832672,31.238 225.806,31.238 C225.068663,31.238 224.214672,31.1073346 223.244,30.846 L223.244,30.846 Z M229.628,32.68 L230.496,32.442 L230.496,26.016 C230.496,25.8106656 230.482,25.677667 230.454,25.617 C230.426,25.556333 230.346667,25.488667 230.216,25.414 L229.586,25.078 L229.656,24.028 C229.702667,24.0186666 229.749333,24.0093334 229.796,24 C229.842667,23.9906666 229.894,23.9813334 229.95,23.972 C230.388669,23.8879996 230.852998,23.8063337 231.343,23.727 C231.833002,23.6476663 232.236665,23.5986668 232.554,23.58 C232.638,23.776001 232.694,23.9999987 232.722,24.252 C233.011335,24.0186655 233.321665,23.8413339 233.653,23.72 C233.984335,23.5986661 234.313332,23.538 234.64,23.538 C235.573338,23.538 236.289664,23.8669967 236.789,24.525 C237.288336,25.1830033 237.538,26.1186606 237.538,27.332 C237.538,28.5920063 237.19267,29.5556633 236.502,30.223 C235.81133,30.8903367 234.812673,31.224 233.506,31.224 C233.365999,31.224 233.146668,31.2146668 232.848,31.196 L232.848,31.966 C232.848,32.1713344 232.862,32.3066663 232.89,32.372 C232.918,32.4373337 232.997333,32.5026663 233.128,32.568 L233.954,33.03 L233.898,34.01 L229.698,34.01 L229.628,32.68 Z M234.934,29.306 C235.008667,29.0726655 235.071666,28.790335 235.123,28.459 C235.174334,28.127665 235.2,27.8173348 235.2,27.528 C235.2,26.8093297 235.076335,26.254002 234.829,25.862 C234.581665,25.469998 234.238669,25.274 233.8,25.274 C233.529332,25.274 233.212002,25.3533325 232.848,25.512 L232.848,29.32 C233.118668,29.4320006 233.459331,29.488 233.87,29.488 C234.308669,29.488 234.663332,29.4273339 234.934,29.306 L234.934,29.306 Z M238.812,30.657 C238.429331,30.3069982 238.238,29.8566694 238.238,29.306 C238.238,28.568663 238.608996,27.9900021 239.351,27.57 C240.093004,27.1499979 241.173326,26.9120003 242.592,26.856 C242.592,26.4173311 242.557,26.093001 242.487,25.883 C242.417,25.672999 242.291001,25.5283337 242.109,25.449 C241.926999,25.3696663 241.649335,25.33 241.276,25.33 C240.893331,25.33 240.622667,25.3439999 240.464,25.372 L239.89,26.506 L238.854,26.436 C238.695333,25.6893296 238.583334,24.9146707 238.518,24.112 C239.040669,23.9346658 239.61233,23.7946672 240.233,23.692 C240.85367,23.5893328 241.434664,23.538 241.976,23.538 C242.965338,23.538 243.674665,23.7316647 244.104,24.119 C244.533335,24.5063353 244.748,25.1479955 244.748,26.044 L244.748,28.97 C244.748,29.1380008 244.764333,29.2546663 244.797,29.32 C244.829667,29.3853337 244.901999,29.4506663 245.014,29.516 L245.574,29.838 L245.518,30.706 C244.435328,30.9580013 243.581336,31.0979999 242.956,31.126 C242.937333,31.0699997 242.909334,30.9696674 242.872,30.825 C242.834666,30.6803326 242.802,30.5426673 242.774,30.412 C242.409998,30.6453345 242.011002,30.8319993 241.577,30.972 C241.142998,31.1120007 240.730002,31.182 240.338,31.182 C239.70333,31.182 239.194669,31.0070018 238.812,30.657 L238.812,30.657 Z M242.634,29.222 L242.578,28.158 C242.353999,28.1393332 242.204667,28.13 242.13,28.13 C241.877999,28.13 241.584002,28.1556664 241.248,28.207 C240.911998,28.2583336 240.646001,28.3166663 240.45,28.382 C240.422,28.5033339 240.408,28.6153328 240.408,28.718 C240.408,28.9980014 240.484999,29.2149992 240.639,29.369 C240.793001,29.5230008 241.005332,29.6 241.276,29.6 C241.649335,29.6 242.101997,29.4740013 242.634,29.222 L242.634,29.222 Z M246.89,30.181 C246.292664,29.5136633 245.994,28.5920059 245.994,27.416 C245.994,26.1933272 246.313663,25.2413367 246.953,24.56 C247.592337,23.8786633 248.467328,23.538 249.578,23.538 C250.418004,23.538 251.318662,23.7293314 252.28,24.112 C252.261333,24.382668 252.219334,24.7396644 252.154,25.183 C252.088666,25.6263356 252.018667,26.0346648 251.944,26.408 L251.006,26.492 L250.138,25.386 C249.904666,25.3393331 249.643335,25.316 249.354,25.316 C249.120666,25.316 248.906001,25.3299999 248.71,25.358 C248.495332,25.7686687 248.388,26.3473296 248.388,27.094 C248.388,27.8593372 248.523332,28.4263315 248.794,28.795 C249.064668,29.1636685 249.475331,29.348 250.026,29.348 C250.287335,29.348 250.604665,29.3083337 250.978,29.229 C251.351335,29.1496663 251.733998,29.0353341 252.126,28.886 L252.462,30.286 C252.088665,30.5473346 251.624336,30.7619992 251.069,30.93 C250.513664,31.0980008 249.960669,31.182 249.41,31.182 C248.327328,31.182 247.487336,30.8483367 246.89,30.181 L246.89,30.181 Z M254.009,30.174 C253.41633,29.51133 253.12,28.5966725 253.12,27.43 C253.12,26.6179959 253.264665,25.9203362 253.554,25.337 C253.843335,24.7536638 254.253997,24.3080015 254.786,24 C255.318003,23.6919985 255.938663,23.538 256.648,23.538 C257.702672,23.538 258.512331,23.8739966 259.077,24.546 C259.641669,25.2180034 259.91,26.1746605 259.882,27.416 L255.626,28.2 C255.756667,28.592002 255.940999,28.8789991 256.179,29.061 C256.417001,29.2430009 256.731998,29.334 257.124,29.334 C257.394668,29.334 257.716665,29.2943337 258.09,29.215 C258.463335,29.1356663 258.841331,29.0260007 259.224,28.886 L259.546,30.272 C259.200665,30.5333346 258.752669,30.7479992 258.202,30.916 C257.651331,31.0840008 257.096003,31.168 256.536,31.168 C255.443995,31.168 254.60167,30.83667 254.009,30.174 L254.009,30.174 Z M257.586,26.24 C257.567333,25.8853316 257.467001,25.6263342 257.285,25.463 C257.102999,25.2996659 256.848668,25.218 256.522,25.218 C256.251332,25.218 255.994668,25.255333 255.752,25.33 C255.555999,25.7873356 255.467333,26.2819973 255.486,26.814 L257.586,26.24 Z" id="interactive-explorat" fill="#545454" opacity="0.609433302"></path>
            </g>
        </g>
    </g>
</svg>