<?xml version="1.0" encoding="UTF-8" standalone="no"?>
<svg width="32px" height="32px" viewBox="0 0 32 32" version="1.1" xmlns="http://www.w3.org/2000/svg" xmlns:xlink="http://www.w3.org/1999/xlink">
    <!-- Generator: Sketch 3.8.3 (29802) - http://www.bohemiancoding.com/sketch -->
    <title>list_btn</title>
    <desc>Created with Sketch.</desc>
    <defs></defs>
    <g id="Symbols" stroke="none" stroke-width="1" fill="none" fill-rule="evenodd">
        <g id="map" transform="translate(-977.000000, -66.000000)">
            <g id="list_btn" transform="translate(977.000000, 66.000000)">
                <g id="list-btn">
                    <circle id="Oval-1566" fill-opacity="0.5" fill="#5D8599" cx="16" cy="16" r="16"></circle>
                    <path d="M12,8.5 L25,8.5 L25,10.5 L12,10.5 L12,8.5 Z M12,14.5 L25,14.5 L25,16.5 L12,16.5 L12,14.5 Z M12,20.5 L25,20.5 L25,22.5 L12,22.5 L12,20.5 Z M8.5,23 C9.32842712,23 10,22.3284271 10,21.5 C10,20.6715729 9.32842712,20 8.5,20 C7.67157288,20 7,20.6715729 7,21.5 C7,22.3284271 7.67157288,23 8.5,23 Z M8.5,17 C9.32842712,17 10,16.3284271 10,15.5 C10,14.6715729 9.32842712,14 8.5,14 C7.67157288,14 7,14.6715729 7,15.5 C7,16.3284271 7.67157288,17 8.5,17 Z M8.5,11 C9.32842712,11 10,10.3284271 10,9.5 C10,8.67157288 9.32842712,8 8.5,8 C7.67157288,8 7,8.67157288 7,9.5 C7,10.3284271 7.67157288,11 8.5,11 Z" id="Rectangle-9643" fill="#FFFFFF"></path>
                </g>
            </g>
        </g>
    </g>
</svg>