<?xml version="1.0" encoding="utf-8"?>
<!-- Generator: Adobe Illustrator 16.0.3, SVG Export Plug-In . SVG Version: 6.00 Build 0)  -->
<!DOCTYPE svg PUBLIC "-//W3C//DTD SVG 1.1//EN" "http://www.w3.org/Graphics/SVG/1.1/DTD/svg11.dtd">
<svg version="1.1" id="Layer_1" xmlns="http://www.w3.org/2000/svg" xmlns:xlink="http://www.w3.org/1999/xlink" x="0px" y="0px"
	 width="25.8px" height="25.8px" viewBox="0 0 25.8 25.8" enable-background="new 0 0 25.8 25.8" xml:space="preserve">
<g>
	
		<rect x="10.86" y="14.105" transform="matrix(0.8553 0.5181 -0.5181 0.8553 9.404 -3.5509)" fill="#D2CEC0" width="0.4" height="1.916"/>
</g>
<g>
	
		<rect x="10.416" y="12.115" transform="matrix(0.479 0.8778 -0.8778 0.479 16.6652 -3.4485)" fill="#E1D0B4" width="1.643" height="0.4"/>
</g>
<g>
	
		<rect x="8.71" y="13.13" transform="matrix(0.0466 0.9989 -0.9989 0.0466 22.6493 2.9294)" fill="#E1D0B4" width="2.159" height="0.4"/>
</g>
<g>
	
		<rect x="13.008" y="20.502" transform="matrix(0.1887 0.982 -0.982 0.1887 31.6606 3.0816)" fill="#E1D0B4" width="1.915" height="0.4"/>
</g>
<g>
	
		<rect x="7.46" y="17.315" transform="matrix(0.9827 0.1853 -0.1853 0.9827 3.519 -1.1031)" fill="#E1D0B4" width="0.4" height="1.916"/>
</g>
<g>
	
		<rect x="4.2" y="17.946" transform="matrix(0.773 0.6343 -0.6343 0.773 12.6814 0.8465)" fill="#E1D0B4" width="1.915" height="0.4"/>
</g>
<g>
	
		<rect x="-0.127" y="17.025" transform="matrix(0.7731 0.6343 -0.6343 0.7731 11.0233 3.6391)" fill="#E1D0B4" width="1.105" height="0.4"/>
</g>
<g>
	
		<rect x="7.619" y="15.386" transform="matrix(0.7728 0.6346 -0.6346 0.7728 11.8386 -1.9021)" fill="#E1D0B4" width="1.914" height="0.4"/>
</g>
<g>
	
		<rect x="8.421" y="18.337" transform="matrix(0.3449 0.9387 -0.9387 0.3449 23.5437 3.3411)" fill="#E1D0B4" width="1.914" height="0.4"/>
</g>
<g>
	
		<rect x="3.089" y="18.382" transform="matrix(0.6488 0.761 -0.761 0.6488 16.0869 4.3882)" fill="#F3ECDF" width="0.4" height="2.478"/>
</g>
<g>
	
		<rect x="7.492" y="12.797" transform="matrix(0.2757 0.9612 -0.9612 0.2757 18.7931 2.5682)" fill="#E1D0B4" width="0.4" height="1.915"/>
</g>
<g>
	
		<rect x="11.226" y="21.275" transform="matrix(0.5945 0.8041 -0.8041 0.5945 22.5102 -0.1731)" fill="#E1D0B4" width="0.401" height="1.915"/>
</g>
<g>
	
		<rect x="7.06" y="21.86" transform="matrix(0.856 0.517 -0.517 0.856 12.8425 -0.4674)" fill="#F3ECDF" width="0.4" height="1.916"/>
</g>
<g>
	
		<rect x="14.536" y="15.975" transform="matrix(0.3934 0.9194 -0.9194 0.3934 24.2689 -4.4327)" fill="#E1D0B4" width="1.916" height="0.4"/>
</g>
<g>
	
		<rect x="18.377" y="11.126" transform="matrix(0.9955 0.0952 -0.0952 0.9955 1.266 -1.7113)" fill="#E1D0B4" width="0.4" height="2.587"/>
</g>
<g>
	
		<rect x="13.017" y="17.297" transform="matrix(0.867 0.4982 -0.4982 0.867 10.8524 -4.158)" fill="#E1D0B4" width="0.4" height="1.916"/>
</g>
<g>
	
		<rect x="16.829" y="16.999" transform="matrix(0.6354 0.7722 -0.7722 0.6354 20.0756 -6.6023)" fill="#E1D0B4" width="0.4" height="1.915"/>
</g>
<g>
	
		<rect x="17.073" y="23.719" transform="matrix(0.7768 0.6298 -0.6298 0.7768 19.0883 -6.0156)" fill="#E1D0B4" width="1.913" height="0.4"/>
</g>
<g>
	
		<rect x="16.312" y="14.955" transform="matrix(0.7698 0.6383 -0.6383 0.7698 13.649 -7.5343)" fill="#E1D0B4" width="1.916" height="0.401"/>
</g>
<g>
	
		<rect x="13.608" y="13.637" transform="matrix(0.9363 0.3511 -0.3511 0.9363 6.0037 -3.9193)" fill="#E1D0B4" width="0.401" height="1.915"/>
</g>
<g>
	
		<rect x="15.969" y="12.186" transform="matrix(0.5263 0.8503 -0.8503 0.5263 18.8357 -7.5229)" fill="#F3ECDF" width="0.401" height="1.914"/>
</g>
<g>
	
		<rect x="4.841" y="19.73" transform="matrix(0.8144 0.5803 -0.5803 0.8144 12.9413 0.9142)" fill="#D2CEC0" width="0.401" height="1.916"/>
</g>
<g>
	
		<rect x="17.631" y="8.966" transform="matrix(0.8294 0.5586 -0.5586 0.8294 8.5855 -8.2682)" fill="#E1D0B4" width="0.4" height="1.915"/>
</g>
<g>
	
		<rect x="4.653" y="15.587" transform="matrix(0.3132 0.9497 -0.9497 0.3132 19.0321 5.2547)" fill="#F3ECDF" width="2.46" height="0.4"/>
</g>
<g>
	
		<rect x="6.313" y="5.992" transform="matrix(0.7622 0.6474 -0.6474 0.7622 6.048 -2.5636)" fill="#E1D0B4" width="0.4" height="1.915"/>
</g>
<g>
	
		<rect x="15.239" y="9.788" transform="matrix(0.9967 0.0806 -0.0806 0.9967 0.9388 -1.2088)" fill="#E1D0B4" width="0.4" height="2.467"/>
</g>
<g>
	
		<rect x="9.858" y="8.307" transform="matrix(0.9235 0.3836 -0.3836 0.9235 4.385 -3.1368)" fill="#F3ECDF" width="0.4" height="2.238"/>
</g>
<g>
	
		<rect x="11.002" y="18.785" transform="matrix(0.9432 0.3323 -0.3323 0.9432 7.197 -2.6007)" fill="#E1D0B4" width="0.4" height="1.913"/>
</g>
<g>
	
		<rect x="13.978" y="19.059" transform="matrix(0.7728 0.6346 -0.6346 0.7728 15.6146 -5.1032)" fill="#D2CEC0" width="1.914" height="0.4"/>
</g>
<g>
	
		<rect x="6.71" y="10.67" transform="matrix(0.4943 0.8693 -0.8693 0.4943 13.4507 -1.3824)" fill="#E1D0B4" width="2.406" height="0.4"/>
</g>
<g>
	
		<rect x="11.872" y="23.229" transform="matrix(0.5256 0.8507 -0.8507 0.5256 26.3028 1.2041)" fill="#D2CEC0" width="0.399" height="1.914"/>
</g>
<g>
	
		<rect x="5.138" y="12.443" transform="matrix(0.9662 0.258 -0.258 0.9662 3.468 -1.1446)" fill="#D2CEC0" width="1.915" height="0.4"/>
</g>
<g>
	
		<rect x="5.872" y="9.01" transform="matrix(0.8809 0.4734 -0.4734 0.8809 5.3534 -1.7092)" fill="#E1D0B4" width="0.4" height="1.541"/>
</g>
<g>
	
		<rect x="19.394" y="3.573" transform="matrix(0.0491 0.9988 -0.9988 0.0491 23.3088 -16.9357)" fill="#D2CEC0" width="2.309" height="0.401"/>
</g>
<g>
	
		<rect x="13.429" y="1.909" transform="matrix(0.773 0.6343 -0.6343 0.773 4.6028 -8.6473)" fill="#F3ECDF" width="1.915" height="0.4"/>
</g>
<g>
	
		<rect x="10.023" y="2.269" transform="matrix(0.5715 0.8206 -0.8206 0.5715 7.2029 -6.9149)" fill="#F3ECDF" width="0.4" height="2.341"/>
</g>
<g>
	
		<rect x="5.981" y="1.394" transform="matrix(0.8235 0.5673 -0.5673 0.8235 2.1393 -3.6887)" fill="#E1D0B4" width="2.035" height="0.4"/>
</g>
<g>
	
		<rect x="11.998" y="8.02" transform="matrix(0.5028 0.8644 -0.8644 0.5028 13.5462 -7.112)" fill="#E1D0B4" width="1.915" height="0.4"/>
</g>
<g>
	
		<rect x="13.114" y="4.066" transform="matrix(0.9873 0.1588 -0.1588 0.9873 0.9368 -2.0535)" fill="#E1D0B4" width="0.4" height="1.534"/>
</g>
<g>
	
		<rect x="14.841" y="4.056" transform="matrix(0.9165 0.4001 -0.4001 0.9165 3.0227 -5.9661)" fill="#E1D0B4" width="1.916" height="0.4"/>
</g>
<g>
	
		<rect x="11.719" y="2.597" transform="matrix(0.856 0.517 -0.517 0.856 3.5544 -5.6505)" fill="#D2CEC0" width="0.4" height="1.915"/>
</g>
<g>
	
		<rect x="20.551" y="9.064" transform="matrix(0.6632 0.7485 -0.7485 0.6632 14.6321 -12.0929)" fill="#E1D0B4" width="0.401" height="2.292"/>
</g>
<g>
	
		<rect x="8.175" y="6.504" transform="matrix(0.9316 0.3634 -0.3634 0.9316 3.3642 -2.5184)" fill="#D2CEC0" width="0.4" height="2.356"/>
</g>
<g>
	
		<rect x="7.188" y="4.316" transform="matrix(0.7102 0.704 -0.704 0.7102 5.5401 -4.426)" fill="#E1D0B4" width="1.916" height="0.4"/>
</g>
<g>
	
		<rect x="18.213" y="1.974" transform="matrix(0.8687 0.4954 -0.4954 0.8687 3.8932 -8.7301)" fill="#E1D0B4" width="0.4" height="2.009"/>
</g>
<g>
	
		<rect x="18.996" y="7.518" transform="matrix(0.0214 0.9998 -0.9998 0.0214 27.2424 -12.3965)" fill="#D2CEC0" width="1.915" height="0.4"/>
</g>
<g>
	
		<rect x="18.192" y="5.396" transform="matrix(0.9988 0.0494 -0.0494 0.9988 0.3 -0.9397)" fill="#F3ECDF" width="1.916" height="0.4"/>
</g>
<g>
	
		<rect x="10.643" y="5.454" transform="matrix(0.6368 0.771 -0.771 0.6368 8.8817 -6.0312)" fill="#E1D0B4" width="0.4" height="1.916"/>
</g>
<g>
	
		<rect x="19.69" y="13.667" transform="matrix(0.9184 0.3957 -0.3957 0.9184 7.4098 -6.6768)" fill="#E1D0B4" width="0.4" height="1.914"/>
</g>
<g>
	
		<rect x="21.638" y="18.028" transform="matrix(0.1674 0.9859 -0.9859 0.1674 36.7842 -7.0994)" fill="#E1D0B4" width="1.914" height="0.4"/>
</g>
<g>
	
		<rect x="22.106" y="15.741" transform="matrix(0.3689 0.9295 -0.9295 0.3689 29.3714 -11.3771)" fill="#F3ECDF" width="1.916" height="0.4"/>
</g>
<g>
	
		<rect x="21.794" y="20.564" transform="matrix(0.6407 0.7678 -0.7678 0.6407 24.4281 -9.1536)" fill="#D2CEC0" width="0.399" height="1.915"/>
</g>
<g>
	
		<rect x="23.858" y="20.729" transform="matrix(0.8553 0.5181 -0.5181 0.8553 14.7157 -9.3268)" fill="#F3ECDF" width="0.4" height="1.914"/>
</g>
<g>
	
		<rect x="18.54" y="21.211" transform="matrix(0.1945 0.9809 -0.9809 0.1945 36.8747 -2.0813)" fill="#E1D0B4" width="2.33" height="0.4"/>
</g>
<g>
	
		<rect x="22.551" y="10.182" transform="matrix(0.9971 0.0765 -0.0765 0.9971 0.8627 -1.7672)" fill="#E1D0B4" width="1.916" height="0.4"/>
</g>
<g>
	
		<rect x="24.312" y="17.666" transform="matrix(0.6407 0.7678 -0.7678 0.6407 23.1073 -12.1281)" fill="#D2CEC0" width="0.399" height="1.915"/>
</g>
<g>
	
		<rect x="20.742" y="16.229" transform="matrix(0.9077 0.4197 -0.4197 0.9077 9.1465 -7.202)" fill="#D2CEC0" width="0.4" height="1.916"/>
</g>
<g>
	
		<rect x="23.684" y="12.181" transform="matrix(0.738 0.6748 -0.6748 0.738 14.8105 -13.3848)" fill="#E1D0B4" width="1.916" height="0.4"/>
</g>
<g>
	
		<rect x="2.91" y="1.786" transform="matrix(0.7416 0.6708 -0.6708 0.7416 2.6096 -1.391)" fill="#D2CEC0" width="0.4" height="1.812"/>
</g>
<g>
	
		<rect x="5.333" y="4.223" transform="matrix(0.6342 0.7732 -0.7732 0.6342 6.0295 -2.3832)" fill="#D2CEC0" width="0.4" height="1.914"/>
</g>
<g>
	
		<rect x="4.324" y="1.855" transform="matrix(0.289 0.9573 -0.9573 0.289 5.723 -3.5956)" fill="#F3ECDF" width="1.916" height="0.4"/>
</g>
<g>
	
		<rect x="21.632" y="13.43" transform="matrix(0.9938 0.1114 -0.1114 0.9938 1.6582 -2.4308)" fill="#E1D0B4" width="1.916" height="0.4"/>
</g>
<g>
	
		<rect x="2.445" y="21.338" transform="matrix(0.9188 0.3948 -0.3948 0.9188 9.0172 0.7667)" fill="#E1D0B4" width="0.401" height="1.914"/>
</g>
<g>
	
		<rect x="2.774" y="23.381" transform="matrix(0.6407 0.7678 -0.7678 0.6407 19.7562 6.462)" fill="#F3ECDF" width="0.399" height="1.915"/>
</g>
<g>
	
		<rect x="2.523" y="13.806" transform="matrix(0.769 0.6392 -0.6392 0.769 9.7572 1.0101)" fill="#E1D0B4" width="1.915" height="0.4"/>
</g>
<g>
	
		<rect x="22.533" y="1.724" transform="matrix(0.5263 0.8503 -0.8503 0.5263 13.0503 -18.0593)" fill="#F3ECDF" width="0.401" height="1.917"/>
</g>
<g>
	
		<rect x="21.977" y="4.253" transform="matrix(0.9432 0.3323 -0.3323 0.9432 2.9918 -7.0736)" fill="#E1D0B4" width="0.4" height="1.916"/>
</g>
<g>
	
		<rect x="-0.178" y="21.233" transform="matrix(0.7727 0.6348 -0.6348 0.7727 13.7413 4.4954)" fill="#E1D0B4" width="1.544" height="0.4"/>
</g>
<g>
	
		<rect x="0.148" y="13.994" transform="matrix(0.2757 0.9612 -0.9612 0.2757 14.0533 10.0654)" fill="#E1D0B4" width="0.4" height="0.729"/>
</g>
<g>
	
		<rect x="-0.221" y="10.663" transform="matrix(0.5027 0.8645 -0.8645 0.5027 9.4997 5.2132)" fill="#E1D0B4" width="0.88" height="0.4"/>
</g>
<g>
	
		<rect x="0.954" y="5.297" transform="matrix(0.2391 0.971 -0.971 0.2391 6.9514 3.6391)" fill="#E1D0B4" width="0.4" height="1.915"/>
</g>
<g>
	
		<rect x="1.419" y="11.172" transform="matrix(0.8542 0.5199 -0.5199 0.8542 6.5414 0.9264)" fill="#E1D0B4" width="0.4" height="1.914"/>
</g>
<g>
	
		<rect x="1.553" y="7.865" transform="matrix(0.6395 0.7688 -0.7688 0.6395 7.4147 1.8331)" fill="#D2CEC0" width="0.4" height="1.915"/>
</g>
<g>
	
		<rect x="3.192" y="7.434" transform="matrix(0.5065 0.8623 -0.8623 0.5065 8.6278 0.1944)" fill="#F3ECDF" width="1.905" height="0.4"/>
</g>
<g>
	
		<rect x="2.501" y="10.39" transform="matrix(0.5188 0.8549 -0.8549 0.5188 10.8273 1.9436)" fill="#E1D0B4" width="2.372" height="0.4"/>
</g>
<g>
	
		<rect x="1.416" y="14.489" transform="matrix(0.9827 0.1853 -0.1853 0.9827 2.8906 -0.032)" fill="#F3ECDF" width="0.4" height="1.916"/>
</g>
<g>
	
		<rect x="3.154" y="15.505" transform="matrix(0.6109 0.7917 -0.7917 0.6109 14.4762 3.8179)" fill="#E1D0B4" width="0.4" height="2.263"/>
</g>
<g>
	
		<rect x="4.24" y="23.11" transform="matrix(0.0754 0.9971 -0.9971 0.0754 28.0492 16.3684)" fill="#E1D0B4" width="1.916" height="0.4"/>
</g>
<g>
	
		<rect x="0.111" y="22.968" transform="matrix(0.6407 0.7678 -0.7678 0.6407 18.0599 8.1608)" fill="#E1D0B4" width="0.399" height="0.815"/>
</g>
<g>
	
		<rect x="14.482" y="5.23" transform="matrix(0.6414 0.7672 -0.7672 0.6414 10.1596 -8.9767)" fill="#E1D0B4" width="0.4" height="2.298"/>
</g>
<g>
	
		<rect x="16.268" y="6.572" transform="matrix(0.5028 0.8644 -0.8644 0.5028 14.4179 -11.5221)" fill="#E1D0B4" width="1.915" height="0.4"/>
</g>
<g>
	
		<rect x="14.819" y="8.094" transform="matrix(0.8934 0.4493 -0.4493 0.8934 5.4078 -6.2037)" fill="#F3ECDF" width="1.915" height="0.4"/>
</g>
<g>
	
		<rect x="11.81" y="16.154" transform="matrix(0.6354 0.7722 -0.7722 0.6354 17.5931 -3.0345)" fill="#F3ECDF" width="0.4" height="1.916"/>
</g>
<g>
	
		<rect x="7.957" y="19.419" transform="matrix(0.3693 0.9293 -0.9293 0.3693 24.0808 5.2716)" fill="#E1D0B4" width="0.399" height="1.915"/>
</g>
<g>
	
		<rect x="8.352" y="23.195" transform="matrix(0.4256 0.9049 -0.9049 0.4256 26.5732 4.929)" fill="#E1D0B4" width="2.104" height="0.4"/>
</g>
<g>
	
		<rect x="16.178" y="21.339" transform="matrix(0.9394 0.3427 -0.3427 0.9394 8.4196 -4.5682)" fill="#F3ECDF" width="1.915" height="0.399"/>
</g>
<g>
	
		<rect x="16.28" y="1.383" transform="matrix(0.9957 0.0927 -0.0927 0.9957 0.2905 -1.5181)" fill="#E1D0B4" width="0.4" height="1.968"/>
</g>
<g>
	
		<rect x="17.864" y="18.619" transform="matrix(0.9699 0.2437 -0.2437 0.9699 5.315 -3.8118)" fill="#E1D0B4" width="0.401" height="1.915"/>
</g>
<g>
	
		<rect x="15.084" y="21.582" transform="matrix(0.2882 0.9576 -0.9576 0.2882 32.4612 1.4077)" fill="#E1D0B4" width="0.4" height="1.915"/>
</g>
<g>
	
		<rect x="13.498" y="10.234" transform="matrix(0.7323 0.681 -0.681 0.7323 11.4956 -6.2508)" fill="#D2CEC0" width="0.4" height="2.523"/>
</g>
<g>
	
		<rect x="21.794" y="23.682" transform="matrix(0.3929 0.9196 -0.9196 0.3929 35.7716 -6.423)" fill="#E1D0B4" width="1.914" height="0.399"/>
</g>
<g>
	
		<rect x="25.085" y="16.418" transform="matrix(0.7726 0.6349 -0.6349 0.7726 16.3488 -12.405)" fill="#E1D0B4" width="0.809" height="0.4"/>
</g>
<g>
	
		<rect x="25.473" y="20.625" transform="matrix(0.7747 0.6324 -0.6324 0.7747 18.9516 -11.5331)" fill="#E1D0B4" width="0.371" height="0.401"/>
</g>
<g>
	
		<rect x="25.032" y="14.028" transform="matrix(0.2734 0.9619 -0.9619 0.2734 32.3971 -13.6468)" fill="#E1D0B4" width="0.4" height="1.186"/>
</g>
<g>
	
		<rect x="25.023" y="9.837" transform="matrix(0.5028 0.8644 -0.8644 0.5028 21.3744 -17.0879)" fill="#E1D0B4" width="1.037" height="0.4"/>
</g>
<g>
	
		<rect x="25.179" y="23.438" transform="matrix(0.6383 0.7698 -0.7698 0.6383 27.646 -10.8606)" fill="#E1D0B4" width="0.401" height="1.099"/>
</g>
<g>
	
		<rect x="22.33" y="7.196" transform="matrix(0.3934 0.9194 -0.9194 0.3934 20.9258 -16.9243)" fill="#E1D0B4" width="1.916" height="0.399"/>
</g>
<g>
	
		<rect x="25.277" y="19.223" transform="matrix(0.2102 0.9777 -0.9777 0.2102 39.2411 -9.4624)" fill="#D2CEC0" width="0.4" height="0.665"/>
</g>
<g>
	
		<rect x="0.408" y="18.727" transform="matrix(0.2149 0.9766 -0.9766 0.2149 19.3778 14.5998)" fill="#D2CEC0" width="0.4" height="1.251"/>
</g>
<g>
	
		<rect x="21.452" y="10.779" transform="matrix(0.2345 0.9721 -0.9721 0.2345 28.2133 -11.8833)" fill="#F3ECDF" width="0.4" height="2.387"/>
</g>
<g>
	
		<rect x="3.308" y="3.524" transform="matrix(0.5642 0.8256 -0.8256 0.5642 5.2285 -0.9433)" fill="#E1D0B4" width="0.4" height="1.915"/>
</g>
<g>
	
		<rect x="19.89" y="19.489" transform="matrix(0.7025 0.7117 -0.7117 0.7025 20.2145 -8.9798)" fill="#E1D0B4" width="1.916" height="0.401"/>
</g>
<g>
	
		<rect x="23.272" y="4.523" transform="matrix(0.4671 0.8842 -0.8842 0.4671 17.0886 -18.9074)" fill="#D2CEC0" width="1.915" height="0.4"/>
</g>
<g>
	
		<rect x="-0.003" y="7.804" transform="matrix(0.9971 0.0758 -0.0758 0.9971 0.6075 -0.0016)" fill="#E1D0B4" width="0.657" height="0.4"/>
</g>
<g>
	
		<rect x="24.547" y="7.731" transform="matrix(0.9971 0.0761 -0.0761 0.9971 0.6766 -1.8929)" fill="#E1D0B4" width="1.258" height="0.4"/>
</g>
<g>
	
		<rect x="10.904" y="9.802" transform="matrix(0.2197 0.9756 -0.9756 0.2197 19.1686 -3.9626)" fill="#E1D0B4" width="2.315" height="0.4"/>
</g>
<g>
	
		<rect x="18.116" y="17.047" transform="matrix(0.1957 0.9807 -0.9807 0.1957 32.2545 -4.833)" fill="#E1D0B4" width="1.916" height="0.4"/>
</g>
<g>
	
		<rect x="21.03" y="8.308" transform="matrix(0.8747 0.4847 -0.4847 0.8747 6.8799 -9.5919)" fill="#E1D0B4" width="1.916" height="0.4"/>
</g>
<g>
	
		<rect x="14.283" y="23.961" transform="matrix(0.9582 0.2861 -0.2861 0.9582 7.5461 -3.3257)" fill="#F3ECDF" width="1.741" height="0.4"/>
</g>
<g>
	
		<rect x="8.948" y="0.821" transform="matrix(0.9945 0.1051 -0.1051 0.9945 0.2375 -0.9512)" fill="#D2CEC0" width="0.4" height="1.915"/>
</g>
<g>
	
		<rect x="-0.081" y="3.484" transform="matrix(0.1872 0.9823 -0.9823 0.1872 4.5258 1.8977)" fill="#F3ECDF" width="2.395" height="0.4"/>
</g>
<g>
	
		<rect x="25.298" y="1.947" transform="matrix(0.9371 0.349 -0.349 0.9371 2.5853 -8.7216)" fill="#E1D0B4" width="0.4" height="1.736"/>
</g>
<g>
	
		<rect x="20.795" y="23.534" transform="matrix(0.9122 0.4098 -0.4098 0.9122 11.8771 -6.453)" fill="#E1D0B4" width="0.4" height="1.906"/>
</g>
<g>
	
		<rect x="12.837" y="24.7" transform="matrix(0.9499 0.3126 -0.3126 0.9499 8.5501 -2.8091)" fill="#E1D0B4" width="0.4" height="1.13"/>
</g>
<g>
	
		<rect x="9.494" y="25.344" transform="matrix(0.5749 0.8182 -0.8182 0.5749 25.0706 2.8322)" fill="#E1D0B4" width="0.63" height="0.4"/>
</g>
<g>
	
		<rect x="3.169" y="25.126" transform="matrix(0.9756 0.2195 -0.2195 0.9756 5.6728 -0.1184)" fill="#E1D0B4" width="0.4" height="0.684"/>
</g>
<g>
	
		<rect x="5.897" y="24.589" transform="matrix(0.5858 0.8104 -0.8104 0.5858 23.0716 5.5592)" fill="#E1D0B4" width="0.4" height="1.528"/>
</g>
<g>
	
		<rect x="0.306" y="25.11" transform="matrix(0.189 0.982 -0.982 0.189 25.5085 19.7341)" fill="#E1D0B4" width="1.002" height="0.4"/>
</g>
<g>
	
		<rect x="24.863" y="25.385" transform="matrix(0.8553 0.5181 -0.5181 0.8553 16.894 -9.2798)" fill="#E1D0B4" width="0.4" height="0.45"/>
</g>
<g>
	
		<rect x="14.906" y="25.344" transform="matrix(0.0379 0.9993 -0.9993 0.0379 40.1157 9.4248)" fill="#E1D0B4" width="0.516" height="0.401"/>
</g>
<g>
	
		<rect x="6.916" y="24.826" transform="matrix(0.168 0.9858 -0.9858 0.168 31.079 13.2275)" fill="#E1D0B4" width="1.575" height="0.4"/>
</g>
<g>
	
		<rect x="16.403" y="25.198" transform="matrix(0.4873 0.8733 -0.8733 0.4873 30.8269 -1.7055)" fill="#E1D0B4" width="0.926" height="0.4"/>
</g>
<g>
	<line fill="#E1D0B4" x1="18.228" y1="-0.001" x2="18.21" y2="-0.011"/>
</g>
<g>
	
		<rect x="18.094" y="0.284" transform="matrix(0.859 0.5119 -0.5119 0.859 2.9321 -9.68)" fill="#E1D0B4" width="1.896" height="0.4"/>
</g>
<g>
	
		<rect x="12.436" y="-0.037" transform="matrix(0.9506 0.3104 -0.3104 0.9506 0.8386 -3.8876)" fill="#E1D0B4" width="0.4" height="1.457"/>
</g>
<g>
	
		<rect x="9.632" y="0.493" transform="matrix(0.5768 0.8169 -0.8169 0.5768 5.0022 -8.2695)" fill="#E1D0B4" width="1.7" height="0.4"/>
</g>
<g>
	
		<rect x="21.811" y="-0.321" transform="matrix(0.6342 0.7732 -0.7732 0.6342 8.4802 -16.8166)" fill="#F3ECDF" width="0.4" height="1.749"/>
</g>
<g>
	
		<rect x="2.961" y="-0.016" transform="matrix(0.9761 0.2172 -0.2172 0.9761 0.2055 -0.6723)" fill="#E1D0B4" width="0.4" height="1.229"/>
</g>
<g>
	
		<rect x="5.169" y="-0.057" transform="matrix(0.5858 0.8104 -0.8104 0.5858 2.286 -4.3189)" fill="#E1D0B4" width="0.4" height="0.268"/>
</g>
<g>
	
		<rect x="0.532" y="0.247" transform="matrix(0.1877 0.9822 -0.9822 0.1877 1.2409 -0.6068)" fill="#E1D0B4" width="0.911" height="0.4"/>
</g>
<g>
	
		<rect x="24.368" y="-0.107" transform="matrix(0.8553 0.5181 -0.5181 0.8553 3.8783 -12.6378)" fill="#E1D0B4" width="0.4" height="1.465"/>
</g>
<g>
	<rect x="14.528" y="0.493" transform="matrix(0.0077 1 -1 0.0077 15.7978 -14.5347)" fill="#D2CEC0" width="1.389" height="0.4"/>
</g>
<g>
	<line fill="#E1D0B4" x1="15.216" y1="-0.001" x2="15.216" y2="-0.08"/>
</g>
<g>
	
		<rect x="7.693" y="-0.034" transform="matrix(0.1663 0.9861 -0.9861 0.1663 6.7205 -7.6155)" fill="#E1D0B4" width="0.341" height="0.4"/>
</g>
<g>
	
		<rect x="16.895" y="0.134" transform="matrix(0.4893 0.8721 -0.8721 0.4893 9.1165 -14.8992)" fill="#E1D0B4" width="0.77" height="0.4"/>
</g>
</svg>
