<?xml version="1.0" encoding="UTF-8"?>
<svg width="14px" height="10px" viewBox="0 0 14 10" version="1.1" xmlns="http://www.w3.org/2000/svg" xmlns:xlink="http://www.w3.org/1999/xlink">
    <!-- Generator: Sketch 42 (36781) - http://www.bohemiancoding.com/sketch -->
    <title>type-icon/association-on</title>
    <desc>Created with Sketch.</desc>
    <defs></defs>
    <g id="Page-1" stroke="none" stroke-width="1" fill="none" fill-rule="evenodd" opacity="0.900000036">
        <g id="assets" transform="translate(-144.000000, -86.000000)" fill="#3A62FF">
            <g id="type-icon/association-active" transform="translate(136.000000, 76.000000)">
                <path d="M17.3684542,14.6986296 C17.5683251,14.6779135 17.7787284,14.6666667 18,14.6666667 C20.8,14.6666667 21.8596907,16.4675872 21.8596907,16.4675872 C21.9371814,16.5775357 22,16.7741954 22,16.9119059 L22,18.1619822 C22,18.4407117 21.7692032,18.6666667 21.4995642,18.6666667 L19.7333333,18.6666667 L19.7333333,18.3302593 C19.7333333,18.000952 19.5989646,17.5768034 19.4044023,17.3082712 C19.269833,17.0694029 18.9270086,16.6659354 18.3842457,16.2744856 C17.8978729,15.9237054 17.3344129,15.6518328 16.6930344,15.4793433 C16.9645716,15.2648287 17.1944246,14.9998777 17.3684542,14.6986296 Z M12.6315458,14.6986296 C12.4316749,14.6779135 12.2212716,14.6666667 12,14.6666667 C9.2,14.6666667 8.14030933,16.4675872 8.14030933,16.4675872 C8.05703125,16.5807292 8,16.776464 8,16.9119059 L8,18.1619822 C8,18.4526316 8.22405275,18.6666667 8.50043583,18.6666667 L10.2666667,18.6666667 L10.2666667,18.3302593 C10.2666667,17.9844422 10.4103589,17.548215 10.5682901,17.3544263 C10.7416405,17.0550633 11.0825693,16.6540092 11.6236167,16.2653581 C12.1067667,15.9182965 12.6671259,15.6492496 13.3056513,15.4783043 C13.0346867,15.2639734 12.8052946,14.9993916 12.6315458,14.6986296 Z M17.6585611,13.9709701 C17.769516,13.9900556 17.8835967,14 18,14 C19.1045695,14 20,13.1045695 20,12 C20,10.8954305 19.1045695,10 18,10 C17.2878058,10 16.6625569,10.3722568 16.3082138,10.9328098 C17.1573359,11.3965376 17.7333333,12.2976698 17.7333333,13.3333333 C17.7333333,13.5528868 17.7074474,13.7663942 17.6585611,13.9709701 Z M13.6917862,10.9328098 C13.3374431,10.3722568 12.7121942,10 12,10 C10.8954305,10 10,10.8954305 10,12 C10,13.1045695 10.8954305,14 12,14 C12.1164033,14 12.230484,13.9900556 12.3414389,13.9709701 C12.2925526,13.7663942 12.2666667,13.5528868 12.2666667,13.3333333 C12.2666667,12.2976698 12.8426641,11.3965376 13.6917862,10.9328098 Z M11,18.2452393 C11,18.1097974 11.0570312,17.9140625 11.1403093,17.8009205 C11.1403093,17.8009205 12.2,16 15,16 C17.8,16 18.8596907,17.8009205 18.8596907,17.8009205 C18.9371814,17.9108691 19,18.1075287 19,18.2452393 L19,19.4953156 C19,19.7740451 18.7692032,20 18.4995642,20 L11.5004358,20 C11.2240528,20 11,19.785965 11,19.4953156 L11,18.2452393 Z M15,15.3333333 C16.1045695,15.3333333 17,14.4379028 17,13.3333333 C17,12.2287638 16.1045695,11.3333333 15,11.3333333 C13.8954305,11.3333333 13,12.2287638 13,13.3333333 C13,14.4379028 13.8954305,15.3333333 15,15.3333333 Z" id="Combined-Shape"></path>
            </g>
        </g>
    </g>
</svg>