<?xml version="1.0" encoding="UTF-8"?>
<svg width="10px" height="10px" viewBox="0 0 10 10" version="1.1" xmlns="http://www.w3.org/2000/svg" xmlns:xlink="http://www.w3.org/1999/xlink">
    <!-- Generator: Sketch 42 (36781) - http://www.bohemiancoding.com/sketch -->
    <title>type-icon/person</title>
    <desc>Created with Sketch.</desc>
    <defs></defs>
    <g id="Page-1" stroke="none" stroke-width="1" fill="none" fill-rule="evenodd" opacity="0.900000036">
        <g id="assets" transform="translate(-96.000000, -45.000000)" fill="#343434">
            <g id="type-icon/person" transform="translate(86.000000, 36.000000)">
                <path d="M10,17.2452393 C10,17.1097974 10.0712891,16.9140625 10.161499,16.8154297 C10.161499,16.8154297 11.5,15 15,15 C18.5,15 19.838501,16.8154297 19.838501,16.8154297 C19.9276944,16.9173651 20,17.1075287 20,17.2452393 L20,18.4953156 C20,18.7740451 19.7723472,19 19.4903505,19 L10.5096495,19 C10.2281779,19 10,18.785965 10,18.4953156 L10,17.2452393 Z M15,14 C13.6192881,14 12.5,12.8807119 12.5,11.5 C12.5,10.1192881 13.6192881,9 15,9 C16.3807119,9 17.5,10.1192881 17.5,11.5 C17.5,12.8807119 16.3807119,14 15,14 Z" id="Combined-Shape"></path>
            </g>
        </g>
    </g>
</svg>