<?xml version="1.0" encoding="UTF-8"?>
<svg width="14px" height="10px" viewBox="0 0 14 10" version="1.1" xmlns="http://www.w3.org/2000/svg" xmlns:xlink="http://www.w3.org/1999/xlink">
    <!-- Generator: Sketch 42 (36781) - http://www.bohemiancoding.com/sketch -->
    <title>type-icon/project-on</title>
    <desc>Created with Sketch.</desc>
    <defs></defs>
    <g id="Page-1" stroke="none" stroke-width="1" fill="none" fill-rule="evenodd" opacity="0.900000036">
        <g id="assets" transform="translate(-44.000000, -86.000000)" fill="#3A62FF">
            <g id="type-icon/research-active" transform="translate(36.000000, 76.000000)">
                <path d="M8,10.9953976 C8,10.4456547 8.44994876,10 9.00684547,10 L20.9931545,10 C21.5492199,10 22,10.4556644 22,10.9953976 L22,19.0046024 C22,19.5543453 21.5500512,20 20.9931545,20 L9.00684547,20 C8.45078007,20 8,19.5443356 8,19.0046024 L8,10.9953976 Z M17,17.5 C17,17.2238576 17.2296448,17 17.5014647,17 L19.9985353,17 C20.2754866,17 20.5,17.2319336 20.5,17.5 L20.5,17.5 C20.5,17.7761424 20.2703552,18 19.9985353,18 L17.5014647,18 C17.2245134,18 17,17.7680664 17,17.5 L17,17.5 Z M17,15 C17,14.7238576 17.2296448,14.5 17.5014647,14.5 L19.9985353,14.5 C20.2754866,14.5 20.5,14.7319336 20.5,15 L20.5,15 C20.5,15.2761424 20.2703552,15.5 19.9985353,15.5 L17.5014647,15.5 C17.2245134,15.5 17,15.2680664 17,15 L17,15 Z M17,12.5 C17,12.2238576 17.2296448,12 17.5014647,12 L19.9985353,12 C20.2754866,12 20.5,12.2319336 20.5,12.5 L20.5,12.5 C20.5,12.7761424 20.2703552,13 19.9985353,13 L17.5014647,13 C17.2245134,13 17,12.7680664 17,12.5 L17,12.5 Z M9.5,17.2523422 C9.5,17.1129775 9.56706238,16.9015808 9.65217781,16.7914314 C9.65217781,16.7914314 10.4,15.5 12.5,15.5 C14.6,15.5 15.3579186,16.8039012 15.3579186,16.8039012 C15.436388,16.9122036 15.5,17.1070175 15.5,17.2523422 L15.5,17.5 C15.5,17.7761424 15.2721195,18 15.0089948,18 L9.99100518,18 C9.71983051,18 9.5,17.7680664 9.5,17.5 L9.5,17.2523422 Z M12.5,15 C13.3284271,15 14,14.3284271 14,13.5 C14,12.6715729 13.3284271,12 12.5,12 C11.6715729,12 11,12.6715729 11,13.5 C11,14.3284271 11.6715729,15 12.5,15 Z" id="Combined-Shape"></path>
            </g>
        </g>
    </g>
</svg>