<?xml version="1.0" encoding="UTF-8" standalone="no"?>
<svg width="20px" height="20px" viewBox="0 0 20 20" version="1.1" xmlns="http://www.w3.org/2000/svg" xmlns:xlink="http://www.w3.org/1999/xlink">
    <!-- Generator: Sketch 3.8.3 (29802) - http://www.bohemiancoding.com/sketch -->
    <title>search</title>
    <desc>Created with Sketch.</desc>
    <defs></defs>
    <g id="Symbols" stroke="none" stroke-width="1" fill="none" fill-rule="evenodd">
        <g id="search">
            <g>
                <ellipse id="Oval-1566" fill="#FFFFFF" cx="10" cy="10" rx="10" ry="10"></ellipse>
                <path d="M11.7142949,9.28570867 C11.7142949,10.9397285 10.3683112,12.2857122 8.71429133,12.2857122 C7.06027151,12.2857122 5.71428776,10.9397285 5.71428776,9.28570867 C5.71428776,7.63168884 7.06027151,6.28570509 8.71429133,6.28570509 C10.3683112,6.28570509 11.7142949,7.63168884 11.7142949,9.28570867 L11.7142949,9.28570867 Z M15.1428704,14.8571439 C15.1428704,14.629465 15.0491203,14.4084826 14.8951023,14.2544646 L12.5982245,11.9575869 C13.1406359,11.1741038 13.4285827,10.2366027 13.4285827,9.28570867 C13.4285827,6.68079485 11.3192052,4.57141733 8.71429133,4.57141733 C6.10937751,4.57141733 4,6.68079485 4,9.28570867 C4,11.8906225 6.10937751,14 8.71429133,14 C9.66518532,14 10.6026864,13.7120532 11.3861695,13.1696419 L13.6830473,15.4598232 C13.8370653,15.6205376 14.0580477,15.7142878 14.2857265,15.7142878 C14.7544771,15.7142878 15.1428704,15.3258944 15.1428704,14.8571439 L15.1428704,14.8571439 Z" id="" fill="#5D8599"></path>
            </g>
        </g>
    </g>
</svg>