<?xml version="1.0" encoding="UTF-8"?>
<svg width="9px" height="9px" viewBox="0 0 9 9" version="1.1" xmlns="http://www.w3.org/2000/svg" xmlns:xlink="http://www.w3.org/1999/xlink">
    <!-- Generator: Sketch 42 (36781) - http://www.bohemiancoding.com/sketch -->
    <title>type-icon/hashtag-on</title>
    <desc>Created with Sketch.</desc>
    <defs></defs>
    <g id="Page-1" stroke="none" stroke-width="1" fill="none" fill-rule="evenodd" opacity="0.900000036">
        <g id="assets" transform="translate(-297.000000, -86.000000)" fill-rule="nonzero" fill="#3A62FF">
            <g id="type-icon/tag-active" transform="translate(286.000000, 76.000000)">
                <path d="M13.6719002,10.4279121 L12.5052335,18.4279121 C12.4653843,18.701164 12.6545946,18.9549827 12.9278466,18.994832 C13.2010985,19.0346812 13.4549172,18.8454709 13.4947665,18.572219 L14.6614332,10.572219 C14.7012824,10.298967 14.5120721,10.0451483 14.2388201,10.005299 C13.9655681,9.96544977 13.7117494,10.1546601 13.6719002,10.4279121 Z M17.0038611,10.4380481 L16.0038611,18.4380481 C15.9696098,18.7120581 16.1639727,18.9619532 16.4379826,18.9962044 C16.7119926,19.0304557 16.9618877,18.8360928 16.9961389,18.5620829 L17.9961389,10.5620829 C18.0303902,10.2880729 17.8360273,10.0381778 17.5620174,10.0039266 C17.2880074,9.96967532 17.0381123,10.1640382 17.0038611,10.4380481 Z M11.5,17.0000655 L18.5,17.0000655 C18.7761424,17.0000655 19,16.7762079 19,16.5000655 C19,16.2239231 18.7761424,16.0000655 18.5,16.0000655 L11.5,16.0000655 C11.2238576,16.0000655 11,16.2239231 11,16.5000655 C11,16.7762079 11.2238576,17.0000655 11.5,17.0000655 Z M12.1666667,13.0000655 L19,13.0000655 C19.2761424,13.0000655 19.5,12.7762079 19.5,12.5000655 C19.5,12.2239231 19.2761424,12.0000655 19,12.0000655 L12.1666667,12.0000655 C11.8905243,12.0000655 11.6666667,12.2239231 11.6666667,12.5000655 C11.6666667,12.7762079 11.8905243,13.0000655 12.1666667,13.0000655 Z" id="Combined-Shape"></path>
            </g>
        </g>
    </g>
</svg>